<?xml version="1.0" standalone="no"?>
<!DOCTYPE svg PUBLIC "-//W3C//DTD SVG 1.1//EN" "http://www.w3.org/Graphics/SVG/1.1/DTD/svg11.dtd" >
<svg xmlns="http://www.w3.org/2000/svg" xmlns:xlink="http://www.w3.org/1999/xlink" version="1.1">
<metadata>
Created by FontForge 20170910 at Sun Dec 22 14:43:28 2013
 By jimmywarting
Copyright 2004-2013 SUDTIPOS. Disenada por Alejandro Paul y Alfredo Graziani. Todos los derechos reservados.
</metadata>
<defs>
<font id="Politica-Black" horiz-adv-x="538" >
  <font-face 
    font-family="Politica"
    font-weight="900"
    font-stretch="normal"
    units-per-em="1000"
    panose-1="0 0 10 0 0 0 0 0 0 0"
    ascent="829"
    descent="-171"
    x-height="560"
    cap-height="800"
    bbox="-204 -290 1289 1168"
    underline-thickness="50"
    underline-position="-100"
    unicode-range="U+0020-FB02"
  />
<missing-glyph horiz-adv-x="182" 
d="M102 481c0 -15 -22 -15 -22 0s22 15 22 0zM91 0c-15 0 -15 22 0 22s15 -22 0 -22z" />
    <glyph glyph-name="fi" unicode="fi" horiz-adv-x="640" 
d="M548 150h69v-160h-75c-47 -1 -86 15 -119 48s-49 72 -49 118v246h-163v-389c-1 -46 -19 -85 -53 -117c-33 -33 -75 -49 -124 -49v160c11 0 17 7 17 20v375h-42v158h42v41c0 45 16 84 49 116s72 48 119 48h108v-160h-102c-9 0 -14 -5 -14 -15v-30h323v-394
c0 -11 5 -16 14 -16zM535 765v-106h-160v106h160z" />
    <glyph glyph-name="fl" unicode="fl" horiz-adv-x="674" 
d="M581 150h69v-160h-75c-47 -1 -86 15 -119 48s-49 72 -49 118v449h-182c-9 0 -14 -5 -14 -15v-30h72v-158h-72v-389c-1 -46 -19 -85 -53 -117c-33 -33 -75 -49 -124 -49v160c11 0 17 7 17 20v375h-42v158h42v41c0 45 16 84 49 116s72 48 119 48h343v-1h5v-598
c0 -11 5 -16 14 -16z" />
    <glyph glyph-name=".notdef" horiz-adv-x="182" 
d="M102 481c0 -15 -22 -15 -22 0s22 15 22 0zM91 0c-15 0 -15 22 0 22s15 -22 0 -22z" />
    <glyph glyph-name="NULL" horiz-adv-x="0" 
 />
    <glyph glyph-name="CR" horiz-adv-x="333" 
 />
    <glyph glyph-name="space" unicode=" " horiz-adv-x="222" 
 />
    <glyph glyph-name="exclam" unicode="!" horiz-adv-x="278" 
d="M59 796h160v-590h-160v590zM59 106h160v-106h-160v106z" />
    <glyph glyph-name="quotedbl" unicode="&#x22;" horiz-adv-x="441" 
d="M48 764h160v-258h-160v258zM233 764h160v-258h-160v258z" />
    <glyph glyph-name="numbersign" unicode="#" horiz-adv-x="735" 
d="M676 422h-120l-19 -63h104v-139h-145l-36 -121l-161 2l36 119h-76l-36 -121l-161 2l36 119h-38v139h80l18 63h-63v139h105l33 109h159l-32 -109h78l33 109h158l-32 -109h79v-139zM377 359l19 63h-77l-19 -63h77z" />
    <glyph glyph-name="dollar" unicode="$" 
d="M483 509h-160v18c0 10 -5 15 -14 15h-80c-10 0 -15 -5 -15 -15v-8c0 -23 32 -34 95 -62l29 -13c16 -7 26 -11 29 -13l24 -12c13 -6 20 -10 23 -13s10 -7 19 -14c20 -13 19 -21 31 -38c15 -20 19 -51 19 -87v-26c0 -40 -13 -73 -39 -100c-25 -27 -57 -40 -94 -40h-4v-101
h-139v101h-20c-37 0 -68 13 -94 39s-39 57 -39 94v61h160v-39c0 -10 5 -15 15 -15h80c10 0 15 5 15 15v16c0 12 -2 20 -14 28c-5 4 -10 7 -15 9c-8 5 -40 19 -57 27c-10 5 -26 11 -47 20s-36 15 -45 20l-36 21c-38 28 -52 59 -56 126v18c1 85 58 140 133 140h20v84h139v-84
h4c37 0 69 -13 94 -39c26 -25 39 -57 39 -94v-39z" />
    <glyph glyph-name="percent" unicode="%" horiz-adv-x="927" 
d="M585 798h89l-319 -798h-89zM284 355h-101c-36 0 -68 12 -95 35s-40 51 -40 83v184c0 33 13 60 40 83s59 35 95 35h101c37 0 68 -12 94 -35c27 -23 40 -50 40 -83v-184c0 -33 -13 -61 -40 -84c-26 -23 -57 -34 -94 -34zM203 474h60c11 0 17 5 17 14v154c0 9 -6 14 -17 14
h-60c-11 0 -16 -5 -16 -14v-154c0 -9 5 -14 16 -14zM508 108v183c0 33 13 61 40 84s59 35 95 35h101c37 0 68 -12 95 -35s40 -51 40 -84v-183c0 -33 -13 -61 -40 -84s-58 -34 -95 -34h-101c-35 0 -67 12 -94 35s-41 51 -41 83zM647 277v-154c0 -9 5 -14 16 -14h61
c11 0 16 5 16 14v154c0 9 -5 14 -16 14h-61c-11 0 -16 -5 -16 -14z" />
    <glyph glyph-name="ampersand" unicode="&#x26;" horiz-adv-x="636" 
d="M201 775h171c40 0 74 -14 102 -42s42 -62 42 -102v-63h-160v44c0 9 -5 14 -14 14h-111c-9 0 -14 -5 -14 -14v-124c0 -13 5 -20 14 -20h65v-149h-74c-9 0 -14 -7 -14 -20v-140c0 -13 5 -20 14 -20h118c11 0 16 7 16 20v309h260v-160h-100v-174c0 -40 -14 -74 -42 -102
s-62 -42 -102 -42h-180c-40 0 -74 14 -102 42s-42 62 -42 102v167c0 52 21 86 62 101c-35 13 -53 41 -53 84v145c0 40 14 74 42 102s62 42 102 42z" />
    <glyph glyph-name="quotesingle" unicode="'" horiz-adv-x="256" 
d="M48 764h160v-258h-160v258z" />
    <glyph glyph-name="parenleft" unicode="(" horiz-adv-x="380" 
d="M371 -82h-175c-106 134 -159 288 -159 462c0 177 53 331 159 462h175c-112 -139 -179 -302 -179 -462c0 -158 60 -312 179 -462z" />
    <glyph glyph-name="parenright" unicode=")" horiz-adv-x="380" 
d="M184 -82h-175c119 150 179 304 179 462c0 160 -67 323 -179 462h175c106 -131 159 -285 159 -462c0 -174 -53 -328 -159 -462z" />
    <glyph glyph-name="asterisk" unicode="*" horiz-adv-x="424" 
d="M49 501l81 79l-82 24v128l99 -29v74h122v-74l107 29v-128l-90 -24l86 -86l-86 -87l-78 83l-67 -71z" />
    <glyph glyph-name="plus" unicode="+" 
d="M181 265h-87v176h87v74h177v-74h86v-176h-86v-100h-177v100z" />
    <glyph glyph-name="comma" unicode="," horiz-adv-x="278" 
d="M219 155v-311h-160v311h160z" />
    <glyph glyph-name="hyphen" unicode="-" horiz-adv-x="413" 
d="M45 431h323v-159h-323v159z" />
    <glyph glyph-name="period" unicode="." horiz-adv-x="263" 
d="M48 82c0 47 38 85 82 85c47 0 85 -38 85 -85c0 -44 -38 -82 -85 -82c-44 0 -82 38 -82 82z" />
    <glyph glyph-name="slash" unicode="/" horiz-adv-x="514" 
d="M365 860h140l-356 -920h-140z" />
    <glyph glyph-name="zero" unicode="0" 
d="M198 775h141c40 0 74 -14 102 -42s42 -62 42 -102v-497c0 -40 -14 -74 -42 -102s-62 -42 -102 -42h-141c-40 0 -74 14 -102 42s-42 62 -42 102v497c0 40 14 74 42 102s62 42 102 42zM307 626h-79c-9 0 -14 -5 -14 -14v-459c0 -9 5 -14 14 -14h79c11 0 16 5 16 14v459
c0 9 -5 14 -16 14z" />
    <glyph glyph-name="one" unicode="1" 
d="M376 160h137v-160h-459v160h162v445h-162v160h322v-605z" />
    <glyph glyph-name="two" unicode="2" 
d="M190 776h157c40 0 74 -16 102 -47s42 -69 42 -114v-24c0 -31 -4 -60 -11 -87c-13 -53 -31 -84 -64 -120c-17 -18 -31 -32 -44 -42c-13 -9 -29 -22 -49 -37l-44 -33c-40 -29 -68 -79 -68 -112h280v-160h-445v85c0 141 35 239 104 292c12 9 33 23 62 42c30 20 51 35 63 45
c25 20 56 63 56 110v35c0 12 -5 18 -15 18h-94c-11 0 -16 -10 -16 -30h-160c0 50 14 92 42 127s62 52 102 52z" />
    <glyph glyph-name="three" unicode="3" 
d="M478 631v-130c0 -41 -16 -67 -49 -79c36 -13 54 -42 54 -89v-199c0 -40 -14 -74 -42 -102s-62 -42 -102 -42h-141c-40 0 -74 14 -102 42s-42 62 -42 102v147h160v-122c0 -13 6 -20 17 -20h77c10 0 15 7 15 20v155c0 13 -5 20 -15 20h-76v148h72c9 0 14 7 14 20v110
c0 9 -5 14 -14 14h-75c-10 0 -15 -5 -15 -14v-52h-160v71c0 40 14 74 42 102s62 42 102 42h136c40 0 74 -14 102 -42s42 -62 42 -102z" />
    <glyph glyph-name="four" unicode="4" 
d="M474 765v-506h52v-160h-52v-99h-160v99h-322l204 666h278zM314 605h-14l-90 -346h104v346z" />
    <glyph glyph-name="five" unicode="5" 
d="M483 764v-159h-246v-111h102c40 0 74 -14 102 -42s42 -62 42 -102v-216c0 -40 -14 -74 -42 -102s-62 -42 -102 -42h-141c-40 0 -74 14 -102 42s-42 62 -42 102v148h160v-129c0 -9 5 -14 14 -14h79c11 0 16 5 16 14v167c0 9 -5 14 -16 14h-230v430h406z" />
    <glyph glyph-name="six" unicode="6" 
d="M483 567h-160v45c0 9 -5 14 -16 14h-79c-9 0 -14 -5 -14 -14v-178h125c40 0 74 -14 102 -42s42 -62 42 -102v-156c0 -40 -14 -74 -42 -102s-62 -42 -102 -42h-141c-40 0 -74 14 -102 42s-42 62 -42 102v497c0 40 14 74 42 102s62 42 102 42h141c40 0 74 -14 102 -42
s42 -62 42 -102v-64zM307 285h-79c-9 0 -14 -5 -14 -14v-118c0 -9 5 -14 14 -14h79c11 0 16 5 16 14v118c0 9 -5 14 -16 14z" />
    <glyph glyph-name="seven" unicode="7" 
d="M505 770l-244 -770h-159l195 610h-222v160h430z" />
    <glyph glyph-name="eight" unicode="8" 
d="M478 631v-114c0 -44 -20 -77 -60 -98c43 -21 65 -55 65 -101v-184c0 -40 -14 -74 -42 -102s-62 -42 -102 -42h-141c-40 0 -74 14 -102 42s-42 62 -42 102v184c0 47 22 80 65 101c-41 20 -61 53 -61 98v114c0 40 14 74 42 102s62 42 102 42h132c40 0 74 -14 102 -42
s42 -62 42 -102zM218 612v-100c0 -9 5 -14 15 -14h70c10 0 15 5 15 14v100c0 9 -5 14 -15 14h-70c-10 0 -15 -5 -15 -14zM323 153v163c0 9 -5 14 -16 14h-79c-9 0 -14 -5 -14 -14v-163c0 -9 5 -14 14 -14h79c11 0 16 5 16 14z" />
    <glyph glyph-name="nine" unicode="9" 
d="M214 203v-45c0 -9 5 -14 16 -14h79c9 0 14 5 14 14v178h-125c-40 0 -74 14 -102 42s-42 62 -42 102v156c0 40 14 74 42 102s62 42 102 42h141c40 0 74 -14 102 -42s42 -62 42 -102v-497c0 -40 -14 -74 -42 -102s-62 -42 -102 -42h-141c-40 0 -74 14 -102 42
s-42 62 -42 102v64h160zM230 485h79c9 0 14 5 14 14v118c0 9 -5 14 -14 14h-79c-11 0 -16 -5 -16 -14v-118c0 -9 5 -14 16 -14z" />
    <glyph glyph-name="colon" unicode=":" horiz-adv-x="263" 
d="M130 339c-44 0 -82 38 -82 82c0 45 38 85 82 85c47 0 85 -38 85 -85c0 -44 -38 -82 -85 -82zM48 82c0 47 38 85 82 85c47 0 85 -38 85 -85c0 -44 -38 -82 -85 -82c-44 0 -82 38 -82 82z" />
    <glyph glyph-name="semicolon" unicode=";" horiz-adv-x="264" 
d="M131 366c-44 0 -82 37 -82 82s38 83 82 83c47 0 85 -38 85 -83s-38 -82 -85 -82zM208 -156h-160v311h160v-311z" />
    <glyph glyph-name="less" unicode="&#x3c;" 
d="M89 412l222 256l130 -54l-179 -202l187 -209l-129 -55z" />
    <glyph glyph-name="equal" unicode="=" 
d="M94 539h350v-160h-350v160zM94 324h350v-161h-350v161z" />
    <glyph glyph-name="greater" unicode="&#x3e;" 
d="M276 412l-179 202l131 54l221 -256l-230 -264l-130 55z" />
    <glyph glyph-name="question" unicode="?" horiz-adv-x="513" 
d="M165 806h183c37 0 69 -13 94 -39c26 -26 39 -57 39 -94v-137c0 -85 -51 -141 -130 -141h-32c-10 0 -15 -5 -15 -15v-185h-160v180c0 55 13 95 40 119s55 36 86 36h36c10 0 15 5 15 15v112c0 10 -5 15 -15 15h-99c-10 0 -15 -5 -15 -15v-88h-160v104c0 37 13 68 39 94
s57 39 94 39zM304 106v-106h-160v106h160z" />
    <glyph glyph-name="at" unicode="@" horiz-adv-x="831" 
d="M336 644h150c87 0 159 -28 214 -84c55 -55 83 -127 83 -214v-126c0 -32 -15 -60 -45 -83c-29 -23 -64 -35 -104 -35h-180v62c-21 -15 -36 -26 -47 -33c-20 -13 -63 -34 -95 -34c-47 0 -79 39 -79 96v147c0 79 34 133 103 133h145c33 0 60 -13 83 -39s34 -57 34 -94v-84
h15c7 0 10 3 10 10v74c0 91 -59 154 -142 154h-144c-81 0 -129 -58 -129 -155v-147c0 -72 40 -116 104 -116h139v-150h-127c-172 0 -276 91 -276 240v170c0 193 108 308 288 308zM444 351h-57c-7 0 -11 -3 -11 -10v-99c0 -12 4 -18 13 -18c7 0 18 5 33 15s25 19 32 28v74
c0 7 -3 10 -10 10z" />
    <glyph glyph-name="A" unicode="A" horiz-adv-x="599" 
d="M421 0l-21 159h-204l-21 -159h-160l121 766c3 17 23 34 43 34h237c20 0 40 -17 43 -34l122 -766h-160zM217 319h162l-40 302c-1 13 -5 19 -13 19h-56c-8 0 -12 -6 -13 -19z" />
    <glyph glyph-name="B" unicode="B" horiz-adv-x="567" 
d="M59 800h251c81 0 135 -13 163 -39c29 -25 43 -75 43 -149v-76c0 -71 -25 -97 -77 -118c52 -12 84 -43 84 -120v-87c0 -83 -15 -139 -44 -168s-85 -43 -168 -43h-252v800zM219 498h99c27 0 38 11 38 36v76c0 27 -10 32 -43 32h-94v-144zM219 160h88c43 0 56 13 56 53v85
c0 31 -9 40 -36 40h-108v-178z" />
    <glyph glyph-name="C" unicode="C" horiz-adv-x="556" 
d="M48 134v528c0 40 14 74 42 102s62 42 102 42h176c40 0 74 -14 102 -42s42 -62 42 -102v-126h-160v101c0 13 -5 20 -16 20h-114c-9 0 -14 -7 -14 -20v-484c0 -9 5 -14 14 -14h116c9 0 14 5 14 14v139h160v-158c0 -40 -14 -74 -42 -102s-62 -42 -102 -42h-176
c-40 0 -74 14 -102 42s-42 62 -42 102z" />
    <glyph glyph-name="D" unicode="D" horiz-adv-x="571" 
d="M59 800h320c41 0 75 -13 102 -40c28 -26 42 -59 42 -98v-518c0 -40 -14 -74 -42 -102s-62 -42 -102 -42h-320v800zM219 149h130c9 0 14 5 14 15v472c0 10 -5 15 -14 15h-130v-502z" />
    <glyph glyph-name="E" unicode="E" horiz-adv-x="493" 
d="M59 800h404v-160h-244v-149h217v-160h-217v-171h244v-160h-404v800z" />
    <glyph glyph-name="F" unicode="F" horiz-adv-x="473" 
d="M59 800h405v-179h-245v-100h217v-160h-217v-361h-160v800z" />
    <glyph glyph-name="G" unicode="G" horiz-adv-x="549" 
d="M48 134v528c0 40 14 74 42 102s62 42 102 42h171c40 0 74 -14 102 -42s42 -62 42 -102v-126h-160v107c0 9 -5 14 -15 14h-110c-9 0 -14 -5 -14 -14v-490c0 -9 5 -14 14 -14h110c10 0 15 5 15 14v134h-92v160h252v-313c0 -40 -14 -74 -42 -102s-62 -42 -102 -42h-171
c-40 0 -74 14 -102 42s-42 62 -42 102z" />
    <glyph glyph-name="H" unicode="H" horiz-adv-x="579" 
d="M59 800h160v-279h141v279h160v-800h-160v364h-141v-364h-160v800z" />
    <glyph glyph-name="I" unicode="I" horiz-adv-x="286" 
d="M63 800h160v-800h-160v800z" />
    <glyph glyph-name="J" unicode="J" horiz-adv-x="525" 
d="M17 292h160v-138c0 -10 5 -15 14 -15h112c9 0 14 5 14 15v646h160v-666c0 -40 -14 -74 -42 -102s-62 -42 -102 -42h-172c-40 0 -74 14 -102 42s-42 62 -42 102v158z" />
    <glyph glyph-name="K" unicode="K" horiz-adv-x="609" 
d="M59 800h158v-279h87l128 279h169l-176 -354v-9l176 -437h-169l-128 362h-87v-362h-158v800z" />
    <glyph glyph-name="L" unicode="L" horiz-adv-x="468" 
d="M59 800h158v-640h244v-160h-402v800z" />
    <glyph glyph-name="M" unicode="M" horiz-adv-x="830" 
d="M82 800h266l68 -523l56 523h277l30 -800h-160l-20 640h-9l-103 -630h-143l-103 630h-9l-21 -640h-160z" />
    <glyph glyph-name="N" unicode="N" horiz-adv-x="642" 
d="M59 800h267l94 -640h10l-7 640h160v-800h-266l-96 640h-9l7 -640h-160v800z" />
    <glyph glyph-name="O" unicode="O" horiz-adv-x="560" 
d="M48 134v528c0 40 14 74 42 102s62 42 102 42h176c40 0 74 -14 102 -42s42 -62 42 -102v-528c0 -40 -14 -74 -42 -102s-62 -42 -102 -42h-176c-40 0 -74 14 -102 42s-42 62 -42 102zM208 643v-490c0 -9 5 -14 14 -14h115c10 0 15 5 15 14v490c0 9 -5 14 -15 14h-115
c-9 0 -14 -5 -14 -14z" />
    <glyph glyph-name="P" unicode="P" horiz-adv-x="541" 
d="M59 800h316c41 0 75 -13 102 -40c28 -26 42 -59 42 -98v-193c0 -40 -14 -74 -42 -102s-62 -42 -102 -42h-156v-325h-160v800zM219 474h126c9 0 14 5 14 14v147c0 11 -5 16 -15 16h-125v-177z" />
    <glyph glyph-name="Q" unicode="Q" horiz-adv-x="560" 
d="M192 806h176c40 0 74 -14 102 -42s42 -62 42 -102v-528c0 -40 -14 -74 -42 -102s-62 -42 -102 -42h-13v-145h-160v145h-3c-40 0 -74 14 -102 42s-42 62 -42 102v528c0 40 14 74 42 102s62 42 102 42zM208 643v-490c0 -9 5 -14 14 -14h115c10 0 15 5 15 14v490
c0 9 -5 14 -15 14h-115c-9 0 -14 -5 -14 -14z" />
    <glyph glyph-name="R" unicode="R" horiz-adv-x="572" 
d="M59 800h342c33 0 61 -12 84 -35c24 -23 36 -52 36 -85v-144c0 -51 -32 -98 -77 -118c49 -19 84 -65 84 -120v-298h-160v292c0 23 -5 38 -14 46h-135v-338h-160v800zM219 498h125c11 6 16 18 16 36v105c0 10 -3 15 -10 15h-131v-156z" />
    <glyph glyph-name="S" unicode="S" horiz-adv-x="536" 
d="M39 282h160v-129c0 -9 5 -14 14 -14h103c10 0 15 5 15 14v58c0 48 -14 83 -51 114c-18 16 -34 28 -47 36s-33 20 -61 35c-79 43 -126 116 -126 211v55c0 40 14 74 42 102s62 42 102 42h163c40 0 74 -19 102 -57c28 -37 42 -84 42 -139h-160c0 36 -4 47 -20 47h-96
c-10 0 -15 -5 -15 -14v-36c0 -29 24 -58 72 -86c11 -7 32 -18 65 -35c88 -48 148 -144 148 -275v-77c0 -40 -14 -74 -42 -102s-62 -42 -102 -42h-164c-40 0 -74 14 -102 42s-42 62 -42 102v148z" />
    <glyph glyph-name="T" unicode="T" horiz-adv-x="502" 
d="M172 640h-163v160h484v-160h-161v-640h-160v640z" />
    <glyph glyph-name="U" unicode="U" horiz-adv-x="566" 
d="M51 800h160v-642c0 -13 5 -19 14 -19h116c9 0 14 6 14 19v642h160v-666c0 -40 -14 -74 -42 -102s-62 -42 -102 -42h-176c-40 0 -74 14 -102 42s-42 62 -42 102v666z" />
    <glyph glyph-name="V" unicode="V" horiz-adv-x="606" 
d="M19 800h164l81 -640c2 -15 7 -23 15 -23h51c8 0 13 8 15 23l82 640h160l-126 -776c-3 -15 -23 -34 -43 -34h-229c-20 0 -40 17 -43 34z" />
    <glyph glyph-name="W" unicode="W" horiz-adv-x="855" 
d="M51 800h160v-647c0 -9 5 -14 14 -14h63c39 0 59 45 59 89v572h160v-572c0 -21 5 -42 15 -61c11 -19 25 -28 44 -28h63c10 0 15 5 15 14v647h160v-666c0 -40 -14 -74 -42 -102s-62 -42 -102 -42h-94c-65 0 -119 42 -139 105c-17 -63 -71 -105 -139 -105h-93
c-40 0 -74 14 -102 42s-42 62 -42 102v666z" />
    <glyph glyph-name="X" unicode="X" horiz-adv-x="590" 
d="M389 411l182 -411h-164l-112 302l-112 -302h-164l182 422l-156 378h167l82 -290l84 290h168z" />
    <glyph glyph-name="Y" unicode="Y" horiz-adv-x="603" 
d="M424 800h160l-118 -546c-5 -19 -28 -32 -56 -32h-26v-222h-159v222h-23c-31 0 -50 11 -55 32l-128 546h164l81 -420c2 -11 5 -17 10 -17h64c6 0 9 6 10 17z" />
    <glyph glyph-name="Z" unicode="Z" horiz-adv-x="517" 
d="M273 640h-250v160h471l-248 -640h248v-160h-471z" />
    <glyph glyph-name="bracketleft" unicode="[" horiz-adv-x="289" 
d="M59 870h221v-160h-61v-620h61v-160h-221v940z" />
    <glyph glyph-name="backslash" unicode="\" horiz-adv-x="425" 
d="M9 800h166l242 -800h-168z" />
    <glyph glyph-name="bracketright" unicode="]" horiz-adv-x="289" 
d="M70 90v620h-61v160h221v-940h-221v160h61z" />
    <glyph glyph-name="asciicircum" unicode="^" 
d="M206 773h124l111 -136h-131l-37 64h-11l-37 -64h-131z" />
    <glyph glyph-name="underscore" unicode="_" horiz-adv-x="508" 
d="M499 12v-159h-490v159h490z" />
    <glyph glyph-name="grave" unicode="`" horiz-adv-x="415" 
d="M39 795h155l101 -161h-133z" />
    <glyph glyph-name="a" unicode="a" horiz-adv-x="509" 
d="M33 86v113c0 49 7 81 22 98s40 30 77 39l169 30v50c0 10 -5 15 -15 15h-65c-10 0 -15 -5 -15 -15v-34h-151v53c0 43 15 77 46 100s67 35 108 35h100c41 1 76 -11 106 -34c31 -23 46 -56 46 -99v-437h-154v51c-97 -41 -159 -61 -188 -61c-52 0 -86 41 -86 96zM184 191v-50
c0 -7 4 -10 12 -10c13 0 48 10 105 29v83l-92 -20c-17 -4 -25 -15 -25 -32z" />
    <glyph glyph-name="b" unicode="b" horiz-adv-x="521" 
d="M476 473v-350c1 -37 -12 -68 -39 -94c-26 -26 -57 -39 -94 -39h-162c-37 0 -68 13 -94 39s-39 57 -39 94v642h160v-245c83 34 141 51 172 51c53 0 96 -45 96 -98zM316 145v241c0 12 -4 18 -12 18c-7 0 -20 -3 -41 -9c-21 -5 -39 -11 -55 -18v-232c0 -10 5 -15 15 -15h78
c10 0 15 5 15 15z" />
    <glyph glyph-name="c" unicode="c" horiz-adv-x="496" 
d="M45 123v314c0 37 13 68 38 94c26 26 58 39 95 39h162c37 0 69 -13 94 -39c26 -26 39 -57 39 -94v-75h-160v54c0 10 -5 15 -15 15h-78c-10 0 -15 -5 -15 -15v-271c0 -10 5 -15 15 -15h78c10 0 15 5 15 15v50h160v-72c0 -37 -13 -68 -39 -94s-57 -39 -94 -39h-162
c-37 0 -68 13 -94 39s-39 57 -39 94z" />
    <glyph glyph-name="d" unicode="d" horiz-adv-x="525" 
d="M313 764h160v-764h-160v40c-82 -33 -140 -50 -173 -50c-53 0 -96 44 -96 97v351c0 37 13 68 39 94s57 39 94 39h136v193zM313 183v232c0 10 -5 15 -15 15h-79c-10 0 -15 -5 -15 -15v-241c0 -11 4 -17 13 -17c21 0 53 9 96 26z" />
    <glyph glyph-name="e" unicode="e" horiz-adv-x="504" 
d="M45 123v314c0 37 13 68 38 94c26 26 58 39 95 39h162c37 0 69 -13 94 -39c26 -26 39 -57 39 -94v-212h-268v-80c0 -10 5 -15 15 -15h78c10 0 15 5 15 15v40h160v-62c0 -37 -13 -68 -39 -94c-25 -26 -57 -39 -94 -39h-162c-37 0 -69 13 -95 39c-25 26 -38 57 -38 94z
M313 322v94c0 10 -5 15 -14 15h-80c-9 0 -14 -5 -14 -15v-94h108z" />
    <glyph glyph-name="f" unicode="f" horiz-adv-x="327" 
d="M327 605h-102c-9 0 -14 -5 -14 -15v-30h72v-158h-72v-389c-1 -46 -19 -85 -53 -117c-33 -33 -75 -49 -124 -49v160c11 0 17 7 17 20v375h-42v158h42v41c0 45 16 84 49 116s72 48 119 48h108v-160z" />
    <glyph glyph-name="g" unicode="g" horiz-adv-x="521" 
d="M205 32v-34c0 -10 5 -15 15 -15h78c10 0 15 5 15 15v144c-84 -39 -141 -59 -172 -59c-53 0 -96 45 -96 98v257c0 37 13 68 39 94s57 39 94 39h162c37 0 68 -13 94 -39s39 -57 39 -94v-461c0 -37 -13 -68 -39 -94c-25 -26 -57 -39 -94 -39h-162c-37 0 -69 13 -95 39
c-25 26 -38 57 -38 94v55h160zM205 416v-150c0 -11 4 -17 12 -17c14 0 46 11 96 32v135c0 10 -5 15 -15 15h-78c-10 0 -15 -5 -15 -15z" />
    <glyph glyph-name="h" unicode="h" horiz-adv-x="529" 
d="M212 765v-245c82 33 140 50 173 50c53 0 96 -44 96 -97v-473h-160v386c0 11 -4 17 -13 17c-21 0 -53 -9 -96 -26v-377h-160v765h160z" />
    <glyph glyph-name="i" unicode="i" horiz-adv-x="323" 
d="M57 765h160v-106h-160v106zM216 560v-394c0 -11 5 -16 14 -16h69v-160h-75c-47 -1 -86 15 -119 48s-49 72 -49 118v404h160z" />
    <glyph glyph-name="j" unicode="j" horiz-adv-x="292" 
d="M74 765h162v-106h-162v106zM75 560h160v-601c0 -78 -55 -117 -166 -117h-92v90h69c19 0 29 9 29 27v601z" />
    <glyph glyph-name="k" unicode="k" horiz-adv-x="559" 
d="M389 298l170 -298h-183l-106 223h-60v-223h-158v765h158v-384h60l88 179h179l-148 -254v-8z" />
    <glyph glyph-name="l" unicode="l" horiz-adv-x="323" 
d="M230 150h69v-160h-75c-47 -1 -86 15 -119 48s-49 72 -49 118v608h160v-598c0 -11 5 -16 14 -16z" />
    <glyph glyph-name="m" unicode="m" horiz-adv-x="732" 
d="M52 560h160v-40c62 33 109 50 140 50c37 0 66 -17 85 -52l2 -3c22 13 48 26 77 37c30 12 54 18 72 18c53 0 96 -44 96 -97v-473h-160v386c0 11 -4 17 -13 17c-11 0 -32 -9 -63 -26v-377h-160v386c0 11 -4 17 -13 17c-11 0 -32 -9 -63 -26v-377h-160v560z" />
    <glyph glyph-name="n" unicode="n" horiz-adv-x="529" 
d="M52 560h160v-40c82 33 140 50 173 50c53 0 96 -44 96 -97v-473h-160v386c0 11 -4 17 -13 17c-21 0 -53 -9 -96 -26v-377h-160v560z" />
    <glyph glyph-name="o" unicode="o" horiz-adv-x="518" 
d="M45 123v314c0 37 13 68 38 94c26 26 58 39 95 39h162c37 0 69 -13 94 -39c26 -26 39 -57 39 -94v-314c0 -37 -13 -68 -39 -94s-57 -39 -94 -39h-162c-37 0 -68 13 -94 39s-39 57 -39 94zM205 416v-271c0 -10 5 -15 15 -15h78c10 0 15 5 15 15v271c0 10 -5 15 -15 15h-78
c-10 0 -15 -5 -15 -15z" />
    <glyph glyph-name="p" unicode="p" horiz-adv-x="525" 
d="M212 560v-40c82 33 140 50 173 50c53 0 96 -44 96 -97v-351c0 -37 -13 -68 -39 -94s-57 -39 -94 -39h-136v-136h-160v707h160zM321 145v241c0 11 -4 17 -13 17c-21 0 -53 -9 -96 -26v-232c0 -10 5 -15 15 -15h79c10 0 15 5 15 15z" />
    <glyph glyph-name="q" unicode="q" horiz-adv-x="521" 
d="M46 88v350c-1 37 12 68 38 94s58 39 95 39h162c37 0 68 -13 94 -39s39 -57 39 -94v-585h-160v188c-83 -34 -141 -51 -172 -51c-53 0 -96 45 -96 98zM206 416v-241c0 -12 4 -18 12 -18c7 0 20 3 41 8c21 6 39 12 55 19v232c0 10 -5 15 -15 15h-78c-10 0 -15 -5 -15 -15z
" />
    <glyph glyph-name="r" unicode="r" horiz-adv-x="498" 
d="M52 560h160v-40c82 33 140 50 173 50c53 0 96 -44 96 -97v-100h-160v13c0 11 -4 17 -13 17c-21 0 -53 -9 -96 -26v-377h-160v560z" />
    <glyph glyph-name="s" unicode="s" horiz-adv-x="503" 
d="M37 184h160v-39c0 -10 5 -15 15 -15h80c10 0 15 5 15 15v16c0 12 -2 20 -14 28c-5 4 -10 7 -15 9c-8 5 -40 19 -57 27c-10 5 -26 11 -47 20s-36 15 -45 20l-36 21c-38 28 -52 58 -56 126v18c1 85 58 140 133 140h163c37 0 68 -13 94 -39s39 -57 39 -94v-39h-160v18
c0 10 -5 15 -14 15h-80c-10 0 -15 -5 -15 -15v-8c0 -23 32 -34 95 -62l29 -13c16 -7 26 -11 29 -13l24 -12c13 -6 20 -10 23 -13s10 -7 19 -14c20 -13 19 -21 31 -38c15 -20 19 -51 19 -87v-26c0 -40 -13 -73 -39 -100c-25 -27 -57 -40 -94 -40h-163c-37 0 -68 13 -94 39
s-39 57 -39 94v61z" />
    <glyph glyph-name="t" unicode="t" horiz-adv-x="395" 
d="M386 402h-150v-236c0 -11 5 -16 14 -16h69v-160h-75c-47 -1 -86 15 -119 48s-49 72 -49 118v246h-67v158h67v144h160v-144h150v-158z" />
    <glyph glyph-name="u" unicode="u" horiz-adv-x="529" 
d="M317 0v40c-82 -33 -140 -50 -173 -50c-53 0 -96 44 -96 97v473h160v-386c0 -11 4 -17 13 -17c21 0 53 9 96 26v377h160v-560h-160z" />
    <glyph glyph-name="v" unicode="v" horiz-adv-x="516" 
d="M24 560h162l46 -415c1 -10 5 -15 10 -15h35c6 0 10 5 11 15l45 415h160l-84 -535c-3 -16 -23 -34 -43 -34h-211c-20 0 -40 17 -43 34z" />
    <glyph glyph-name="w" unicode="w" horiz-adv-x="766" 
d="M558 560h160v-426c0 -40 -14 -74 -42 -102s-62 -42 -102 -42h-64c-59 0 -108 43 -127 104c-16 -61 -66 -104 -127 -104h-64c-40 0 -74 14 -102 42s-42 62 -42 102v426h160v-416c0 -9 5 -14 14 -14h34c31 0 47 24 47 72v358h160v-358c0 -44 16 -72 47 -72h33
c10 0 15 5 15 14v416z" />
    <glyph glyph-name="x" unicode="x" horiz-adv-x="524" 
d="M179 305l-130 255h170l44 -128l44 128h170l-130 -255l159 -305h-170l-73 152l-75 -152h-171z" />
    <glyph glyph-name="y" unicode="y" horiz-adv-x="518" 
d="M22 560h161l47 -415c1 -10 4 -15 9 -15h44c6 0 9 5 10 15l44 415h161l-109 -716h-153l23 145h-103c-20 0 -40 17 -43 34z" />
    <glyph glyph-name="z" unicode="z" horiz-adv-x="477" 
d="M26 160l239 244h-237v156h420v-156l-240 -245h243v-159h-425v160z" />
    <glyph glyph-name="braceleft" unicode="{" horiz-adv-x="322" 
d="M285 860v-156c-14 -1 -21 -8 -21 -21v-144c0 -96 -23 -128 -78 -131v-16c56 -3 78 -32 78 -131v-143c0 -13 7 -20 21 -22v-156c-127 13 -181 54 -181 133v188c0 80 -44 84 -78 84v111c23 0 34 2 51 11s27 35 27 72v188c0 75 58 117 181 133z" />
    <glyph glyph-name="bar" unicode="|" horiz-adv-x="278" 
d="M59 850h160v-900h-160v900z" />
    <glyph glyph-name="braceright" unicode="}" horiz-adv-x="322" 
d="M37 704v156c123 -16 181 -58 181 -133v-188c0 -37 10 -63 27 -72s28 -11 51 -11v-111c-34 0 -78 -4 -78 -84v-188c0 -79 -54 -120 -181 -133v156c14 2 21 9 21 22v143c0 99 22 128 78 131v16c-55 3 -78 35 -78 131v144c0 13 -7 20 -21 21z" />
    <glyph glyph-name="asciitilde" unicode="~" 
d="M144 613l-5 137c17 21 38 31 62 31c17 0 40 -6 69 -18c30 -11 53 -17 68 -17c20 0 39 9 56 28l5 -137c-18 -21 -38 -32 -61 -32c-17 0 -40 6 -70 17c-29 12 -52 18 -67 18c-21 0 -40 -9 -57 -27z" />
    <glyph glyph-name="DEL" horiz-adv-x="500" 
 />
    <glyph glyph-name="exclamdown" unicode="&#xa1;" horiz-adv-x="278" 
d="M59 560v106h160v-106h-160zM59 -130v590h160v-590h-160z" />
    <glyph glyph-name="cent" unicode="&#xa2;" 
d="M502 470h-148v53c0 10 -5 15 -15 15h-23v-300h23c10 0 15 5 15 15v50h148v-72c0 -37 -13 -68 -39 -94s-57 -39 -94 -39h-22v-98h-160v98h-20c-37 0 -68 13 -94 39s-39 57 -39 94v314c0 37 13 68 39 94s57 39 94 39h20v86h160v-86h22c37 0 68 -13 94 -39s39 -57 39 -94
v-75zM183 523v-270c0 -10 5 -15 15 -15h20v300h-20c-10 0 -15 -5 -15 -15z" />
    <glyph glyph-name="sterling" unicode="&#xa3;" 
d="M350 160h183v-160h-520v160h130c-40 25 -60 59 -60 103v63h-70v160h70v145c0 40 14 74 42 102s62 42 102 42h159c40 0 74 -14 102 -42s42 -62 42 -102v-96h-160v71c0 13 -5 20 -16 20h-96c-10 0 -15 -7 -15 -20v-120h85v-160h-85v-58c0 -30 10 -56 31 -77s47 -31 76 -31z
" />
    <glyph glyph-name="currency" unicode="&#xa4;" 
d="M13 416v123h55v92c0 40 14 74 42 102s62 42 102 42h168c40 0 74 -14 102 -42s42 -62 42 -102v-126h-160v101c0 13 -5 20 -16 20h-106c-9 0 -14 -7 -14 -20v-67h93v-123h-308zM321 380v-123h-93v-104c0 -9 5 -14 14 -14h107c10 0 15 5 15 14v139h160v-158
c0 -40 -14 -74 -42 -102s-62 -42 -102 -42h-168c-40 0 -74 14 -102 42s-42 62 -42 102v123h-55v123h308z" />
    <glyph glyph-name="yen" unicode="&#xa5;" 
d="M351 384v-44h113v-123h-390v123h119v44h-29c-20 0 -38 15 -43 34l-128 349h164l77 -253c3 -7 7 -11 11 -11h54c4 0 8 4 11 11l73 254h162l-118 -350c-5 -17 -23 -34 -43 -34h-33zM74 41v123h390v-123h-113v-41h-158v41h-119z" />
    <glyph glyph-name="brokenbar" unicode="&#xa6;" horiz-adv-x="259" 
d="M59 850h141v-390h-141v390zM59 340h141v-390h-141v390z" />
    <glyph glyph-name="section" unicode="&#xa7;" horiz-adv-x="525" 
d="M477 554h-160v18c0 10 -5 15 -14 15h-80c-10 0 -15 -5 -15 -15v-7c0 -27 42 -46 94 -63c77 -22 177 -67 175 -181v-4c0 -31 -11 -60 -32 -85c21 -23 32 -55 32 -94v-8c-1 -85 -58 -140 -133 -140h-163c-37 0 -68 13 -94 39s-39 57 -39 94v59h160v-38c0 -10 5 -15 14 -15
h80c10 0 15 5 15 15v19c0 24 -42 42 -95 58c-75 23 -176 64 -174 169v4c0 32 12 60 35 85c-23 25 -35 58 -35 99v9c1 84 58 140 133 140h163c37 0 69 -13 94 -39c26 -25 39 -57 39 -94v-40zM335 324v12c0 16 -46 39 -138 68c-1 -5 -2 -9 -2 -11v-12c0 -11 15 -22 50 -37
l41 -17c11 -3 26 -9 47 -16c1 7 2 11 2 13z" />
    <glyph glyph-name="dieresis" unicode="&#xa8;" horiz-adv-x="354" 
d="M-5 698c0 44 35 81 78 81s79 -38 79 -81c0 -41 -36 -76 -79 -76s-78 35 -78 76zM284 622c-43 0 -78 35 -78 76c0 44 35 81 78 81c41 0 76 -38 76 -81c0 -41 -35 -76 -76 -76z" />
    <glyph glyph-name="copyright" unicode="&#xa9;" horiz-adv-x="645" 
d="M48 185v188c0 119 76 195 193 195h163c117 0 193 -76 193 -195v-188c0 -119 -76 -195 -193 -195h-163c-117 0 -193 76 -193 195zM171 373v-188c0 -44 31 -72 70 -72h163c39 0 71 28 71 72v188c0 40 -28 73 -71 73h-163c-39 0 -70 -29 -70 -73zM191 185v188
c0 29 22 53 50 53h163c28 0 51 -24 51 -53v-73h-90v28c0 9 -5 13 -14 13h-50c-8 0 -12 -4 -12 -13v-98c0 -9 4 -13 12 -13h50c9 0 14 4 14 13v27h90v-72c0 -29 -23 -52 -51 -52h-163c-25 0 -50 25 -50 52z" />
    <glyph glyph-name="ordfeminine" unicode="&#xaa;" horiz-adv-x="430" 
d="M71 667v12c0 63 50 95 151 95c100 0 150 -27 150 -80v-262h-116v30c-20 -5 -41 -11 -64 -18c-44 -13 -63 -18 -76 -18c-32 0 -58 26 -58 58v79c0 39 19 60 58 65l140 15v36c0 9 -11 13 -34 13c-24 0 -36 -4 -36 -13v-12h-115zM256 572l-71 -9c-8 -2 -12 -6 -12 -13v-22
c0 -7 3 -10 8 -10c18 0 43 5 75 16v38zM382 390v-121h-334v121h334z" />
    <glyph glyph-name="guillemotleft" unicode="&#xab;" horiz-adv-x="651" 
d="M247 397l116 -59l-141 -99l141 -99l-116 -57l-217 156zM487 397l116 -59l-141 -99l141 -99l-116 -57l-217 156z" />
    <glyph glyph-name="logicalnot" unicode="&#xac;" 
d="M28 411h481v-236h-159v77h-322v159z" />
    <glyph glyph-name="registered" unicode="&#xae;" horiz-adv-x="678" 
d="M196 792h286c101 0 148 -46 148 -145v-284c0 -99 -47 -145 -148 -145h-286c-101 0 -148 46 -148 145v284c0 99 47 145 148 145zM482 670h-286c-17 0 -26 -8 -26 -23v-284c0 -15 9 -23 26 -23h286c17 0 26 8 26 23v284c0 15 -9 23 -26 23zM202 637h218c27 0 54 -23 54 -48
v-44c0 -22 -10 -38 -31 -47c22 -8 33 -24 33 -48v-83h-101v83c0 9 -3 13 -10 13h-61v-96h-102v270zM365 585h-61v-48h62c6 5 9 13 9 24v15c0 6 -3 9 -10 9z" />
    <glyph glyph-name="overscore" unicode="&#xaf;" horiz-adv-x="318" 
d="M29 751h260v-121h-260v121z" />
    <glyph glyph-name="degree" unicode="&#xb0;" horiz-adv-x="439" 
d="M179 773h82c91 0 130 -39 130 -131v-24c0 -91 -39 -130 -130 -130h-82c-92 0 -131 39 -131 130v24c0 92 39 131 131 131zM261 661h-82c-5 0 -8 -3 -8 -8v-46c0 -5 3 -8 8 -8h82c5 0 8 3 8 8v46c0 5 -3 8 -8 8z" />
    <glyph glyph-name="plusminus" unicode="&#xb1;" 
d="M181 325h-87v176h87v74h177v-74h86v-176h-86v-100h-177v100zM94 196h350v-159h-350v159z" />
    <glyph glyph-name="twosuperior" unicode="&#xb2;" horiz-adv-x="411" 
d="M193 771h28c36 0 67 -11 92 -33c26 -21 39 -47 39 -78v-24c-1 -44 -21 -77 -62 -100c-15 -8 -52 -24 -68 -32c-15 -8 -31 -23 -31 -39h161v-112h-293v95c0 55 29 99 86 133c40 24 79 37 79 58v11c0 9 -4 14 -12 14h-10c-8 0 -12 -5 -12 -14v-13h-128v23c0 31 13 57 38 78
c26 22 57 33 93 33z" />
    <glyph glyph-name="threesuperior" unicode="&#xb3;" horiz-adv-x="395" 
d="M347 660v-22c0 -24 -9 -46 -28 -66c19 -20 28 -42 28 -65v-43c0 -31 -13 -58 -39 -80c-25 -21 -56 -32 -92 -32h-37c-36 0 -67 11 -93 32c-25 22 -38 49 -38 80v25h128v-15c0 -9 4 -14 12 -14h19c8 0 12 5 12 14v31c0 9 -4 14 -12 14h-63v91h63c8 0 12 5 12 14v26
c0 9 -4 14 -12 14h-19c-8 0 -12 -5 -12 -14v-13h-128v23c0 31 13 57 38 78c26 22 57 33 93 33h37c36 0 67 -11 92 -33c26 -21 39 -47 39 -78z" />
    <glyph glyph-name="acute" unicode="&#xb4;" horiz-adv-x="415" 
d="M242 795h153l-121 -161h-135z" />
    <glyph glyph-name="paragraph" unicode="&#xb6;" horiz-adv-x="684" 
d="M625 800v-950h-148v804h-38v-804h-148v370h-113c-37 0 -68 13 -94 39s-39 57 -39 94v314c0 37 13 68 38 94c26 26 58 39 95 39h447zM291 654h-71c-10 0 -15 -5 -15 -16v-255c0 -11 5 -16 15 -16h71v287z" />
    <glyph glyph-name="middot" unicode="&#xb7;" horiz-adv-x="263" 
d="M130 208c-44 0 -82 37 -82 82s38 83 82 83c47 0 85 -38 85 -83s-38 -82 -85 -82z" />
    <glyph glyph-name="cedilla" unicode="&#xb8;" horiz-adv-x="485" 
d="M306 25l-6 -52c62 -23 93 -66 93 -130c0 -36 -14 -67 -41 -93c-27 -27 -58 -40 -94 -40c-46 0 -87 15 -124 44l60 97c17 -15 34 -22 50 -22c23 0 34 11 34 34c0 21 -21 31 -62 31h-33l12 131h111z" />
    <glyph glyph-name="onesuperior" unicode="&#xb9;" horiz-adv-x="293" 
d="M234 765v-413h-136v297h-39v116h175z" />
    <glyph glyph-name="ordmasculine" unicode="&#xba;" horiz-adv-x="425" 
d="M164 775h97c61 0 113 -44 113 -100v-150c0 -27 -11 -51 -34 -70s-49 -29 -79 -29h-97c-29 0 -55 10 -78 29c-23 20 -34 43 -34 70v150c0 27 11 51 34 70c23 20 49 30 78 30zM241 669h-56c-11 0 -16 -5 -16 -14v-109c0 -9 5 -14 16 -14h56c11 0 16 5 16 14v109
c0 9 -5 14 -16 14zM377 390v-121h-328v121h328z" />
    <glyph glyph-name="guillemotright" unicode="&#xbb;" horiz-adv-x="651" 
d="M189 239l-141 99l118 59l215 -158l-215 -156l-118 57zM429 239l-141 99l118 59l215 -158l-215 -156l-118 57z" />
    <glyph glyph-name="onequarter" unicode="&#xbc;" horiz-adv-x="751" 
d="M589 798l-318 -798h-138l318 798h138zM223 765v-413h-136v297h-39v116h175zM669 411v-217h34v-115h-34v-80h-117v80h-180l117 332h180zM552 301h-11l-30 -107h41v107z" />
    <glyph glyph-name="onehalf" unicode="&#xbd;" horiz-adv-x="771" 
d="M589 798l-318 -798h-138l318 798h138zM223 765v-413h-136v297h-39v116h175zM564 418h28c36 0 67 -11 92 -33c26 -21 39 -47 39 -78v-24c-1 -44 -21 -77 -62 -100c-15 -8 -52 -24 -68 -32c-15 -8 -31 -23 -31 -39h161v-112h-293v95c0 55 29 99 86 133c40 24 79 37 79 58
v11c0 9 -4 14 -12 14h-10c-8 0 -12 -5 -12 -14v-13h-128v23c0 31 13 57 38 78c26 22 57 33 93 33z" />
    <glyph glyph-name="threequarters" unicode="&#xbe;" horiz-adv-x="842" 
d="M531 798h138l-318 -798h-139zM347 507v-43c0 -31 -13 -58 -39 -80c-25 -21 -56 -32 -92 -32h-37c-36 0 -67 11 -93 32c-25 22 -38 49 -38 80v25h128v-15c0 -9 4 -14 12 -14h19c8 0 12 5 12 14v31c0 9 -4 14 -12 14h-63v91h63c8 0 12 5 12 14v26c0 9 -4 14 -12 14h-19
c-8 0 -12 -5 -12 -14v-13h-128v23c0 31 13 57 38 78c26 22 57 33 93 33h37c36 0 67 -11 92 -33c26 -21 39 -47 39 -78v-22c0 -24 -9 -46 -28 -66c19 -20 28 -42 28 -65zM760 194h34v-115h-34v-80h-117v80h-180l117 332h180v-217zM643 194v107h-10l-31 -107h41z" />
    <glyph glyph-name="questiondown" unicode="&#xbf;" horiz-adv-x="513" 
d="M209 638h160v-106h-160v106zM348 -168h-183c-37 0 -68 13 -94 39s-39 57 -39 94v137c0 85 51 141 130 141h32c10 0 15 5 15 15v185h160v-180c0 -55 -13 -95 -40 -119s-55 -36 -86 -36h-36c-10 0 -15 -5 -15 -15v-112c0 -10 5 -15 15 -15h99c10 0 15 5 15 15v88h160v-104
c0 -37 -13 -68 -39 -94c-25 -26 -57 -39 -94 -39z" />
    <glyph glyph-name="Agrave" unicode="&#xc0;" horiz-adv-x="599" 
d="M400 159h-204l-21 -159h-160l121 766c3 17 23 34 43 34h237c20 0 40 -17 43 -34l122 -766h-160zM379 319l-40 302c-1 13 -5 19 -13 19h-56c-8 0 -12 -6 -13 -19l-40 -302h162zM115 1035h155l101 -161h-133z" />
    <glyph glyph-name="Aacute" unicode="&#xc1;" horiz-adv-x="599" 
d="M400 159h-204l-21 -159h-160l121 766c3 17 23 34 43 34h237c20 0 40 -17 43 -34l122 -766h-160zM379 319l-40 302c-1 13 -5 19 -13 19h-56c-8 0 -12 -6 -13 -19l-40 -302h162zM329 1035h153l-121 -161h-135z" />
    <glyph glyph-name="Acircumflex" unicode="&#xc2;" horiz-adv-x="599" 
d="M400 159h-204l-21 -159h-160l121 766c3 17 23 34 43 34h237c20 0 40 -17 43 -34l122 -766h-160zM379 319l-40 302c-1 13 -5 19 -13 19h-56c-8 0 -12 -6 -13 -19l-40 -302h162zM231 1013h124l111 -136h-131l-37 64h-11l-37 -64h-131z" />
    <glyph glyph-name="Atilde" unicode="&#xc3;" horiz-adv-x="599" 
d="M400 159h-204l-21 -159h-160l121 766c3 17 23 34 43 34h237c20 0 40 -17 43 -34l122 -766h-160zM379 319l-40 302c-1 13 -5 19 -13 19h-56c-8 0 -12 -6 -13 -19l-40 -302h162zM158 858v132c21 21 45 31 72 31c17 0 40 -4 69 -13c30 -8 53 -12 68 -12c28 0 52 6 71 18
v-132c-22 -15 -46 -22 -71 -22c-17 0 -40 4 -70 12c-29 9 -52 13 -67 13c-27 0 -51 -9 -72 -27z" />
    <glyph glyph-name="Adieresis" unicode="&#xc4;" horiz-adv-x="599" 
d="M400 159h-204l-21 -159h-160l121 766c3 17 23 34 43 34h237c20 0 40 -17 43 -34l122 -766h-160zM379 319l-40 302c-1 13 -5 19 -13 19h-56c-8 0 -12 -6 -13 -19l-40 -302h162zM115 938c0 44 35 81 78 81s79 -38 79 -81c0 -41 -36 -76 -79 -76s-78 35 -78 76zM404 862
c-43 0 -78 35 -78 76c0 44 35 81 78 81c41 0 76 -38 76 -81c0 -41 -35 -76 -76 -76z" />
    <glyph glyph-name="Aring" unicode="&#xc5;" horiz-adv-x="599" 
d="M400 159h-204l-21 -159h-160l121 766c3 17 23 34 43 34h237c20 0 40 -17 43 -34l122 -766h-160zM379 319l-40 302c-1 13 -5 19 -13 19h-56c-8 0 -12 -6 -13 -19l-40 -302h162zM299 839c-72 0 -123 42 -123 111c0 71 51 113 123 113c69 0 120 -42 120 -113
c0 -69 -52 -111 -120 -111zM263 950c0 -31 12 -46 36 -46s36 15 36 46s-12 46 -36 46s-36 -15 -36 -46z" />
    <glyph glyph-name="AE" unicode="&#xc6;" horiz-adv-x="787" 
d="M757 800v-165h-243v-114h216v-160h-216v-201h243v-160h-403v159h-145l-30 -159h-160l120 766c3 17 23 34 43 34h575zM354 646h-63c-11 0 -18 -6 -21 -18l-39 -309h123v327z" />
    <glyph glyph-name="Ccedilla" unicode="&#xc7;" horiz-adv-x="556" 
d="M512 536h-160v101c0 13 -5 20 -16 20h-114c-9 0 -14 -7 -14 -20v-484c0 -9 5 -14 14 -14h116c9 0 14 5 14 14v139h160v-158c0 -40 -14 -74 -42 -102s-62 -42 -102 -42h-32l-2 -17c62 -23 93 -66 93 -130c0 -36 -14 -67 -41 -93c-27 -27 -58 -40 -94 -40
c-46 0 -87 15 -124 44l60 97c17 -15 34 -22 50 -22c23 0 34 11 34 34c0 21 -21 31 -62 31h-33l9 96h-34c-40 0 -74 14 -102 42s-42 62 -42 102v528c0 40 14 74 42 102s62 42 102 42h176c40 0 74 -14 102 -42s42 -62 42 -102v-126z" />
    <glyph glyph-name="Egrave" unicode="&#xc8;" horiz-adv-x="493" 
d="M463 800v-160h-244v-149h217v-160h-217v-171h244v-160h-404v800h404zM89 1035h155l101 -161h-133z" />
    <glyph glyph-name="Eacute" unicode="&#xc9;" horiz-adv-x="493" 
d="M463 800v-160h-244v-149h217v-160h-217v-171h244v-160h-404v800h404zM304 1035h153l-121 -161h-135z" />
    <glyph glyph-name="Ecircumflex" unicode="&#xca;" horiz-adv-x="493" 
d="M463 800v-160h-244v-149h217v-160h-217v-171h244v-160h-404v800h404zM205 1013h124l111 -136h-131l-37 64h-11l-37 -64h-131z" />
    <glyph glyph-name="Edieresis" unicode="&#xcb;" horiz-adv-x="493" 
d="M463 800v-160h-244v-149h217v-160h-217v-171h244v-160h-404v800h404zM89 938c0 44 35 81 78 81s79 -38 79 -81c0 -41 -36 -76 -79 -76s-78 35 -78 76zM378 862c-43 0 -78 35 -78 76c0 44 35 81 78 81c41 0 76 -38 76 -81c0 -41 -35 -76 -76 -76z" />
    <glyph glyph-name="Igrave" unicode="&#xcc;" horiz-adv-x="286" 
d="M223 800v-800h-160v800h160zM-40 1035h155l101 -161h-133z" />
    <glyph glyph-name="Iacute" unicode="&#xcd;" horiz-adv-x="286" 
d="M223 800v-800h-160v800h160zM175 1035h153l-121 -161h-135z" />
    <glyph glyph-name="Icircumflex" unicode="&#xce;" horiz-adv-x="286" 
d="M76 1013h124l111 -136h-131l-37 64h-11l-37 -64h-131zM223 800v-800h-160v800h160z" />
    <glyph glyph-name="Idieresis" unicode="&#xcf;" horiz-adv-x="286" 
d="M-40 938c0 44 35 81 78 81s79 -38 79 -81c0 -41 -36 -76 -79 -76s-78 35 -78 76zM249 862c-43 0 -78 35 -78 76c0 44 35 81 78 81c41 0 76 -38 76 -81c0 -41 -35 -76 -76 -76zM223 800v-800h-160v800h160z" />
    <glyph glyph-name="Eth" unicode="&#xd0;" horiz-adv-x="575" 
d="M63 800h320c41 0 75 -13 102 -40c28 -26 42 -59 42 -98v-518c0 -40 -14 -74 -42 -102s-62 -42 -102 -42h-320v353h-46v159h46v288zM367 164v472c0 10 -5 15 -14 15h-130v-139h53v-159h-53v-204h130c9 0 14 5 14 15z" />
    <glyph glyph-name="Ntilde" unicode="&#xd1;" horiz-adv-x="642" 
d="M326 800l94 -640h10l-7 640h160v-800h-266l-96 640h-9l7 -640h-160v800h267zM181 858v132c21 21 45 31 72 31c17 0 40 -4 69 -13c30 -8 53 -12 68 -12c28 0 52 6 71 18v-132c-22 -15 -46 -22 -71 -22c-17 0 -40 4 -70 12c-29 9 -52 13 -67 13c-27 0 -51 -9 -72 -27z" />
    <glyph glyph-name="Ograve" unicode="&#xd2;" horiz-adv-x="560" 
d="M48 134v528c0 40 14 74 42 102s62 42 102 42h176c40 0 74 -14 102 -42s42 -62 42 -102v-528c0 -40 -14 -74 -42 -102s-62 -42 -102 -42h-176c-40 0 -74 14 -102 42s-42 62 -42 102zM208 643v-490c0 -9 5 -14 14 -14h115c10 0 15 5 15 14v490c0 9 -5 14 -15 14h-115
c-9 0 -14 -5 -14 -14zM98 1035h155l101 -161h-133z" />
    <glyph glyph-name="Oacute" unicode="&#xd3;" horiz-adv-x="560" 
d="M48 134v528c0 40 14 74 42 102s62 42 102 42h176c40 0 74 -14 102 -42s42 -62 42 -102v-528c0 -40 -14 -74 -42 -102s-62 -42 -102 -42h-176c-40 0 -74 14 -102 42s-42 62 -42 102zM208 643v-490c0 -9 5 -14 14 -14h115c10 0 15 5 15 14v490c0 9 -5 14 -15 14h-115
c-9 0 -14 -5 -14 -14zM313 1035h153l-121 -161h-135z" />
    <glyph glyph-name="Ocircumflex" unicode="&#xd4;" horiz-adv-x="560" 
d="M48 134v528c0 40 14 74 42 102s62 42 102 42h176c40 0 74 -14 102 -42s42 -62 42 -102v-528c0 -40 -14 -74 -42 -102s-62 -42 -102 -42h-176c-40 0 -74 14 -102 42s-42 62 -42 102zM208 643v-490c0 -9 5 -14 14 -14h115c10 0 15 5 15 14v490c0 9 -5 14 -15 14h-115
c-9 0 -14 -5 -14 -14zM214 1013h124l111 -136h-131l-37 64h-11l-37 -64h-131z" />
    <glyph glyph-name="Otilde" unicode="&#xd5;" horiz-adv-x="560" 
d="M48 134v528c0 40 14 74 42 102s62 42 102 42h176c40 0 74 -14 102 -42s42 -62 42 -102v-528c0 -40 -14 -74 -42 -102s-62 -42 -102 -42h-176c-40 0 -74 14 -102 42s-42 62 -42 102zM208 643v-490c0 -9 5 -14 14 -14h115c10 0 15 5 15 14v490c0 9 -5 14 -15 14h-115
c-9 0 -14 -5 -14 -14zM141 858v132c21 21 45 31 72 31c17 0 40 -4 69 -13c30 -8 53 -12 68 -12c28 0 52 6 71 18v-132c-22 -15 -46 -22 -71 -22c-17 0 -40 4 -70 12c-29 9 -52 13 -67 13c-27 0 -51 -9 -72 -27z" />
    <glyph glyph-name="Odieresis" unicode="&#xd6;" horiz-adv-x="560" 
d="M48 134v528c0 40 14 74 42 102s62 42 102 42h176c40 0 74 -14 102 -42s42 -62 42 -102v-528c0 -40 -14 -74 -42 -102s-62 -42 -102 -42h-176c-40 0 -74 14 -102 42s-42 62 -42 102zM208 643v-490c0 -9 5 -14 14 -14h115c10 0 15 5 15 14v490c0 9 -5 14 -15 14h-115
c-9 0 -14 -5 -14 -14zM98 938c0 44 35 81 78 81s79 -38 79 -81c0 -41 -36 -76 -79 -76s-78 35 -78 76zM387 862c-43 0 -78 35 -78 76c0 44 35 81 78 81c41 0 76 -38 76 -81c0 -41 -35 -76 -76 -76z" />
    <glyph glyph-name="multiply" unicode="&#xd7;" 
d="M76 273l78 75l-67 68l112 112l67 -68l75 75l112 -112l-75 -75l84 -82l-112 -112l-84 83l-76 -76z" />
    <glyph glyph-name="Oslash" unicode="&#xd8;" horiz-adv-x="593" 
d="M542 868l-50 -120c19 -25 28 -53 28 -86v-528c0 -40 -14 -74 -42 -102s-62 -42 -102 -42h-176c-6 0 -14 1 -25 2l-19 -44h-119l44 105c-17 24 -25 51 -25 81v528c0 40 14 74 42 102s62 42 102 42h176c5 0 12 -1 21 -2l27 64h118zM216 643v-269l119 283h-105
c-9 0 -14 -5 -14 -14zM360 153v281l-124 -295h109c10 0 15 5 15 14z" />
    <glyph glyph-name="Ugrave" unicode="&#xd9;" horiz-adv-x="566" 
d="M101 1035h155l101 -161h-133zM211 800v-642c0 -13 5 -19 14 -19h116c9 0 14 6 14 19v642h160v-666c0 -40 -14 -74 -42 -102s-62 -42 -102 -42h-176c-40 0 -74 14 -102 42s-42 62 -42 102v666h160z" />
    <glyph glyph-name="Uacute" unicode="&#xda;" horiz-adv-x="566" 
d="M316 1035h153l-121 -161h-135zM211 800v-642c0 -13 5 -19 14 -19h116c9 0 14 6 14 19v642h160v-666c0 -40 -14 -74 -42 -102s-62 -42 -102 -42h-176c-40 0 -74 14 -102 42s-42 62 -42 102v666h160z" />
    <glyph glyph-name="Ucircumflex" unicode="&#xdb;" horiz-adv-x="566" 
d="M217 1013h124l111 -136h-131l-37 64h-11l-37 -64h-131zM211 800v-642c0 -13 5 -19 14 -19h116c9 0 14 6 14 19v642h160v-666c0 -40 -14 -74 -42 -102s-62 -42 -102 -42h-176c-40 0 -74 14 -102 42s-42 62 -42 102v666h160z" />
    <glyph glyph-name="Udieresis" unicode="&#xdc;" horiz-adv-x="566" 
d="M101 938c0 44 35 81 78 81s79 -38 79 -81c0 -41 -36 -76 -79 -76s-78 35 -78 76zM390 862c-43 0 -78 35 -78 76c0 44 35 81 78 81c41 0 76 -38 76 -81c0 -41 -35 -76 -76 -76zM211 800v-642c0 -13 5 -19 14 -19h116c9 0 14 6 14 19v642h160v-666c0 -40 -14 -74 -42 -102
s-62 -42 -102 -42h-176c-40 0 -74 14 -102 42s-42 62 -42 102v666h160z" />
    <glyph glyph-name="Yacute" unicode="&#xdd;" horiz-adv-x="603" 
d="M584 800l-118 -546c-5 -19 -28 -32 -56 -32h-26v-222h-159v222h-23c-31 0 -50 11 -55 32l-128 546h164l81 -420c2 -11 5 -17 10 -17h64c6 0 9 6 10 17l76 420h160zM334 1035h153l-121 -161h-135z" />
    <glyph glyph-name="Thorn" unicode="&#xde;" horiz-adv-x="546" 
d="M219 793v-155h156c41 0 75 -13 102 -40c28 -26 42 -59 42 -98v-176c0 -40 -14 -74 -42 -102s-62 -42 -102 -42h-156v-180h-160v793h160zM345 489h-126v-160h126c9 0 14 5 14 14v130c0 11 -5 16 -14 16z" />
    <glyph glyph-name="germandbls" unicode="&#xdf;" horiz-adv-x="554" 
d="M223 775h138c40 0 74 -14 102 -42s42 -62 42 -102v-130c0 -40 -16 -66 -47 -79c35 -13 52 -42 52 -89v-199c0 -40 -14 -74 -42 -102s-62 -42 -102 -42h-87v149h56c10 0 15 7 15 20v155c0 13 -5 20 -15 20h-56v148h52c9 0 14 7 14 20v110c0 9 -5 14 -14 14h-77
c-9 0 -14 -5 -14 -14v-602c0 -46 -16 -85 -49 -118s-72 -49 -118 -48h-64v160h56c10 0 15 5 15 16v611c0 40 14 74 42 102s62 42 101 42z" />
    <glyph glyph-name="agrave" unicode="&#xe0;" horiz-adv-x="509" 
d="M33 86v113c0 49 7 81 22 98s40 30 77 39l169 30v50c0 10 -5 15 -15 15h-65c-10 0 -15 -5 -15 -15v-34h-151v53c0 43 15 77 46 100s67 35 108 35h100c41 1 76 -11 106 -34c31 -23 46 -56 46 -99v-437h-154v51c-97 -41 -159 -61 -188 -61c-52 0 -86 41 -86 96zM184 191v-50
c0 -7 4 -10 12 -10c13 0 48 10 105 29v83l-92 -20c-17 -4 -25 -15 -25 -32zM78 795h155l101 -161h-133z" />
    <glyph glyph-name="aacute" unicode="&#xe1;" horiz-adv-x="509" 
d="M33 86v113c0 49 7 81 22 98s40 30 77 39l169 30v50c0 10 -5 15 -15 15h-65c-10 0 -15 -5 -15 -15v-34h-151v53c0 43 15 77 46 100s67 35 108 35h100c41 1 76 -11 106 -34c31 -23 46 -56 46 -99v-437h-154v51c-97 -41 -159 -61 -188 -61c-52 0 -86 41 -86 96zM184 191v-50
c0 -7 4 -10 12 -10c13 0 48 10 105 29v83l-92 -20c-17 -4 -25 -15 -25 -32zM292 795h153l-121 -161h-135z" />
    <glyph glyph-name="acircumflex" unicode="&#xe2;" horiz-adv-x="509" 
d="M33 86v113c0 49 7 81 22 98s40 30 77 39l169 30v50c0 10 -5 15 -15 15h-65c-10 0 -15 -5 -15 -15v-34h-151v53c0 43 15 77 46 100s67 35 108 35h100c41 1 76 -11 106 -34c31 -23 46 -56 46 -99v-437h-154v51c-97 -41 -159 -61 -188 -61c-52 0 -86 41 -86 96zM184 191v-50
c0 -7 4 -10 12 -10c13 0 48 10 105 29v83l-92 -20c-17 -4 -25 -15 -25 -32zM194 773h124l111 -136h-131l-37 64h-11l-37 -64h-131z" />
    <glyph glyph-name="atilde" unicode="&#xe3;" horiz-adv-x="509" 
d="M33 86v113c0 49 7 81 22 98s40 30 77 39l169 30v50c0 10 -5 15 -15 15h-65c-10 0 -15 -5 -15 -15v-34h-151v53c0 43 15 77 46 100s67 35 108 35h100c41 1 76 -11 106 -34c31 -23 46 -56 46 -99v-437h-154v51c-97 -41 -159 -61 -188 -61c-52 0 -86 41 -86 96zM184 191v-50
c0 -7 4 -10 12 -10c13 0 48 10 105 29v83l-92 -20c-17 -4 -25 -15 -25 -32zM121 618v132c21 21 45 31 72 31c17 0 40 -4 69 -13c30 -8 53 -12 68 -12c28 0 52 6 71 18v-132c-22 -15 -46 -22 -71 -22c-17 0 -40 4 -70 12c-29 9 -52 13 -67 13c-27 0 -51 -9 -72 -27z" />
    <glyph glyph-name="adieresis" unicode="&#xe4;" horiz-adv-x="509" 
d="M33 86v113c0 49 7 81 22 98s40 30 77 39l169 30v50c0 10 -5 15 -15 15h-65c-10 0 -15 -5 -15 -15v-34h-151v53c0 43 15 77 46 100s67 35 108 35h100c41 1 76 -11 106 -34c31 -23 46 -56 46 -99v-437h-154v51c-97 -41 -159 -61 -188 -61c-52 0 -86 41 -86 96zM184 191v-50
c0 -7 4 -10 12 -10c13 0 48 10 105 29v83l-92 -20c-17 -4 -25 -15 -25 -32zM78 698c0 44 35 81 78 81s79 -38 79 -81c0 -41 -36 -76 -79 -76s-78 35 -78 76zM367 622c-43 0 -78 35 -78 76c0 44 35 81 78 81c41 0 76 -38 76 -81c0 -41 -35 -76 -76 -76z" />
    <glyph glyph-name="aring" unicode="&#xe5;" horiz-adv-x="509" 
d="M33 86v113c0 49 7 81 22 98s40 30 77 39l169 30v50c0 10 -5 15 -15 15h-65c-10 0 -15 -5 -15 -15v-34h-151v53c0 43 15 77 46 100s67 35 108 35h100c41 1 76 -11 106 -34c31 -23 46 -56 46 -99v-437h-154v51c-97 -41 -159 -61 -188 -61c-52 0 -86 41 -86 96zM184 191v-50
c0 -7 4 -10 12 -10c13 0 48 10 105 29v83l-92 -20c-17 -4 -25 -15 -25 -32zM262 599c-72 0 -123 42 -123 111c0 71 51 113 123 113c69 0 120 -42 120 -113c0 -69 -52 -111 -120 -111zM226 710c0 -31 12 -46 36 -46s36 15 36 46s-12 46 -36 46s-36 -15 -36 -46z" />
    <glyph glyph-name="ae" unicode="&#xe6;" horiz-adv-x="761" 
d="M730 225h-269v-80c0 -10 5 -15 15 -15h79c10 0 15 5 15 15v40h160v-62c0 -37 -13 -68 -39 -94s-57 -39 -94 -39h-163c-49 0 -87 21 -113 64l-2 -1c-96 -42 -163 -63 -200 -63c-52 0 -86 41 -86 96v113c0 47 8 79 23 98s41 32 76 39l169 30v50c0 10 -5 15 -15 15h-65
c-10 0 -15 -5 -15 -15v-34h-151v53c0 43 15 76 46 99c31 24 67 36 108 36h100c22 1 45 -4 68 -13c19 9 38 13 57 13h163c37 0 68 -13 94 -39s39 -57 39 -94v-212zM461 416v-94h109v94c0 10 -5 15 -15 15h-79c-10 0 -15 -5 -15 -15zM301 160v83l-92 -20
c-17 -4 -25 -15 -25 -32v-50c0 -7 4 -10 12 -10c13 0 48 10 105 29z" />
    <glyph glyph-name="ccedilla" unicode="&#xe7;" horiz-adv-x="496" 
d="M473 362h-160v54c0 10 -5 15 -15 15h-78c-10 0 -15 -5 -15 -15v-271c0 -10 5 -15 15 -15h78c10 0 15 5 15 15v50h160v-72c0 -37 -13 -68 -39 -94s-57 -39 -94 -39h-41l-2 -17c62 -23 93 -66 93 -130c0 -36 -14 -67 -41 -93c-27 -27 -58 -40 -94 -40c-46 0 -87 15 -124 44
l60 97c17 -15 34 -22 50 -22c23 0 34 11 34 34c0 21 -21 31 -62 31h-33l9 96h-11c-37 0 -68 13 -94 39s-39 57 -39 94v314c0 37 13 68 38 94c26 26 58 39 95 39h162c37 0 69 -13 94 -39c26 -26 39 -57 39 -94v-75z" />
    <glyph glyph-name="egrave" unicode="&#xe8;" horiz-adv-x="504" 
d="M45 123v314c0 37 13 68 38 94c26 26 58 39 95 39h162c37 0 69 -13 94 -39c26 -26 39 -57 39 -94v-212h-268v-80c0 -10 5 -15 15 -15h78c10 0 15 5 15 15v40h160v-62c0 -37 -13 -68 -39 -94c-25 -26 -57 -39 -94 -39h-162c-37 0 -69 13 -95 39c-25 26 -38 57 -38 94z
M313 322v94c0 10 -5 15 -14 15h-80c-9 0 -14 -5 -14 -15v-94h108zM70 795h155l101 -161h-133z" />
    <glyph glyph-name="eacute" unicode="&#xe9;" horiz-adv-x="504" 
d="M45 123v314c0 37 13 68 38 94c26 26 58 39 95 39h162c37 0 69 -13 94 -39c26 -26 39 -57 39 -94v-212h-268v-80c0 -10 5 -15 15 -15h78c10 0 15 5 15 15v40h160v-62c0 -37 -13 -68 -39 -94c-25 -26 -57 -39 -94 -39h-162c-37 0 -69 13 -95 39c-25 26 -38 57 -38 94z
M313 322v94c0 10 -5 15 -14 15h-80c-9 0 -14 -5 -14 -15v-94h108zM284 795h153l-121 -161h-135z" />
    <glyph glyph-name="ecircumflex" unicode="&#xea;" horiz-adv-x="504" 
d="M45 123v314c0 37 13 68 38 94c26 26 58 39 95 39h162c37 0 69 -13 94 -39c26 -26 39 -57 39 -94v-212h-268v-80c0 -10 5 -15 15 -15h78c10 0 15 5 15 15v40h160v-62c0 -37 -13 -68 -39 -94c-25 -26 -57 -39 -94 -39h-162c-37 0 -69 13 -95 39c-25 26 -38 57 -38 94z
M313 322v94c0 10 -5 15 -14 15h-80c-9 0 -14 -5 -14 -15v-94h108zM186 773h124l111 -136h-131l-37 64h-11l-37 -64h-131z" />
    <glyph glyph-name="edieresis" unicode="&#xeb;" horiz-adv-x="504" 
d="M45 123v314c0 37 13 68 38 94c26 26 58 39 95 39h162c37 0 69 -13 94 -39c26 -26 39 -57 39 -94v-212h-268v-80c0 -10 5 -15 15 -15h78c10 0 15 5 15 15v40h160v-62c0 -37 -13 -68 -39 -94c-25 -26 -57 -39 -94 -39h-162c-37 0 -69 13 -95 39c-25 26 -38 57 -38 94z
M313 322v94c0 10 -5 15 -14 15h-80c-9 0 -14 -5 -14 -15v-94h108zM70 698c0 44 35 81 78 81s79 -38 79 -81c0 -41 -36 -76 -79 -76s-78 35 -78 76zM359 622c-43 0 -78 35 -78 76c0 44 35 81 78 81c41 0 76 -38 76 -81c0 -41 -35 -76 -76 -76z" />
    <glyph glyph-name="igrave" unicode="&#xec;" horiz-adv-x="323" 
d="M216 560v-394c0 -11 5 -16 14 -16h69v-160h-75c-47 -1 -86 15 -119 48s-49 72 -49 118v404h160zM-46 795h155l101 -161h-133z" />
    <glyph glyph-name="iacute" unicode="&#xed;" horiz-adv-x="323" 
d="M216 560v-394c0 -11 5 -16 14 -16h69v-160h-75c-47 -1 -86 15 -119 48s-49 72 -49 118v404h160zM169 795h153l-121 -161h-135z" />
    <glyph glyph-name="icircumflex" unicode="&#xee;" horiz-adv-x="323" 
d="M216 560v-394c0 -11 5 -16 14 -16h69v-160h-75c-47 -1 -86 15 -119 48s-49 72 -49 118v404h160zM71 773h124l111 -136h-131l-37 64h-11l-37 -64h-131z" />
    <glyph glyph-name="idieresis" unicode="&#xef;" horiz-adv-x="323" 
d="M-46 698c0 44 35 81 78 81s79 -38 79 -81c0 -41 -36 -76 -79 -76s-78 35 -78 76zM243 622c-43 0 -78 35 -78 76c0 44 35 81 78 81c41 0 76 -38 76 -81c0 -41 -35 -76 -76 -76zM216 560v-394c0 -11 5 -16 14 -16h69v-160h-75c-47 -1 -86 15 -119 48s-49 72 -49 118v404
h160z" />
    <glyph glyph-name="eth" unicode="&#xf0;" horiz-adv-x="525" 
d="M474 564h42v-98h-42v-341c0 -37 -13 -68 -39 -95s-57 -40 -94 -40h-162c-37 0 -68 13 -94 40s-39 58 -39 95v176c0 37 13 68 39 94s57 39 94 39h135v32h-80v98h80v65c0 12 -5 18 -15 18h-79c-10 0 -15 -5 -15 -15v-57h-160v89c0 34 12 63 36 86c25 24 54 36 88 36h162
c41 0 75 -14 102 -41s41 -61 41 -102v-79zM314 145v135c0 11 -5 17 -15 17h-78c-10 0 -15 -5 -15 -15v-137c0 -10 5 -15 15 -15h78c10 0 15 5 15 15z" />
    <glyph glyph-name="ntilde" unicode="&#xf1;" horiz-adv-x="529" 
d="M125 618v132c21 21 45 31 72 31c17 0 40 -4 69 -13c30 -8 53 -12 68 -12c28 0 52 6 71 18v-132c-22 -15 -46 -22 -71 -22c-17 0 -40 4 -70 12c-29 9 -52 13 -67 13c-27 0 -51 -9 -72 -27zM212 560v-40c82 33 140 50 173 50c53 0 96 -44 96 -97v-473h-160v386
c0 11 -4 17 -13 17c-21 0 -53 -9 -96 -26v-377h-160v560h160z" />
    <glyph glyph-name="ograve" unicode="&#xf2;" horiz-adv-x="518" 
d="M45 123v314c0 37 13 68 38 94c26 26 58 39 95 39h162c37 0 69 -13 94 -39c26 -26 39 -57 39 -94v-314c0 -37 -13 -68 -39 -94s-57 -39 -94 -39h-162c-37 0 -68 13 -94 39s-39 57 -39 94zM205 416v-271c0 -10 5 -15 15 -15h78c10 0 15 5 15 15v271c0 10 -5 15 -15 15h-78
c-10 0 -15 -5 -15 -15zM77 795h155l101 -161h-133z" />
    <glyph glyph-name="oacute" unicode="&#xf3;" horiz-adv-x="518" 
d="M45 123v314c0 37 13 68 38 94c26 26 58 39 95 39h162c37 0 69 -13 94 -39c26 -26 39 -57 39 -94v-314c0 -37 -13 -68 -39 -94s-57 -39 -94 -39h-162c-37 0 -68 13 -94 39s-39 57 -39 94zM205 416v-271c0 -10 5 -15 15 -15h78c10 0 15 5 15 15v271c0 10 -5 15 -15 15h-78
c-10 0 -15 -5 -15 -15zM291 795h153l-121 -161h-135z" />
    <glyph glyph-name="ocircumflex" unicode="&#xf4;" horiz-adv-x="518" 
d="M45 123v314c0 37 13 68 38 94c26 26 58 39 95 39h162c37 0 69 -13 94 -39c26 -26 39 -57 39 -94v-314c0 -37 -13 -68 -39 -94s-57 -39 -94 -39h-162c-37 0 -68 13 -94 39s-39 57 -39 94zM205 416v-271c0 -10 5 -15 15 -15h78c10 0 15 5 15 15v271c0 10 -5 15 -15 15h-78
c-10 0 -15 -5 -15 -15zM193 773h124l111 -136h-131l-37 64h-11l-37 -64h-131z" />
    <glyph glyph-name="otilde" unicode="&#xf5;" horiz-adv-x="518" 
d="M45 123v314c0 37 13 68 38 94c26 26 58 39 95 39h162c37 0 69 -13 94 -39c26 -26 39 -57 39 -94v-314c0 -37 -13 -68 -39 -94s-57 -39 -94 -39h-162c-37 0 -68 13 -94 39s-39 57 -39 94zM205 416v-271c0 -10 5 -15 15 -15h78c10 0 15 5 15 15v271c0 10 -5 15 -15 15h-78
c-10 0 -15 -5 -15 -15zM120 618v132c21 21 45 31 72 31c17 0 40 -4 69 -13c30 -8 53 -12 68 -12c28 0 52 6 71 18v-132c-22 -15 -46 -22 -71 -22c-17 0 -40 4 -70 12c-29 9 -52 13 -67 13c-27 0 -51 -9 -72 -27z" />
    <glyph glyph-name="odieresis" unicode="&#xf6;" horiz-adv-x="518" 
d="M45 123v314c0 37 13 68 38 94c26 26 58 39 95 39h162c37 0 69 -13 94 -39c26 -26 39 -57 39 -94v-314c0 -37 -13 -68 -39 -94s-57 -39 -94 -39h-162c-37 0 -68 13 -94 39s-39 57 -39 94zM205 416v-271c0 -10 5 -15 15 -15h78c10 0 15 5 15 15v271c0 10 -5 15 -15 15h-78
c-10 0 -15 -5 -15 -15zM77 698c0 44 35 81 78 81s79 -38 79 -81c0 -41 -36 -76 -79 -76s-78 35 -78 76zM366 622c-43 0 -78 35 -78 76c0 44 35 81 78 81c41 0 76 -38 76 -81c0 -41 -35 -76 -76 -76z" />
    <glyph glyph-name="divide" unicode="&#xf7;" 
d="M210 594c32 33 84 33 116 0c33 -32 33 -84 0 -116c-32 -32 -84 -32 -116 0s-32 84 0 116zM444 431v-159h-350v159h350zM351 170c0 -45 -38 -82 -83 -82s-82 37 -82 82c0 44 37 83 82 83s83 -39 83 -83z" />
    <glyph glyph-name="oslash" unicode="&#xf8;" 
d="M491 590l-39 -70c19 -23 29 -51 29 -83v-314c0 -37 -13 -68 -39 -94s-57 -39 -94 -39h-162c-9 0 -15 0 -19 1l-12 -23h-110l39 70c-21 24 -31 52 -31 85v314c0 37 13 68 38 94c26 26 58 39 95 39h162c5 0 12 -1 21 -2l2 4l1 -1l10 19h109zM297 431h-69
c-10 0 -15 -5 -15 -15v-145zM230 130h76c10 0 15 5 15 15v161z" />
    <glyph glyph-name="ugrave" unicode="&#xf9;" horiz-adv-x="529" 
d="M317 0v40c-82 -33 -140 -50 -173 -50c-53 0 -96 44 -96 97v473h160v-386c0 -11 4 -17 13 -17c21 0 53 9 96 26v377h160v-560h-160zM82 795h155l101 -161h-133z" />
    <glyph glyph-name="uacute" unicode="&#xfa;" horiz-adv-x="529" 
d="M317 0v40c-82 -33 -140 -50 -173 -50c-53 0 -96 44 -96 97v473h160v-386c0 -11 4 -17 13 -17c21 0 53 9 96 26v377h160v-560h-160zM297 795h153l-121 -161h-135z" />
    <glyph glyph-name="ucircumflex" unicode="&#xfb;" horiz-adv-x="529" 
d="M317 0v40c-82 -33 -140 -50 -173 -50c-53 0 -96 44 -96 97v473h160v-386c0 -11 4 -17 13 -17c21 0 53 9 96 26v377h160v-560h-160zM198 773h124l111 -136h-131l-37 64h-11l-37 -64h-131z" />
    <glyph glyph-name="udieresis" unicode="&#xfc;" horiz-adv-x="529" 
d="M317 0v40c-82 -33 -140 -50 -173 -50c-53 0 -96 44 -96 97v473h160v-386c0 -11 4 -17 13 -17c21 0 53 9 96 26v377h160v-560h-160zM82 698c0 44 35 81 78 81s79 -38 79 -81c0 -41 -36 -76 -79 -76s-78 35 -78 76zM371 622c-43 0 -78 35 -78 76c0 44 35 81 78 81
c41 0 76 -38 76 -81c0 -41 -35 -76 -76 -76z" />
    <glyph glyph-name="yacute" unicode="&#xfd;" horiz-adv-x="518" 
d="M292 795h153l-121 -161h-135zM183 560l47 -415c1 -10 4 -15 9 -15h44c6 0 9 5 10 15l44 415h161l-109 -716h-153l23 145h-103c-20 0 -40 17 -43 34l-91 537h161z" />
    <glyph glyph-name="thorn" unicode="&#xfe;" horiz-adv-x="525" 
d="M212 764v-244c82 33 140 50 173 50c53 0 96 -44 96 -97v-351c0 -37 -13 -68 -39 -94s-57 -39 -94 -39h-136v-136h-160v911h160zM321 145v241c0 11 -4 17 -13 17c-21 0 -53 -9 -96 -26v-232c0 -10 5 -15 15 -15h79c10 0 15 5 15 15z" />
    <glyph glyph-name="ydieresis" unicode="&#xff;" horiz-adv-x="518" 
d="M77 698c0 44 35 81 78 81s79 -38 79 -81c0 -41 -36 -76 -79 -76s-78 35 -78 76zM366 622c-43 0 -78 35 -78 76c0 44 35 81 78 81c41 0 76 -38 76 -81c0 -41 -35 -76 -76 -76zM183 560l47 -415c1 -10 4 -15 9 -15h44c6 0 9 5 10 15l44 415h161l-109 -716h-153l23 145h-103
c-20 0 -40 17 -43 34l-91 537h161z" />
    <glyph glyph-name="Amacron" unicode="&#x100;" horiz-adv-x="599" 
d="M400 159h-204l-21 -159h-160l121 766c3 17 23 34 43 34h237c20 0 40 -17 43 -34l122 -766h-160zM379 319l-40 302c-1 13 -5 19 -13 19h-56c-8 0 -12 -6 -13 -19l-40 -302h162zM168 991h260v-121h-260v121z" />
    <glyph glyph-name="amacron" unicode="&#x101;" horiz-adv-x="509" 
d="M33 86v113c0 49 7 81 22 98s40 30 77 39l169 30v50c0 10 -5 15 -15 15h-65c-10 0 -15 -5 -15 -15v-34h-151v53c0 43 15 77 46 100s67 35 108 35h100c41 1 76 -11 106 -34c31 -23 46 -56 46 -99v-437h-154v51c-97 -41 -159 -61 -188 -61c-52 0 -86 41 -86 96zM184 191v-50
c0 -7 4 -10 12 -10c13 0 48 10 105 29v83l-92 -20c-17 -4 -25 -15 -25 -32zM131 751h260v-121h-260v121z" />
    <glyph glyph-name="Abreve" unicode="&#x102;" horiz-adv-x="599" 
d="M400 159h-204l-21 -159h-160l121 766c3 17 23 34 43 34h237c20 0 40 -17 43 -34l122 -766h-160zM379 319l-40 302c-1 13 -5 19 -13 19h-56c-8 0 -12 -6 -13 -19l-40 -302h162zM317 1005h97c0 -97 -36 -131 -116 -131s-116 34 -116 131h99c0 -28 6 -42 18 -42s18 14 18 42
z" />
    <glyph glyph-name="abreve" unicode="&#x103;" horiz-adv-x="509" 
d="M33 86v113c0 49 7 81 22 98s40 30 77 39l169 30v50c0 10 -5 15 -15 15h-65c-10 0 -15 -5 -15 -15v-34h-151v53c0 43 15 77 46 100s67 35 108 35h100c41 1 76 -11 106 -34c31 -23 46 -56 46 -99v-437h-154v51c-97 -41 -159 -61 -188 -61c-52 0 -86 41 -86 96zM184 191v-50
c0 -7 4 -10 12 -10c13 0 48 10 105 29v83l-92 -20c-17 -4 -25 -15 -25 -32zM280 765h97c0 -97 -36 -131 -116 -131s-116 34 -116 131h99c0 -28 6 -42 18 -42s18 14 18 42z" />
    <glyph glyph-name="Aogonek" unicode="&#x104;" horiz-adv-x="599" 
d="M593 -24l48 -79c-37 -29 -76 -43 -118 -43c-69 0 -111 39 -111 88c0 21 5 41 16 58h-7l-21 159h-204l-21 -159h-160l121 766c3 17 23 34 43 34h237c20 0 40 -17 43 -34l122 -766h-2c-29 -3 -44 -13 -44 -31c0 -11 4 -16 12 -16c11 0 27 8 46 23zM217 319h162l-40 302
c-1 13 -5 19 -13 19h-56c-8 0 -12 -6 -13 -19z" />
    <glyph glyph-name="aogonek" unicode="&#x105;" horiz-adv-x="509" 
d="M475 -24l48 -79c-37 -29 -76 -43 -118 -43c-69 0 -111 39 -111 88c0 21 5 41 16 58h-3v51c-97 -41 -159 -61 -188 -61c-52 0 -86 41 -86 96v113c0 49 7 81 22 98s40 30 77 39l169 30v50c0 10 -5 15 -15 15h-65c-10 0 -15 -5 -15 -15v-34h-151v53c0 43 15 77 46 100
s67 35 108 35h100c41 1 76 -11 106 -34c31 -23 46 -56 46 -99v-437c-29 -3 -44 -13 -44 -31c0 -11 4 -16 12 -16c11 0 27 8 46 23zM301 160v83l-92 -20c-17 -4 -25 -15 -25 -32v-50c0 -7 4 -10 12 -10c13 0 48 10 105 29z" />
    <glyph glyph-name="Cacute" unicode="&#x106;" horiz-adv-x="556" 
d="M48 134v528c0 40 14 74 42 102s62 42 102 42h176c40 0 74 -14 102 -42s42 -62 42 -102v-126h-160v101c0 13 -5 20 -16 20h-114c-9 0 -14 -7 -14 -20v-484c0 -9 5 -14 14 -14h116c9 0 14 5 14 14v139h160v-158c0 -40 -14 -74 -42 -102s-62 -42 -102 -42h-176
c-40 0 -74 14 -102 42s-42 62 -42 102zM310 1035h153l-121 -161h-135z" />
    <glyph glyph-name="cacute" unicode="&#x107;" horiz-adv-x="496" 
d="M45 123v314c0 37 13 68 38 94c26 26 58 39 95 39h162c37 0 69 -13 94 -39c26 -26 39 -57 39 -94v-75h-160v54c0 10 -5 15 -15 15h-78c-10 0 -15 -5 -15 -15v-271c0 -10 5 -15 15 -15h78c10 0 15 5 15 15v50h160v-72c0 -37 -13 -68 -39 -94s-57 -39 -94 -39h-162
c-37 0 -68 13 -94 39s-39 57 -39 94zM290 795h153l-121 -161h-135z" />
    <glyph glyph-name="Ccircumflex" unicode="&#x108;" horiz-adv-x="556" 
d="M48 134v528c0 40 14 74 42 102s62 42 102 42h176c40 0 74 -14 102 -42s42 -62 42 -102v-126h-160v101c0 13 -5 20 -16 20h-114c-9 0 -14 -7 -14 -20v-484c0 -9 5 -14 14 -14h116c9 0 14 5 14 14v139h160v-158c0 -40 -14 -74 -42 -102s-62 -42 -102 -42h-176
c-40 0 -74 14 -102 42s-42 62 -42 102zM212 1013h124l111 -136h-131l-37 64h-11l-37 -64h-131z" />
    <glyph glyph-name="ccircumflex" unicode="&#x109;" horiz-adv-x="496" 
d="M45 123v314c0 37 13 68 38 94c26 26 58 39 95 39h162c37 0 69 -13 94 -39c26 -26 39 -57 39 -94v-75h-160v54c0 10 -5 15 -15 15h-78c-10 0 -15 -5 -15 -15v-271c0 -10 5 -15 15 -15h78c10 0 15 5 15 15v50h160v-72c0 -37 -13 -68 -39 -94s-57 -39 -94 -39h-162
c-37 0 -68 13 -94 39s-39 57 -39 94zM192 773h124l111 -136h-131l-37 64h-11l-37 -64h-131z" />
    <glyph glyph-name="Cdotaccent" unicode="&#x10a;" horiz-adv-x="556" 
d="M48 134v528c0 40 14 74 42 102s62 42 102 42h176c40 0 74 -14 102 -42s42 -62 42 -102v-126h-160v101c0 13 -5 20 -16 20h-114c-9 0 -14 -7 -14 -20v-484c0 -9 5 -14 14 -14h116c9 0 14 5 14 14v139h160v-158c0 -40 -14 -74 -42 -102s-62 -42 -102 -42h-176
c-40 0 -74 14 -102 42s-42 62 -42 102zM277 851c-45 0 -82 37 -82 82c0 47 37 85 82 85s84 -38 84 -85c0 -45 -37 -82 -84 -82z" />
    <glyph glyph-name="cdotaccent" unicode="&#x10b;" horiz-adv-x="496" 
d="M45 123v314c0 37 13 68 38 94c26 26 58 39 95 39h162c37 0 69 -13 94 -39c26 -26 39 -57 39 -94v-75h-160v54c0 10 -5 15 -15 15h-78c-10 0 -15 -5 -15 -15v-271c0 -10 5 -15 15 -15h78c10 0 15 5 15 15v50h160v-72c0 -37 -13 -68 -39 -94s-57 -39 -94 -39h-162
c-37 0 -68 13 -94 39s-39 57 -39 94zM257 611c-45 0 -82 37 -82 82c0 47 37 85 82 85s84 -38 84 -85c0 -45 -37 -82 -84 -82z" />
    <glyph glyph-name="Ccaron" unicode="&#x10c;" horiz-adv-x="556" 
d="M48 134v528c0 40 14 74 42 102s62 42 102 42h176c40 0 74 -14 102 -42s42 -62 42 -102v-126h-160v101c0 13 -5 20 -16 20h-114c-9 0 -14 -7 -14 -20v-484c0 -9 5 -14 14 -14h116c9 0 14 5 14 14v139h160v-158c0 -40 -14 -74 -42 -102s-62 -42 -102 -42h-176
c-40 0 -74 14 -102 42s-42 62 -42 102zM100 1004h131l37 -64h11l37 64h131l-112 -136h-124z" />
    <glyph glyph-name="ccaron" unicode="&#x10d;" horiz-adv-x="496" 
d="M45 123v314c0 37 13 68 38 94c26 26 58 39 95 39h162c37 0 69 -13 94 -39c26 -26 39 -57 39 -94v-75h-160v54c0 10 -5 15 -15 15h-78c-10 0 -15 -5 -15 -15v-271c0 -10 5 -15 15 -15h78c10 0 15 5 15 15v50h160v-72c0 -37 -13 -68 -39 -94s-57 -39 -94 -39h-162
c-37 0 -68 13 -94 39s-39 57 -39 94zM80 764h131l37 -64h11l37 64h131l-112 -136h-124z" />
    <glyph glyph-name="Dcaron" unicode="&#x10e;" horiz-adv-x="571" 
d="M59 800h320c41 0 75 -13 102 -40c28 -26 42 -59 42 -98v-518c0 -40 -14 -74 -42 -102s-62 -42 -102 -42h-320v800zM219 149h130c9 0 14 5 14 15v472c0 10 -5 15 -14 15h-130v-502zM106 1004h131l37 -64h11l37 64h131l-112 -136h-124z" />
    <glyph glyph-name="dcaron" unicode="&#x10f;" horiz-adv-x="654" 
d="M654 767l-20 -209h-121v209h141zM473 764v-764h-160v40c-82 -33 -140 -50 -173 -50c-53 0 -96 44 -96 97v351c0 37 13 68 39 94s57 39 94 39h136v193h160zM313 183v232c0 10 -5 15 -15 15h-79c-10 0 -15 -5 -15 -15v-241c0 -11 4 -17 13 -17c21 0 53 9 96 26z" />
    <glyph glyph-name="Dcroat" unicode="&#x110;" horiz-adv-x="575" 
d="M63 800h320c41 0 75 -13 102 -40c28 -26 42 -59 42 -98v-518c0 -40 -14 -74 -42 -102s-62 -42 -102 -42h-320v353h-46v159h46v288zM367 164v472c0 10 -5 15 -14 15h-130v-139h53v-159h-53v-204h130c9 0 14 5 14 15z" />
    <glyph glyph-name="dslash" unicode="&#x111;" horiz-adv-x="525" 
d="M525 718v-110h-52v-608h-160v40c-82 -33 -140 -50 -173 -50c-53 0 -96 44 -96 97v351c0 37 13 68 39 94s57 39 94 39h136v37h-113v110h113v46h160v-46h52zM313 183v232c0 10 -5 15 -15 15h-79c-10 0 -15 -5 -15 -15v-241c0 -11 4 -17 13 -17c21 0 53 9 96 26z" />
    <glyph glyph-name="Emacron" unicode="&#x112;" horiz-adv-x="493" 
d="M463 800v-160h-244v-149h217v-160h-217v-171h244v-160h-404v800h404zM142 991h260v-121h-260v121z" />
    <glyph glyph-name="emacron" unicode="&#x113;" horiz-adv-x="504" 
d="M45 123v314c0 37 13 68 38 94c26 26 58 39 95 39h162c37 0 69 -13 94 -39c26 -26 39 -57 39 -94v-212h-268v-80c0 -10 5 -15 15 -15h78c10 0 15 5 15 15v40h160v-62c0 -37 -13 -68 -39 -94c-25 -26 -57 -39 -94 -39h-162c-37 0 -69 13 -95 39c-25 26 -38 57 -38 94z
M313 322v94c0 10 -5 15 -14 15h-80c-9 0 -14 -5 -14 -15v-94h108zM123 751h260v-121h-260v121z" />
    <glyph glyph-name="Ebreve" unicode="&#x114;" horiz-adv-x="493" 
d="M463 800v-160h-244v-149h217v-160h-217v-171h244v-160h-404v800h404zM291 1005h97c0 -97 -36 -131 -116 -131s-116 34 -116 131h99c0 -28 6 -42 18 -42s18 14 18 42z" />
    <glyph glyph-name="ebreve" unicode="&#x115;" horiz-adv-x="504" 
d="M45 123v314c0 37 13 68 38 94c26 26 58 39 95 39h162c37 0 69 -13 94 -39c26 -26 39 -57 39 -94v-212h-268v-80c0 -10 5 -15 15 -15h78c10 0 15 5 15 15v40h160v-62c0 -37 -13 -68 -39 -94c-25 -26 -57 -39 -94 -39h-162c-37 0 -69 13 -95 39c-25 26 -38 57 -38 94z
M313 322v94c0 10 -5 15 -14 15h-80c-9 0 -14 -5 -14 -15v-94h108zM272 765h97c0 -97 -36 -131 -116 -131s-116 34 -116 131h99c0 -28 6 -42 18 -42s18 14 18 42z" />
    <glyph glyph-name="Edotaccent" unicode="&#x116;" horiz-adv-x="493" 
d="M463 800v-160h-244v-149h217v-160h-217v-171h244v-160h-404v800h404zM271 851c-45 0 -82 37 -82 82c0 47 37 85 82 85s84 -38 84 -85c0 -45 -37 -82 -84 -82z" />
    <glyph glyph-name="edotaccent" unicode="&#x117;" horiz-adv-x="504" 
d="M45 123v314c0 37 13 68 38 94c26 26 58 39 95 39h162c37 0 69 -13 94 -39c26 -26 39 -57 39 -94v-212h-268v-80c0 -10 5 -15 15 -15h78c10 0 15 5 15 15v40h160v-62c0 -37 -13 -68 -39 -94c-25 -26 -57 -39 -94 -39h-162c-37 0 -69 13 -95 39c-25 26 -38 57 -38 94z
M313 322v94c0 10 -5 15 -14 15h-80c-9 0 -14 -5 -14 -15v-94h108zM251 611c-45 0 -82 37 -82 82c0 47 37 85 82 85s84 -38 84 -85c0 -45 -37 -82 -84 -82z" />
    <glyph glyph-name="Eogonek" unicode="&#x118;" horiz-adv-x="493" 
d="M477 -24l48 -79c-37 -29 -76 -43 -118 -43c-69 0 -111 39 -111 88c0 21 5 41 16 58h-253v800h404v-160h-244v-149h217v-160h-217v-171h244v-160c-29 -3 -44 -13 -44 -31c0 -11 4 -16 12 -16c11 0 27 8 46 23z" />
    <glyph glyph-name="eogonek" unicode="&#x119;" horiz-adv-x="504" 
d="M473 225h-268v-80c0 -10 5 -15 15 -15h78c10 0 15 5 15 15v40h160v-62c0 -37 -13 -68 -39 -94c-25 -26 -57 -39 -94 -39c-29 -3 -44 -13 -44 -31c0 -11 4 -16 12 -16c11 0 27 8 46 23l48 -79c-37 -29 -76 -43 -118 -43c-69 0 -111 39 -111 88c0 21 5 41 16 58h-11
c-37 0 -69 13 -95 39c-25 26 -38 57 -38 94v314c0 37 13 68 38 94c26 26 58 39 95 39h162c37 0 69 -13 94 -39c26 -26 39 -57 39 -94v-212zM205 416v-94h108v94c0 10 -5 15 -14 15h-80c-9 0 -14 -5 -14 -15z" />
    <glyph glyph-name="Ecaron" unicode="&#x11a;" horiz-adv-x="493" 
d="M463 800v-160h-244v-149h217v-160h-217v-171h244v-160h-404v800h404zM93 1004h131l37 -64h11l37 64h131l-112 -136h-124z" />
    <glyph glyph-name="ecaron" unicode="&#x11b;" horiz-adv-x="504" 
d="M45 123v314c0 37 13 68 38 94c26 26 58 39 95 39h162c37 0 69 -13 94 -39c26 -26 39 -57 39 -94v-212h-268v-80c0 -10 5 -15 15 -15h78c10 0 15 5 15 15v40h160v-62c0 -37 -13 -68 -39 -94c-25 -26 -57 -39 -94 -39h-162c-37 0 -69 13 -95 39c-25 26 -38 57 -38 94z
M313 322v94c0 10 -5 15 -14 15h-80c-9 0 -14 -5 -14 -15v-94h108zM74 764h131l37 -64h11l37 64h131l-112 -136h-124z" />
    <glyph glyph-name="Gcircumflex" unicode="&#x11c;" horiz-adv-x="549" 
d="M48 134v528c0 40 14 74 42 102s62 42 102 42h171c40 0 74 -14 102 -42s42 -62 42 -102v-126h-160v107c0 9 -5 14 -15 14h-110c-9 0 -14 -5 -14 -14v-490c0 -9 5 -14 14 -14h110c10 0 15 5 15 14v134h-92v160h252v-313c0 -40 -14 -74 -42 -102s-62 -42 -102 -42h-171
c-40 0 -74 14 -102 42s-42 62 -42 102zM209 1013h124l111 -136h-131l-37 64h-11l-37 -64h-131z" />
    <glyph glyph-name="gcircumflex" unicode="&#x11d;" horiz-adv-x="521" 
d="M205 32v-34c0 -10 5 -15 15 -15h78c10 0 15 5 15 15v144c-84 -39 -141 -59 -172 -59c-53 0 -96 45 -96 98v257c0 37 13 68 39 94s57 39 94 39h162c37 0 68 -13 94 -39s39 -57 39 -94v-461c0 -37 -13 -68 -39 -94c-25 -26 -57 -39 -94 -39h-162c-37 0 -69 13 -95 39
c-25 26 -38 57 -38 94v55h160zM205 416v-150c0 -11 4 -17 12 -17c14 0 46 11 96 32v135c0 10 -5 15 -15 15h-78c-10 0 -15 -5 -15 -15zM193 773h124l111 -136h-131l-37 64h-11l-37 -64h-131z" />
    <glyph glyph-name="Gbreve" unicode="&#x11e;" horiz-adv-x="549" 
d="M48 134v528c0 40 14 74 42 102s62 42 102 42h171c40 0 74 -14 102 -42s42 -62 42 -102v-126h-160v107c0 9 -5 14 -15 14h-110c-9 0 -14 -5 -14 -14v-490c0 -9 5 -14 14 -14h110c10 0 15 5 15 14v134h-92v160h252v-313c0 -40 -14 -74 -42 -102s-62 -42 -102 -42h-171
c-40 0 -74 14 -102 42s-42 62 -42 102zM295 1005h97c0 -97 -36 -131 -116 -131s-116 34 -116 131h99c0 -28 6 -42 18 -42s18 14 18 42z" />
    <glyph glyph-name="gbreve" unicode="&#x11f;" horiz-adv-x="521" 
d="M205 32v-34c0 -10 5 -15 15 -15h78c10 0 15 5 15 15v144c-84 -39 -141 -59 -172 -59c-53 0 -96 45 -96 98v257c0 37 13 68 39 94s57 39 94 39h162c37 0 68 -13 94 -39s39 -57 39 -94v-461c0 -37 -13 -68 -39 -94c-25 -26 -57 -39 -94 -39h-162c-37 0 -69 13 -95 39
c-25 26 -38 57 -38 94v55h160zM205 416v-150c0 -11 4 -17 12 -17c14 0 46 11 96 32v135c0 10 -5 15 -15 15h-78c-10 0 -15 -5 -15 -15zM279 765h97c0 -97 -36 -131 -116 -131s-116 34 -116 131h99c0 -28 6 -42 18 -42s18 14 18 42z" />
    <glyph glyph-name="Gdotaccent" unicode="&#x120;" horiz-adv-x="549" 
d="M48 134v528c0 40 14 74 42 102s62 42 102 42h171c40 0 74 -14 102 -42s42 -62 42 -102v-126h-160v107c0 9 -5 14 -15 14h-110c-9 0 -14 -5 -14 -14v-490c0 -9 5 -14 14 -14h110c10 0 15 5 15 14v134h-92v160h252v-313c0 -40 -14 -74 -42 -102s-62 -42 -102 -42h-171
c-40 0 -74 14 -102 42s-42 62 -42 102zM274 851c-45 0 -82 37 -82 82c0 47 37 85 82 85s84 -38 84 -85c0 -45 -37 -82 -84 -82z" />
    <glyph glyph-name="gdotaccent" unicode="&#x121;" horiz-adv-x="521" 
d="M205 32v-34c0 -10 5 -15 15 -15h78c10 0 15 5 15 15v144c-84 -39 -141 -59 -172 -59c-53 0 -96 45 -96 98v257c0 37 13 68 39 94s57 39 94 39h162c37 0 68 -13 94 -39s39 -57 39 -94v-461c0 -37 -13 -68 -39 -94c-25 -26 -57 -39 -94 -39h-162c-37 0 -69 13 -95 39
c-25 26 -38 57 -38 94v55h160zM205 416v-150c0 -11 4 -17 12 -17c14 0 46 11 96 32v135c0 10 -5 15 -15 15h-78c-10 0 -15 -5 -15 -15zM258 611c-45 0 -82 37 -82 82c0 47 37 85 82 85s84 -38 84 -85c0 -45 -37 -82 -84 -82z" />
    <glyph glyph-name="Gcommaaccent" unicode="&#x122;" horiz-adv-x="549" 
d="M48 134v528c0 40 14 74 42 102s62 42 102 42h171c40 0 74 -14 102 -42s42 -62 42 -102v-126h-160v107c0 9 -5 14 -15 14h-110c-9 0 -14 -5 -14 -14v-490c0 -9 5 -14 14 -14h110c10 0 15 5 15 14v134h-92v160h252v-313c0 -40 -14 -74 -42 -102s-62 -42 -102 -42h-171
c-40 0 -74 14 -102 42s-42 62 -42 102zM341 -41l-22 -169h-123v169h145z" />
    <glyph glyph-name="gcommaaccent" unicode="&#x123;" horiz-adv-x="521" 
d="M183 631l22 169h123v-169h-145zM205 32v-34c0 -10 5 -15 15 -15h78c10 0 15 5 15 15v144c-84 -39 -141 -59 -172 -59c-53 0 -96 45 -96 98v257c0 37 13 68 39 94s57 39 94 39h162c37 0 68 -13 94 -39s39 -57 39 -94v-461c0 -37 -13 -68 -39 -94c-25 -26 -57 -39 -94 -39
h-162c-37 0 -69 13 -95 39c-25 26 -38 57 -38 94v55h160zM205 416v-150c0 -11 4 -17 12 -17c14 0 46 11 96 32v135c0 10 -5 15 -15 15h-78c-10 0 -15 -5 -15 -15z" />
    <glyph glyph-name="Hcircumflex" unicode="&#x124;" horiz-adv-x="579" 
d="M219 800v-279h141v279h160v-800h-160v364h-141v-364h-160v800h160zM228 1013h124l111 -136h-131l-37 64h-11l-37 -64h-131z" />
    <glyph glyph-name="hcircumflex" unicode="&#x125;" horiz-adv-x="529" 
d="M212 765v-245c82 33 140 50 173 50c53 0 96 -44 96 -97v-473h-160v386c0 11 -4 17 -13 17c-21 0 -53 -9 -96 -26v-377h-160v765h160zM74 1013h124l111 -136h-131l-37 64h-11l-37 -64h-131z" />
    <glyph glyph-name="Hbar" unicode="&#x126;" horiz-adv-x="595" 
d="M578 753v-157h-50v-596h-160v364h-141v-364h-160v596h-50v157h50v47h160v-47h141v47h160v-47h50zM368 521v75h-141v-75h141z" />
    <glyph glyph-name="hbar" unicode="&#x127;" horiz-adv-x="529" 
d="M212 598v-78c82 33 140 50 173 50c53 0 96 -44 96 -97v-473h-160v386c0 11 -4 17 -13 17c-21 0 -53 -9 -96 -26v-377h-160v598h-52v120h52v47h160v-47h113v-120h-113z" />
    <glyph glyph-name="Itilde" unicode="&#x128;" horiz-adv-x="286" 
d="M3 858v132c21 21 45 31 72 31c17 0 40 -4 69 -13c30 -8 53 -12 68 -12c28 0 52 6 71 18v-132c-22 -15 -46 -22 -71 -22c-17 0 -40 4 -70 12c-29 9 -52 13 -67 13c-27 0 -51 -9 -72 -27zM223 800v-800h-160v800h160z" />
    <glyph glyph-name="itilde" unicode="&#x129;" horiz-adv-x="323" 
d="M-3 618v132c21 21 45 31 72 31c17 0 40 -4 69 -13c30 -8 53 -12 68 -12c28 0 52 6 71 18v-132c-22 -15 -46 -22 -71 -22c-17 0 -40 4 -70 12c-29 9 -52 13 -67 13c-27 0 -51 -9 -72 -27zM216 560v-394c0 -11 5 -16 14 -16h69v-160h-75c-47 -1 -86 15 -119 48
s-49 72 -49 118v404h160z" />
    <glyph glyph-name="Imacron" unicode="&#x12a;" horiz-adv-x="286" 
d="M223 800v-800h-160v800h160zM13 991h260v-121h-260v121z" />
    <glyph glyph-name="imacron" unicode="&#x12b;" horiz-adv-x="323" 
d="M216 560v-394c0 -11 5 -16 14 -16h69v-160h-75c-47 -1 -86 15 -119 48s-49 72 -49 118v404h160zM7 751h260v-121h-260v121z" />
    <glyph glyph-name="Ibreve" unicode="&#x12c;" horiz-adv-x="286" 
d="M162 1005h97c0 -97 -36 -131 -116 -131s-116 34 -116 131h99c0 -28 6 -42 18 -42s18 14 18 42zM223 800v-800h-160v800h160z" />
    <glyph glyph-name="ibreve" unicode="&#x12d;" horiz-adv-x="323" 
d="M156 765h97c0 -97 -36 -131 -116 -131s-116 34 -116 131h99c0 -28 6 -42 18 -42s18 14 18 42zM216 560v-394c0 -11 5 -16 14 -16h69v-160h-75c-47 -1 -86 15 -119 48s-49 72 -49 118v404h160z" />
    <glyph glyph-name="Iogonek" unicode="&#x12e;" horiz-adv-x="286" 
d="M236 -24l48 -79c-37 -29 -76 -43 -118 -43c-69 0 -111 39 -111 88c0 21 5 41 16 58h-8v800h160v-800h-1c-29 -3 -44 -13 -44 -31c0 -11 4 -16 12 -16c11 0 27 8 46 23z" />
    <glyph glyph-name="iogonek" unicode="&#x12f;" horiz-adv-x="323" 
d="M217 765v-106h-160v106h160zM313 -34l48 -79c-37 -29 -76 -43 -118 -43c-69 0 -111 39 -111 88c0 28 9 52 26 71c-61 25 -102 85 -102 153v404h160v-394c0 -11 5 -16 14 -16h69v-160c-29 -3 -44 -13 -44 -31c0 -11 4 -16 12 -16c11 0 27 8 46 23z" />
    <glyph glyph-name="Idot" unicode="&#x130;" horiz-adv-x="286" 
d="M142 851c-45 0 -82 37 -82 82c0 47 37 85 82 85s84 -38 84 -85c0 -45 -37 -82 -84 -82zM223 800v-800h-160v800h160z" />
    <glyph glyph-name="dotlessi" unicode="&#x131;" horiz-adv-x="323" 
d="M216 560v-394c0 -11 5 -16 14 -16h69v-160h-75c-47 -1 -86 15 -119 48s-49 72 -49 118v404h160z" />
    <glyph glyph-name="IJ" unicode="&#x132;" horiz-adv-x="811" 
d="M303 292h160v-138c0 -10 5 -15 14 -15h112c9 0 14 5 14 15v646h160v-666c0 -40 -14 -74 -42 -102s-62 -42 -102 -42h-172c-40 0 -74 14 -102 42s-42 62 -42 102v158zM223 800v-800h-160v800h160z" />
    <glyph glyph-name="ij" unicode="&#x133;" horiz-adv-x="616" 
d="M217 765v-106h-160v106h160zM397 765h162v-106h-162v106zM216 560v-394c0 -11 5 -16 14 -16h69v-160h-75c-47 -1 -86 15 -119 48s-49 72 -49 118v404h160zM398 560h160v-601c0 -78 -55 -117 -166 -117h-92v90h69c19 0 29 9 29 27v601z" />
    <glyph glyph-name="Jcircumflex" unicode="&#x134;" horiz-adv-x="525" 
d="M177 292v-138c0 -10 5 -15 14 -15h112c9 0 14 5 14 15v646h160v-666c0 -40 -14 -74 -42 -102s-62 -42 -102 -42h-172c-40 0 -74 14 -102 42s-42 62 -42 102v158h160zM323 1013h124l111 -136h-131l-37 64h-11l-37 -64h-131z" />
    <glyph glyph-name="jcircumflex" unicode="&#x135;" horiz-adv-x="291" 
d="M88 773h124l111 -136h-131l-37 64h-11l-37 -64h-131zM235 560v-601c0 -78 -55 -117 -166 -117h-92v90h69c19 0 29 9 29 27v601h160z" />
    <glyph glyph-name="Kcommaaccent" unicode="&#x136;" horiz-adv-x="609" 
d="M217 800v-279h87l128 279h169l-176 -354v-9l176 -437h-169l-128 362h-87v-362h-158v800h158zM385 -41l-22 -169h-123v169h145z" />
    <glyph glyph-name="kcommaaccent" unicode="&#x137;" horiz-adv-x="559" 
d="M559 0h-183l-106 223h-60v-223h-158v765h158v-384h60l88 179h179l-148 -254v-8zM360 -41l-22 -169h-123v169h145z" />
    <glyph glyph-name="kgreenlandic" unicode="&#x138;" horiz-adv-x="559" 
d="M52 560h158v-179h60l88 179h179l-148 -254v-8l170 -298h-183l-106 223h-60v-223h-158v560z" />
    <glyph glyph-name="Lacute" unicode="&#x139;" horiz-adv-x="468" 
d="M177 1035h153l-121 -161h-135zM217 800v-640h244v-160h-402v800h158z" />
    <glyph glyph-name="lacute" unicode="&#x13a;" horiz-adv-x="323" 
d="M163 1035h153l-121 -161h-135zM299 150v-160h-75c-47 -1 -86 15 -119 48s-49 72 -49 118v608h160v-598c0 -11 5 -16 14 -16h69z" />
    <glyph glyph-name="Lcommaaccent" unicode="&#x13b;" horiz-adv-x="468" 
d="M217 800v-640h244v-160h-402v800h158zM296 -41l-22 -169h-123v169h145z" />
    <glyph glyph-name="lcommaaccent" unicode="&#x13c;" horiz-adv-x="323" 
d="M299 150v-160h-75c-47 -1 -86 15 -119 48s-49 72 -49 118v608h160v-598c0 -11 5 -16 14 -16h69zM238 -41l-22 -169h-123v169h145z" />
    <glyph glyph-name="Lcaron" unicode="&#x13d;" horiz-adv-x="468" 
d="M217 800v-640h244v-160h-402v800h158zM444 767l-22 -200h-119v200h141z" />
    <glyph glyph-name="lcaron" unicode="&#x13e;" horiz-adv-x="400" 
d="M414 767l-22 -200h-119v200h141zM299 150v-160h-75c-47 -1 -86 15 -119 48s-49 72 -49 118v608h160v-598c0 -11 5 -16 14 -16h69z" />
    <glyph glyph-name="Ldot" unicode="&#x13f;" horiz-adv-x="468" 
d="M217 800v-640h244v-160h-402v800h158zM367 378c-44 0 -82 37 -82 82s38 83 82 83c47 0 85 -38 85 -83s-38 -82 -85 -82z" />
    <glyph glyph-name="ldot" unicode="&#x140;" horiz-adv-x="385" 
d="M298 150v-160h-75c-47 -1 -86 15 -119 48s-49 72 -49 118v608h160v-598c0 -11 5 -16 14 -16h69zM316 378c-44 0 -82 37 -82 82s38 83 82 83c47 0 85 -38 85 -83s-38 -82 -85 -82z" />
    <glyph glyph-name="Lslash" unicode="&#x141;" horiz-adv-x="468" 
d="M217 160h244v-160h-402v317l-38 -14v159l38 14v324h158v-266l75 28v-159l-75 -28v-215z" />
    <glyph glyph-name="lslash" unicode="&#x142;" horiz-adv-x="341" 
d="M237 150h69v-160h-75c-47 -1 -86 15 -119 48s-49 72 -49 118v164l-47 -17v159l47 17v285h160v-226l64 24v-159l-64 -24v-213c0 -11 5 -16 14 -16z" />
    <glyph glyph-name="Nacute" unicode="&#x143;" horiz-adv-x="642" 
d="M326 800l94 -640h10l-7 640h160v-800h-266l-96 640h-9l7 -640h-160v800h267zM353 1035h153l-121 -161h-135z" />
    <glyph glyph-name="nacute" unicode="&#x144;" horiz-adv-x="529" 
d="M297 795h153l-121 -161h-135zM212 560v-40c82 33 140 50 173 50c53 0 96 -44 96 -97v-473h-160v386c0 11 -4 17 -13 17c-21 0 -53 -9 -96 -26v-377h-160v560h160z" />
    <glyph glyph-name="Ncommaaccent" unicode="&#x145;" horiz-adv-x="642" 
d="M326 800l94 -640h10l-7 640h160v-800h-266l-96 640h-9l7 -640h-160v800h267zM387 -41l-22 -169h-123v169h145z" />
    <glyph glyph-name="ncommaaccent" unicode="&#x146;" horiz-adv-x="529" 
d="M212 560v-40c82 33 140 50 173 50c53 0 96 -44 96 -97v-473h-160v386c0 11 -4 17 -13 17c-21 0 -53 -9 -96 -26v-377h-160v560h160zM330 -41l-22 -169h-123v169h145z" />
    <glyph glyph-name="Ncaron" unicode="&#x147;" horiz-adv-x="642" 
d="M326 800l94 -640h10l-7 640h160v-800h-266l-96 640h-9l7 -640h-160v800h267zM143 1004h131l37 -64h11l37 64h131l-112 -136h-124z" />
    <glyph glyph-name="ncaron" unicode="&#x148;" horiz-adv-x="529" 
d="M86 764h131l37 -64h11l37 64h131l-112 -136h-124zM212 560v-40c82 33 140 50 173 50c53 0 96 -44 96 -97v-473h-160v386c0 11 -4 17 -13 17c-21 0 -53 -9 -96 -26v-377h-160v560h160z" />
    <glyph glyph-name="napostrophe" unicode="&#x149;" horiz-adv-x="590" 
d="M122 767l-22 -200h-119v200h141zM274 560v-40c82 33 140 50 173 50c53 0 96 -44 96 -97v-473h-160v386c0 11 -4 17 -13 17c-21 0 -53 -9 -96 -26v-377h-160v560h160z" />
    <glyph glyph-name="Eng" unicode="&#x14a;" horiz-adv-x="642" 
d="M583 800v-841c1 -85 -65 -120 -166 -117h-113v90h102c19 0 28 9 28 27v41h-117l-96 640h-9l7 -640h-160v800h267l94 -640h10l-7 640h160z" />
    <glyph glyph-name="eng" unicode="&#x14b;" horiz-adv-x="529" 
d="M212 560v-40c82 33 140 50 173 50c53 0 96 -44 96 -97v-514c0 -78 -55 -117 -166 -117h-114v90h91c19 0 29 9 29 27v427c0 11 -4 17 -13 17c-21 0 -53 -9 -96 -26v-377h-160v560h160z" />
    <glyph glyph-name="Omacron" unicode="&#x14c;" horiz-adv-x="560" 
d="M48 134v528c0 40 14 74 42 102s62 42 102 42h176c40 0 74 -14 102 -42s42 -62 42 -102v-528c0 -40 -14 -74 -42 -102s-62 -42 -102 -42h-176c-40 0 -74 14 -102 42s-42 62 -42 102zM208 643v-490c0 -9 5 -14 14 -14h115c10 0 15 5 15 14v490c0 9 -5 14 -15 14h-115
c-9 0 -14 -5 -14 -14zM151 991h260v-121h-260v121z" />
    <glyph glyph-name="omacron" unicode="&#x14d;" horiz-adv-x="518" 
d="M45 123v314c0 37 13 68 38 94c26 26 58 39 95 39h162c37 0 69 -13 94 -39c26 -26 39 -57 39 -94v-314c0 -37 -13 -68 -39 -94s-57 -39 -94 -39h-162c-37 0 -68 13 -94 39s-39 57 -39 94zM205 416v-271c0 -10 5 -15 15 -15h78c10 0 15 5 15 15v271c0 10 -5 15 -15 15h-78
c-10 0 -15 -5 -15 -15zM130 751h260v-121h-260v121z" />
    <glyph glyph-name="Obreve" unicode="&#x14e;" horiz-adv-x="560" 
d="M48 134v528c0 40 14 74 42 102s62 42 102 42h176c40 0 74 -14 102 -42s42 -62 42 -102v-528c0 -40 -14 -74 -42 -102s-62 -42 -102 -42h-176c-40 0 -74 14 -102 42s-42 62 -42 102zM208 643v-490c0 -9 5 -14 14 -14h115c10 0 15 5 15 14v490c0 9 -5 14 -15 14h-115
c-9 0 -14 -5 -14 -14zM300 1005h97c0 -97 -36 -131 -116 -131s-116 34 -116 131h99c0 -28 6 -42 18 -42s18 14 18 42z" />
    <glyph glyph-name="obreve" unicode="&#x14f;" horiz-adv-x="518" 
d="M45 123v314c0 37 13 68 38 94c26 26 58 39 95 39h162c37 0 69 -13 94 -39c26 -26 39 -57 39 -94v-314c0 -37 -13 -68 -39 -94s-57 -39 -94 -39h-162c-37 0 -68 13 -94 39s-39 57 -39 94zM205 416v-271c0 -10 5 -15 15 -15h78c10 0 15 5 15 15v271c0 10 -5 15 -15 15h-78
c-10 0 -15 -5 -15 -15zM279 765h97c0 -97 -36 -131 -116 -131s-116 34 -116 131h99c0 -28 6 -42 18 -42s18 14 18 42z" />
    <glyph glyph-name="Ohungarumlaut" unicode="&#x150;" horiz-adv-x="560" 
d="M48 134v528c0 40 14 74 42 102s62 42 102 42h176c40 0 74 -14 102 -42s42 -62 42 -102v-528c0 -40 -14 -74 -42 -102s-62 -42 -102 -42h-176c-40 0 -74 14 -102 42s-42 62 -42 102zM208 643v-490c0 -9 5 -14 14 -14h115c10 0 15 5 15 14v490c0 9 -5 14 -15 14h-115
c-9 0 -14 -5 -14 -14zM253 1035h115l-100 -161h-108zM391 1035h125l-110 -161h-108z" />
    <glyph glyph-name="ohungarumlaut" unicode="&#x151;" horiz-adv-x="518" 
d="M45 123v314c0 37 13 68 38 94c26 26 58 39 95 39h162c37 0 69 -13 94 -39c26 -26 39 -57 39 -94v-314c0 -37 -13 -68 -39 -94s-57 -39 -94 -39h-162c-37 0 -68 13 -94 39s-39 57 -39 94zM205 416v-271c0 -10 5 -15 15 -15h78c10 0 15 5 15 15v271c0 10 -5 15 -15 15h-78
c-10 0 -15 -5 -15 -15zM232 795h115l-100 -161h-108zM370 795h125l-110 -161h-108z" />
    <glyph glyph-name="OE" unicode="&#x152;" horiz-adv-x="790" 
d="M760 640h-244v-119h217v-160h-217v-201h244v-160h-350c-11 -7 -23 -11 -38 -11h-180c-40 0 -74 14 -102 42s-42 62 -42 101v530c0 40 14 74 42 102s62 42 102 42h180c10 0 20 -2 31 -6h357v-160zM222 136h120c9 0 14 5 14 15v492c0 9 -5 14 -14 14h-120
c-9 0 -14 -5 -14 -14v-493c0 -9 5 -14 14 -14z" />
    <glyph glyph-name="oe" unicode="&#x153;" horiz-adv-x="773" 
d="M742 225h-269v-80c0 -10 5 -15 15 -15h79c10 0 15 5 15 15v40h160v-62c0 -37 -13 -68 -39 -94s-57 -39 -94 -39h-163c-19 0 -36 4 -53 11c-18 -7 -36 -11 -53 -11h-162c-37 0 -68 13 -94 39s-39 57 -39 94v314c0 37 13 68 38 94c26 26 58 39 95 39h162c19 0 36 -4 53 -11
c17 7 34 11 53 11h163c37 0 68 -13 94 -39s39 -57 39 -94v-212zM313 145v271c0 10 -5 15 -15 15h-78c-10 0 -15 -5 -15 -15v-271c0 -10 5 -15 15 -15h78c10 0 15 5 15 15zM473 416v-94h109v94c0 10 -5 15 -14 15h-80c-10 0 -15 -5 -15 -15z" />
    <glyph glyph-name="Racute" unicode="&#x154;" horiz-adv-x="572" 
d="M59 800h342c33 0 61 -12 84 -35c24 -23 36 -52 36 -85v-144c0 -51 -32 -98 -77 -118c49 -19 84 -65 84 -120v-298h-160v292c0 23 -5 38 -14 46h-135v-338h-160v800zM219 498h125c11 6 16 18 16 36v105c0 10 -3 15 -10 15h-131v-156zM310 1035h153l-121 -161h-135z" />
    <glyph glyph-name="racute" unicode="&#x155;" horiz-adv-x="498" 
d="M174 795h153l-121 -161h-135zM212 560v-40c82 33 140 50 173 50c53 0 96 -44 96 -97v-100h-160v13c0 11 -4 17 -13 17c-21 0 -53 -9 -96 -26v-377h-160v560h160z" />
    <glyph glyph-name="Rcommaaccent" unicode="&#x156;" horiz-adv-x="572" 
d="M59 800h342c33 0 61 -12 84 -35c24 -23 36 -52 36 -85v-144c0 -51 -32 -98 -77 -118c49 -19 84 -65 84 -120v-298h-160v292c0 23 -5 38 -14 46h-135v-338h-160v800zM219 498h125c11 6 16 18 16 36v105c0 10 -3 15 -10 15h-131v-156zM369 -41l-22 -169h-123v169h145z" />
    <glyph glyph-name="rcommaaccent" unicode="&#x157;" horiz-adv-x="498" 
d="M212 560v-40c82 33 140 50 173 50c53 0 96 -44 96 -97v-100h-160v13c0 11 -4 17 -13 17c-21 0 -53 -9 -96 -26v-377h-160v560h160zM200 -41l-22 -169h-123v169h145z" />
    <glyph glyph-name="Rcaron" unicode="&#x158;" horiz-adv-x="572" 
d="M59 800h342c33 0 61 -12 84 -35c24 -23 36 -52 36 -85v-144c0 -51 -32 -98 -77 -118c49 -19 84 -65 84 -120v-298h-160v292c0 23 -5 38 -14 46h-135v-338h-160v800zM219 498h125c11 6 16 18 16 36v105c0 10 -3 15 -10 15h-131v-156zM100 1004h131l37 -64h11l37 64h131
l-112 -136h-124z" />
    <glyph glyph-name="rcaron" unicode="&#x159;" horiz-adv-x="498" 
d="M-37 764h131l37 -64h11l37 64h131l-112 -136h-124zM212 560v-40c82 33 140 50 173 50c53 0 96 -44 96 -97v-100h-160v13c0 11 -4 17 -13 17c-21 0 -53 -9 -96 -26v-377h-160v560h160z" />
    <glyph glyph-name="Sacute" unicode="&#x15a;" horiz-adv-x="536" 
d="M199 282v-129c0 -9 5 -14 14 -14h103c10 0 15 5 15 14v58c0 48 -14 83 -51 114c-18 16 -34 28 -47 36s-33 20 -61 35c-79 43 -126 116 -126 211v55c0 40 14 74 42 102s62 42 102 42h163c40 0 74 -19 102 -57c28 -37 42 -84 42 -139h-160c0 36 -4 47 -20 47h-96
c-10 0 -15 -5 -15 -14v-36c0 -29 24 -58 72 -86c11 -7 32 -18 65 -35c88 -48 148 -144 148 -275v-77c0 -40 -14 -74 -42 -102s-62 -42 -102 -42h-164c-40 0 -74 14 -102 42s-42 62 -42 102v148h160zM300 1035h153l-121 -161h-135z" />
    <glyph glyph-name="sacute" unicode="&#x15b;" horiz-adv-x="503" 
d="M284 795h153l-121 -161h-135zM197 184v-39c0 -10 5 -15 15 -15h80c10 0 15 5 15 15v16c0 12 -2 20 -14 28c-5 4 -10 7 -15 9c-8 5 -40 19 -57 27c-10 5 -26 11 -47 20s-36 15 -45 20l-36 21c-38 28 -52 58 -56 126v18c1 85 58 140 133 140h163c37 0 68 -13 94 -39
s39 -57 39 -94v-39h-160v18c0 10 -5 15 -14 15h-80c-10 0 -15 -5 -15 -15v-8c0 -23 32 -34 95 -62l29 -13c16 -7 26 -11 29 -13l24 -12c13 -6 20 -10 23 -13s10 -7 19 -14c20 -13 19 -21 31 -38c15 -20 19 -51 19 -87v-26c0 -40 -13 -73 -39 -100c-25 -27 -57 -40 -94 -40
h-163c-37 0 -68 13 -94 39s-39 57 -39 94v61h160z" />
    <glyph glyph-name="Scircumflex" unicode="&#x15c;" horiz-adv-x="536" 
d="M199 282v-129c0 -9 5 -14 14 -14h103c10 0 15 5 15 14v58c0 48 -14 83 -51 114c-18 16 -34 28 -47 36s-33 20 -61 35c-79 43 -126 116 -126 211v55c0 40 14 74 42 102s62 42 102 42h163c40 0 74 -19 102 -57c28 -37 42 -84 42 -139h-160c0 36 -4 47 -20 47h-96
c-10 0 -15 -5 -15 -14v-36c0 -29 24 -58 72 -86c11 -7 32 -18 65 -35c88 -48 148 -144 148 -275v-77c0 -40 -14 -74 -42 -102s-62 -42 -102 -42h-164c-40 0 -74 14 -102 42s-42 62 -42 102v148h160zM202 1013h124l111 -136h-131l-37 64h-11l-37 -64h-131z" />
    <glyph glyph-name="scircumflex" unicode="&#x15d;" horiz-adv-x="503" 
d="M185 773h124l111 -136h-131l-37 64h-11l-37 -64h-131zM197 184v-39c0 -10 5 -15 15 -15h80c10 0 15 5 15 15v16c0 12 -2 20 -14 28c-5 4 -10 7 -15 9c-8 5 -40 19 -57 27c-10 5 -26 11 -47 20s-36 15 -45 20l-36 21c-38 28 -52 58 -56 126v18c1 85 58 140 133 140h163
c37 0 68 -13 94 -39s39 -57 39 -94v-39h-160v18c0 10 -5 15 -14 15h-80c-10 0 -15 -5 -15 -15v-8c0 -23 32 -34 95 -62l29 -13c16 -7 26 -11 29 -13l24 -12c13 -6 20 -10 23 -13s10 -7 19 -14c20 -13 19 -21 31 -38c15 -20 19 -51 19 -87v-26c0 -40 -13 -73 -39 -100
c-25 -27 -57 -40 -94 -40h-163c-37 0 -68 13 -94 39s-39 57 -39 94v61h160z" />
    <glyph glyph-name="Scedilla" unicode="&#x15e;" horiz-adv-x="536" 
d="M206 643v-36c0 -29 24 -58 72 -86c11 -7 32 -18 65 -35c88 -48 148 -144 148 -275v-77c0 -40 -14 -74 -42 -102s-62 -42 -102 -42h-19l-2 -17c62 -23 93 -66 93 -130c0 -36 -14 -67 -41 -93c-27 -27 -58 -40 -94 -40c-46 0 -87 15 -124 44l60 97c17 -15 34 -22 50 -22
c23 0 34 11 34 34c0 21 -21 31 -62 31h-33l9 96h-35c-40 0 -74 14 -102 42s-42 62 -42 102v148h160v-129c0 -9 5 -14 14 -14h103c10 0 15 5 15 14v58c0 48 -14 83 -51 114c-18 16 -34 28 -47 36s-33 20 -61 35c-79 43 -126 116 -126 211v55c0 40 14 74 42 102s62 42 102 42
h163c40 0 74 -19 102 -57c28 -37 42 -84 42 -139h-160c0 36 -4 47 -20 47h-96c-10 0 -15 -5 -15 -14z" />
    <glyph glyph-name="scedilla" unicode="&#x15f;" horiz-adv-x="503" 
d="M466 398h-160v18c0 10 -5 15 -14 15h-80c-10 0 -15 -5 -15 -15v-8c0 -23 32 -34 95 -62l29 -13c16 -7 26 -11 29 -13l24 -12c13 -6 20 -10 23 -13s10 -7 19 -14c20 -13 19 -21 31 -38c15 -20 19 -51 19 -87v-26c0 -40 -13 -73 -39 -100c-25 -27 -57 -40 -94 -40h-24
l-2 -17c62 -23 93 -66 93 -130c0 -36 -14 -67 -41 -93c-27 -27 -58 -40 -94 -40c-46 0 -87 15 -124 44l60 97c17 -15 34 -22 50 -22c23 0 34 11 34 34c0 21 -21 31 -62 31h-33l9 96h-29c-37 0 -68 13 -94 39s-39 57 -39 94v61h160v-39c0 -10 5 -15 15 -15h80
c10 0 15 5 15 15v16c0 12 -2 20 -14 28c-5 4 -10 7 -15 9c-8 5 -40 19 -57 27c-10 5 -26 11 -47 20s-36 15 -45 20l-36 21c-38 28 -52 58 -56 126v18c1 85 58 140 133 140h163c37 0 68 -13 94 -39s39 -57 39 -94v-39z" />
    <glyph glyph-name="Scaron" unicode="&#x160;" horiz-adv-x="536" 
d="M199 282v-129c0 -9 5 -14 14 -14h103c10 0 15 5 15 14v58c0 48 -14 83 -51 114c-18 16 -34 28 -47 36s-33 20 -61 35c-79 43 -126 116 -126 211v55c0 40 14 74 42 102s62 42 102 42h163c40 0 74 -19 102 -57c28 -37 42 -84 42 -139h-160c0 36 -4 47 -20 47h-96
c-10 0 -15 -5 -15 -14v-36c0 -29 24 -58 72 -86c11 -7 32 -18 65 -35c88 -48 148 -144 148 -275v-77c0 -40 -14 -74 -42 -102s-62 -42 -102 -42h-164c-40 0 -74 14 -102 42s-42 62 -42 102v148h160zM89 1004h131l37 -64h11l37 64h131l-112 -136h-124z" />
    <glyph glyph-name="scaron" unicode="&#x161;" horiz-adv-x="503" 
d="M73 764h131l37 -64h11l37 64h131l-112 -136h-124zM197 184v-39c0 -10 5 -15 15 -15h80c10 0 15 5 15 15v16c0 12 -2 20 -14 28c-5 4 -10 7 -15 9c-8 5 -40 19 -57 27c-10 5 -26 11 -47 20s-36 15 -45 20l-36 21c-38 28 -52 58 -56 126v18c1 85 58 140 133 140h163
c37 0 68 -13 94 -39s39 -57 39 -94v-39h-160v18c0 10 -5 15 -14 15h-80c-10 0 -15 -5 -15 -15v-8c0 -23 32 -34 95 -62l29 -13c16 -7 26 -11 29 -13l24 -12c13 -6 20 -10 23 -13s10 -7 19 -14c20 -13 19 -21 31 -38c15 -20 19 -51 19 -87v-26c0 -40 -13 -73 -39 -100
c-25 -27 -57 -40 -94 -40h-163c-37 0 -68 13 -94 39s-39 57 -39 94v61h160z" />
    <glyph glyph-name="Tcedilla" unicode="&#x162;" horiz-adv-x="502" 
d="M332 0h-22l-3 -27c62 -23 93 -66 93 -130c0 -36 -14 -67 -41 -93c-27 -27 -58 -40 -94 -40c-46 0 -87 15 -124 44l60 97c17 -15 34 -22 50 -22c23 0 34 11 34 34c0 21 -21 31 -62 31h-33l10 106h-28v640h-163v160h484v-160h-161v-640z" />
    <glyph glyph-name="tcedilla" unicode="&#x163;" horiz-adv-x="395" 
d="M386 402h-150v-236c0 -11 5 -16 14 -16h69v-160h-64l-2 -17c62 -23 93 -66 93 -130c0 -36 -14 -67 -41 -93c-27 -27 -58 -40 -94 -40c-46 0 -87 15 -124 44l60 97c17 -15 34 -22 50 -22c23 0 34 11 34 34c0 21 -21 31 -62 31h-33v6l11 120c-47 33 -71 79 -71 136v246h-67
v158h67v144h160v-144h150v-158z" />
    <glyph glyph-name="Tcaron" unicode="&#x164;" horiz-adv-x="502" 
d="M9 640v160h484v-160h-161v-640h-160v640h-163zM73 1004h131l37 -64h11l37 64h131l-112 -136h-124z" />
    <glyph glyph-name="tcaron" unicode="&#x165;" horiz-adv-x="500" 
d="M530 767l-22 -200h-119v200h141zM236 402v-236c0 -11 5 -16 14 -16h69v-160h-75c-47 -1 -86 15 -119 48s-49 72 -49 118v246h-67v158h67v144h160v-144h150v-158h-150z" />
    <glyph glyph-name="Tbar" unicode="&#x166;" horiz-adv-x="502" 
d="M493 640h-161v-198h131v-157h-131v-285h-160v285h-132v157h132v198h-163v160h484v-160z" />
    <glyph glyph-name="tbar" unicode="&#x167;" horiz-adv-x="395" 
d="M386 402h-150v-48h149v-140h-149v-48c0 -11 5 -16 14 -16h69v-160h-75c-47 -1 -86 15 -119 48s-49 72 -49 118v58h-65v140h65v48h-67v158h67v144h160v-144h150v-158z" />
    <glyph glyph-name="Utilde" unicode="&#x168;" horiz-adv-x="566" 
d="M144 858v132c21 21 45 31 72 31c17 0 40 -4 69 -13c30 -8 53 -12 68 -12c28 0 52 6 71 18v-132c-22 -15 -46 -22 -71 -22c-17 0 -40 4 -70 12c-29 9 -52 13 -67 13c-27 0 -51 -9 -72 -27zM211 800v-642c0 -13 5 -19 14 -19h116c9 0 14 6 14 19v642h160v-666
c0 -40 -14 -74 -42 -102s-62 -42 -102 -42h-176c-40 0 -74 14 -102 42s-42 62 -42 102v666h160z" />
    <glyph glyph-name="utilde" unicode="&#x169;" horiz-adv-x="529" 
d="M317 0v40c-82 -33 -140 -50 -173 -50c-53 0 -96 44 -96 97v473h160v-386c0 -11 4 -17 13 -17c21 0 53 9 96 26v377h160v-560h-160zM125 618v132c21 21 45 31 72 31c17 0 40 -4 69 -13c30 -8 53 -12 68 -12c28 0 52 6 71 18v-132c-22 -15 -46 -22 -71 -22
c-17 0 -40 4 -70 12c-29 9 -52 13 -67 13c-27 0 -51 -9 -72 -27z" />
    <glyph glyph-name="Umacron" unicode="&#x16a;" horiz-adv-x="566" 
d="M154 991h260v-121h-260v121zM211 800v-642c0 -13 5 -19 14 -19h116c9 0 14 6 14 19v642h160v-666c0 -40 -14 -74 -42 -102s-62 -42 -102 -42h-176c-40 0 -74 14 -102 42s-42 62 -42 102v666h160z" />
    <glyph glyph-name="umacron" unicode="&#x16b;" horiz-adv-x="529" 
d="M317 0v40c-82 -33 -140 -50 -173 -50c-53 0 -96 44 -96 97v473h160v-386c0 -11 4 -17 13 -17c21 0 53 9 96 26v377h160v-560h-160zM135 751h260v-121h-260v121z" />
    <glyph glyph-name="Ubreve" unicode="&#x16c;" horiz-adv-x="566" 
d="M303 1005h97c0 -97 -36 -131 -116 -131s-116 34 -116 131h99c0 -28 6 -42 18 -42s18 14 18 42zM211 800v-642c0 -13 5 -19 14 -19h116c9 0 14 6 14 19v642h160v-666c0 -40 -14 -74 -42 -102s-62 -42 -102 -42h-176c-40 0 -74 14 -102 42s-42 62 -42 102v666h160z" />
    <glyph glyph-name="ubreve" unicode="&#x16d;" horiz-adv-x="529" 
d="M317 0v40c-82 -33 -140 -50 -173 -50c-53 0 -96 44 -96 97v473h160v-386c0 -11 4 -17 13 -17c21 0 53 9 96 26v377h160v-560h-160zM284 765h97c0 -97 -36 -131 -116 -131s-116 34 -116 131h99c0 -28 6 -42 18 -42s18 14 18 42z" />
    <glyph glyph-name="Uring" unicode="&#x16e;" horiz-adv-x="566" 
d="M285 839c-72 0 -123 42 -123 111c0 71 51 113 123 113c69 0 120 -42 120 -113c0 -69 -52 -111 -120 -111zM249 950c0 -31 12 -46 36 -46s36 15 36 46s-12 46 -36 46s-36 -15 -36 -46zM211 800v-642c0 -13 5 -19 14 -19h116c9 0 14 6 14 19v642h160v-666
c0 -40 -14 -74 -42 -102s-62 -42 -102 -42h-176c-40 0 -74 14 -102 42s-42 62 -42 102v666h160z" />
    <glyph glyph-name="uring" unicode="&#x16f;" horiz-adv-x="529" 
d="M317 0v40c-82 -33 -140 -50 -173 -50c-53 0 -96 44 -96 97v473h160v-386c0 -11 4 -17 13 -17c21 0 53 9 96 26v377h160v-560h-160zM266 599c-72 0 -123 42 -123 111c0 71 51 113 123 113c69 0 120 -42 120 -113c0 -69 -52 -111 -120 -111zM230 710c0 -31 12 -46 36 -46
s36 15 36 46s-12 46 -36 46s-36 -15 -36 -46z" />
    <glyph glyph-name="Uhungarumlaut" unicode="&#x170;" horiz-adv-x="566" 
d="M256 1035h115l-100 -161h-108zM394 1035h125l-110 -161h-108zM211 800v-642c0 -13 5 -19 14 -19h116c9 0 14 6 14 19v642h160v-666c0 -40 -14 -74 -42 -102s-62 -42 -102 -42h-176c-40 0 -74 14 -102 42s-42 62 -42 102v666h160z" />
    <glyph glyph-name="uhungarumlaut" unicode="&#x171;" horiz-adv-x="529" 
d="M317 0v40c-82 -33 -140 -50 -173 -50c-53 0 -96 44 -96 97v473h160v-386c0 -11 4 -17 13 -17c21 0 53 9 96 26v377h160v-560h-160zM237 795h115l-100 -161h-108zM375 795h125l-110 -161h-108z" />
    <glyph glyph-name="Uogonek" unicode="&#x172;" horiz-adv-x="566" 
d="M355 800h160v-666c0 -40 -14 -74 -42 -102s-62 -42 -102 -42c-29 -3 -44 -13 -44 -31c0 -11 4 -16 12 -16c11 0 27 8 46 23l48 -79c-37 -29 -76 -43 -118 -43c-69 0 -111 39 -111 88c0 21 5 41 16 58h-25c-40 0 -74 14 -102 42s-42 62 -42 102v666h160v-642
c0 -13 5 -19 14 -19h116c9 0 14 6 14 19v642z" />
    <glyph glyph-name="uogonek" unicode="&#x173;" horiz-adv-x="529" 
d="M490 -24l48 -79c-37 -29 -76 -43 -118 -43c-69 0 -111 39 -111 88c0 21 5 41 16 58h-8v40c-82 -33 -140 -50 -173 -50c-53 0 -96 44 -96 97v473h160v-386c0 -11 4 -17 13 -17c21 0 53 9 96 26v377h160v-560h-1c-29 -3 -44 -13 -44 -31c0 -11 4 -16 12 -16
c11 0 27 8 46 23z" />
    <glyph glyph-name="Wcircumflex" unicode="&#x174;" horiz-adv-x="855" 
d="M361 1013h124l111 -136h-131l-37 64h-11l-37 -64h-131zM211 800v-647c0 -9 5 -14 14 -14h63c39 0 59 45 59 89v572h160v-572c0 -21 5 -42 15 -61c11 -19 25 -28 44 -28h63c10 0 15 5 15 14v647h160v-666c0 -40 -14 -74 -42 -102s-62 -42 -102 -42h-94
c-65 0 -119 42 -139 105c-17 -63 -71 -105 -139 -105h-93c-40 0 -74 14 -102 42s-42 62 -42 102v666h160z" />
    <glyph glyph-name="wcircumflex" unicode="&#x175;" horiz-adv-x="766" 
d="M316 773h124l111 -136h-131l-37 64h-11l-37 -64h-131zM718 560v-426c0 -40 -14 -74 -42 -102s-62 -42 -102 -42h-64c-59 0 -108 43 -127 104c-16 -61 -66 -104 -127 -104h-64c-40 0 -74 14 -102 42s-42 62 -42 102v426h160v-416c0 -9 5 -14 14 -14h34c31 0 47 24 47 72
v358h160v-358c0 -44 16 -72 47 -72h33c10 0 15 5 15 14v416h160z" />
    <glyph glyph-name="Ycircumflex" unicode="&#x176;" horiz-adv-x="603" 
d="M584 800l-118 -546c-5 -19 -28 -32 -56 -32h-26v-222h-159v222h-23c-31 0 -50 11 -55 32l-128 546h164l81 -420c2 -11 5 -17 10 -17h64c6 0 9 6 10 17l76 420h160zM236 1013h124l111 -136h-131l-37 64h-11l-37 -64h-131z" />
    <glyph glyph-name="ycircumflex" unicode="&#x177;" horiz-adv-x="518" 
d="M194 773h124l111 -136h-131l-37 64h-11l-37 -64h-131zM183 560l47 -415c1 -10 4 -15 9 -15h44c6 0 9 5 10 15l44 415h161l-109 -716h-153l23 145h-103c-20 0 -40 17 -43 34l-91 537h161z" />
    <glyph glyph-name="Ydieresis" unicode="&#x178;" horiz-adv-x="603" 
d="M584 800l-118 -546c-5 -19 -28 -32 -56 -32h-26v-222h-159v222h-23c-31 0 -50 11 -55 32l-128 546h164l81 -420c2 -11 5 -17 10 -17h64c6 0 9 6 10 17l76 420h160zM119 938c0 44 35 81 78 81s79 -38 79 -81c0 -41 -36 -76 -79 -76s-78 35 -78 76zM408 862
c-43 0 -78 35 -78 76c0 44 35 81 78 81c41 0 76 -38 76 -81c0 -41 -35 -76 -76 -76z" />
    <glyph glyph-name="Zacute" unicode="&#x179;" horiz-adv-x="517" 
d="M23 640v160h471l-248 -640h248v-160h-471l250 640h-250zM291 1035h153l-121 -161h-135z" />
    <glyph glyph-name="zacute" unicode="&#x17a;" horiz-adv-x="477" 
d="M271 795h153l-121 -161h-135zM265 404h-237v156h420v-156l-240 -245h243v-159h-425v160z" />
    <glyph glyph-name="Zdotaccent" unicode="&#x17b;" horiz-adv-x="517" 
d="M23 640v160h471l-248 -640h248v-160h-471l250 640h-250zM258 851c-45 0 -82 37 -82 82c0 47 37 85 82 85s84 -38 84 -85c0 -45 -37 -82 -84 -82z" />
    <glyph glyph-name="zdotaccent" unicode="&#x17c;" horiz-adv-x="477" 
d="M238 611c-45 0 -82 37 -82 82c0 47 37 85 82 85s84 -38 84 -85c0 -45 -37 -82 -84 -82zM265 404h-237v156h420v-156l-240 -245h243v-159h-425v160z" />
    <glyph glyph-name="Zcaron" unicode="&#x17d;" horiz-adv-x="517" 
d="M23 640v160h471l-248 -640h248v-160h-471l250 640h-250zM80 1004h131l37 -64h11l37 64h131l-112 -136h-124z" />
    <glyph glyph-name="zcaron" unicode="&#x17e;" horiz-adv-x="477" 
d="M60 764h131l37 -64h11l37 64h131l-112 -136h-124zM265 404h-237v156h420v-156l-240 -245h243v-159h-425v160z" />
    <glyph glyph-name="longs" unicode="&#x17f;" horiz-adv-x="327" 
d="M34 -153v160c11 0 17 7 17 20v375h-42v158h42v41c0 45 16 84 49 116s72 48 119 48h108v-160h-102c-9 0 -14 -5 -14 -15v-577c-1 -46 -19 -85 -53 -117c-33 -33 -75 -49 -124 -49z" />
    <glyph glyph-name="florin" unicode="&#x192;" horiz-adv-x="375" 
d="M327 756v-160h-76c-10 0 -15 -5 -15 -15v-126h49v-159h-49v-286c0 -45 -18 -84 -54 -116c-35 -33 -77 -49 -126 -49v160c11 0 17 5 17 15v276h-25v159h25v137c0 45 16 84 49 116s72 48 119 48h86z" />
    <glyph glyph-name="DZcaron" unicode="&#x1c4;" horiz-adv-x="1088" 
d="M59 800h320c41 0 75 -13 102 -40c28 -26 42 -59 42 -98v-518c0 -40 -14 -74 -42 -102s-62 -42 -102 -42h-320v800zM844 640h-250v160h471l-248 -640h248v-160h-471zM219 149h130c9 0 14 5 14 15v472c0 10 -5 15 -14 15h-130v-502zM651 1004h131l37 -64h11l37 64h131
l-112 -136h-124z" />
    <glyph glyph-name="Dzcaron" unicode="&#x1c5;" horiz-adv-x="1048" 
d="M59 800h320c41 0 75 -13 102 -40c28 -26 42 -59 42 -98v-518c0 -40 -14 -74 -42 -102s-62 -42 -102 -42h-320v800zM631 764h131l37 -64h11l37 64h131l-112 -136h-124zM219 149h130c9 0 14 5 14 15v472c0 10 -5 15 -14 15h-130v-502zM597 160l239 244h-237v156h420v-156
l-240 -245h243v-159h-425v160z" />
    <glyph glyph-name="dzcaron" unicode="&#x1c6;" horiz-adv-x="1002" 
d="M473 764v-764h-160v40c-82 -33 -140 -50 -173 -50c-53 0 -96 44 -96 97v351c0 37 13 68 39 94s57 39 94 39h136v193h160zM585 764h131l37 -64h11l37 64h131l-112 -136h-124zM551 160l239 244h-237v156h420v-156l-240 -245h243v-159h-425v160zM313 183v232
c0 10 -5 15 -15 15h-79c-10 0 -15 -5 -15 -15v-241c0 -11 4 -17 13 -17c21 0 53 9 96 26z" />
    <glyph glyph-name="LJ" unicode="&#x1c7;" horiz-adv-x="993" 
d="M217 800v-640h244v-160h-402v800h158zM645 292v-138c0 -10 5 -15 14 -15h112c9 0 14 5 14 15v646h160v-666c0 -40 -14 -74 -42 -102s-62 -42 -102 -42h-172c-40 0 -74 14 -102 42s-42 62 -42 102v158h160z" />
    <glyph glyph-name="Lj" unicode="&#x1c8;" horiz-adv-x="760" 
d="M217 800v-640h244v-160h-402v800h158zM542 765h162v-106h-162v106zM543 560h160v-601c0 -78 -55 -117 -166 -117h-92v90h69c19 0 29 9 29 27v601z" />
    <glyph glyph-name="lj" unicode="&#x1c9;" horiz-adv-x="615" 
d="M559 765v-106h-162v106h162zM299 150v-160h-75c-47 -1 -86 15 -119 48s-49 72 -49 118v608h160v-598c0 -11 5 -16 14 -16h69zM558 560v-601c0 -78 -55 -117 -166 -117h-92v90h69c19 0 29 9 29 27v601h160z" />
    <glyph glyph-name="NJ" unicode="&#x1ca;" horiz-adv-x="1167" 
d="M326 800l94 -640h10l-7 640h160v-800h-266l-96 640h-9l7 -640h-160v800h267zM819 292v-138c0 -10 5 -15 14 -15h112c9 0 14 5 14 15v646h160v-666c0 -40 -14 -74 -42 -102s-62 -42 -102 -42h-172c-40 0 -74 14 -102 42s-42 62 -42 102v158h160z" />
    <glyph glyph-name="Nj" unicode="&#x1cb;" horiz-adv-x="934" 
d="M326 800l94 -640h10l-7 640h160v-800h-266l-96 640h-9l7 -640h-160v800h267zM716 765h162v-106h-162v106zM717 560h160v-601c0 -78 -55 -117 -166 -117h-92v90h69c19 0 29 9 29 27v601z" />
    <glyph glyph-name="nj" unicode="&#x1cc;" horiz-adv-x="821" 
d="M765 765v-106h-162v106h162zM212 560v-40c82 33 140 50 173 50c53 0 96 -44 96 -97v-473h-160v386c0 11 -4 17 -13 17c-21 0 -53 -9 -96 -26v-377h-160v560h160zM764 560v-601c0 -78 -55 -117 -166 -117h-92v90h69c19 0 29 9 29 27v601h160z" />
    <glyph glyph-name="Oogonek" unicode="&#x1ea;" horiz-adv-x="560" 
d="M192 806h176c40 0 74 -14 102 -42s42 -62 42 -102v-528c0 -40 -14 -74 -42 -102s-62 -42 -102 -42c-29 -3 -44 -13 -44 -31c0 -11 4 -16 12 -16c11 0 27 8 46 23l48 -79c-37 -29 -76 -43 -118 -43c-69 0 -111 39 -111 88c0 21 5 41 16 58h-25c-40 0 -74 14 -102 42
s-42 62 -42 102v528c0 40 14 74 42 102s62 42 102 42zM208 643v-490c0 -9 5 -14 14 -14h115c10 0 15 5 15 14v490c0 9 -5 14 -15 14h-115c-9 0 -14 -5 -14 -14z" />
    <glyph glyph-name="oogonek" unicode="&#x1eb;" horiz-adv-x="518" 
d="M178 570h162c37 0 69 -13 94 -39c26 -26 39 -57 39 -94v-314c0 -37 -13 -68 -39 -94s-57 -39 -94 -39c-29 -3 -44 -13 -44 -31c0 -11 4 -16 12 -16c11 0 27 8 46 23l48 -79c-37 -29 -76 -43 -118 -43c-69 0 -111 39 -111 88c0 21 5 41 16 58h-11c-37 0 -68 13 -94 39
s-39 57 -39 94v314c0 37 13 68 38 94c26 26 58 39 95 39zM205 416v-271c0 -10 5 -15 15 -15h78c10 0 15 5 15 15v271c0 10 -5 15 -15 15h-78c-10 0 -15 -5 -15 -15z" />
    <glyph glyph-name="DZ" unicode="&#x1f1;" horiz-adv-x="1088" 
d="M59 800h320c41 0 75 -13 102 -40c28 -26 42 -59 42 -98v-518c0 -40 -14 -74 -42 -102s-62 -42 -102 -42h-320v800zM844 640h-250v160h471l-248 -640h248v-160h-471zM219 149h130c9 0 14 5 14 15v472c0 10 -5 15 -14 15h-130v-502z" />
    <glyph glyph-name="Dz" unicode="&#x1f2;" horiz-adv-x="1048" 
d="M597 160l239 244h-237v156h420v-156l-240 -245h243v-159h-425v160zM59 800h320c41 0 75 -13 102 -40c28 -26 42 -59 42 -98v-518c0 -40 -14 -74 -42 -102s-62 -42 -102 -42h-320v800zM219 149h130c9 0 14 5 14 15v472c0 10 -5 15 -14 15h-130v-502z" />
    <glyph glyph-name="dz" unicode="&#x1f3;" horiz-adv-x="1002" 
d="M473 764v-764h-160v40c-82 -33 -140 -50 -173 -50c-53 0 -96 44 -96 97v351c0 37 13 68 39 94s57 39 94 39h136v193h160zM551 160l239 244h-237v156h420v-156l-240 -245h243v-159h-425v160zM313 183v232c0 10 -5 15 -15 15h-79c-10 0 -15 -5 -15 -15v-241
c0 -11 4 -17 13 -17c21 0 53 9 96 26z" />
    <glyph glyph-name="Aringacute" unicode="&#x1fa;" horiz-adv-x="599" 
d="M473 1168l-121 -161h-135l103 161h153zM459 766l122 -766h-160l-21 159h-204l-21 -159h-160l121 766c3 17 23 34 43 34h13c-8 15 -12 33 -12 52c0 71 51 113 123 113c69 0 120 -42 120 -113c0 -20 -4 -37 -12 -52h5c20 0 40 -17 43 -34zM339 852c0 31 -12 46 -36 46
s-36 -15 -36 -46s12 -46 36 -46s36 15 36 46zM217 319h162l-40 302c-1 13 -5 19 -13 19h-56c-8 0 -12 -6 -13 -19z" />
    <glyph glyph-name="aringacute" unicode="&#x1fb;" horiz-adv-x="509" 
d="M33 86v113c0 49 7 81 22 98s40 30 77 39l169 30v50c0 10 -5 15 -15 15h-65c-10 0 -15 -5 -15 -15v-34h-151v53c0 43 15 77 46 100s67 35 108 35h100c41 1 76 -11 106 -34c31 -23 46 -56 46 -99v-437h-154v51c-97 -41 -159 -61 -188 -61c-52 0 -86 41 -86 96zM184 191v-50
c0 -7 4 -10 12 -10c13 0 48 10 105 29v83l-92 -20c-17 -4 -25 -15 -25 -32zM268 599c-72 0 -123 42 -123 111c0 71 51 113 123 113c69 0 120 -42 120 -113c0 -69 -52 -111 -120 -111zM232 710c0 -31 12 -46 36 -46s36 15 36 46s-12 46 -36 46s-36 -15 -36 -46zM312 1015h153
l-121 -161h-135z" />
    <glyph glyph-name="AEacute" unicode="&#x1fc;" horiz-adv-x="787" 
d="M430 1035h153l-121 -161h-135zM757 635h-243v-114h216v-160h-216v-201h243v-160h-403v159h-145l-30 -159h-160l120 766c3 17 23 34 43 34h575v-165zM354 646h-63c-11 0 -18 -6 -21 -18l-39 -309h123v327z" />
    <glyph glyph-name="aeacute" unicode="&#x1fd;" horiz-adv-x="761" 
d="M416 792h153l-121 -161h-135zM461 225v-80c0 -10 5 -15 15 -15h79c10 0 15 5 15 15v40h160v-62c0 -37 -13 -68 -39 -94s-57 -39 -94 -39h-163c-49 0 -87 21 -113 64l-2 -1c-96 -42 -163 -63 -200 -63c-52 0 -86 41 -86 96v113c0 47 8 79 23 98s41 32 76 39l169 30v50
c0 10 -5 15 -15 15h-65c-10 0 -15 -5 -15 -15v-34h-151v53c0 43 15 76 46 99c31 24 67 36 108 36h100c22 1 45 -4 68 -13c19 9 38 13 57 13h163c37 0 68 -13 94 -39s39 -57 39 -94v-212h-269zM461 322h109v94c0 10 -5 15 -15 15h-79c-10 0 -15 -5 -15 -15v-94zM301 243
l-92 -20c-17 -4 -25 -15 -25 -32v-50c0 -7 4 -10 12 -10c13 0 48 10 105 29v83z" />
    <glyph glyph-name="Oslashacute" unicode="&#x1fe;" horiz-adv-x="593" 
d="M343 1035h153l-121 -161h-135zM542 868l-50 -120c19 -25 28 -53 28 -86v-528c0 -40 -14 -74 -42 -102s-62 -42 -102 -42h-176c-6 0 -14 1 -25 2l-19 -44h-119l44 105c-17 24 -25 51 -25 81v528c0 40 14 74 42 102s62 42 102 42h176c5 0 12 -1 21 -2l27 64h118zM216 374
l119 283h-105c-9 0 -14 -5 -14 -14v-269zM360 434l-124 -295h109c10 0 15 5 15 14v281z" />
    <glyph glyph-name="oslashacute" unicode="&#x1ff;" 
d="M491 590l-39 -70c19 -23 29 -51 29 -83v-314c0 -37 -13 -68 -39 -94s-57 -39 -94 -39h-162c-9 0 -15 0 -19 1l-12 -23h-110l39 70c-21 24 -31 52 -31 85v314c0 37 13 68 38 94c26 26 58 39 95 39h162c5 0 12 -1 21 -2l2 4l1 -1l10 19h109zM297 431h-69
c-10 0 -15 -5 -15 -15v-145zM230 130h76c10 0 15 5 15 15v161zM318 792h153l-121 -161h-135z" />
    <glyph glyph-name="Scommaaccent" unicode="&#x218;" horiz-adv-x="536" 
d="M199 282v-129c0 -9 5 -14 14 -14h103c10 0 15 5 15 14v58c0 48 -14 83 -51 114c-18 16 -34 28 -47 36s-33 20 -61 35c-79 43 -126 116 -126 211v55c0 40 14 74 42 102s62 42 102 42h163c40 0 74 -19 102 -57c28 -37 42 -84 42 -139h-160c0 36 -4 47 -20 47h-96
c-10 0 -15 -5 -15 -14v-36c0 -29 24 -58 72 -86c11 -7 32 -18 65 -35c88 -48 148 -144 148 -275v-77c0 -40 -14 -74 -42 -102s-62 -42 -102 -42h-164c-40 0 -74 14 -102 42s-42 62 -42 102v148h160zM336 -41l-22 -169h-123v169h145z" />
    <glyph glyph-name="scommaaccent" unicode="&#x219;" horiz-adv-x="503" 
d="M197 184v-39c0 -10 5 -15 15 -15h80c10 0 15 5 15 15v16c0 12 -2 20 -14 28c-5 4 -10 7 -15 9c-8 5 -40 19 -57 27c-10 5 -26 11 -47 20s-36 15 -45 20l-36 21c-38 28 -52 58 -56 126v18c1 85 58 140 133 140h163c37 0 68 -13 94 -39s39 -57 39 -94v-39h-160v18
c0 10 -5 15 -14 15h-80c-10 0 -15 -5 -15 -15v-8c0 -23 32 -34 95 -62l29 -13c16 -7 26 -11 29 -13l24 -12c13 -6 20 -10 23 -13s10 -7 19 -14c20 -13 19 -21 31 -38c15 -20 19 -51 19 -87v-26c0 -40 -13 -73 -39 -100c-25 -27 -57 -40 -94 -40h-163c-37 0 -68 13 -94 39
s-39 57 -39 94v61h160zM317 -41l-22 -169h-123v169h145z" />
    <glyph glyph-name="uni021A" unicode="&#x21a;" horiz-adv-x="502" 
d="M9 640v160h484v-160h-161v-640h-160v640h-163zM317 -41l-22 -169h-123v169h145z" />
    <glyph glyph-name="uni021B" unicode="&#x21b;" horiz-adv-x="395" 
d="M236 402v-236c0 -11 5 -16 14 -16h69v-160h-75c-47 -1 -86 15 -119 48s-49 72 -49 118v246h-67v158h67v144h160v-144h150v-158h-150zM263 -41l-22 -169h-123v169h145z" />
    <glyph glyph-name="dotlessj" unicode="&#x237;" horiz-adv-x="291" 
d="M75 560h160v-601c0 -78 -55 -117 -166 -117h-92v90h69c19 0 29 9 29 27v601z" />
    <glyph glyph-name="uni02BC" unicode="&#x2bc;" horiz-adv-x="614" 
d="M297 767l-22 -200h-119v200h141z" />
    <glyph glyph-name="circumflex" unicode="&#x2c6;" horiz-adv-x="422" 
d="M150 773h124l111 -136h-131l-37 64h-11l-37 -64h-131z" />
    <glyph glyph-name="caron" unicode="&#x2c7;" horiz-adv-x="501" 
d="M74 764h131l37 -64h11l37 64h131l-112 -136h-124z" />
    <glyph glyph-name="breve" unicode="&#x2d8;" horiz-adv-x="250" 
d="M144 765h97c0 -97 -36 -131 -116 -131s-116 34 -116 131h99c0 -28 6 -42 18 -42s18 14 18 42z" />
    <glyph glyph-name="dotaccent" unicode="&#x2d9;" horiz-adv-x="285" 
d="M142 611c-45 0 -82 37 -82 82c0 47 37 85 82 85s84 -38 84 -85c0 -45 -37 -82 -84 -82z" />
    <glyph glyph-name="ring" unicode="&#x2da;" horiz-adv-x="321" 
d="M162 599c-72 0 -123 42 -123 111c0 71 51 113 123 113c69 0 120 -42 120 -113c0 -69 -52 -111 -120 -111zM126 710c0 -31 12 -46 36 -46s36 15 36 46s-12 46 -36 46s-36 -15 -36 -46z" />
    <glyph glyph-name="ogonek" unicode="&#x2db;" horiz-adv-x="596" 
d="M329 -61l48 -79c-37 -29 -76 -43 -118 -43c-69 0 -111 39 -111 88c0 40 15 70 45 89c31 19 67 30 108 35l14 -66c-29 -3 -44 -13 -44 -31c0 -11 4 -16 12 -16c11 0 27 8 46 23z" />
    <glyph glyph-name="tilde" unicode="&#x2dc;" horiz-adv-x="325" 
d="M23 618v132c21 21 45 31 72 31c17 0 40 -4 69 -13c30 -8 53 -12 68 -12c28 0 52 6 71 18v-132c-22 -15 -46 -22 -71 -22c-17 0 -40 4 -70 12c-29 9 -52 13 -67 13c-27 0 -51 -9 -72 -27z" />
    <glyph glyph-name="hungarumlaut" unicode="&#x2dd;" horiz-adv-x="472" 
d="M176 795h115l-100 -161h-108zM314 795h125l-110 -161h-108z" />
    <glyph glyph-name="dotbelowcomb" unicode="&#x323;" horiz-adv-x="0" 
d="M144 -213c-45 0 -82 37 -82 82c0 47 37 85 82 85s84 -38 84 -85c0 -45 -37 -82 -84 -82z" />
    <glyph glyph-name="commaaccentcomb" unicode="&#x326;" horiz-adv-x="0" 
d="M231 -41l-22 -169h-123v169h145z" />
    <glyph glyph-name="tonos" unicode="&#x384;" horiz-adv-x="0" 
d="M204 803h150l-51 -161h-152z" />
    <glyph glyph-name="dieresistonos" unicode="&#x385;" horiz-adv-x="0" 
d="M413 803l-51 -161h-152l53 161h150zM46 698c0 44 35 81 78 81s79 -38 79 -81c0 -41 -36 -76 -79 -76s-78 35 -78 76zM488 622c-44 0 -79 35 -79 76c0 44 35 81 79 81c41 0 76 -38 76 -81c0 -41 -35 -76 -76 -76z" />
    <glyph glyph-name="Alphatonos" unicode="&#x386;" horiz-adv-x="599" 
d="M-39 800h150l-51 -161h-152zM196 159l-21 -159h-160l121 766c3 17 23 34 43 34h237c20 0 40 -17 43 -34l122 -766h-160l-21 159h-204zM379 319l-40 302c-1 13 -5 19 -13 19h-56c-8 0 -12 -6 -13 -19l-40 -302h162z" />
    <glyph glyph-name="Epsilontonos" unicode="&#x388;" horiz-adv-x="491" 
d="M463 640h-244v-149h217v-160h-217v-171h244v-160h-404v800h404v-160zM-101 800h150l-51 -161h-152z" />
    <glyph glyph-name="Etatonos" unicode="&#x389;" horiz-adv-x="579" 
d="M219 521h141v279h160v-800h-160v364h-141v-364h-160v800h160v-279zM-102 800h150l-51 -161h-152z" />
    <glyph glyph-name="Iotatonos" unicode="&#x38a;" horiz-adv-x="286" 
d="M-106 800h150l-51 -161h-152zM223 0h-160v800h160v-800z" />
    <glyph glyph-name="Omicrontonos" unicode="&#x38c;" horiz-adv-x="560" 
d="M48 134v528c0 40 14 74 42 102s62 42 102 42h176c40 0 74 -14 102 -42s42 -62 42 -102v-528c0 -40 -14 -74 -42 -102s-62 -42 -102 -42h-176c-40 0 -74 14 -102 42s-42 62 -42 102zM-89 800h150l-51 -161h-152zM208 643v-490c0 -9 5 -14 14 -14h115c10 0 15 5 15 14v490
c0 9 -5 14 -15 14h-115c-9 0 -14 -5 -14 -14z" />
    <glyph glyph-name="Upsilontonos" unicode="&#x38e;" horiz-adv-x="603" 
d="M584 800l-118 -546c-5 -19 -28 -32 -56 -32h-26v-222h-159v222h-23c-31 0 -50 11 -55 32l-128 546h164l81 -420c2 -11 5 -17 10 -17h64c6 0 9 6 10 17l76 420h160zM-151 800h150l-51 -161h-152z" />
    <glyph glyph-name="Omegatonos" unicode="&#x38f;" horiz-adv-x="597" 
d="M549 160v-160h-196v297h12c5 7 8 15 8 23v322c0 10 -5 15 -15 15h-119c-10 0 -15 -5 -15 -15v-322c0 -8 3 -16 8 -24h12v-296h-196v160h65v42c-33 27 -49 54 -49 81v379c0 40 14 74 42 102s62 42 102 42h181c40 0 74 -14 102 -42s42 -62 42 -102v-379
c0 -25 -16 -52 -49 -81v-42h65zM-73 800h150l-51 -161h-152z" />
    <glyph glyph-name="iotadieresistonos" unicode="&#x390;" horiz-adv-x="286" 
d="M118 1043h150l-51 -161h-152zM-100 938c0 44 35 81 78 81s79 -38 79 -81c0 -41 -36 -76 -79 -76s-78 35 -78 76zM342 862c-44 0 -79 35 -79 76c0 44 35 81 79 81c41 0 76 -38 76 -81c0 -41 -35 -76 -76 -76zM223 0h-160v800h160v-800z" />
    <glyph glyph-name="Alpha" unicode="&#x391;" horiz-adv-x="599" 
d="M400 159h-204l-21 -159h-160l121 766c3 17 23 34 43 34h237c20 0 40 -17 43 -34l122 -766h-160zM379 319l-40 302c-1 13 -5 19 -13 19h-56c-8 0 -12 -6 -13 -19l-40 -302h162z" />
    <glyph glyph-name="Beta" unicode="&#x392;" horiz-adv-x="567" 
d="M59 800h251c81 0 135 -13 163 -39c29 -25 43 -75 43 -149v-76c0 -71 -25 -97 -77 -118c52 -12 84 -43 84 -120v-87c0 -83 -15 -139 -44 -168s-85 -43 -168 -43h-252v800zM219 498h99c27 0 38 11 38 36v76c0 27 -10 32 -43 32h-94v-144zM219 160h88c43 0 56 13 56 53v85
c0 31 -9 40 -36 40h-108v-178z" />
    <glyph glyph-name="Gamma" unicode="&#x393;" horiz-adv-x="470" 
d="M461 640h-242v-640h-160v800h402v-160z" />
    <glyph glyph-name="increment" unicode="&#x394;" horiz-adv-x="603" 
d="M463 766l122 -766h-566l121 766c3 17 23 34 43 34h237c20 0 40 -17 43 -34zM200 160h204l-61 461c-1 13 -5 19 -13 19h-56c-8 0 -12 -6 -13 -19z" />
    <glyph glyph-name="Epsilon" unicode="&#x395;" horiz-adv-x="493" 
d="M463 800v-160h-244v-149h217v-160h-217v-171h244v-160h-404v800h404z" />
    <glyph glyph-name="Zeta" unicode="&#x396;" horiz-adv-x="517" 
d="M23 640v160h471l-248 -640h248v-160h-471l250 640h-250z" />
    <glyph glyph-name="Eta" unicode="&#x397;" horiz-adv-x="579" 
d="M219 800v-279h141v279h160v-800h-160v364h-141v-364h-160v800h160z" />
    <glyph glyph-name="Theta" unicode="&#x398;" horiz-adv-x="560" 
d="M48 134v528c0 40 14 74 42 102s62 42 102 42h176c40 0 74 -14 102 -42s42 -62 42 -102v-528c0 -40 -14 -74 -42 -102s-62 -42 -102 -42h-176c-40 0 -74 14 -102 42s-42 62 -42 102zM208 643v-490c0 -9 5 -14 14 -14h115c10 0 15 5 15 14v490c0 9 -5 14 -15 14h-115
c-9 0 -14 -5 -14 -14zM341 465v-122h-122v122h122z" />
    <glyph glyph-name="Iota" unicode="&#x399;" horiz-adv-x="286" 
d="M223 800v-800h-160v800h160z" />
    <glyph glyph-name="Kappa" unicode="&#x39a;" horiz-adv-x="609" 
d="M217 800v-279h87l128 279h169l-176 -354v-9l176 -437h-169l-128 362h-87v-362h-158v800h158z" />
    <glyph glyph-name="Lambda" unicode="&#x39b;" horiz-adv-x="603" 
d="M183 800h237c20 0 40 -17 43 -34l122 -766h-160l-82 621c-1 13 -5 19 -13 19h-56c-8 0 -12 -6 -13 -19l-82 -621h-160l121 766c3 17 23 34 43 34z" />
    <glyph glyph-name="Mu" unicode="&#x39c;" horiz-adv-x="830" 
d="M348 800l68 -523l56 523h277l30 -800h-160l-20 640h-9l-103 -630h-143l-103 630h-9l-21 -640h-160l31 800h266z" />
    <glyph glyph-name="Nu" unicode="&#x39d;" horiz-adv-x="642" 
d="M326 800l94 -640h10l-7 640h160v-800h-266l-96 640h-9l7 -640h-160v800h267z" />
    <glyph glyph-name="Xi" unicode="&#x39e;" horiz-adv-x="657" 
d="M556 800v-235h-160v76h-139v-76h-160v235h459zM515 521v-159h-374v159h374zM598 330v-330h-539v330h160v-171h219v171h160z" />
    <glyph glyph-name="Omicron" unicode="&#x39f;" horiz-adv-x="560" 
d="M48 134v528c0 40 14 74 42 102s62 42 102 42h176c40 0 74 -14 102 -42s42 -62 42 -102v-528c0 -40 -14 -74 -42 -102s-62 -42 -102 -42h-176c-40 0 -74 14 -102 42s-42 62 -42 102zM208 643v-490c0 -9 5 -14 14 -14h115c10 0 15 5 15 14v490c0 9 -5 14 -15 14h-115
c-9 0 -14 -5 -14 -14z" />
    <glyph glyph-name="Pi" unicode="&#x3a0;" horiz-adv-x="576" 
d="M517 0h-160v642h-138v-642h-160v800h458v-800z" />
    <glyph glyph-name="Rho" unicode="&#x3a1;" horiz-adv-x="541" 
d="M59 800h316c41 0 75 -13 102 -40c28 -26 42 -59 42 -98v-193c0 -40 -14 -74 -42 -102s-62 -42 -102 -42h-156v-325h-160v800zM219 474h126c9 0 14 5 14 14v147c0 11 -5 16 -15 16h-125v-177z" />
    <glyph glyph-name="Sigma" unicode="&#x3a3;" horiz-adv-x="542" 
d="M519 800v-160h-248l69 -233l-74 -247h249v-160h-469l129 404l-125 396h469z" />
    <glyph glyph-name="Tau" unicode="&#x3a4;" horiz-adv-x="502" 
d="M9 640v160h484v-160h-161v-640h-160v640h-163z" />
    <glyph glyph-name="Upsilon" unicode="&#x3a5;" horiz-adv-x="603" 
d="M584 800l-118 -546c-5 -19 -28 -32 -56 -32h-26v-222h-159v222h-23c-31 0 -50 11 -55 32l-128 546h164l81 -420c2 -11 5 -17 10 -17h64c6 0 9 6 10 17l76 420h160z" />
    <glyph glyph-name="Phi" unicode="&#x3a6;" horiz-adv-x="691" 
d="M426 706h73c40 0 74 -14 102 -42s42 -62 42 -102v-328c0 -40 -14 -74 -42 -102s-62 -42 -102 -42h-73v-90h-160v90h-74c-40 0 -74 14 -102 42s-42 62 -42 102v328c0 40 14 74 42 102s62 42 102 42h74v94h160v-94zM266 239v318h-44c-9 0 -14 -5 -14 -14v-290
c0 -9 5 -14 14 -14h44zM483 253v290c0 9 -5 14 -15 14h-42v-318h42c10 0 15 5 15 14z" />
    <glyph glyph-name="Chi" unicode="&#x3a7;" horiz-adv-x="590" 
d="M571 0h-164l-112 302l-112 -302h-164l182 422l-156 378h167l82 -290l84 290h168l-157 -389z" />
    <glyph glyph-name="Psi" unicode="&#x3a8;" horiz-adv-x="687" 
d="M479 802h160v-301c0 -92 -33 -144 -144 -144h-71v-357h-160v357h-72c-40 0 -74 14 -102 42s-42 62 -42 102v301h160v-291c0 -9 5 -14 15 -14h41v303h160v-303h40c10 0 15 5 15 14v291z" />
    <glyph glyph-name="Omega" unicode="&#x3a9;" horiz-adv-x="597" 
d="M484 160h65v-160h-196v297h12c5 7 8 15 8 23v322c0 10 -5 15 -15 15h-119c-10 0 -15 -5 -15 -15v-322c0 -8 3 -16 8 -24h12v-296h-196v160h65v42c-33 27 -49 54 -49 81v379c0 40 14 74 42 102s62 42 102 42h181c40 0 74 -14 102 -42s42 -62 42 -102v-379
c0 -25 -16 -52 -49 -81v-42z" />
    <glyph glyph-name="Iotadieresis" unicode="&#x3aa;" horiz-adv-x="286" 
d="M-38 938c0 44 35 81 78 81s79 -38 79 -81c0 -41 -36 -76 -79 -76s-78 35 -78 76zM251 862c-43 0 -78 35 -78 76c0 44 35 81 78 81c41 0 76 -38 76 -81c0 -41 -35 -76 -76 -76zM223 0h-160v800h160v-800z" />
    <glyph glyph-name="Upsilondieresis" unicode="&#x3ab;" horiz-adv-x="603" 
d="M584 800l-118 -546c-5 -19 -28 -32 -56 -32h-26v-222h-159v222h-23c-31 0 -50 11 -55 32l-128 546h164l81 -420c2 -11 5 -17 10 -17h64c6 0 9 6 10 17l76 420h160zM121 938c0 44 35 81 78 81s79 -38 79 -81c0 -41 -36 -76 -79 -76s-78 35 -78 76zM410 862
c-43 0 -78 35 -78 76c0 44 35 81 78 81c41 0 76 -38 76 -81c0 -41 -35 -76 -76 -76z" />
    <glyph glyph-name="alphatonos" unicode="&#x3ac;" horiz-adv-x="599" 
d="M-39 800h150l-51 -161h-152zM196 159l-21 -159h-160l121 766c3 17 23 34 43 34h237c20 0 40 -17 43 -34l122 -766h-160l-21 159h-204zM379 319l-40 302c-1 13 -5 19 -13 19h-56c-8 0 -12 -6 -13 -19l-40 -302h162z" />
    <glyph glyph-name="epsilontonos" unicode="&#x3ad;" horiz-adv-x="491" 
d="M-109 800h150l-51 -161h-152zM219 640v-149h217v-160h-217v-171h244v-160h-404v800h404v-160h-244z" />
    <glyph glyph-name="etatonos" unicode="&#x3ae;" horiz-adv-x="579" 
d="M-114 800h150l-51 -161h-152zM360 521v279h160v-800h-160v364h-141v-364h-160v800h160v-279h141z" />
    <glyph glyph-name="iotatonos" unicode="&#x3af;" horiz-adv-x="286" 
d="M-110 800h150l-51 -161h-152zM223 0h-160v800h160v-800z" />
    <glyph glyph-name="upsilondieresistonos" unicode="&#x3b0;" horiz-adv-x="603" 
d="M283 1043h150l-51 -161h-152zM65 938c0 44 35 81 78 81s79 -38 79 -81c0 -41 -36 -76 -79 -76s-78 35 -78 76zM507 862c-44 0 -79 35 -79 76c0 44 35 81 79 81c41 0 76 -38 76 -81c0 -41 -35 -76 -76 -76zM584 800l-118 -546c-5 -19 -28 -32 -56 -32h-26v-222h-159v222
h-23c-31 0 -50 11 -55 32l-128 546h164l81 -420c2 -11 5 -17 10 -17h64c6 0 9 6 10 17l76 420h160z" />
    <glyph glyph-name="alpha" unicode="&#x3b1;" horiz-adv-x="599" 
d="M196 159l-21 -159h-160l121 766c3 17 23 34 43 34h237c20 0 40 -17 43 -34l122 -766h-160l-21 159h-204zM379 319l-40 302c-1 13 -5 19 -13 19h-56c-8 0 -12 -6 -13 -19l-40 -302h162z" />
    <glyph glyph-name="beta" unicode="&#x3b2;" horiz-adv-x="567" 
d="M59 800h251c81 0 135 -13 163 -39c29 -25 43 -75 43 -149v-76c0 -71 -25 -97 -77 -118c52 -12 84 -43 84 -120v-87c0 -83 -15 -139 -44 -168s-85 -43 -168 -43h-252v800zM219 498h99c27 0 38 11 38 36v76c0 27 -10 32 -43 32h-94v-144zM219 160h88c43 0 56 13 56 53v85
c0 31 -9 40 -36 40h-108v-178z" />
    <glyph glyph-name="gamma" unicode="&#x3b3;" horiz-adv-x="470" 
d="M219 640v-640h-160v800h402v-160h-242z" />
    <glyph glyph-name="delta" unicode="&#x3b4;" horiz-adv-x="603" 
d="M585 0h-566l121 766c3 17 23 34 43 34h237c20 0 40 -17 43 -34zM404 160l-61 461c-1 13 -5 19 -13 19h-56c-8 0 -12 -6 -13 -19l-61 -461h204z" />
    <glyph glyph-name="epsilon" unicode="&#x3b5;" horiz-adv-x="491" 
d="M463 640h-244v-149h217v-160h-217v-171h244v-160h-404v800h404v-160z" />
    <glyph glyph-name="zeta" unicode="&#x3b6;" horiz-adv-x="517" 
d="M23 800h471l-248 -640h248v-160h-471l250 640h-250v160z" />
    <glyph glyph-name="eta" unicode="&#x3b7;" horiz-adv-x="579" 
d="M219 521h141v279h160v-800h-160v364h-141v-364h-160v800h160v-279z" />
    <glyph glyph-name="theta" unicode="&#x3b8;" horiz-adv-x="560" 
d="M48 134v528c0 40 14 74 42 102s62 42 102 42h176c40 0 74 -14 102 -42s42 -62 42 -102v-528c0 -40 -14 -74 -42 -102s-62 -42 -102 -42h-176c-40 0 -74 14 -102 42s-42 62 -42 102zM208 643v-490c0 -9 5 -14 14 -14h115c10 0 15 5 15 14v490c0 9 -5 14 -15 14h-115
c-9 0 -14 -5 -14 -14zM341 343h-122v122h122v-122z" />
    <glyph glyph-name="iota" unicode="&#x3b9;" horiz-adv-x="286" 
d="M223 800v-800h-160v800h160z" />
    <glyph glyph-name="kappa" unicode="&#x3ba;" horiz-adv-x="609" 
d="M217 521h87l128 279h169l-176 -354v-9l176 -437h-169l-128 362h-87v-362h-158v800h158v-279z" />
    <glyph glyph-name="lambda" unicode="&#x3bb;" horiz-adv-x="603" 
d="M183 800h237c20 0 40 -17 43 -34l122 -766h-160l-82 621c-1 13 -5 19 -13 19h-56c-8 0 -12 -6 -13 -19l-82 -621h-160l121 766c3 17 23 34 43 34z" />
    <glyph glyph-name="mu" unicode="&#x3bc;" horiz-adv-x="830" 
d="M416 277l56 523h277l30 -800h-160l-20 640h-9l-103 -630h-143l-103 630h-9l-21 -640h-160l31 800h266z" />
    <glyph glyph-name="nu" unicode="&#x3bd;" horiz-adv-x="642" 
d="M420 160h10l-7 640h160v-800h-266l-96 640h-9l7 -640h-160v800h267z" />
    <glyph glyph-name="xi" unicode="&#x3be;" horiz-adv-x="657" 
d="M556 565h-160v76h-139v-76h-160v235h459v-235zM515 362h-374v159h374v-159zM598 0h-539v330h160v-171h219v171h160v-330z" />
    <glyph glyph-name="omicron" unicode="&#x3bf;" horiz-adv-x="560" 
d="M48 134v528c0 40 14 74 42 102s62 42 102 42h176c40 0 74 -14 102 -42s42 -62 42 -102v-528c0 -40 -14 -74 -42 -102s-62 -42 -102 -42h-176c-40 0 -74 14 -102 42s-42 62 -42 102zM208 643v-490c0 -9 5 -14 14 -14h115c10 0 15 5 15 14v490c0 9 -5 14 -15 14h-115
c-9 0 -14 -5 -14 -14z" />
    <glyph glyph-name="pi" unicode="&#x3c0;" horiz-adv-x="576" 
d="M357 0v642h-138v-642h-160v800h458v-800h-160z" />
    <glyph glyph-name="rho" unicode="&#x3c1;" horiz-adv-x="541" 
d="M59 800h316c41 0 75 -13 102 -40c28 -26 42 -59 42 -98v-193c0 -40 -14 -74 -42 -102s-62 -42 -102 -42h-156v-325h-160v800zM219 474h126c9 0 14 5 14 14v147c0 11 -5 16 -15 16h-125v-177z" />
    <glyph glyph-name="sigmafinal" unicode="&#x3c2;" horiz-adv-x="542" 
d="M519 640h-248l69 -233l-74 -247h249v-160h-469l129 404l-125 396h469v-160z" />
    <glyph glyph-name="sigma" unicode="&#x3c3;" horiz-adv-x="542" 
d="M519 640h-248l69 -233l-74 -247h249v-160h-469l129 404l-125 396h469v-160z" />
    <glyph glyph-name="tau" unicode="&#x3c4;" horiz-adv-x="502" 
d="M9 800h484v-160h-161v-640h-160v640h-163v160z" />
    <glyph glyph-name="upsilon" unicode="&#x3c5;" horiz-adv-x="603" 
d="M584 800l-118 -546c-5 -19 -28 -32 -56 -32h-26v-222h-159v222h-23c-31 0 -50 11 -55 32l-128 546h164l81 -420c2 -11 5 -17 10 -17h64c6 0 9 6 10 17l76 420h160z" />
    <glyph glyph-name="phi" unicode="&#x3c6;" horiz-adv-x="691" 
d="M426 706h73c40 0 74 -14 102 -42s42 -62 42 -102v-328c0 -40 -14 -74 -42 -102s-62 -42 -102 -42h-73v-90h-160v90h-74c-40 0 -74 14 -102 42s-42 62 -42 102v328c0 40 14 74 42 102s62 42 102 42h74v94h160v-94zM266 557h-44c-9 0 -14 -5 -14 -14v-290
c0 -9 5 -14 14 -14h44v318zM483 253v290c0 9 -5 14 -15 14h-42v-318h42c10 0 15 5 15 14z" />
    <glyph glyph-name="chi" unicode="&#x3c7;" horiz-adv-x="609" 
d="M407 0l-112 302l-112 -302h-164l182 422l-156 378h167l82 -290l84 290h168l-157 -389l182 -411h-164z" />
    <glyph glyph-name="psi" unicode="&#x3c8;" horiz-adv-x="687" 
d="M639 802v-301c0 -92 -33 -144 -144 -144h-71v-357h-160v357h-72c-40 0 -74 14 -102 42s-42 62 -42 102v301h160v-291c0 -9 5 -14 15 -14h41v303h160v-303h40c10 0 15 5 15 14v291h160z" />
    <glyph glyph-name="omega" unicode="&#x3c9;" horiz-adv-x="597" 
d="M549 160v-160h-196v297h12c5 7 8 15 8 23v322c0 10 -5 15 -15 15h-119c-10 0 -15 -5 -15 -15v-322c0 -8 3 -16 8 -24h12v-296h-196v160h65v42c-33 27 -49 54 -49 81v379c0 40 14 74 42 102s62 42 102 42h181c40 0 74 -14 102 -42s42 -62 42 -102v-379
c0 -25 -16 -52 -49 -81v-42h65z" />
    <glyph glyph-name="iotadieresis" unicode="&#x3ca;" horiz-adv-x="286" 
d="M-45 938c0 44 35 81 78 81s79 -38 79 -81c0 -41 -36 -76 -79 -76s-78 35 -78 76zM244 862c-43 0 -78 35 -78 76c0 44 35 81 78 81c41 0 76 -38 76 -81c0 -41 -35 -76 -76 -76zM223 0h-160v800h160v-800z" />
    <glyph glyph-name="upsilondieresis" unicode="&#x3cb;" horiz-adv-x="603" 
d="M584 800l-118 -546c-5 -19 -28 -32 -56 -32h-26v-222h-159v222h-23c-31 0 -50 11 -55 32l-128 546h164l81 -420c2 -11 5 -17 10 -17h64c6 0 9 6 10 17l76 420h160zM120 938c0 44 35 81 78 81s79 -38 79 -81c0 -41 -36 -76 -79 -76s-78 35 -78 76zM409 862
c-43 0 -78 35 -78 76c0 44 35 81 78 81c41 0 76 -38 76 -81c0 -41 -35 -76 -76 -76z" />
    <glyph glyph-name="omicrontonos" unicode="&#x3cc;" horiz-adv-x="560" 
d="M48 134v528c0 40 14 74 42 102s62 42 102 42h176c40 0 74 -14 102 -42s42 -62 42 -102v-528c0 -40 -14 -74 -42 -102s-62 -42 -102 -42h-176c-40 0 -74 14 -102 42s-42 62 -42 102zM-95 800h150l-51 -161h-152zM208 643v-490c0 -9 5 -14 14 -14h115c10 0 15 5 15 14v490
c0 9 -5 14 -15 14h-115c-9 0 -14 -5 -14 -14z" />
    <glyph glyph-name="upsilontonos" unicode="&#x3cd;" horiz-adv-x="603" 
d="M584 800l-118 -546c-5 -19 -28 -32 -56 -32h-26v-222h-159v222h-23c-31 0 -50 11 -55 32l-128 546h164l81 -420c2 -11 5 -17 10 -17h64c6 0 9 6 10 17l76 420h160zM-144 800h150l-51 -161h-152z" />
    <glyph glyph-name="omegatonos" unicode="&#x3ce;" horiz-adv-x="597" 
d="M549 0h-196v297h12c5 7 8 15 8 23v322c0 10 -5 15 -15 15h-119c-10 0 -15 -5 -15 -15v-322c0 -8 3 -16 8 -24h12v-296h-196v160h65v42c-33 27 -49 54 -49 81v379c0 40 14 74 42 102s62 42 102 42h181c40 0 74 -14 102 -42s42 -62 42 -102v-379c0 -25 -16 -52 -49 -81v-42
h65v-160zM-85 800h150l-51 -161h-152z" />
    <glyph glyph-name="uni0401" unicode="&#x401;" horiz-adv-x="491" 
d="M463 640h-244v-149h217v-160h-217v-171h244v-160h-404v800h404v-160zM97 938c0 44 35 81 78 81s79 -38 79 -81c0 -41 -36 -76 -79 -76s-78 35 -78 76zM386 862c-43 0 -78 35 -78 76c0 44 35 81 78 81c41 0 76 -38 76 -81c0 -41 -35 -76 -76 -76z" />
    <glyph glyph-name="uni0402" unicode="&#x402;" horiz-adv-x="653" 
d="M332 640v-120c82 33 140 50 173 50c53 0 96 -44 96 -97v-514c0 -78 -55 -117 -166 -117h-114v90h91c19 0 29 9 29 27v427c0 11 -4 17 -13 17c-21 0 -53 -9 -96 -26v-377h-160v640h-163v160h486v-160h-163z" />
    <glyph glyph-name="uni0403" unicode="&#x403;" horiz-adv-x="470" 
d="M461 640h-242v-640h-160v800h402v-160zM258 1035h153l-121 -161h-135z" />
    <glyph glyph-name="uni0404" unicode="&#x404;" horiz-adv-x="536" 
d="M192 806h176c40 0 74 -14 102 -42s42 -62 42 -102v-85h-160v60c0 13 -5 20 -16 20h-114c-9 0 -14 -7 -14 -20v-153h252v-160h-252v-171c0 -9 5 -14 14 -14h116c9 0 14 5 14 14v97h160v-116c0 -40 -14 -74 -42 -102s-62 -42 -102 -42h-176c-40 0 -74 14 -102 42
s-42 62 -42 102v528c0 40 14 74 42 102s62 42 102 42z" />
    <glyph glyph-name="uni0405" unicode="&#x405;" horiz-adv-x="536" 
d="M199 282v-129c0 -9 5 -14 14 -14h103c10 0 15 5 15 14v58c0 48 -14 83 -51 114c-18 16 -34 28 -47 36s-33 20 -61 35c-79 43 -126 116 -126 211v55c0 40 14 74 42 102s62 42 102 42h163c40 0 74 -19 102 -57c28 -37 42 -84 42 -139h-160c0 36 -4 47 -20 47h-96
c-10 0 -15 -5 -15 -14v-36c0 -29 24 -58 72 -86c11 -7 32 -18 65 -35c88 -48 148 -144 148 -275v-77c0 -40 -14 -74 -42 -102s-62 -42 -102 -42h-164c-40 0 -74 14 -102 42s-42 62 -42 102v148h160z" />
    <glyph glyph-name="uni0406" unicode="&#x406;" horiz-adv-x="286" 
d="M223 800v-800h-160v800h160z" />
    <glyph glyph-name="uni0407" unicode="&#x407;" horiz-adv-x="286" 
d="M-40 938c0 44 35 81 78 81s79 -38 79 -81c0 -41 -36 -76 -79 -76s-78 35 -78 76zM249 862c-43 0 -78 35 -78 76c0 44 35 81 78 81c41 0 76 -38 76 -81c0 -41 -35 -76 -76 -76zM223 0h-160v800h160v-800z" />
    <glyph glyph-name="uni0408" unicode="&#x408;" horiz-adv-x="525" 
d="M177 292v-138c0 -10 5 -15 14 -15h112c9 0 14 5 14 15v646h160v-666c0 -40 -14 -74 -42 -102s-62 -42 -102 -42h-172c-40 0 -74 14 -102 42s-42 62 -42 102v158h160z" />
    <glyph glyph-name="uni0409" unicode="&#x409;" horiz-adv-x="941" 
d="M893 473v-350c1 -37 -12 -68 -38 -94s-58 -39 -95 -39h-162c-37 0 -68 13 -94 39s-39 57 -39 94v518h-144l-19 -379c-6 -110 -26 -181 -66 -217c-28 -25 -46 -38 -90 -45c-43 -8 -65 -9 -120 -9h-9v160h9c44 1 73 7 87 20s22 41 24 84l25 546h463v-281
c83 34 141 51 172 51c53 0 96 -45 96 -98zM733 145v241c0 12 -4 18 -12 18c-7 0 -20 -3 -41 -9c-21 -5 -39 -11 -55 -18v-232c0 -10 5 -15 15 -15h78c10 0 15 5 15 15z" />
    <glyph glyph-name="uni040A" unicode="&#x40a;" horiz-adv-x="842" 
d="M793 473v-350c1 -37 -12 -68 -38 -94s-58 -39 -95 -39h-162c-37 0 -68 13 -94 39s-39 57 -39 94v241h-146v-364h-160v800h160v-279h146v279h160v-280c83 34 141 51 172 51c53 0 96 -45 96 -98zM633 145v241c0 12 -4 18 -12 18c-7 0 -20 -3 -41 -9c-21 -5 -39 -11 -55 -18
v-232c0 -10 5 -15 15 -15h78c10 0 15 5 15 15z" />
    <glyph glyph-name="uni040B" unicode="&#x40b;" horiz-adv-x="653" 
d="M332 640v-120c82 33 140 50 173 50c53 0 96 -44 96 -97v-473h-160v386c0 11 -4 17 -13 17c-21 0 -53 -9 -96 -26v-377h-160v640h-163v160h486v-160h-163z" />
    <glyph glyph-name="uni040C" unicode="&#x40c;" horiz-adv-x="645" 
d="M628 798v-158c-61 -11 -102 -33 -121 -66l-86 -128v-8l216 -438h-169l-173 363h-78v-363h-158v800h158v-279h79l31 50c51 81 100 137 149 170s99 52 152 57zM351 1035h153l-121 -161h-135z" />
    <glyph glyph-name="uni040E" unicode="&#x40e;" horiz-adv-x="604" 
d="M586 800l-174 -800h-162l47 219h-107c-20 0 -39 17 -43 34l-128 547h164l84 -403c2 -11 5 -17 9 -17h63c5 0 8 6 10 17l77 403h160zM323 1005h97c0 -97 -36 -131 -116 -131s-116 34 -116 131h99c0 -28 6 -42 18 -42s18 14 18 42z" />
    <glyph glyph-name="uni040F" unicode="&#x40f;" horiz-adv-x="576" 
d="M517 800v-800h-143v-156h-160v156h-155v800h160v-642h138v642h160z" />
    <glyph glyph-name="uni0410" unicode="&#x410;" horiz-adv-x="599" 
d="M400 159h-204l-21 -159h-160l121 766c3 17 23 34 43 34h237c20 0 40 -17 43 -34l122 -766h-160zM379 319l-40 302c-1 13 -5 19 -13 19h-56c-8 0 -12 -6 -13 -19l-40 -302h162z" />
    <glyph glyph-name="uni0411" unicode="&#x411;" horiz-adv-x="536" 
d="M487 473v-350c1 -37 -12 -68 -38 -94s-58 -39 -95 -39h-162c-37 0 -68 13 -94 39s-39 57 -39 94v678h390v-160h-230v-121c83 34 141 51 172 51c53 0 96 -45 96 -98zM327 145v241c0 12 -4 18 -12 18c-7 0 -20 -3 -41 -9c-21 -5 -39 -11 -55 -18v-232c0 -10 5 -15 15 -15
h78c10 0 15 5 15 15z" />
    <glyph glyph-name="uni0412" unicode="&#x412;" horiz-adv-x="567" 
d="M59 800h251c81 0 135 -13 163 -39c29 -25 43 -75 43 -149v-76c0 -71 -25 -97 -77 -118c52 -12 84 -43 84 -120v-87c0 -83 -15 -139 -44 -168s-85 -43 -168 -43h-252v800zM219 498h99c27 0 38 11 38 36v76c0 27 -10 32 -43 32h-94v-144zM219 160h88c43 0 56 13 56 53v85
c0 31 -9 40 -36 40h-108v-178z" />
    <glyph glyph-name="uni0413" unicode="&#x413;" horiz-adv-x="470" 
d="M461 800v-160h-242v-640h-160v800h402z" />
    <glyph glyph-name="uni0414" unicode="&#x414;" horiz-adv-x="768" 
d="M627 159h133v-250h-160v91h-581v155h7c69 0 107 30 112 91l26 555h463v-642zM467 159v482h-146l-20 -398c-3 -47 -8 -75 -16 -84h182z" />
    <glyph glyph-name="uni0415" unicode="&#x415;" horiz-adv-x="493" 
d="M463 800v-160h-244v-149h217v-160h-217v-171h244v-160h-404v800h404z" />
    <glyph glyph-name="uni0416" unicode="&#x416;" horiz-adv-x="881" 
d="M853 798v-158c-41 -5 -72 -23 -104 -74l-75 -120v-8l188 -438h-170l-144 363h-27v-363h-161v363h-30l-141 -363h-170l188 438v8l-68 116c-32 60 -59 73 -111 78v158c53 -2 99 -19 139 -51c40 -31 84 -90 131 -176l31 -50h31v279h161v-279h28l34 50c52 87 97 146 136 177
s83 48 134 50z" />
    <glyph glyph-name="uni0417" unicode="&#x417;" horiz-adv-x="511" 
d="M34 800h285c40 0 74 -14 102 -42s42 -62 42 -102v-129c0 -40 -16 -66 -47 -79c35 -13 52 -42 52 -89v-225c0 -40 -14 -74 -42 -102s-62 -42 -102 -42h-156c-40 0 -74 14 -102 42s-42 62 -42 102v147h160v-122c0 -13 5 -20 16 -20h93c10 0 15 7 15 20v170
c0 13 -5 20 -15 20h-199v160h195c9 0 14 7 14 20v102c0 10 -5 15 -14 15h-255v154z" />
    <glyph glyph-name="uni0418" unicode="&#x418;" horiz-adv-x="631" 
d="M572 800v-800h-160v435l-193 -403v-32h-160v800h160v-435l193 404v31h160z" />
    <glyph glyph-name="uni0419" unicode="&#x419;" horiz-adv-x="631" 
d="M572 0h-160v435l-193 -403v-32h-160v800h160v-435l193 404v31h160v-800zM335 1005h97c0 -97 -36 -131 -116 -131s-116 34 -116 131h99c0 -28 6 -42 18 -42s18 14 18 42z" />
    <glyph glyph-name="uni041A" unicode="&#x41a;" horiz-adv-x="645" 
d="M628 798v-158c-61 -11 -102 -33 -121 -66l-86 -128v-8l216 -438h-169l-173 363h-78v-363h-158v800h158v-279h79l31 50c51 81 100 137 149 170s99 52 152 57z" />
    <glyph glyph-name="uni041B" unicode="&#x41b;" horiz-adv-x="661" 
d="M601 801v-801h-160v641h-120l-19 -379c-6 -110 -26 -181 -66 -217c-28 -25 -46 -38 -90 -45c-43 -8 -65 -9 -120 -9h-9v160h9c44 1 73 7 87 20s22 41 24 84l25 546h439z" />
    <glyph glyph-name="uni041C" unicode="&#x41c;" horiz-adv-x="830" 
d="M348 800l68 -523l56 523h277l30 -800h-160l-20 640h-9l-103 -630h-143l-103 630h-9l-21 -640h-160l31 800h266z" />
    <glyph glyph-name="uni041D" unicode="&#x41d;" horiz-adv-x="579" 
d="M219 800v-279h141v279h160v-800h-160v364h-141v-364h-160v800h160z" />
    <glyph glyph-name="uni041E" unicode="&#x41e;" horiz-adv-x="560" 
d="M48 134v528c0 40 14 74 42 102s62 42 102 42h176c40 0 74 -14 102 -42s42 -62 42 -102v-528c0 -40 -14 -74 -42 -102s-62 -42 -102 -42h-176c-40 0 -74 14 -102 42s-42 62 -42 102zM208 643v-490c0 -9 5 -14 14 -14h115c10 0 15 5 15 14v490c0 9 -5 14 -15 14h-115
c-9 0 -14 -5 -14 -14z" />
    <glyph glyph-name="uni041F" unicode="&#x41f;" horiz-adv-x="576" 
d="M517 800v-800h-160v642h-138v-642h-160v800h458z" />
    <glyph glyph-name="uni0420" unicode="&#x420;" horiz-adv-x="541" 
d="M59 800h316c41 0 75 -13 102 -40c28 -26 42 -59 42 -98v-193c0 -40 -14 -74 -42 -102s-62 -42 -102 -42h-156v-325h-160v800zM219 474h126c9 0 14 5 14 14v147c0 11 -5 16 -15 16h-125v-177z" />
    <glyph glyph-name="uni0421" unicode="&#x421;" horiz-adv-x="556" 
d="M48 134v528c0 40 14 74 42 102s62 42 102 42h176c40 0 74 -14 102 -42s42 -62 42 -102v-126h-160v101c0 13 -5 20 -16 20h-114c-9 0 -14 -7 -14 -20v-484c0 -9 5 -14 14 -14h116c9 0 14 5 14 14v139h160v-158c0 -40 -14 -74 -42 -102s-62 -42 -102 -42h-176
c-40 0 -74 14 -102 42s-42 62 -42 102z" />
    <glyph glyph-name="uni0422" unicode="&#x422;" horiz-adv-x="502" 
d="M9 640v160h484v-160h-161v-640h-160v640h-163z" />
    <glyph glyph-name="uni0423" unicode="&#x423;" horiz-adv-x="604" 
d="M426 800h160l-174 -800h-162l47 219h-107c-20 0 -39 17 -43 34l-128 547h164l84 -403c2 -11 5 -17 9 -17h63c5 0 8 6 10 17z" />
    <glyph glyph-name="uni0424" unicode="&#x424;" horiz-adv-x="691" 
d="M426 706h73c40 0 74 -14 102 -42s42 -62 42 -102v-328c0 -40 -14 -74 -42 -102s-62 -42 -102 -42h-73v-90h-160v90h-74c-40 0 -74 14 -102 42s-42 62 -42 102v328c0 40 14 74 42 102s62 42 102 42h74v94h160v-94zM222 239h44v318h-44c-9 0 -14 -5 -14 -14v-290
c0 -9 5 -14 14 -14zM483 253v290c0 9 -5 14 -15 14h-42v-318h42c10 0 15 5 15 14z" />
    <glyph glyph-name="uni0425" unicode="&#x425;" horiz-adv-x="590" 
d="M571 0h-164l-112 302l-112 -302h-164l182 422l-156 378h167l82 -290l84 290h168l-157 -389z" />
    <glyph glyph-name="uni0426" unicode="&#x426;" horiz-adv-x="631" 
d="M517 159h105v-250h-160v91h-403v800h160v-642h138v642h160v-641z" />
    <glyph glyph-name="uni0427" unicode="&#x427;" horiz-adv-x="555" 
d="M496 800v-800h-160v307c-29 -11 -65 -22 -108 -34c-42 -11 -69 -17 -80 -17c-53 0 -96 45 -96 98v446h160v-359c0 -12 4 -18 13 -18l11 2c47 9 81 18 100 25v350h160z" />
    <glyph glyph-name="uni0428" unicode="&#x428;" horiz-adv-x="775" 
d="M715 800v-800h-656v800h160v-641h89v641h160v-641h87v641h160z" />
    <glyph glyph-name="uni0429" unicode="&#x429;" horiz-adv-x="833" 
d="M715 159h92v-250h-160v91h-588v800h160v-641h89v641h160v-641h87v641h160v-641z" />
    <glyph glyph-name="uni042A" unicode="&#x42a;" horiz-adv-x="685" 
d="M637 473v-350c1 -37 -12 -68 -38 -94s-58 -39 -95 -39h-162c-37 0 -68 13 -94 39s-39 57 -39 94v518h-200v160h360v-281c83 34 141 51 172 51c53 0 96 -45 96 -98zM477 145v241c0 12 -4 18 -12 18c-7 0 -20 -3 -41 -9c-21 -5 -39 -11 -55 -18v-232c0 -10 5 -15 15 -15h78
c10 0 15 5 15 15z" />
    <glyph glyph-name="uni042B" unicode="&#x42b;" horiz-adv-x="779" 
d="M487 473v-350c1 -37 -12 -68 -38 -94s-58 -39 -95 -39h-162c-37 0 -68 13 -94 39s-39 57 -39 94v677h160v-280c83 34 141 51 172 51c53 0 96 -45 96 -98zM720 800v-800h-160v800h160zM327 145v241c0 12 -4 18 -12 18c-7 0 -20 -3 -41 -9c-21 -5 -39 -11 -55 -18v-232
c0 -10 5 -15 15 -15h78c10 0 15 5 15 15z" />
    <glyph glyph-name="uni042C" unicode="&#x42c;" horiz-adv-x="521" 
d="M476 473v-350c1 -37 -12 -68 -39 -94c-26 -26 -57 -39 -94 -39h-162c-37 0 -68 13 -94 39s-39 57 -39 94v677h160v-280c83 34 141 51 172 51c53 0 96 -45 96 -98zM316 145v241c0 12 -4 18 -12 18c-7 0 -20 -3 -41 -9c-21 -5 -39 -11 -55 -18v-232c0 -10 5 -15 15 -15h78
c10 0 15 5 15 15z" />
    <glyph glyph-name="uni042D" unicode="&#x42d;" horiz-adv-x="536" 
d="M168 806h176c40 0 74 -14 102 -42s42 -62 42 -102v-528c0 -40 -14 -74 -42 -102s-62 -42 -102 -42h-176c-40 0 -74 14 -102 42s-42 62 -42 102v116h160v-97c0 -9 5 -14 14 -14h116c9 0 14 5 14 14v171h-252v160h252v153c0 13 -5 20 -14 20h-114c-11 0 -16 -7 -16 -20v-60
h-160v85c0 40 14 74 42 102s62 42 102 42z" />
    <glyph glyph-name="uni042E" unicode="&#x42e;" horiz-adv-x="864" 
d="M496 806h176c40 0 74 -14 102 -42s42 -62 42 -102v-528c0 -40 -14 -74 -42 -102s-62 -42 -102 -42h-176c-40 0 -74 14 -102 42s-42 62 -42 102v230h-133v-364h-160v800h160v-279h133v141c0 40 14 74 42 102s62 42 102 42zM656 153v490c0 9 -5 14 -15 14h-115
c-9 0 -14 -5 -14 -14v-490c0 -9 5 -14 14 -14h115c10 0 15 5 15 14z" />
    <glyph glyph-name="uni042F" unicode="&#x42f;" horiz-adv-x="571" 
d="M180 0h-164l116 388c-48 23 -80 74 -80 131v143c0 39 14 72 41 98c28 27 62 40 103 40h316v-800h-160v371h-78zM211 639v-105c0 -18 5 -30 16 -36h125v156h-131c-7 0 -10 -5 -10 -15z" />
    <glyph glyph-name="uni0430" unicode="&#x430;" horiz-adv-x="599" 
d="M196 159l-21 -159h-160l121 766c3 17 23 34 43 34h237c20 0 40 -17 43 -34l122 -766h-160l-21 159h-204zM379 319l-40 302c-1 13 -5 19 -13 19h-56c-8 0 -12 -6 -13 -19l-40 -302h162z" />
    <glyph glyph-name="uni0431" unicode="&#x431;" horiz-adv-x="536" 
d="M487 473v-350c1 -37 -12 -68 -38 -94s-58 -39 -95 -39h-162c-37 0 -68 13 -94 39s-39 57 -39 94v678h390v-160h-230v-121c83 34 141 51 172 51c53 0 96 -45 96 -98zM327 145v241c0 12 -4 18 -12 18c-7 0 -20 -3 -41 -9c-21 -5 -39 -11 -55 -18v-232c0 -10 5 -15 15 -15
h78c10 0 15 5 15 15z" />
    <glyph glyph-name="uni0432" unicode="&#x432;" horiz-adv-x="567" 
d="M59 800h251c81 0 135 -13 163 -39c29 -25 43 -75 43 -149v-76c0 -71 -25 -97 -77 -118c52 -12 84 -43 84 -120v-87c0 -83 -15 -139 -44 -168s-85 -43 -168 -43h-252v800zM219 498h99c27 0 38 11 38 36v76c0 27 -10 32 -43 32h-94v-144zM219 160h88c43 0 56 13 56 53v85
c0 31 -9 40 -36 40h-108v-178z" />
    <glyph glyph-name="uni0433" unicode="&#x433;" horiz-adv-x="470" 
d="M461 640h-242v-640h-160v800h402v-160z" />
    <glyph glyph-name="uni0434" unicode="&#x434;" horiz-adv-x="768" 
d="M627 159h133v-250h-160v91h-581v155h7c69 0 107 30 112 91l26 555h463v-642zM467 159v482h-146l-20 -398c-3 -47 -8 -75 -16 -84h182z" />
    <glyph glyph-name="uni0435" unicode="&#x435;" horiz-adv-x="491" 
d="M463 640h-244v-149h217v-160h-217v-171h244v-160h-404v800h404v-160z" />
    <glyph glyph-name="uni0436" unicode="&#x436;" horiz-adv-x="881" 
d="M853 798v-158c-41 -5 -72 -23 -104 -74l-75 -120v-8l188 -438h-170l-144 363h-27v-363h-161v363h-30l-141 -363h-170l188 438v8l-68 116c-32 60 -59 73 -111 78v158c53 -2 99 -19 139 -51c40 -31 84 -90 131 -176l31 -50h31v279h161v-279h28l34 50c52 87 97 146 136 177
s83 48 134 50z" />
    <glyph glyph-name="uni0437" unicode="&#x437;" horiz-adv-x="511" 
d="M34 800h285c40 0 74 -14 102 -42s42 -62 42 -102v-129c0 -40 -16 -66 -47 -79c35 -13 52 -42 52 -89v-225c0 -40 -14 -74 -42 -102s-62 -42 -102 -42h-156c-40 0 -74 14 -102 42s-42 62 -42 102v147h160v-122c0 -13 5 -20 16 -20h93c10 0 15 7 15 20v170
c0 13 -5 20 -15 20h-199v160h195c9 0 14 7 14 20v102c0 10 -5 15 -14 15h-255v154z" />
    <glyph glyph-name="uni0438" unicode="&#x438;" horiz-adv-x="631" 
d="M572 0h-160v435l-193 -403v-32h-160v800h160v-435l193 404v31h160v-800z" />
    <glyph glyph-name="uni0439" unicode="&#x439;" horiz-adv-x="631" 
d="M338 1005h97c0 -97 -36 -131 -116 -131s-116 34 -116 131h99c0 -28 6 -42 18 -42s18 14 18 42zM412 0v435l-193 -403v-32h-160v800h160v-435l193 404v31h160v-800h-160z" />
    <glyph glyph-name="uni043A" unicode="&#x43a;" horiz-adv-x="645" 
d="M628 798v-158c-61 -11 -102 -33 -121 -66l-86 -128v-8l216 -438h-169l-173 363h-78v-363h-158v800h158v-279h79l31 50c51 81 100 137 149 170s99 52 152 57z" />
    <glyph glyph-name="uni043B" unicode="&#x43b;" horiz-adv-x="661" 
d="M601 0h-160v641h-120l-19 -379c-6 -110 -26 -181 -66 -217c-28 -25 -46 -38 -90 -45c-43 -8 -65 -9 -120 -9h-9v160h9c44 1 73 7 87 20s22 41 24 84l25 546h439v-801z" />
    <glyph glyph-name="uni043C" unicode="&#x43c;" horiz-adv-x="830" 
d="M416 277l56 523h277l30 -800h-160l-20 640h-9l-103 -630h-143l-103 630h-9l-21 -640h-160l31 800h266z" />
    <glyph glyph-name="uni043D" unicode="&#x43d;" horiz-adv-x="579" 
d="M219 521h141v279h160v-800h-160v364h-141v-364h-160v800h160v-279z" />
    <glyph glyph-name="uni043E" unicode="&#x43e;" horiz-adv-x="560" 
d="M48 134v528c0 40 14 74 42 102s62 42 102 42h176c40 0 74 -14 102 -42s42 -62 42 -102v-528c0 -40 -14 -74 -42 -102s-62 -42 -102 -42h-176c-40 0 -74 14 -102 42s-42 62 -42 102zM208 643v-490c0 -9 5 -14 14 -14h115c10 0 15 5 15 14v490c0 9 -5 14 -15 14h-115
c-9 0 -14 -5 -14 -14z" />
    <glyph glyph-name="uni043F" unicode="&#x43f;" horiz-adv-x="576" 
d="M517 0h-160v642h-138v-642h-160v800h458v-800z" />
    <glyph glyph-name="uni0440" unicode="&#x440;" horiz-adv-x="541" 
d="M59 800h316c41 0 75 -13 102 -40c28 -26 42 -59 42 -98v-193c0 -40 -14 -74 -42 -102s-62 -42 -102 -42h-156v-325h-160v800zM219 474h126c9 0 14 5 14 14v147c0 11 -5 16 -15 16h-125v-177z" />
    <glyph glyph-name="uni0441" unicode="&#x441;" horiz-adv-x="556" 
d="M48 134v528c0 40 14 74 42 102s62 42 102 42h176c40 0 74 -14 102 -42s42 -62 42 -102v-126h-160v101c0 13 -5 20 -16 20h-114c-9 0 -14 -7 -14 -20v-484c0 -9 5 -14 14 -14h116c9 0 14 5 14 14v139h160v-158c0 -40 -14 -74 -42 -102s-62 -42 -102 -42h-176
c-40 0 -74 14 -102 42s-42 62 -42 102z" />
    <glyph glyph-name="uni0442" unicode="&#x442;" horiz-adv-x="502" 
d="M9 800h484v-160h-161v-640h-160v640h-163v160z" />
    <glyph glyph-name="uni0443" unicode="&#x443;" horiz-adv-x="604" 
d="M586 800l-174 -800h-162l47 219h-107c-20 0 -39 17 -43 34l-128 547h164l84 -403c2 -11 5 -17 9 -17h63c5 0 8 6 10 17l77 403h160z" />
    <glyph glyph-name="uni0444" unicode="&#x444;" horiz-adv-x="691" 
d="M426 706h73c40 0 74 -14 102 -42s42 -62 42 -102v-328c0 -40 -14 -74 -42 -102s-62 -42 -102 -42h-73v-90h-160v90h-74c-40 0 -74 14 -102 42s-42 62 -42 102v328c0 40 14 74 42 102s62 42 102 42h74v94h160v-94zM266 239v318h-44c-9 0 -14 -5 -14 -14v-290
c0 -9 5 -14 14 -14h44zM483 253v290c0 9 -5 14 -15 14h-42v-318h42c10 0 15 5 15 14z" />
    <glyph glyph-name="uni0445" unicode="&#x445;" horiz-adv-x="595" 
d="M407 0l-112 302l-112 -302h-164l182 422l-156 378h167l82 -290l84 290h168l-157 -389l182 -411h-164z" />
    <glyph glyph-name="uni0446" unicode="&#x446;" horiz-adv-x="631" 
d="M622 159v-250h-160v91h-403v800h160v-642h138v642h160v-641h105z" />
    <glyph glyph-name="uni0447" unicode="&#x447;" horiz-adv-x="555" 
d="M496 0h-160v307c-29 -11 -65 -22 -108 -34c-42 -11 -69 -17 -80 -17c-53 0 -96 45 -96 98v446h160v-359c0 -12 4 -18 13 -18l11 2c47 9 81 18 100 25v350h160v-800z" />
    <glyph glyph-name="uni0448" unicode="&#x448;" horiz-adv-x="775" 
d="M715 0h-656v800h160v-641h89v641h160v-641h87v641h160v-800z" />
    <glyph glyph-name="uni0449" unicode="&#x449;" horiz-adv-x="833" 
d="M807 159v-250h-160v91h-588v800h160v-641h89v641h160v-641h87v641h160v-641h92z" />
    <glyph glyph-name="uni044A" unicode="&#x44a;" horiz-adv-x="685" 
d="M637 473v-350c1 -37 -12 -68 -38 -94s-58 -39 -95 -39h-162c-37 0 -68 13 -94 39s-39 57 -39 94v518h-200v160h360v-281c83 34 141 51 172 51c53 0 96 -45 96 -98zM477 145v241c0 12 -4 18 -12 18c-7 0 -20 -3 -41 -9c-21 -5 -39 -11 -55 -18v-232c0 -10 5 -15 15 -15h78
c10 0 15 5 15 15z" />
    <glyph glyph-name="uni044B" unicode="&#x44b;" horiz-adv-x="778" 
d="M487 473v-350c1 -37 -12 -68 -38 -94s-58 -39 -95 -39h-162c-37 0 -68 13 -94 39s-39 57 -39 94v677h160v-280c83 34 141 51 172 51c53 0 96 -45 96 -98zM719 800v-800h-160v800h160zM327 145v241c0 12 -4 18 -12 18c-7 0 -20 -3 -41 -9c-21 -5 -39 -11 -55 -18v-232
c0 -10 5 -15 15 -15h78c10 0 15 5 15 15z" />
    <glyph glyph-name="uni044C" unicode="&#x44c;" horiz-adv-x="521" 
d="M476 473v-350c1 -37 -12 -68 -39 -94c-26 -26 -57 -39 -94 -39h-162c-37 0 -68 13 -94 39s-39 57 -39 94v677h160v-280c83 34 141 51 172 51c53 0 96 -45 96 -98zM316 145v241c0 12 -4 18 -12 18c-7 0 -20 -3 -41 -9c-21 -5 -39 -11 -55 -18v-232c0 -10 5 -15 15 -15h78
c10 0 15 5 15 15z" />
    <glyph glyph-name="uni044D" unicode="&#x44d;" horiz-adv-x="536" 
d="M168 806h176c40 0 74 -14 102 -42s42 -62 42 -102v-528c0 -40 -14 -74 -42 -102s-62 -42 -102 -42h-176c-40 0 -74 14 -102 42s-42 62 -42 102v116h160v-97c0 -9 5 -14 14 -14h116c9 0 14 5 14 14v171h-252v160h252v153c0 13 -5 20 -14 20h-114c-11 0 -16 -7 -16 -20v-60
h-160v85c0 40 14 74 42 102s62 42 102 42z" />
    <glyph glyph-name="uni044E" unicode="&#x44e;" horiz-adv-x="864" 
d="M496 806h176c40 0 74 -14 102 -42s42 -62 42 -102v-528c0 -40 -14 -74 -42 -102s-62 -42 -102 -42h-176c-40 0 -74 14 -102 42s-42 62 -42 102v230h-133v-364h-160v800h160v-279h133v141c0 40 14 74 42 102s62 42 102 42zM656 153v490c0 9 -5 14 -15 14h-115
c-9 0 -14 -5 -14 -14v-490c0 -9 5 -14 14 -14h115c10 0 15 5 15 14z" />
    <glyph glyph-name="uni044F" unicode="&#x44f;" horiz-adv-x="571" 
d="M274 371l-94 -371h-164l116 388c-48 23 -80 74 -80 131v143c0 39 14 72 41 98c28 27 62 40 103 40h316v-800h-160v371h-78zM211 639v-105c0 -18 5 -30 16 -36h125v156h-131c-7 0 -10 -5 -10 -15z" />
    <glyph glyph-name="uni0451" unicode="&#x451;" horiz-adv-x="491" 
d="M88 938c0 44 35 81 78 81s79 -38 79 -81c0 -41 -36 -76 -79 -76s-78 35 -78 76zM377 862c-43 0 -78 35 -78 76c0 44 35 81 78 81c41 0 76 -38 76 -81c0 -41 -35 -76 -76 -76zM219 640v-149h217v-160h-217v-171h244v-160h-404v800h404v-160h-244z" />
    <glyph glyph-name="uni0452" unicode="&#x452;" horiz-adv-x="653" 
d="M332 640v-120c82 33 140 50 173 50c53 0 96 -44 96 -97v-514c0 -78 -55 -117 -166 -117h-114v90h91c19 0 29 9 29 27v427c0 11 -4 17 -13 17c-21 0 -53 -9 -96 -26v-377h-160v640h-163v160h486v-160h-163z" />
    <glyph glyph-name="uni0453" unicode="&#x453;" horiz-adv-x="470" 
d="M219 640v-640h-160v800h402v-160h-242zM313 1035h153l-121 -161h-135z" />
    <glyph glyph-name="uni0454" unicode="&#x454;" horiz-adv-x="536" 
d="M192 806h176c40 0 74 -14 102 -42s42 -62 42 -102v-85h-160v60c0 13 -5 20 -16 20h-114c-9 0 -14 -7 -14 -20v-153h252v-160h-252v-171c0 -9 5 -14 14 -14h116c9 0 14 5 14 14v97h160v-116c0 -40 -14 -74 -42 -102s-62 -42 -102 -42h-176c-40 0 -74 14 -102 42
s-42 62 -42 102v528c0 40 14 74 42 102s62 42 102 42z" />
    <glyph glyph-name="uni0455" unicode="&#x455;" horiz-adv-x="536" 
d="M199 282v-129c0 -9 5 -14 14 -14h103c10 0 15 5 15 14v58c0 48 -14 83 -51 114c-18 16 -34 28 -47 36s-33 20 -61 35c-79 43 -126 116 -126 211v55c0 40 14 74 42 102s62 42 102 42h163c40 0 74 -19 102 -57c28 -37 42 -84 42 -139h-160c0 36 -4 47 -20 47h-96
c-10 0 -15 -5 -15 -14v-36c0 -29 24 -58 72 -86c11 -7 32 -18 65 -35c88 -48 148 -144 148 -275v-77c0 -40 -14 -74 -42 -102s-62 -42 -102 -42h-164c-40 0 -74 14 -102 42s-42 62 -42 102v148h160z" />
    <glyph glyph-name="uni0456" unicode="&#x456;" horiz-adv-x="286" 
d="M223 0h-160v800h160v-800z" />
    <glyph glyph-name="uni0457" unicode="&#x457;" horiz-adv-x="286" 
d="M-39 938c0 44 35 81 78 81s79 -38 79 -81c0 -41 -36 -76 -79 -76s-78 35 -78 76zM250 862c-43 0 -78 35 -78 76c0 44 35 81 78 81c41 0 76 -38 76 -81c0 -41 -35 -76 -76 -76zM63 0v800h160v-800h-160z" />
    <glyph glyph-name="uni0458" unicode="&#x458;" horiz-adv-x="525" 
d="M177 292v-138c0 -10 5 -15 14 -15h112c9 0 14 5 14 15v646h160v-666c0 -40 -14 -74 -42 -102s-62 -42 -102 -42h-172c-40 0 -74 14 -102 42s-42 62 -42 102v158h160z" />
    <glyph glyph-name="uni0459" unicode="&#x459;" horiz-adv-x="941" 
d="M893 473v-350c1 -37 -12 -68 -38 -94s-58 -39 -95 -39h-162c-37 0 -68 13 -94 39s-39 57 -39 94v518h-144l-19 -379c-6 -110 -26 -181 -66 -217c-28 -25 -46 -38 -90 -45c-43 -8 -65 -9 -120 -9h-9v160h9c44 1 73 7 87 20s22 41 24 84l25 546h463v-281
c83 34 141 51 172 51c53 0 96 -45 96 -98zM733 145v241c0 12 -4 18 -12 18c-7 0 -20 -3 -41 -9c-21 -5 -39 -11 -55 -18v-232c0 -10 5 -15 15 -15h78c10 0 15 5 15 15z" />
    <glyph glyph-name="uni045A" unicode="&#x45a;" horiz-adv-x="842" 
d="M793 473v-350c1 -37 -12 -68 -38 -94s-58 -39 -95 -39h-162c-37 0 -68 13 -94 39s-39 57 -39 94v241h-146v-364h-160v800h160v-279h146v279h160v-280c83 34 141 51 172 51c53 0 96 -45 96 -98zM633 145v241c0 12 -4 18 -12 18c-7 0 -20 -3 -41 -9c-21 -5 -39 -11 -55 -18
v-232c0 -10 5 -15 15 -15h78c10 0 15 5 15 15z" />
    <glyph glyph-name="uni045B" unicode="&#x45b;" horiz-adv-x="653" 
d="M332 640v-120c82 33 140 50 173 50c53 0 96 -44 96 -97v-473h-160v386c0 11 -4 17 -13 17c-21 0 -53 -9 -96 -26v-377h-160v640h-163v160h486v-160h-163z" />
    <glyph glyph-name="uni045C" unicode="&#x45c;" horiz-adv-x="645" 
d="M628 798v-158c-61 -11 -102 -33 -121 -66l-86 -128v-8l216 -438h-169l-173 363h-78v-363h-158v800h158v-279h79l31 50c51 81 100 137 149 170s99 52 152 57zM362 1035h153l-121 -161h-135z" />
    <glyph glyph-name="uni045E" unicode="&#x45e;" horiz-adv-x="604" 
d="M321 1005h97c0 -97 -36 -131 -116 -131s-116 34 -116 131h99c0 -28 6 -42 18 -42s18 14 18 42zM412 0h-162l47 219h-107c-20 0 -39 17 -43 34l-128 547h164l84 -403c2 -11 5 -17 9 -17h63c5 0 8 6 10 17l77 403h160z" />
    <glyph glyph-name="uni045F" unicode="&#x45f;" horiz-adv-x="576" 
d="M517 0h-143v-156h-160v156h-155v800h160v-642h138v642h160v-800z" />
    <glyph glyph-name="Bdotaccent" unicode="&#x1e02;" horiz-adv-x="567" 
d="M59 800h251c81 0 135 -13 163 -39c29 -25 43 -75 43 -149v-76c0 -71 -25 -97 -77 -118c52 -12 84 -43 84 -120v-87c0 -83 -15 -139 -44 -168s-85 -43 -168 -43h-252v800zM219 498h99c27 0 38 11 38 36v76c0 27 -10 32 -43 32h-94v-144zM219 160h88c43 0 56 13 56 53v85
c0 31 -9 40 -36 40h-108v-178zM280 851c-45 0 -82 37 -82 82c0 47 37 85 82 85s84 -38 84 -85c0 -45 -37 -82 -84 -82z" />
    <glyph glyph-name="bdotaccent" unicode="&#x1e03;" horiz-adv-x="521" 
d="M476 473v-350c1 -37 -12 -68 -39 -94c-26 -26 -57 -39 -94 -39h-162c-37 0 -68 13 -94 39s-39 57 -39 94v642h160v-245c83 34 141 51 172 51c53 0 96 -45 96 -98zM316 145v241c0 12 -4 18 -12 18c-7 0 -20 -3 -41 -9c-21 -5 -39 -11 -55 -18v-232c0 -10 5 -15 15 -15h78
c10 0 15 5 15 15zM332 611c-45 0 -82 37 -82 82c0 47 37 85 82 85s84 -38 84 -85c0 -45 -37 -82 -84 -82z" />
    <glyph glyph-name="Ddotaccent" unicode="&#x1e0a;" horiz-adv-x="571" 
d="M59 800h320c41 0 75 -13 102 -40c28 -26 42 -59 42 -98v-518c0 -40 -14 -74 -42 -102s-62 -42 -102 -42h-320v800zM219 149h130c9 0 14 5 14 15v472c0 10 -5 15 -14 15h-130v-502zM283 851c-45 0 -82 37 -82 82c0 47 37 85 82 85s84 -38 84 -85c0 -45 -37 -82 -84 -82z
" />
    <glyph glyph-name="ddotaccent" unicode="&#x1e0b;" horiz-adv-x="525" 
d="M174 611c-45 0 -82 37 -82 82c0 47 37 85 82 85s84 -38 84 -85c0 -45 -37 -82 -84 -82zM473 764v-764h-160v40c-82 -33 -140 -50 -173 -50c-53 0 -96 44 -96 97v351c0 37 13 68 39 94s57 39 94 39h136v193h160zM313 183v232c0 10 -5 15 -15 15h-79c-10 0 -15 -5 -15 -15
v-241c0 -11 4 -17 13 -17c21 0 53 9 96 26z" />
    <glyph glyph-name="Ddotbelow" unicode="&#x1e0c;" horiz-adv-x="571" 
d="M59 800h320c41 0 75 -13 102 -40c28 -26 42 -59 42 -98v-518c0 -40 -14 -74 -42 -102s-62 -42 -102 -42h-320v800zM219 149h130c9 0 14 5 14 15v472c0 10 -5 15 -14 15h-130v-502zM290 -213c-45 0 -82 37 -82 82c0 47 37 85 82 85s84 -38 84 -85c0 -45 -37 -82 -84 -82z
" />
    <glyph glyph-name="ddotbelow" unicode="&#x1e0d;" horiz-adv-x="525" 
d="M473 764v-764h-160v40c-82 -33 -140 -50 -173 -50c-53 0 -96 44 -96 97v351c0 37 13 68 39 94s57 39 94 39h136v193h160zM313 183v232c0 10 -5 15 -15 15h-79c-10 0 -15 -5 -15 -15v-241c0 -11 4 -17 13 -17c21 0 53 9 96 26zM247 -213c-45 0 -82 37 -82 82
c0 47 37 85 82 85s84 -38 84 -85c0 -45 -37 -82 -84 -82z" />
    <glyph glyph-name="Fdotaccent" unicode="&#x1e1e;" horiz-adv-x="473" 
d="M254 851c-45 0 -82 37 -82 82c0 47 37 85 82 85s84 -38 84 -85c0 -45 -37 -82 -84 -82zM464 800v-179h-245v-100h217v-160h-217v-361h-160v800h405z" />
    <glyph glyph-name="fdotaccent" unicode="&#x1e1f;" horiz-adv-x="327" 
d="M327 605h-102c-9 0 -14 -5 -14 -15v-30h72v-158h-72v-389c-1 -46 -19 -85 -53 -117c-33 -33 -75 -49 -124 -49v160c11 0 17 7 17 20v375h-42v158h42v41c0 45 16 84 49 116s72 48 119 48h108v-160zM165 851c-45 0 -82 37 -82 82c0 47 37 85 82 85s84 -38 84 -85
c0 -45 -37 -82 -84 -82z" />
    <glyph glyph-name="Hdotbelow" unicode="&#x1e24;" horiz-adv-x="579" 
d="M219 800v-279h141v279h160v-800h-160v364h-141v-364h-160v800h160zM290 -213c-45 0 -82 37 -82 82c0 47 37 85 82 85s84 -38 84 -85c0 -45 -37 -82 -84 -82z" />
    <glyph glyph-name="hdotbelow" unicode="&#x1e25;" horiz-adv-x="529" 
d="M212 765v-245c82 33 140 50 173 50c53 0 96 -44 96 -97v-473h-160v386c0 11 -4 17 -13 17c-21 0 -53 -9 -96 -26v-377h-160v765h160zM286 -213c-45 0 -82 37 -82 82c0 47 37 85 82 85s84 -38 84 -85c0 -45 -37 -82 -84 -82z" />
    <glyph glyph-name="Mdotaccent" unicode="&#x1e40;" horiz-adv-x="830" 
d="M348 800l68 -523l56 523h277l30 -800h-160l-20 640h-9l-103 -630h-143l-103 630h-9l-21 -640h-160l31 800h266zM419 851c-45 0 -82 37 -82 82c0 47 37 85 82 85s84 -38 84 -85c0 -45 -37 -82 -84 -82z" />
    <glyph glyph-name="mdotaccent" unicode="&#x1e41;" horiz-adv-x="732" 
d="M373 611c-45 0 -82 37 -82 82c0 47 37 85 82 85s84 -38 84 -85c0 -45 -37 -82 -84 -82zM212 560v-40c62 33 109 50 140 50c37 0 66 -17 85 -52l2 -3c22 13 48 26 77 37c30 12 54 18 72 18c53 0 96 -44 96 -97v-473h-160v386c0 11 -4 17 -13 17c-11 0 -32 -9 -63 -26v-377
h-160v386c0 11 -4 17 -13 17c-11 0 -32 -9 -63 -26v-377h-160v560h160z" />
    <glyph glyph-name="Ndotaccent" unicode="&#x1e44;" horiz-adv-x="642" 
d="M326 800l94 -640h10l-7 640h160v-800h-266l-96 640h-9l7 -640h-160v800h267zM320 851c-45 0 -82 37 -82 82c0 47 37 85 82 85s84 -38 84 -85c0 -45 -37 -82 -84 -82z" />
    <glyph glyph-name="ndotaccent" unicode="&#x1e45;" horiz-adv-x="529" 
d="M264 611c-45 0 -82 37 -82 82c0 47 37 85 82 85s84 -38 84 -85c0 -45 -37 -82 -84 -82zM212 560v-40c82 33 140 50 173 50c53 0 96 -44 96 -97v-473h-160v386c0 11 -4 17 -13 17c-21 0 -53 -9 -96 -26v-377h-160v560h160z" />
    <glyph glyph-name="Pdotaccent" unicode="&#x1e56;" horiz-adv-x="541" 
d="M59 800h316c41 0 75 -13 102 -40c28 -26 42 -59 42 -98v-193c0 -40 -14 -74 -42 -102s-62 -42 -102 -42h-156v-325h-160v800zM219 474h126c9 0 14 5 14 14v147c0 11 -5 16 -15 16h-125v-177zM280 851c-45 0 -82 37 -82 82c0 47 37 85 82 85s84 -38 84 -85
c0 -45 -37 -82 -84 -82z" />
    <glyph glyph-name="pdotaccent" unicode="&#x1e57;" horiz-adv-x="525" 
d="M212 560v-40c82 33 140 50 173 50c53 0 96 -44 96 -97v-351c0 -37 -13 -68 -39 -94s-57 -39 -94 -39h-136v-136h-160v707h160zM321 145v241c0 11 -4 17 -13 17c-21 0 -53 -9 -96 -26v-232c0 -10 5 -15 15 -15h79c10 0 15 5 15 15zM260 611c-45 0 -82 37 -82 82
c0 47 37 85 82 85s84 -38 84 -85c0 -45 -37 -82 -84 -82z" />
    <glyph glyph-name="Rdotbelow" unicode="&#x1e5a;" horiz-adv-x="572" 
d="M59 800h342c33 0 61 -12 84 -35c24 -23 36 -52 36 -85v-144c0 -51 -32 -98 -77 -118c49 -19 84 -65 84 -120v-298h-160v292c0 23 -5 38 -14 46h-135v-338h-160v800zM219 498h125c11 6 16 18 16 36v105c0 10 -3 15 -10 15h-131v-156zM304 -213c-45 0 -82 37 -82 82
c0 47 37 85 82 85s84 -38 84 -85c0 -45 -37 -82 -84 -82z" />
    <glyph glyph-name="rdotbelow" unicode="&#x1e5b;" horiz-adv-x="498" 
d="M212 560v-40c82 33 140 50 173 50c53 0 96 -44 96 -97v-100h-160v13c0 11 -4 17 -13 17c-21 0 -53 -9 -96 -26v-377h-160v560h160zM135 -213c-45 0 -82 37 -82 82c0 47 37 85 82 85s84 -38 84 -85c0 -45 -37 -82 -84 -82z" />
    <glyph glyph-name="Sdotaccent" unicode="&#x1e60;" horiz-adv-x="536" 
d="M199 282v-129c0 -9 5 -14 14 -14h103c10 0 15 5 15 14v58c0 48 -14 83 -51 114c-18 16 -34 28 -47 36s-33 20 -61 35c-79 43 -126 116 -126 211v55c0 40 14 74 42 102s62 42 102 42h163c40 0 74 -19 102 -57c28 -37 42 -84 42 -139h-160c0 36 -4 47 -20 47h-96
c-10 0 -15 -5 -15 -14v-36c0 -29 24 -58 72 -86c11 -7 32 -18 65 -35c88 -48 148 -144 148 -275v-77c0 -40 -14 -74 -42 -102s-62 -42 -102 -42h-164c-40 0 -74 14 -102 42s-42 62 -42 102v148h160zM267 851c-45 0 -82 37 -82 82c0 47 37 85 82 85s84 -38 84 -85
c0 -45 -37 -82 -84 -82z" />
    <glyph glyph-name="sdotaccent" unicode="&#x1e61;" horiz-adv-x="503" 
d="M251 611c-45 0 -82 37 -82 82c0 47 37 85 82 85s84 -38 84 -85c0 -45 -37 -82 -84 -82zM197 184v-39c0 -10 5 -15 15 -15h80c10 0 15 5 15 15v16c0 12 -2 20 -14 28c-5 4 -10 7 -15 9c-8 5 -40 19 -57 27c-10 5 -26 11 -47 20s-36 15 -45 20l-36 21
c-38 28 -52 58 -56 126v18c1 85 58 140 133 140h163c37 0 68 -13 94 -39s39 -57 39 -94v-39h-160v18c0 10 -5 15 -14 15h-80c-10 0 -15 -5 -15 -15v-8c0 -23 32 -34 95 -62l29 -13c16 -7 26 -11 29 -13l24 -12c13 -6 20 -10 23 -13s10 -7 19 -14c20 -13 19 -21 31 -38
c15 -20 19 -51 19 -87v-26c0 -40 -13 -73 -39 -100c-25 -27 -57 -40 -94 -40h-163c-37 0 -68 13 -94 39s-39 57 -39 94v61h160z" />
    <glyph glyph-name="Sdotbelow" unicode="&#x1e62;" horiz-adv-x="536" 
d="M199 282v-129c0 -9 5 -14 14 -14h103c10 0 15 5 15 14v58c0 48 -14 83 -51 114c-18 16 -34 28 -47 36s-33 20 -61 35c-79 43 -126 116 -126 211v55c0 40 14 74 42 102s62 42 102 42h163c40 0 74 -19 102 -57c28 -37 42 -84 42 -139h-160c0 36 -4 47 -20 47h-96
c-10 0 -15 -5 -15 -14v-36c0 -29 24 -58 72 -86c11 -7 32 -18 65 -35c88 -48 148 -144 148 -275v-77c0 -40 -14 -74 -42 -102s-62 -42 -102 -42h-164c-40 0 -74 14 -102 42s-42 62 -42 102v148h160zM270 -213c-45 0 -82 37 -82 82c0 47 37 85 82 85s84 -38 84 -85
c0 -45 -37 -82 -84 -82z" />
    <glyph glyph-name="sdotbelow" unicode="&#x1e63;" horiz-adv-x="503" 
d="M197 184v-39c0 -10 5 -15 15 -15h80c10 0 15 5 15 15v16c0 12 -2 20 -14 28c-5 4 -10 7 -15 9c-8 5 -40 19 -57 27c-10 5 -26 11 -47 20s-36 15 -45 20l-36 21c-38 28 -52 58 -56 126v18c1 85 58 140 133 140h163c37 0 68 -13 94 -39s39 -57 39 -94v-39h-160v18
c0 10 -5 15 -14 15h-80c-10 0 -15 -5 -15 -15v-8c0 -23 32 -34 95 -62l29 -13c16 -7 26 -11 29 -13l24 -12c13 -6 20 -10 23 -13s10 -7 19 -14c20 -13 19 -21 31 -38c15 -20 19 -51 19 -87v-26c0 -40 -13 -73 -39 -100c-25 -27 -57 -40 -94 -40h-163c-37 0 -68 13 -94 39
s-39 57 -39 94v61h160zM251 -213c-45 0 -82 37 -82 82c0 47 37 85 82 85s84 -38 84 -85c0 -45 -37 -82 -84 -82z" />
    <glyph glyph-name="Tdotaccent" unicode="&#x1e6a;" horiz-adv-x="502" 
d="M9 640v160h484v-160h-161v-640h-160v640h-163zM250 851c-45 0 -82 37 -82 82c0 47 37 85 82 85s84 -38 84 -85c0 -45 -37 -82 -84 -82z" />
    <glyph glyph-name="tdotaccent" unicode="&#x1e6b;" horiz-adv-x="395" 
d="M158 851c-45 0 -82 37 -82 82c0 47 37 85 82 85s84 -38 84 -85c0 -45 -37 -82 -84 -82zM236 402v-236c0 -11 5 -16 14 -16h69v-160h-75c-47 -1 -86 15 -119 48s-49 72 -49 118v246h-67v158h67v144h160v-144h150v-158h-150z" />
    <glyph glyph-name="Tdotbelow" unicode="&#x1e6c;" horiz-adv-x="502" 
d="M9 640v160h484v-160h-161v-640h-160v640h-163zM251 -213c-45 0 -82 37 -82 82c0 47 37 85 82 85s84 -38 84 -85c0 -45 -37 -82 -84 -82z" />
    <glyph glyph-name="tdotbelow" unicode="&#x1e6d;" horiz-adv-x="395" 
d="M236 402v-236c0 -11 5 -16 14 -16h69v-160h-75c-47 -1 -86 15 -119 48s-49 72 -49 118v246h-67v158h67v144h160v-144h150v-158h-150zM197 -213c-45 0 -82 37 -82 82c0 47 37 85 82 85s84 -38 84 -85c0 -45 -37 -82 -84 -82z" />
    <glyph glyph-name="Wgrave" unicode="&#x1e80;" horiz-adv-x="855" 
d="M245 1035h155l101 -161h-133zM211 800v-647c0 -9 5 -14 14 -14h63c39 0 59 45 59 89v572h160v-572c0 -21 5 -42 15 -61c11 -19 25 -28 44 -28h63c10 0 15 5 15 14v647h160v-666c0 -40 -14 -74 -42 -102s-62 -42 -102 -42h-94c-65 0 -119 42 -139 105
c-17 -63 -71 -105 -139 -105h-93c-40 0 -74 14 -102 42s-42 62 -42 102v666h160z" />
    <glyph glyph-name="wgrave" unicode="&#x1e81;" horiz-adv-x="766" 
d="M200 795h155l101 -161h-133zM718 560v-426c0 -40 -14 -74 -42 -102s-62 -42 -102 -42h-64c-59 0 -108 43 -127 104c-16 -61 -66 -104 -127 -104h-64c-40 0 -74 14 -102 42s-42 62 -42 102v426h160v-416c0 -9 5 -14 14 -14h34c31 0 47 24 47 72v358h160v-358
c0 -44 16 -72 47 -72h33c10 0 15 5 15 14v416h160z" />
    <glyph glyph-name="Wacute" unicode="&#x1e82;" horiz-adv-x="855" 
d="M459 1035h153l-121 -161h-135zM211 800v-647c0 -9 5 -14 14 -14h63c39 0 59 45 59 89v572h160v-572c0 -21 5 -42 15 -61c11 -19 25 -28 44 -28h63c10 0 15 5 15 14v647h160v-666c0 -40 -14 -74 -42 -102s-62 -42 -102 -42h-94c-65 0 -119 42 -139 105
c-17 -63 -71 -105 -139 -105h-93c-40 0 -74 14 -102 42s-42 62 -42 102v666h160z" />
    <glyph glyph-name="wacute" unicode="&#x1e83;" horiz-adv-x="766" 
d="M415 795h153l-121 -161h-135zM718 560v-426c0 -40 -14 -74 -42 -102s-62 -42 -102 -42h-64c-59 0 -108 43 -127 104c-16 -61 -66 -104 -127 -104h-64c-40 0 -74 14 -102 42s-42 62 -42 102v426h160v-416c0 -9 5 -14 14 -14h34c31 0 47 24 47 72v358h160v-358
c0 -44 16 -72 47 -72h33c10 0 15 5 15 14v416h160z" />
    <glyph glyph-name="Wdieresis" unicode="&#x1e84;" horiz-adv-x="855" 
d="M245 938c0 44 35 81 78 81s79 -38 79 -81c0 -41 -36 -76 -79 -76s-78 35 -78 76zM534 862c-43 0 -78 35 -78 76c0 44 35 81 78 81c41 0 76 -38 76 -81c0 -41 -35 -76 -76 -76zM211 800v-647c0 -9 5 -14 14 -14h63c39 0 59 45 59 89v572h160v-572c0 -21 5 -42 15 -61
c11 -19 25 -28 44 -28h63c10 0 15 5 15 14v647h160v-666c0 -40 -14 -74 -42 -102s-62 -42 -102 -42h-94c-65 0 -119 42 -139 105c-17 -63 -71 -105 -139 -105h-93c-40 0 -74 14 -102 42s-42 62 -42 102v666h160z" />
    <glyph glyph-name="wdieresis" unicode="&#x1e85;" horiz-adv-x="766" 
d="M200 698c0 44 35 81 78 81s79 -38 79 -81c0 -41 -36 -76 -79 -76s-78 35 -78 76zM489 622c-43 0 -78 35 -78 76c0 44 35 81 78 81c41 0 76 -38 76 -81c0 -41 -35 -76 -76 -76zM718 560v-426c0 -40 -14 -74 -42 -102s-62 -42 -102 -42h-64c-59 0 -108 43 -127 104
c-16 -61 -66 -104 -127 -104h-64c-40 0 -74 14 -102 42s-42 62 -42 102v426h160v-416c0 -9 5 -14 14 -14h34c31 0 47 24 47 72v358h160v-358c0 -44 16 -72 47 -72h33c10 0 15 5 15 14v416h160z" />
    <glyph glyph-name="Zdotbelow" unicode="&#x1e92;" horiz-adv-x="517" 
d="M23 640v160h471l-248 -640h248v-160h-471l250 640h-250zM262 -213c-45 0 -82 37 -82 82c0 47 37 85 82 85s84 -38 84 -85c0 -45 -37 -82 -84 -82z" />
    <glyph glyph-name="zdotbelow" unicode="&#x1e93;" horiz-adv-x="477" 
d="M265 404h-237v156h420v-156l-240 -245h243v-159h-425v160zM216 -213c-45 0 -82 37 -82 82c0 47 37 85 82 85s84 -38 84 -85c0 -45 -37 -82 -84 -82z" />
    <glyph glyph-name="Edotbelow" unicode="&#x1eb8;" horiz-adv-x="493" 
d="M463 800v-160h-244v-149h217v-160h-217v-171h244v-160h-404v800h404zM236 -213c-45 0 -82 37 -82 82c0 47 37 85 82 85s84 -38 84 -85c0 -45 -37 -82 -84 -82z" />
    <glyph glyph-name="edotbelow" unicode="&#x1eb9;" horiz-adv-x="504" 
d="M45 123v314c0 37 13 68 38 94c26 26 58 39 95 39h162c37 0 69 -13 94 -39c26 -26 39 -57 39 -94v-212h-268v-80c0 -10 5 -15 15 -15h78c10 0 15 5 15 15v40h160v-62c0 -37 -13 -68 -39 -94c-25 -26 -57 -39 -94 -39h-162c-37 0 -69 13 -95 39c-25 26 -38 57 -38 94z
M313 322v94c0 10 -5 15 -14 15h-80c-9 0 -14 -5 -14 -15v-94h108zM252 -213c-45 0 -82 37 -82 82c0 47 37 85 82 85s84 -38 84 -85c0 -45 -37 -82 -84 -82z" />
    <glyph glyph-name="Etilde" unicode="&#x1ebc;" horiz-adv-x="493" 
d="M463 800v-160h-244v-149h217v-160h-217v-171h244v-160h-404v800h404zM132 858v132c21 21 45 31 72 31c17 0 40 -4 69 -13c30 -8 53 -12 68 -12c28 0 52 6 71 18v-132c-22 -15 -46 -22 -71 -22c-17 0 -40 4 -70 12c-29 9 -52 13 -67 13c-27 0 -51 -9 -72 -27z" />
    <glyph glyph-name="etilde" unicode="&#x1ebd;" horiz-adv-x="504" 
d="M45 123v314c0 37 13 68 38 94c26 26 58 39 95 39h162c37 0 69 -13 94 -39c26 -26 39 -57 39 -94v-212h-268v-80c0 -10 5 -15 15 -15h78c10 0 15 5 15 15v40h160v-62c0 -37 -13 -68 -39 -94c-25 -26 -57 -39 -94 -39h-162c-37 0 -69 13 -95 39c-25 26 -38 57 -38 94z
M313 322v94c0 10 -5 15 -14 15h-80c-9 0 -14 -5 -14 -15v-94h108zM113 618v132c21 21 45 31 72 31c17 0 40 -4 69 -13c30 -8 53 -12 68 -12c28 0 52 6 71 18v-132c-22 -15 -46 -22 -71 -22c-17 0 -40 4 -70 12c-29 9 -52 13 -67 13c-27 0 -51 -9 -72 -27z" />
    <glyph glyph-name="Idotbelow" unicode="&#x1eca;" horiz-adv-x="286" 
d="M140 -213c-45 0 -82 37 -82 82c0 47 37 85 82 85s84 -38 84 -85c0 -45 -37 -82 -84 -82zM223 800v-800h-160v800h160z" />
    <glyph glyph-name="idotbelow" unicode="&#x1ecb;" horiz-adv-x="323" 
d="M217 765v-106h-160v106h160zM216 560v-394c0 -11 5 -16 14 -16h69v-160h-75c-47 -1 -86 15 -119 48s-49 72 -49 118v404h160zM134 -213c-45 0 -82 37 -82 82c0 47 37 85 82 85s84 -38 84 -85c0 -45 -37 -82 -84 -82z" />
    <glyph glyph-name="Odotbelow" unicode="&#x1ecc;" horiz-adv-x="560" 
d="M48 134v528c0 40 14 74 42 102s62 42 102 42h176c40 0 74 -14 102 -42s42 -62 42 -102v-528c0 -40 -14 -74 -42 -102s-62 -42 -102 -42h-176c-40 0 -74 14 -102 42s-42 62 -42 102zM208 643v-490c0 -9 5 -14 14 -14h115c10 0 15 5 15 14v490c0 9 -5 14 -15 14h-115
c-9 0 -14 -5 -14 -14zM278 -213c-45 0 -82 37 -82 82c0 47 37 85 82 85s84 -38 84 -85c0 -45 -37 -82 -84 -82z" />
    <glyph glyph-name="odotbelow" unicode="&#x1ecd;" horiz-adv-x="518" 
d="M45 123v314c0 37 13 68 38 94c26 26 58 39 95 39h162c37 0 69 -13 94 -39c26 -26 39 -57 39 -94v-314c0 -37 -13 -68 -39 -94s-57 -39 -94 -39h-162c-37 0 -68 13 -94 39s-39 57 -39 94zM205 416v-271c0 -10 5 -15 15 -15h78c10 0 15 5 15 15v271c0 10 -5 15 -15 15h-78
c-10 0 -15 -5 -15 -15zM262 -213c-45 0 -82 37 -82 82c0 47 37 85 82 85s84 -38 84 -85c0 -45 -37 -82 -84 -82z" />
    <glyph glyph-name="Udotbelow" unicode="&#x1ee4;" horiz-adv-x="566" 
d="M211 800v-642c0 -13 5 -19 14 -19h116c9 0 14 6 14 19v642h160v-666c0 -40 -14 -74 -42 -102s-62 -42 -102 -42h-176c-40 0 -74 14 -102 42s-42 62 -42 102v666h160zM285 -213c-45 0 -82 37 -82 82c0 47 37 85 82 85s84 -38 84 -85c0 -45 -37 -82 -84 -82z" />
    <glyph glyph-name="udotbelow" unicode="&#x1ee5;" horiz-adv-x="529" 
d="M317 0v40c-82 -33 -140 -50 -173 -50c-53 0 -96 44 -96 97v473h160v-386c0 -11 4 -17 13 -17c21 0 53 9 96 26v377h160v-560h-160zM262 -213c-45 0 -82 37 -82 82c0 47 37 85 82 85s84 -38 84 -85c0 -45 -37 -82 -84 -82z" />
    <glyph glyph-name="Ygrave" unicode="&#x1ef2;" horiz-adv-x="603" 
d="M584 800l-118 -546c-5 -19 -28 -32 -56 -32h-26v-222h-159v222h-23c-31 0 -50 11 -55 32l-128 546h164l81 -420c2 -11 5 -17 10 -17h64c6 0 9 6 10 17l76 420h160zM119 1035h155l101 -161h-133z" />
    <glyph glyph-name="ygrave" unicode="&#x1ef3;" horiz-adv-x="518" 
d="M77 795h155l101 -161h-133zM183 560l47 -415c1 -10 4 -15 9 -15h44c6 0 9 5 10 15l44 415h161l-109 -716h-153l23 145h-103c-20 0 -40 17 -43 34l-91 537h161z" />
    <glyph glyph-name="Ytilde" unicode="&#x1ef8;" horiz-adv-x="603" 
d="M584 800l-118 -546c-5 -19 -28 -32 -56 -32h-26v-222h-159v222h-23c-31 0 -50 11 -55 32l-128 546h164l81 -420c2 -11 5 -17 10 -17h64c6 0 9 6 10 17l76 420h160zM162 858v132c21 21 45 31 72 31c17 0 40 -4 69 -13c30 -8 53 -12 68 -12c28 0 52 6 71 18v-132
c-22 -15 -46 -22 -71 -22c-17 0 -40 4 -70 12c-29 9 -52 13 -67 13c-27 0 -51 -9 -72 -27z" />
    <glyph glyph-name="ytilde" unicode="&#x1ef9;" horiz-adv-x="518" 
d="M120 618v132c21 21 45 31 72 31c17 0 40 -4 69 -13c30 -8 53 -12 68 -12c28 0 52 6 71 18v-132c-22 -15 -46 -22 -71 -22c-17 0 -40 4 -70 12c-29 9 -52 13 -67 13c-27 0 -51 -9 -72 -27zM183 560l47 -415c1 -10 4 -15 9 -15h44c6 0 9 5 10 15l44 415h161l-109 -716h-153
l23 145h-103c-20 0 -40 17 -43 34l-91 537h161z" />
    <glyph glyph-name="endash" unicode="&#x2013;" horiz-adv-x="446" 
d="M9 431h428v-159h-428v159z" />
    <glyph glyph-name="emdash" unicode="&#x2014;" horiz-adv-x="724" 
d="M9 431h706v-159h-706v159z" />
    <glyph glyph-name="uni2015" unicode="&#x2015;" horiz-adv-x="1018" 
d="M9 431h1000v-159h-1000v159z" />
    <glyph glyph-name="quoteleft" unicode="&#x2018;" horiz-adv-x="259" 
d="M83 799l132 -26l-28 -64c-4 -8 -6 -16 -6 -23c0 -9 4 -17 11 -25l-74 -75c-49 21 -73 52 -73 93c0 14 4 31 11 52z" />
    <glyph glyph-name="quoteright" unicode="&#x2019;" horiz-adv-x="259" 
d="M44 619l28 64c4 8 6 16 6 23c0 9 -4 17 -11 25l74 75c49 -21 73 -52 73 -93c0 -14 -4 -31 -11 -52l-27 -68z" />
    <glyph glyph-name="quotesinglbase" unicode="&#x201a;" horiz-adv-x="259" 
d="M44 -133l28 64c4 8 6 16 6 23c0 9 -4 17 -11 25l74 75c49 -21 73 -52 73 -93c0 -14 -4 -31 -11 -52l-27 -68z" />
    <glyph glyph-name="quotedblleft" unicode="&#x201c;" horiz-adv-x="425" 
d="M83 799l132 -26l-28 -64c-4 -8 -6 -16 -6 -23c0 -9 4 -17 11 -25l-74 -75c-49 21 -73 52 -73 93c0 14 4 31 11 52zM248 799l132 -26l-28 -64c-4 -8 -6 -16 -6 -23c0 -9 4 -17 11 -25l-74 -75c-49 21 -73 52 -73 93c0 14 4 31 11 52z" />
    <glyph glyph-name="quotedblright" unicode="&#x201d;" horiz-adv-x="415" 
d="M176 593l-132 26l28 64c4 8 6 16 6 23c0 9 -4 17 -11 25l74 75c49 -21 73 -52 73 -93c0 -14 -4 -31 -11 -52zM332 593l-132 26l28 64c4 8 6 16 6 23c0 9 -4 17 -11 25l74 75c49 -21 73 -52 73 -93c0 -14 -4 -31 -11 -52z" />
    <glyph glyph-name="quotedblbase" unicode="&#x201e;" horiz-adv-x="426" 
d="M176 -165l-132 26l28 64c4 8 6 16 6 23c0 9 -4 17 -11 25l74 75c49 -21 73 -52 73 -93c0 -14 -4 -31 -11 -52zM343 -165l-132 26l28 64c4 8 6 16 6 23c0 9 -4 17 -11 25l74 75c49 -21 73 -52 73 -93c0 -14 -4 -31 -11 -52z" />
    <glyph glyph-name="dagger" unicode="&#x2020;" horiz-adv-x="446" 
d="M144 515h-96v159h96v121h158v-121h96v-159h-96v-510h-158v510z" />
    <glyph glyph-name="daggerdbl" unicode="&#x2021;" horiz-adv-x="446" 
d="M142 131h-94v158h94v227h-94v158h94v121h160v-121h96v-158h-96v-227h96v-158h-96v-126h-160v126z" />
    <glyph glyph-name="bullet" unicode="&#x2022;" horiz-adv-x="285" 
d="M143 217c-51 0 -95 43 -95 94c0 52 43 95 95 95s94 -42 94 -95c0 -51 -42 -94 -94 -94z" />
    <glyph glyph-name="ellipsis" unicode="&#x2026;" horiz-adv-x="638" 
d="M48 82c0 47 38 85 82 85c47 0 85 -38 85 -85c0 -44 -38 -82 -85 -82c-44 0 -82 38 -82 82zM236 82c0 47 37 85 82 85c47 0 85 -38 85 -85c0 -44 -40 -82 -85 -82s-82 38 -82 82zM423 82c0 47 38 85 82 85c47 0 85 -38 85 -85c0 -44 -38 -82 -85 -82c-44 0 -82 38 -82 82z
" />
    <glyph glyph-name="perthousand" unicode="&#x2030;" horiz-adv-x="1337" 
d="M674 798l-319 -798h-89l319 798h89zM284 355h-101c-36 0 -68 12 -95 35s-40 51 -40 83v184c0 33 13 60 40 83s59 35 95 35h101c37 0 68 -12 94 -35c27 -23 40 -50 40 -83v-184c0 -33 -13 -61 -40 -84c-26 -23 -57 -34 -94 -34zM203 474h60c11 0 17 5 17 14v154
c0 9 -6 14 -17 14h-60c-11 0 -16 -5 -16 -14v-154c0 -9 5 -14 16 -14zM508 108v183c0 33 13 61 40 84s59 35 95 35h101c37 0 68 -12 95 -35s40 -51 40 -84v-183c0 -33 -13 -61 -40 -84s-58 -34 -95 -34h-101c-35 0 -67 12 -94 35s-41 51 -41 83zM918 108v183
c0 33 13 61 40 84s59 35 95 35h101c37 0 68 -12 95 -35s40 -51 40 -84v-183c0 -33 -13 -61 -40 -84s-58 -34 -95 -34h-101c-36 0 -68 12 -95 35s-40 51 -40 83zM647 277v-154c0 -9 5 -14 16 -14h61c11 0 16 5 16 14v154c0 9 -5 14 -16 14h-61c-11 0 -16 -5 -16 -14z
M1057 277v-154c0 -9 5 -14 16 -14h61c11 0 16 5 16 14v154c0 9 -5 14 -16 14h-61c-11 0 -16 -5 -16 -14z" />
    <glyph glyph-name="guilsinglleft" unicode="&#x2039;" horiz-adv-x="426" 
d="M247 397l131 -59l-141 -99l141 -99l-131 -57l-217 156z" />
    <glyph glyph-name="guilsinglright" unicode="&#x203a;" horiz-adv-x="426" 
d="M189 239l-141 99l133 59l215 -158l-215 -156l-133 57z" />
    <glyph glyph-name="fraction" unicode="&#x2044;" horiz-adv-x="484" 
d="M476 798l-319 -798h-148l318 798h149z" />
    <glyph glyph-name="Euro" unicode="&#x20ac;" 
d="M13 416v123h55v92c0 40 14 74 42 102s62 42 102 42h168c40 0 74 -14 102 -42s42 -62 42 -102v-126h-160v101c0 13 -5 20 -16 20h-106c-9 0 -14 -7 -14 -20v-67h93v-123h-308zM321 380v-123h-93v-104c0 -9 5 -14 14 -14h107c10 0 15 5 15 14v139h160v-158
c0 -40 -14 -74 -42 -102s-62 -42 -102 -42h-168c-40 0 -74 14 -102 42s-42 62 -42 102v123h-55v123h308z" />
    <glyph glyph-name="uni2116" unicode="&#x2116;" horiz-adv-x="1020" 
d="M583 800v-800h-271l-84 640h-9v-640h-160v800h273l82 -640h9v640h160zM731 583h153c44 0 80 -35 80 -80v-188c0 -44 -36 -80 -80 -80h-153c-45 0 -80 36 -80 80v188c0 45 35 80 80 80zM840 481h-66c-4 0 -6 -3 -6 -9v-126c0 -6 2 -9 6 -9h67c4 0 6 3 6 9v126
c0 6 -2 9 -7 9zM975 219v-121h-334v121h334z" />
    <glyph glyph-name="trademark" unicode="&#x2122;" horiz-adv-x="806" 
d="M139 725h-91v76h259v-76h-91v-332h-77v332zM362 801h112l75 -254l68 254h118l23 -408h-77l-15 307h-11l-77 -304h-60l-80 304h-10l-14 -307h-78z" />
    <glyph glyph-name="minus" unicode="&#x2212;" 
d="M56 431h425v-159h-425v159z" />
    <glyph glyph-name="radical" unicode="&#x221a;" horiz-adv-x="541" 
d="M330 560h160v-560h-160v40c-37 -15 -73 -28 -109 -38v-43c0 -78 -55 -117 -166 -117h-78v90h55c19 0 29 9 29 27v601h160v-386c0 -11 4 -17 13 -17c21 0 53 9 96 26v377z" />
    <glyph glyph-name="notequal" unicode="&#x2260;" 
d="M444 375h-103l-11 -48h114v-156h-152l-10 -44h-144l10 44h-54v156h92l11 48h-103v155h140l8 33h144l-8 -33h66v-155z" />
    <glyph glyph-name="lessequal" unicode="&#x2264;" 
d="M449 627v-171l-78 -41l78 -31v-169l-360 200zM99 196h350v-159h-350v159z" />
    <glyph glyph-name="greaterequal" unicode="&#x2265;" 
d="M91 384l80 31l-87 41v171l368 -212l-361 -200v169zM92 196h350v-159h-350v159z" />
    <glyph glyph-name="apple" unicode="&#xf8ff;" horiz-adv-x="650" 
d="M443 738l-90 -85c-12 1 -44 1 -56 0l-90 85h59l58 -61l59 61h60zM101 527c62 62 137 93 224 93s162 -31 223 -93c62 -62 93 -136 93 -223s-31 -161 -93 -223c-61 -62 -136 -93 -223 -93s-162 31 -224 92c-61 62 -92 137 -92 224s31 162 92 223zM325 33
c75 0 138 26 191 79s79 117 79 192s-26 138 -79 191s-116 80 -191 80s-139 -27 -192 -80s-79 -116 -79 -191s26 -139 79 -192s117 -79 192 -79zM183 135l9 47c44 -27 87 -41 128 -41c53 0 90 24 90 59c0 83 -218 97 -218 209c0 36 13 62 39 78c27 17 57 25 92 25
c25 0 56 -9 71 -17c16 -7 46 -23 50 -26l-11 -43c-32 28 -68 42 -107 42c-48 0 -80 -23 -80 -55c0 -31 35 -54 78 -73c63 -25 143 -58 143 -136c0 -71 -67 -108 -155 -108c-33 0 -76 13 -129 39z" />
    <glyph glyph-name="I.ss01" horiz-adv-x="339" 
d="M42 159h48v483h-48v159h255v-159h-47v-483h47v-159h-255v159z" />
    <glyph glyph-name="Iacute.ss01" horiz-adv-x="339" 
d="M201 1035h153l-121 -161h-135zM90 159v483h-48v159h255v-159h-47v-483h47v-159h-255v159h48z" />
    <glyph glyph-name="Ibreve.ss01" horiz-adv-x="339" 
d="M188 1005h97c0 -97 -36 -131 -116 -131s-116 34 -116 131h99c0 -28 6 -42 18 -42s18 14 18 42zM90 159v483h-48v159h255v-159h-47v-483h47v-159h-255v159h48z" />
    <glyph glyph-name="Icircumflex.ss01" horiz-adv-x="339" 
d="M103 1013h124l111 -136h-131l-37 64h-11l-37 -64h-131zM90 159v483h-48v159h255v-159h-47v-483h47v-159h-255v159h48z" />
    <glyph glyph-name="Idieresis.ss01" horiz-adv-x="339" 
d="M-14 938c0 44 35 81 78 81s79 -38 79 -81c0 -41 -36 -76 -79 -76s-78 35 -78 76zM275 862c-43 0 -78 35 -78 76c0 44 35 81 78 81c41 0 76 -38 76 -81c0 -41 -35 -76 -76 -76zM90 159v483h-48v159h255v-159h-47v-483h47v-159h-255v159h48z" />
    <glyph glyph-name="Idotaccent.ss01" horiz-adv-x="339" 
d="M168 851c-45 0 -82 37 -82 82c0 47 37 85 82 85s84 -38 84 -85c0 -45 -37 -82 -84 -82zM90 159v483h-48v159h255v-159h-47v-483h47v-159h-255v159h48z" />
    <glyph glyph-name="Idotbelow.ss01" horiz-adv-x="339" 
d="M90 159v483h-48v159h255v-159h-47v-483h47v-159h-255v159h48zM167 -213c-45 0 -82 37 -82 82c0 47 37 85 82 85s84 -38 84 -85c0 -45 -37 -82 -84 -82z" />
    <glyph glyph-name="Igrave.ss01" horiz-adv-x="339" 
d="M-14 1035h155l101 -161h-133zM90 159v483h-48v159h255v-159h-47v-483h47v-159h-255v159h48z" />
    <glyph glyph-name="Imacron.ss01" horiz-adv-x="339" 
d="M39 991h260v-121h-260v121zM90 159v483h-48v159h255v-159h-47v-483h47v-159h-255v159h48z" />
    <glyph glyph-name="Iogonek.ss01" horiz-adv-x="339" 
d="M310 -24l48 -79c-37 -29 -76 -43 -118 -43c-69 0 -111 39 -111 88c0 21 5 41 16 58h-103v159h48v483h-48v159h255v-159h-47v-483h47v-159h-1c-29 -3 -44 -13 -44 -31c0 -11 4 -16 12 -16c11 0 27 8 46 23z" />
    <glyph glyph-name="Itilde.ss01" horiz-adv-x="339" 
d="M29 858v132c21 21 45 31 72 31c17 0 40 -4 69 -13c30 -8 53 -12 68 -12c28 0 52 6 71 18v-132c-22 -15 -46 -22 -71 -22c-17 0 -40 4 -70 12c-29 9 -52 13 -67 13c-27 0 -51 -9 -72 -27zM90 159v483h-48v159h255v-159h-47v-483h47v-159h-255v159h48z" />
    <glyph glyph-name="M.ss01" horiz-adv-x="855" 
d="M644 0v647c0 9 -5 14 -14 14h-63c-39 0 -59 -45 -59 -89v-572h-160v572c0 21 -5 41 -16 60c-10 19 -24 29 -43 29h-63c-10 0 -15 -5 -15 -14v-647h-160v666c0 40 14 74 42 102s62 42 102 42h94c65 0 119 -42 139 -105c17 63 71 105 139 105h93c40 0 74 -14 102 -42
s42 -62 42 -102v-666h-160z" />
    <glyph glyph-name="Mdotaccent.ss01" horiz-adv-x="855" 
d="M644 0v647c0 9 -5 14 -14 14h-63c-39 0 -59 -45 -59 -89v-572h-160v572c0 21 -5 41 -16 60c-10 19 -24 29 -43 29h-63c-10 0 -15 -5 -15 -14v-647h-160v666c0 40 14 74 42 102s62 42 102 42h94c65 0 119 -42 139 -105c17 63 71 105 139 105h93c40 0 74 -14 102 -42
s42 -62 42 -102v-666h-160zM435 851c-45 0 -82 37 -82 82c0 47 37 85 82 85s84 -38 84 -85c0 -45 -37 -82 -84 -82z" />
    <glyph glyph-name="R.ss01" horiz-adv-x="571" 
d="M439 388l116 -388h-164l-94 371h-78v-371h-160v800h316c41 0 75 -13 102 -40c28 -26 42 -59 42 -98v-143c0 -57 -32 -108 -80 -131zM360 534v105c0 10 -3 15 -10 15h-131v-156h125c11 6 16 18 16 36z" />
    <glyph glyph-name="Racute.ss01" horiz-adv-x="571" 
d="M320 1035h153l-121 -161h-135zM555 0h-164l-94 371h-78v-371h-160v800h316c41 0 75 -13 102 -40c28 -26 42 -59 42 -98v-143c0 -57 -32 -108 -80 -131zM360 534v105c0 10 -3 15 -10 15h-131v-156h125c11 6 16 18 16 36z" />
    <glyph glyph-name="Rcaron.ss01" horiz-adv-x="571" 
d="M109 1004h131l37 -64h11l37 64h131l-112 -136h-124zM555 0h-164l-94 371h-78v-371h-160v800h316c41 0 75 -13 102 -40c28 -26 42 -59 42 -98v-143c0 -57 -32 -108 -80 -131zM360 534v105c0 10 -3 15 -10 15h-131v-156h125c11 6 16 18 16 36z" />
    <glyph glyph-name="Rcommaaccent.ss01" horiz-adv-x="571" 
d="M555 0h-164l-94 371h-78v-371h-160v800h316c41 0 75 -13 102 -40c28 -26 42 -59 42 -98v-143c0 -57 -32 -108 -80 -131zM360 534v105c0 10 -3 15 -10 15h-131v-156h125c11 6 16 18 16 36zM353 -41l-22 -169h-123v169h145z" />
    <glyph glyph-name="Rdotbelow.ss01" horiz-adv-x="571" 
d="M555 0h-164l-94 371h-78v-371h-160v800h316c41 0 75 -13 102 -40c28 -26 42 -59 42 -98v-143c0 -57 -32 -108 -80 -131zM360 534v105c0 10 -3 15 -10 15h-131v-156h125c11 6 16 18 16 36zM288 -213c-45 0 -82 37 -82 82c0 47 37 85 82 85s84 -38 84 -85
c0 -45 -37 -82 -84 -82z" />
    <glyph glyph-name="W.ss01" horiz-adv-x="794" 
d="M611 800h165l-128 -784c-3 -11 -10 -16 -23 -16h-154c-12 0 -19 5 -21 16l-51 541l-53 -541c-2 -11 -9 -16 -22 -16h-152c-13 0 -20 5 -22 16l-131 784h165l59 -572l44 558h227l40 -548z" />
    <glyph glyph-name="Wacute.ss01" horiz-adv-x="794" 
d="M438 1035h153l-121 -161h-135zM776 800l-128 -784c-3 -11 -10 -16 -23 -16h-154c-12 0 -19 5 -21 16l-51 541l-53 -541c-2 -11 -9 -16 -22 -16h-152c-13 0 -20 5 -22 16l-131 784h165l59 -572l44 558h227l40 -548l57 562h165z" />
    <glyph glyph-name="Wcircumflex.ss01" horiz-adv-x="794" 
d="M340 1013h124l111 -136h-131l-37 64h-11l-37 -64h-131zM776 800l-128 -784c-3 -11 -10 -16 -23 -16h-154c-12 0 -19 5 -21 16l-51 541l-53 -541c-2 -11 -9 -16 -22 -16h-152c-13 0 -20 5 -22 16l-131 784h165l59 -572l44 558h227l40 -548l57 562h165z" />
    <glyph glyph-name="Wdieresis.ss01" horiz-adv-x="794" 
d="M223 938c0 44 35 81 78 81s79 -38 79 -81c0 -41 -36 -76 -79 -76s-78 35 -78 76zM512 862c-43 0 -78 35 -78 76c0 44 35 81 78 81c41 0 76 -38 76 -81c0 -41 -35 -76 -76 -76zM776 800l-128 -784c-3 -11 -10 -16 -23 -16h-154c-12 0 -19 5 -21 16l-51 541l-53 -541
c-2 -11 -9 -16 -22 -16h-152c-13 0 -20 5 -22 16l-131 784h165l59 -572l44 558h227l40 -548l57 562h165z" />
    <glyph glyph-name="Wgrave.ss01" horiz-adv-x="794" 
d="M224 1035h155l101 -161h-133zM776 800l-128 -784c-3 -11 -10 -16 -23 -16h-154c-12 0 -19 5 -21 16l-51 541l-53 -541c-2 -11 -9 -16 -22 -16h-152c-13 0 -20 5 -22 16l-131 784h165l59 -572l44 558h227l40 -548l57 562h165z" />
    <glyph glyph-name="i.loclTRK" horiz-adv-x="323" 
d="M216 560v-394c0 -11 5 -16 14 -16h69v-160h-75c-47 -1 -86 15 -119 48s-49 72 -49 118v404h160zM136 611c-45 0 -82 37 -82 82c0 47 37 85 82 85s84 -38 84 -85c0 -45 -37 -82 -84 -82z" />
    <glyph glyph-name="a.ss01" horiz-adv-x="531" 
d="M486 150h36v-160h-40c-25 -1 -52 6 -79 21s-48 33 -63 56c-28 -15 -64 -32 -107 -50s-74 -27 -92 -27c-53 0 -96 45 -96 98v350c0 37 13 68 39 94s57 39 94 39h162c37 0 68 -13 94 -39s39 -57 39 -94v-274c0 -9 4 -14 13 -14zM205 416v-238c0 -11 4 -17 12 -17
c11 0 43 13 96 39v216c0 10 -5 15 -15 15h-78c-10 0 -15 -5 -15 -15z" />
    <glyph glyph-name="aacute.ss01" horiz-adv-x="531" 
d="M290 792h153l-121 -161h-135zM522 150v-160h-40c-25 -1 -52 6 -79 21s-48 33 -63 56c-28 -15 -64 -32 -107 -50s-74 -27 -92 -27c-53 0 -96 45 -96 98v350c0 37 13 68 39 94s57 39 94 39h162c37 0 68 -13 94 -39s39 -57 39 -94v-274c0 -9 4 -14 13 -14h36zM205 416v-238
c0 -11 4 -17 12 -17c11 0 43 13 96 39v216c0 10 -5 15 -15 15h-78c-10 0 -15 -5 -15 -15z" />
    <glyph glyph-name="abreve.ss01" horiz-adv-x="531" 
d="M277 762h97c0 -97 -36 -131 -116 -131s-116 34 -116 131h99c0 -28 6 -42 18 -42s18 14 18 42zM522 150v-160h-40c-25 -1 -52 6 -79 21s-48 33 -63 56c-28 -15 -64 -32 -107 -50s-74 -27 -92 -27c-53 0 -96 45 -96 98v350c0 37 13 68 39 94s57 39 94 39h162
c37 0 68 -13 94 -39s39 -57 39 -94v-274c0 -9 4 -14 13 -14h36zM205 416v-238c0 -11 4 -17 12 -17c11 0 43 13 96 39v216c0 10 -5 15 -15 15h-78c-10 0 -15 -5 -15 -15z" />
    <glyph glyph-name="acircumflex.ss01" horiz-adv-x="531" 
d="M191 770h124l111 -136h-131l-37 64h-11l-37 -64h-131zM522 150v-160h-40c-25 -1 -52 6 -79 21s-48 33 -63 56c-28 -15 -64 -32 -107 -50s-74 -27 -92 -27c-53 0 -96 45 -96 98v350c0 37 13 68 39 94s57 39 94 39h162c37 0 68 -13 94 -39s39 -57 39 -94v-274
c0 -9 4 -14 13 -14h36zM205 416v-238c0 -11 4 -17 12 -17c11 0 43 13 96 39v216c0 10 -5 15 -15 15h-78c-10 0 -15 -5 -15 -15z" />
    <glyph glyph-name="adieresis.ss01" horiz-adv-x="531" 
d="M75 695c0 44 35 81 78 81s79 -38 79 -81c0 -41 -36 -76 -79 -76s-78 35 -78 76zM364 619c-43 0 -78 35 -78 76c0 44 35 81 78 81c41 0 76 -38 76 -81c0 -41 -35 -76 -76 -76zM522 150v-160h-40c-25 -1 -52 6 -79 21s-48 33 -63 56c-28 -15 -64 -32 -107 -50
s-74 -27 -92 -27c-53 0 -96 45 -96 98v350c0 37 13 68 39 94s57 39 94 39h162c37 0 68 -13 94 -39s39 -57 39 -94v-274c0 -9 4 -14 13 -14h36zM205 416v-238c0 -11 4 -17 12 -17c11 0 43 13 96 39v216c0 10 -5 15 -15 15h-78c-10 0 -15 -5 -15 -15z" />
    <glyph glyph-name="agrave.ss01" horiz-adv-x="531" 
d="M75 792h155l101 -161h-133zM522 150v-160h-40c-25 -1 -52 6 -79 21s-48 33 -63 56c-28 -15 -64 -32 -107 -50s-74 -27 -92 -27c-53 0 -96 45 -96 98v350c0 37 13 68 39 94s57 39 94 39h162c37 0 68 -13 94 -39s39 -57 39 -94v-274c0 -9 4 -14 13 -14h36zM205 416v-238
c0 -11 4 -17 12 -17c11 0 43 13 96 39v216c0 10 -5 15 -15 15h-78c-10 0 -15 -5 -15 -15z" />
    <glyph glyph-name="amacron.ss01" horiz-adv-x="531" 
d="M128 748h260v-121h-260v121zM522 150v-160h-40c-25 -1 -52 6 -79 21s-48 33 -63 56c-28 -15 -64 -32 -107 -50s-74 -27 -92 -27c-53 0 -96 45 -96 98v350c0 37 13 68 39 94s57 39 94 39h162c37 0 68 -13 94 -39s39 -57 39 -94v-274c0 -9 4 -14 13 -14h36zM205 416v-238
c0 -11 4 -17 12 -17c11 0 43 13 96 39v216c0 10 -5 15 -15 15h-78c-10 0 -15 -5 -15 -15z" />
    <glyph glyph-name="aogonek.ss01" horiz-adv-x="531" 
d="M535 -34l48 -79c-37 -29 -76 -43 -118 -43c-69 0 -111 39 -111 88c0 35 13 63 40 84c-23 13 -41 30 -54 51c-28 -15 -64 -32 -107 -50s-74 -27 -92 -27c-53 0 -96 45 -96 98v350c0 37 13 68 39 94s57 39 94 39h162c37 0 68 -13 94 -39s39 -57 39 -94v-274
c0 -9 4 -14 13 -14h36v-160h-1c-29 -3 -44 -13 -44 -31c0 -11 4 -16 12 -16c11 0 27 8 46 23zM313 200v216c0 10 -5 15 -15 15h-78c-10 0 -15 -5 -15 -15v-238c0 -11 4 -17 12 -17c11 0 43 13 96 39z" />
    <glyph glyph-name="aring.ss01" horiz-adv-x="531" 
d="M259 596c-72 0 -123 42 -123 111c0 71 51 113 123 113c69 0 120 -42 120 -113c0 -69 -52 -111 -120 -111zM223 707c0 -31 12 -46 36 -46s36 15 36 46s-12 46 -36 46s-36 -15 -36 -46zM522 150v-160h-40c-25 -1 -52 6 -79 21s-48 33 -63 56c-28 -15 -64 -32 -107 -50
s-74 -27 -92 -27c-53 0 -96 45 -96 98v350c0 37 13 68 39 94s57 39 94 39h162c37 0 68 -13 94 -39s39 -57 39 -94v-274c0 -9 4 -14 13 -14h36zM205 416v-238c0 -11 4 -17 12 -17c11 0 43 13 96 39v216c0 10 -5 15 -15 15h-78c-10 0 -15 -5 -15 -15z" />
    <glyph glyph-name="aringacute.ss01" horiz-adv-x="531" 
d="M312 1015h153l-121 -161h-135zM274 599c-72 0 -123 42 -123 111c0 71 51 113 123 113c69 0 120 -42 120 -113c0 -69 -52 -111 -120 -111zM238 710c0 -31 12 -46 36 -46s36 15 36 46s-12 46 -36 46s-36 -15 -36 -46zM522 150v-160h-40c-25 -1 -52 6 -79 21s-48 33 -63 56
c-28 -15 -64 -32 -107 -50s-74 -27 -92 -27c-53 0 -96 45 -96 98v350c0 37 13 68 39 94s57 39 94 39h162c37 0 68 -13 94 -39s39 -57 39 -94v-274c0 -9 4 -14 13 -14h36zM205 416v-238c0 -11 4 -17 12 -17c11 0 43 13 96 39v216c0 10 -5 15 -15 15h-78c-10 0 -15 -5 -15 -15
z" />
    <glyph glyph-name="atilde.ss01" horiz-adv-x="531" 
d="M118 615v132c21 21 45 31 72 31c17 0 40 -4 69 -13c30 -8 53 -12 68 -12c28 0 52 6 71 18v-132c-22 -15 -46 -22 -71 -22c-17 0 -40 4 -70 12c-29 9 -52 13 -67 13c-27 0 -51 -9 -72 -27zM522 150v-160h-40c-25 -1 -52 6 -79 21s-48 33 -63 56c-28 -15 -64 -32 -107 -50
s-74 -27 -92 -27c-53 0 -96 45 -96 98v350c0 37 13 68 39 94s57 39 94 39h162c37 0 68 -13 94 -39s39 -57 39 -94v-274c0 -9 4 -14 13 -14h36zM205 416v-238c0 -11 4 -17 12 -17c11 0 43 13 96 39v216c0 10 -5 15 -15 15h-78c-10 0 -15 -5 -15 -15z" />
    <glyph glyph-name="g.ss01" horiz-adv-x="531" 
d="M501 570v-82h-39c13 -19 19 -39 19 -60v-122c0 -37 -13 -68 -39 -94s-57 -39 -94 -39h-67c-28 0 -28 -24 0 -24h67c80 0 133 -45 133 -112v-84c0 -67 -53 -111 -133 -111h-163c-81 0 -133 44 -133 111v84c0 45 21 78 62 98c-5 7 -8 16 -8 25c0 11 4 22 12 31
c-40 23 -66 67 -66 115v131c0 37 13 68 39 94s57 39 94 39h316zM321 327v89c0 10 -5 15 -15 15h-79c-10 0 -15 -5 -15 -15v-89c0 -10 5 -15 15 -15h79c10 0 15 5 15 15zM306 35h-79c-10 0 -15 -5 -15 -15v-49c0 -10 5 -15 15 -15h79c10 0 15 5 15 15v49c0 10 -5 15 -15 15z
" />
    <glyph glyph-name="gbreve.ss01" horiz-adv-x="531" 
d="M293 765h97c0 -97 -36 -131 -116 -131s-116 34 -116 131h99c0 -28 6 -42 18 -42s18 14 18 42zM501 488h-39c13 -19 19 -39 19 -60v-122c0 -37 -13 -68 -39 -94s-57 -39 -94 -39h-67c-28 0 -28 -24 0 -24h67c80 0 133 -45 133 -112v-84c0 -67 -53 -111 -133 -111h-163
c-81 0 -133 44 -133 111v84c0 45 21 78 62 98c-5 7 -8 16 -8 25c0 11 4 22 12 31c-40 23 -66 67 -66 115v131c0 37 13 68 39 94s57 39 94 39h316v-82zM321 327v89c0 10 -5 15 -15 15h-79c-10 0 -15 -5 -15 -15v-89c0 -10 5 -15 15 -15h79c10 0 15 5 15 15zM306 35h-79
c-10 0 -15 -5 -15 -15v-49c0 -10 5 -15 15 -15h79c10 0 15 5 15 15v49c0 10 -5 15 -15 15z" />
    <glyph glyph-name="gcircumflex.ss01" horiz-adv-x="531" 
d="M208 773h124l111 -136h-131l-37 64h-11l-37 -64h-131zM501 488h-39c13 -19 19 -39 19 -60v-122c0 -37 -13 -68 -39 -94s-57 -39 -94 -39h-67c-28 0 -28 -24 0 -24h67c80 0 133 -45 133 -112v-84c0 -67 -53 -111 -133 -111h-163c-81 0 -133 44 -133 111v84
c0 45 21 78 62 98c-5 7 -8 16 -8 25c0 11 4 22 12 31c-40 23 -66 67 -66 115v131c0 37 13 68 39 94s57 39 94 39h316v-82zM321 327v89c0 10 -5 15 -15 15h-79c-10 0 -15 -5 -15 -15v-89c0 -10 5 -15 15 -15h79c10 0 15 5 15 15zM306 35h-79c-10 0 -15 -5 -15 -15v-49
c0 -10 5 -15 15 -15h79c10 0 15 5 15 15v49c0 10 -5 15 -15 15z" />
    <glyph glyph-name="gcommaaccent.ss01" horiz-adv-x="531" 
d="M354 785l-22 -169h-123v169h145zM501 488h-39c13 -19 19 -39 19 -60v-122c0 -37 -13 -68 -39 -94s-57 -39 -94 -39h-67c-28 0 -28 -24 0 -24h67c80 0 133 -45 133 -112v-84c0 -67 -53 -111 -133 -111h-163c-81 0 -133 44 -133 111v84c0 45 21 78 62 98c-5 7 -8 16 -8 25
c0 11 4 22 12 31c-40 23 -66 67 -66 115v131c0 37 13 68 39 94s57 39 94 39h316v-82zM321 327v89c0 10 -5 15 -15 15h-79c-10 0 -15 -5 -15 -15v-89c0 -10 5 -15 15 -15h79c10 0 15 5 15 15zM306 35h-79c-10 0 -15 -5 -15 -15v-49c0 -10 5 -15 15 -15h79c10 0 15 5 15 15v49
c0 10 -5 15 -15 15z" />
    <glyph glyph-name="gdotaccent.ss01" horiz-adv-x="531" 
d="M273 611c-45 0 -82 37 -82 82c0 47 37 85 82 85s84 -38 84 -85c0 -45 -37 -82 -84 -82zM501 488h-39c13 -19 19 -39 19 -60v-122c0 -37 -13 -68 -39 -94s-57 -39 -94 -39h-67c-28 0 -28 -24 0 -24h67c80 0 133 -45 133 -112v-84c0 -67 -53 -111 -133 -111h-163
c-81 0 -133 44 -133 111v84c0 45 21 78 62 98c-5 7 -8 16 -8 25c0 11 4 22 12 31c-40 23 -66 67 -66 115v131c0 37 13 68 39 94s57 39 94 39h316v-82zM321 327v89c0 10 -5 15 -15 15h-79c-10 0 -15 -5 -15 -15v-89c0 -10 5 -15 15 -15h79c10 0 15 5 15 15zM306 35h-79
c-10 0 -15 -5 -15 -15v-49c0 -10 5 -15 15 -15h79c10 0 15 5 15 15v49c0 10 -5 15 -15 15z" />
    <glyph glyph-name="y.ss01" horiz-adv-x="534" 
d="M482 560v-583c0 -37 -13 -68 -39 -94s-57 -39 -94 -39h-297v156h255c10 0 15 5 15 15v87c-89 -39 -146 -59 -173 -59c-53 0 -96 45 -96 98v419h160v-333c0 -12 4 -18 13 -18c11 0 43 11 96 33v318h160z" />
    <glyph glyph-name="yacute.ss01" horiz-adv-x="534" 
d="M482 560v-583c0 -37 -13 -68 -39 -94s-57 -39 -94 -39h-297v156h255c10 0 15 5 15 15v87c-89 -39 -146 -59 -173 -59c-53 0 -96 45 -96 98v419h160v-333c0 -12 4 -18 13 -18c11 0 43 11 96 33v318h160zM301 795h153l-121 -161h-135z" />
    <glyph glyph-name="ycircumflex.ss01" horiz-adv-x="534" 
d="M482 560v-583c0 -37 -13 -68 -39 -94s-57 -39 -94 -39h-297v156h255c10 0 15 5 15 15v87c-89 -39 -146 -59 -173 -59c-53 0 -96 45 -96 98v419h160v-333c0 -12 4 -18 13 -18c11 0 43 11 96 33v318h160zM203 773h124l111 -136h-131l-37 64h-11l-37 -64h-131z" />
    <glyph glyph-name="ydieresis.ss01" horiz-adv-x="534" 
d="M482 560v-583c0 -37 -13 -68 -39 -94s-57 -39 -94 -39h-297v156h255c10 0 15 5 15 15v87c-89 -39 -146 -59 -173 -59c-53 0 -96 45 -96 98v419h160v-333c0 -12 4 -18 13 -18c11 0 43 11 96 33v318h160zM86 698c0 44 35 81 78 81s79 -38 79 -81c0 -41 -36 -76 -79 -76
s-78 35 -78 76zM375 622c-43 0 -78 35 -78 76c0 44 35 81 78 81c41 0 76 -38 76 -81c0 -41 -35 -76 -76 -76z" />
    <glyph glyph-name="ygrave.ss01" horiz-adv-x="534" 
d="M482 560v-583c0 -37 -13 -68 -39 -94s-57 -39 -94 -39h-297v156h255c10 0 15 5 15 15v87c-89 -39 -146 -59 -173 -59c-53 0 -96 45 -96 98v419h160v-333c0 -12 4 -18 13 -18c11 0 43 11 96 33v318h160zM86 795h155l101 -161h-133z" />
    <glyph glyph-name="ytilde.ss01" horiz-adv-x="534" 
d="M482 560v-583c0 -37 -13 -68 -39 -94s-57 -39 -94 -39h-297v156h255c10 0 15 5 15 15v87c-89 -39 -146 -59 -173 -59c-53 0 -96 45 -96 98v419h160v-333c0 -12 4 -18 13 -18c11 0 43 11 96 33v318h160zM129 618v132c21 21 45 31 72 31c17 0 40 -4 69 -13
c30 -8 53 -12 68 -12c28 0 52 6 71 18v-132c-22 -15 -46 -22 -71 -22c-17 0 -40 4 -70 12c-29 9 -52 13 -67 13c-27 0 -51 -9 -72 -27z" />
    <glyph glyph-name="c_h" horiz-adv-x="1001" 
d="M685 765v-245c82 33 139 50 172 50c53 0 96 -44 96 -97v-473h-160v386c0 11 -4 17 -12 17c-21 0 -53 -9 -96 -26v-254c0 -37 -13 -68 -39 -94s-57 -39 -94 -39h-374c-37 0 -68 13 -94 39s-39 57 -39 94v314c0 37 13 68 38 94c26 26 58 39 95 39h162c37 0 69 -13 94 -39
c26 -26 39 -57 39 -94v-75h-160v54c0 10 -5 15 -15 15h-78c-10 0 -15 -5 -15 -15v-271c0 -10 5 -15 15 -15h290c10 0 15 5 15 15v620h160z" />
    <glyph glyph-name="zero.lf" horiz-adv-x="525" 
d="M192 775h141c40 0 74 -14 102 -42s42 -62 42 -102v-497c0 -40 -14 -74 -42 -102s-62 -42 -102 -42h-141c-40 0 -74 14 -102 42s-42 62 -42 102v497c0 40 14 74 42 102s62 42 102 42zM301 626h-79c-9 0 -14 -5 -14 -14v-459c0 -9 5 -14 14 -14h79c11 0 16 5 16 14v459
c0 9 -5 14 -16 14z" />
    <glyph glyph-name="one.lf" horiz-adv-x="335" 
d="M276 765v-765h-160v605h-77v160h237z" />
    <glyph glyph-name="two.lf" horiz-adv-x="524" 
d="M184 776h156c40 0 74 -16 102 -47s42 -69 42 -114v-24c0 -31 -4 -60 -11 -87c-13 -53 -31 -84 -64 -120c-17 -18 -31 -32 -44 -42c-12 -9 -28 -22 -49 -37l-44 -33c-40 -28 -67 -79 -67 -112h279v-160h-444v85c0 143 35 240 104 292c11 9 32 23 62 42c30 20 51 35 63 45
c24 20 55 63 55 110v35c0 12 -5 18 -15 18h-93c-11 0 -16 -10 -16 -30h-160c0 50 14 92 42 127s62 52 102 52z" />
    <glyph glyph-name="three.lf" horiz-adv-x="516" 
d="M463 631v-130c0 -41 -16 -67 -49 -79c36 -13 54 -42 54 -89v-199c0 -40 -14 -74 -42 -102s-62 -42 -102 -42h-140c-40 0 -74 14 -102 42s-42 62 -42 102v147h160v-122c0 -13 5 -20 16 -20h77c10 0 15 7 15 20v155c0 13 -5 20 -15 20h-76v148h72c9 0 14 7 14 20v110
c0 9 -5 14 -14 14h-75c-9 0 -14 -5 -14 -14v-52h-160v71c0 40 14 74 42 102s62 42 102 42h135c40 0 74 -14 102 -42s42 -62 42 -102z" />
    <glyph glyph-name="four.lf" horiz-adv-x="596" 
d="M490 765v-506h52v-160h-52v-99h-160v99h-321l203 666h278zM330 605h-13l-90 -346h103v346z" />
    <glyph glyph-name="five.lf" horiz-adv-x="523" 
d="M483 764v-159h-247v-111h103c40 0 74 -14 102 -42s42 -62 42 -102v-216c0 -40 -14 -74 -42 -102s-62 -42 -102 -42h-141c-40 0 -74 14 -102 42s-42 62 -42 102v148h160v-129c0 -9 5 -14 14 -14h79c11 0 16 5 16 14v167c0 9 -5 14 -16 14h-231v430h407z" />
    <glyph glyph-name="six.lf" horiz-adv-x="516" 
d="M477 567h-160v45c0 9 -5 14 -16 14h-79c-9 0 -14 -5 -14 -14v-178h125c40 0 74 -14 102 -42s42 -62 42 -102v-156c0 -40 -14 -74 -42 -102s-62 -42 -102 -42h-141c-40 0 -74 14 -102 42s-42 62 -42 102v497c0 40 14 74 42 102s62 42 102 42h141c40 0 74 -14 102 -42
s42 -62 42 -102v-64zM301 285h-79c-9 0 -14 -5 -14 -14v-118c0 -9 5 -14 14 -14h79c11 0 16 5 16 14v118c0 9 -5 14 -16 14z" />
    <glyph glyph-name="seven.lf" horiz-adv-x="451" 
d="M442 770l-244 -770h-159l195 610h-222v160h430z" />
    <glyph glyph-name="eight.lf" horiz-adv-x="525" 
d="M472 631v-114c0 -44 -20 -77 -60 -98c43 -21 65 -55 65 -101v-184c0 -40 -14 -74 -42 -102s-62 -42 -102 -42h-141c-40 0 -74 14 -102 42s-42 62 -42 102v184c0 47 22 80 66 101c-41 19 -62 52 -62 98v114c0 40 14 74 42 102s62 42 102 42h132c40 0 74 -14 102 -42
s42 -62 42 -102zM212 612v-100c0 -9 5 -14 15 -14h70c10 0 15 5 15 14v100c0 9 -5 14 -15 14h-70c-10 0 -15 -5 -15 -14zM317 153v163c0 9 -5 14 -16 14h-79c-9 0 -14 -5 -14 -14v-163c0 -9 5 -14 14 -14h79c11 0 16 5 16 14z" />
    <glyph glyph-name="nine.lf" horiz-adv-x="516" 
d="M184 780h140c40 0 74 -14 102 -42s42 -62 42 -102v-502c0 -40 -14 -74 -42 -102s-62 -42 -102 -42h-140c-40 0 -74 14 -102 42s-42 62 -42 102v65h160v-46c0 -9 5 -14 15 -14h79c9 0 14 5 14 14v183h-124c-40 0 -74 14 -102 42s-42 62 -42 102v156c0 40 14 74 42 102
s62 42 102 42zM215 485h79c9 0 14 5 14 14v118c0 9 -5 14 -14 14h-79c-10 0 -15 -5 -15 -14v-118c0 -9 5 -14 15 -14z" />
    <glyph glyph-name="commaaccentinvert" horiz-adv-x="490" 
d="M196 800h123v-169h-145z" />
    </font>
</defs>
</svg>
