<?xml version="1.0" standalone="no"?>
<!DOCTYPE svg PUBLIC "-//W3C//DTD SVG 1.1//EN" "http://www.w3.org/Graphics/SVG/1.1/DTD/svg11.dtd" >
<svg xmlns="http://www.w3.org/2000/svg" xmlns:xlink="http://www.w3.org/1999/xlink" version="1.1">
<metadata>
Created by FontForge 20170910 at Sun Dec 22 14:43:20 2013
 By jimmywarting
Copyright 2004-2013 SUDTIPOS. Disenada por Alejandro Paul y Alfredo Graziani. Todos los derechos reservados.
</metadata>
<defs>
<font id="Politica-ExtraBold" horiz-adv-x="522" >
  <font-face 
    font-family="Politica"
    font-weight="800"
    font-stretch="normal"
    units-per-em="1000"
    panose-1="0 0 9 0 0 0 0 0 0 0"
    ascent="831"
    descent="-169"
    x-height="559"
    cap-height="800"
    bbox="-175 -276 1236 1138"
    underline-thickness="50"
    underline-position="-100"
    unicode-range="U+0020-FB02"
  />
<missing-glyph horiz-adv-x="182" 
d="M102 481c0 -15 -22 -15 -22 0s22 15 22 0zM91 0c-15 0 -15 22 0 22s15 -22 0 -22z" />
    <glyph glyph-name="fi" unicode="fi" horiz-adv-x="647" 
d="M529 120h54v-130h-57c-43 0 -79 15 -109 44c-29 30 -44 66 -44 108v290h-176v-434c0 -42 -15 -78 -45 -107c-30 -30 -67 -45 -110 -45v130c15 0 23 7 23 22v434h-55v128h55v54c0 41 15 77 44 106c30 30 66 45 109 45h84v-130h-81c-16 0 -24 -7 -24 -21v-54h308v-418
c0 -15 8 -22 24 -22zM503 765v-106h-130v106h130z" />
    <glyph glyph-name="fl" unicode="fl" horiz-adv-x="628" 
d="M552 120h54v-130h-57c-43 0 -79 15 -109 44c-29 30 -44 66 -44 108v493h-175c-16 0 -24 -7 -24 -21v-54h84v-128h-84v-434c0 -42 -15 -78 -45 -107c-30 -30 -67 -45 -110 -45v130c15 0 23 7 23 22v434h-55v128h55v54c0 41 15 77 44 106c30 30 66 45 109 45h302v-1h6v-204
h2v-418c0 -15 8 -22 24 -22z" />
    <glyph glyph-name=".notdef" horiz-adv-x="182" 
d="M102 481c0 -15 -22 -15 -22 0s22 15 22 0zM91 0c-15 0 -15 22 0 22s15 -22 0 -22z" />
    <glyph glyph-name="NULL" horiz-adv-x="0" 
 />
    <glyph glyph-name="CR" horiz-adv-x="333" 
 />
    <glyph glyph-name="space" unicode=" " horiz-adv-x="219" 
 />
    <glyph glyph-name="exclam" unicode="!" horiz-adv-x="273" 
d="M71 796h130v-590h-130v590zM71 106h130v-106h-130v106z" />
    <glyph glyph-name="quotedbl" unicode="&#x22;" horiz-adv-x="403" 
d="M56 764h130v-258h-130v258zM216 764h130v-258h-130v258z" />
    <glyph glyph-name="numbersign" unicode="#" horiz-adv-x="734" 
d="M663 417h-129l-16 -53h110v-129h-149l-41 -135h-127l41 135h-101l-41 -135h-127l41 135h-53v129h93l16 53h-74v129h114l38 124h125l-38 -124h102l38 124h125l-37 -124h90v-129zM392 364l16 53h-102l-16 -53h102z" />
    <glyph glyph-name="dollar" unicode="$" horiz-adv-x="525" 
d="M465 518h-130v20c0 9 -3 13 -9 13h-126c-7 0 -10 -4 -10 -13v-8c0 -16 12 -31 44 -47l38 -18c9 -3 25 -9 46 -18c98 -37 147 -96 147 -177v-36c0 -37 -13 -68 -39 -94s-57 -39 -94 -39h-3v-101h-111v101h-25c-37 0 -68 13 -94 39s-39 57 -39 94v89h130v-79
c0 -9 3 -13 9 -13h127c6 0 9 4 9 13v18c0 22 -12 38 -30 49c-9 8 -31 18 -42 22c-11 5 -39 15 -48 19c-103 38 -155 95 -155 171v25c0 37 13 69 39 94c26 26 57 39 94 39h25v84h111v-84h3c37 0 69 -13 94 -39c26 -25 39 -57 39 -94v-30z" />
    <glyph glyph-name="percent" unicode="%" horiz-adv-x="899" 
d="M563 798h90l-309 -798h-90zM296 363h-127c-31 0 -58 13 -80 39s-33 57 -33 94v149c0 37 11 69 33 94c22 26 49 39 80 39h127c31 0 58 -13 80 -39c22 -25 33 -57 33 -94v-149c0 -37 -11 -68 -33 -94s-49 -39 -80 -39zM189 480h87c7 0 11 5 11 16v149c0 11 -4 17 -11 17
h-87c-7 0 -10 -6 -10 -17v-149c0 -11 3 -16 10 -16zM491 125v149c0 37 11 69 33 94c22 26 49 39 80 39h126c31 0 58 -13 80 -39c22 -25 33 -57 33 -94v-149c0 -37 -11 -68 -33 -95c-22 -26 -49 -39 -80 -39h-126c-31 0 -58 13 -80 39c-22 27 -33 58 -33 95zM613 274v-149
c0 -11 4 -17 11 -17h86c7 0 10 6 10 17v149c0 11 -3 16 -10 16h-86c-7 0 -11 -5 -11 -16z" />
    <glyph glyph-name="ampersand" unicode="&#x26;" horiz-adv-x="623" 
d="M198 767h146c81 0 129 -42 129 -121v-69h-130v56c0 7 -3 10 -10 10h-129c-7 0 -11 -3 -11 -10v-130c0 -33 34 -53 61 -53h48v-130h-49c-32 0 -67 -23 -67 -55v-136c0 -7 3 -10 10 -10h137c7 0 10 3 10 10v355h130v-36h127v-130h-127v-203c0 -79 -48 -120 -129 -120h-147
c-84 0 -141 43 -141 120v150c0 51 36 103 84 120c-45 20 -77 67 -77 118v143c0 79 52 121 135 121z" />
    <glyph glyph-name="quotesingle" unicode="'" horiz-adv-x="243" 
d="M56 764h130v-258h-130v258z" />
    <glyph glyph-name="parenleft" unicode="(" horiz-adv-x="350" 
d="M342 -82h-142c-105 133 -158 287 -158 462c0 177 53 331 158 462h142c-116 -143 -174 -297 -174 -462c0 -163 58 -317 174 -462z" />
    <glyph glyph-name="parenright" unicode=")" horiz-adv-x="350" 
d="M150 -82h-142c116 145 174 299 174 462c0 165 -58 319 -174 462h142c105 -131 158 -285 158 -462c0 -175 -53 -329 -158 -462z" />
    <glyph glyph-name="asterisk" unicode="*" horiz-adv-x="436" 
d="M66 496l85 89l-95 26v104l109 -30v91h100v-91l114 30v-104l-100 -26l89 -93l-70 -71l-83 91l-74 -83z" />
    <glyph glyph-name="plus" unicode="+" horiz-adv-x="525" 
d="M191 281h-103v143h103v91h144v-91h103v-143h-103v-116h-144v116z" />
    <glyph glyph-name="comma" unicode="," horiz-adv-x="273" 
d="M201 155v-311h-130v311h130z" />
    <glyph glyph-name="hyphen" unicode="-" horiz-adv-x="409" 
d="M51 416h307v-129h-307v129z" />
    <glyph glyph-name="period" unicode="." horiz-adv-x="251" 
d="M56 68c-3 60 76 95 117 49c46 -41 11 -120 -49 -117c-37 0 -68 31 -68 68z" />
    <glyph glyph-name="slash" unicode="/" horiz-adv-x="476" 
d="M354 860h115l-347 -920h-114z" />
    <glyph glyph-name="zero" unicode="0" horiz-adv-x="525" 
d="M204 775h117c40 0 74 -14 102 -42s42 -62 42 -102v-497c0 -40 -14 -74 -42 -102s-62 -42 -102 -42h-117c-40 0 -74 14 -102 42s-42 62 -42 102v497c0 40 14 74 42 102s62 42 102 42zM321 645h-117c-11 0 -14 -3 -14 -14v-497c0 -11 3 -14 14 -14h117c11 0 14 3 14 14v497
c0 11 -3 14 -14 14z" />
    <glyph glyph-name="one" unicode="1" horiz-adv-x="525" 
d="M358 130h136v-130h-430v130h164v505h-164v130h294v-635z" />
    <glyph glyph-name="two" unicode="2" horiz-adv-x="525" 
d="M196 776h133c40 0 74 -15 102 -45s42 -66 42 -109v-31c0 -28 -4 -55 -11 -81c-15 -51 -29 -79 -66 -118c-18 -19 -32 -34 -43 -43c-10 -9 -26 -21 -49 -38l-43 -33c-51 -41 -76 -90 -76 -148h288v-130h-421v70c0 143 31 232 107 293c13 11 31 23 52 37l51 35
c44 33 81 77 81 156v31c0 19 -5 24 -24 24h-113c-19 0 -24 -7 -24 -34h-130c0 46 14 85 42 116c28 32 62 48 102 48z" />
    <glyph glyph-name="three" unicode="3" horiz-adv-x="525" 
d="M461 651v-113c0 -65 -16 -104 -48 -118c37 -13 55 -53 55 -120v-175c0 -88 -50 -135 -133 -135h-132c-83 0 -136 47 -136 135v157h130v-146c0 -11 4 -16 11 -16h121c6 0 9 5 9 16v164c0 29 -11 40 -39 40h-68v130h68c23 0 32 19 32 68v98c0 8 -3 12 -10 12h-122
c-8 0 -12 -4 -12 -12v-19h-130v19c0 89 56 142 137 142h134c81 0 133 -48 133 -127z" />
    <glyph glyph-name="four" unicode="4" horiz-adv-x="525" 
d="M445 765v-521h52v-130h-52v-114h-130v114h-307l202 651h235zM315 635h-18l-105 -391h123v391z" />
    <glyph glyph-name="five" unicode="5" horiz-adv-x="525" 
d="M465 764v-129h-253v-154h99c115 0 153 -53 153 -166v-178c0 -97 -58 -147 -153 -147h-94c-96 0 -157 50 -157 147v145h130v-145c0 -11 9 -17 27 -17h93c16 0 24 6 24 17v178c0 24 -8 36 -23 36h-229v413h383z" />
    <glyph glyph-name="six" unicode="6" horiz-adv-x="525" 
d="M465 567h-130v64c0 10 -4 15 -13 15h-119c-9 0 -14 -5 -14 -15v-197h132c40 0 74 -14 101 -42c28 -28 42 -62 42 -101v-157c0 -39 -14 -73 -43 -101c-28 -28 -62 -42 -101 -42h-118c-40 0 -74 14 -102 42c-27 28 -41 62 -41 101v499c0 37 13 70 40 99s59 44 94 44h139
c35 0 66 -15 93 -44s40 -63 40 -101v-64zM321 304h-119c-9 0 -13 -5 -13 -14v-156c0 -9 4 -13 13 -13h119c9 0 13 4 13 13v157c0 9 -4 13 -13 13z" />
    <glyph glyph-name="seven" unicode="7" horiz-adv-x="525" 
d="M476 770l-239 -770h-130l200 640h-238v130h407z" />
    <glyph glyph-name="eight" unicode="8" horiz-adv-x="525" 
d="M459 632v-96c0 -61 -21 -100 -63 -118c47 -17 70 -57 70 -120v-160c0 -40 -14 -75 -43 -104s-63 -43 -104 -43h-113c-41 0 -75 14 -104 43s-43 64 -43 104v160c0 63 23 103 70 120c-42 18 -63 57 -63 118v96c0 39 14 73 41 101s60 42 99 42h113c39 0 72 -14 99 -42
s41 -62 41 -101zM196 632v-96c0 -20 5 -35 16 -45h102c10 10 15 25 15 45v96c0 9 -4 13 -11 13h-111c-7 0 -11 -4 -11 -13zM336 138v160c0 22 -7 38 -22 48h-102c-15 -9 -23 -25 -23 -48v-160c0 -11 6 -17 17 -17h113c11 0 17 6 17 17z" />
    <glyph glyph-name="nine" unicode="9" horiz-adv-x="525" 
d="M188 202v-64c0 -10 4 -15 13 -15h119c9 0 14 5 14 15v197h-132c-40 0 -74 14 -102 42c-27 28 -41 62 -41 101v157c0 39 14 73 42 101c29 28 63 42 102 42h118c40 0 74 -14 101 -42c28 -28 42 -62 42 -101v-499c0 -37 -14 -70 -41 -99s-58 -44 -93 -44h-139
c-35 0 -66 15 -93 44s-40 63 -40 101v64h130zM202 465h119c9 0 13 5 13 14v156c0 9 -4 13 -13 13h-119c-9 0 -13 -4 -13 -13v-157c0 -9 4 -13 13 -13z" />
    <glyph glyph-name="colon" unicode=":" horiz-adv-x="251" 
d="M124 365c-37 0 -68 31 -68 68c0 39 31 70 68 70s70 -31 70 -70c0 -37 -31 -68 -70 -68zM56 68c-3 60 76 95 117 49c46 -41 11 -120 -49 -117c-37 0 -68 31 -68 68z" />
    <glyph glyph-name="semicolon" unicode=";" horiz-adv-x="251" 
d="M124 387c-37 0 -68 31 -68 68s31 69 68 69s70 -32 70 -69s-31 -68 -70 -68zM187 -156h-130v311h130v-311z" />
    <glyph glyph-name="less" unicode="&#x3c;" horiz-adv-x="525" 
d="M97 413l217 250l106 -45l-182 -205l190 -212l-105 -46z" />
    <glyph glyph-name="equal" unicode="=" horiz-adv-x="525" 
d="M88 516h350v-130h-350v130zM88 316h350v-131h-350v131z" />
    <glyph glyph-name="greater" unicode="&#x3e;" horiz-adv-x="525" 
d="M287 413l-182 205l106 45l217 -250l-226 -258l-105 46z" />
    <glyph glyph-name="question" unicode="?" horiz-adv-x="499" 
d="M171 806h158c37 0 68 -13 94 -39s39 -57 39 -94v-128c0 -104 -62 -154 -137 -154h-29c-9 0 -14 -7 -14 -20v-176h-130v176c0 97 61 150 129 151h35c11 0 16 7 16 21v126c0 10 -4 15 -11 15h-143c-7 0 -10 -5 -10 -15v-100h-130v104c0 37 13 68 39 94s57 39 94 39z
M282 106v-106h-130v106h130z" />
    <glyph glyph-name="at" unicode="@" horiz-adv-x="818" 
d="M331 634h148c83 0 150 -26 203 -79c53 -52 80 -119 80 -201v-138c0 -33 -12 -61 -35 -84s-51 -34 -84 -34h-166v49c-78 -41 -135 -61 -170 -61c-53 0 -96 43 -96 96v169c0 75 50 133 122 133h141c37 0 68 -13 94 -39s39 -57 39 -94v-123h15c7 0 10 3 10 10v113
c0 45 -15 81 -44 110s-67 43 -113 43h-141c-88 0 -148 -62 -148 -155v-168c0 -67 51 -115 122 -115h167v-130h-189c-65 0 -120 21 -164 63s-66 94 -66 157v191c0 87 25 156 75 208c51 53 117 79 200 79zM467 361h-115c-7 0 -11 -3 -11 -10v-109c0 -14 7 -21 20 -21
c17 0 55 18 116 53v77c0 7 -3 10 -10 10z" />
    <glyph glyph-name="A" unicode="A" horiz-adv-x="568" 
d="M421 0l-26 174h-221l-26 -174h-130l125 766c3 17 23 34 43 34h197c20 0 40 -17 43 -34l125 -766h-130zM193 304h183l-53 355c-2 7 -5 11 -9 11h-60c-5 0 -7 -4 -8 -11z" />
    <glyph glyph-name="B" unicode="B" horiz-adv-x="560" 
d="M71 800h261c121 0 170 -46 170 -159v-105c0 -65 -26 -104 -77 -118c56 -16 84 -56 84 -120v-126c0 -123 -49 -172 -173 -172h-265v800zM201 483h134c25 0 36 15 36 51v106c0 21 -12 32 -37 32h-133v-189zM201 130h133c30 0 45 14 45 43v125c0 37 -13 55 -40 55h-138v-223
z" />
    <glyph glyph-name="C" unicode="C" horiz-adv-x="545" 
d="M56 134v528c0 40 14 74 42 102s62 42 102 42h150c40 0 74 -14 102 -42s42 -62 42 -102v-126h-130v124c0 11 -5 16 -15 16h-148c-10 0 -15 -5 -15 -16v-525c0 -10 5 -15 14 -15h153c7 0 11 5 11 15v157h130v-158c0 -40 -14 -74 -42 -102s-62 -42 -102 -42h-150
c-40 0 -74 14 -102 42s-42 62 -42 102z" />
    <glyph glyph-name="D" unicode="D" horiz-adv-x="565" 
d="M71 800h294c41 0 75 -13 102 -40c28 -26 42 -59 42 -98v-518c0 -40 -14 -74 -42 -102s-62 -42 -102 -42h-294v800zM201 130h164c11 0 14 3 14 14v513c0 9 -5 13 -14 13h-164v-540z" />
    <glyph glyph-name="E" unicode="E" horiz-adv-x="484" 
d="M71 800h378v-130h-248v-194h221v-130h-221v-216h248v-130h-378v800z" />
    <glyph glyph-name="F" unicode="F" horiz-adv-x="460" 
d="M71 800h379v-145h-249v-149h221v-130h-221v-376h-130v800z" />
    <glyph glyph-name="G" unicode="G" horiz-adv-x="539" 
d="M56 134v528c0 40 14 74 42 102s62 42 102 42h145c40 0 74 -14 102 -42s42 -62 42 -102v-126h-130v124c0 11 -5 16 -15 16h-143c-10 0 -15 -5 -15 -16v-522c0 -12 6 -18 17 -18h138c12 0 18 6 18 19v163h-109v130h239v-298c0 -40 -14 -74 -42 -102s-62 -42 -102 -42h-145
c-40 0 -74 14 -102 42s-42 62 -42 102z" />
    <glyph glyph-name="H" unicode="H" horiz-adv-x="577" 
d="M71 800h130v-294h175v294h130v-800h-130v378h-175v-378h-130v800z" />
    <glyph glyph-name="I" unicode="I" horiz-adv-x="282" 
d="M76 800h130v-800h-130v800z" />
    <glyph glyph-name="J" unicode="J" horiz-adv-x="510" 
d="M20 292h130v-158c0 -11 3 -14 14 -14h146c11 0 14 3 14 14v666h130v-666c0 -40 -14 -74 -42 -102s-62 -42 -102 -42h-146c-40 0 -74 14 -102 42s-42 62 -42 102v158z" />
    <glyph glyph-name="K" unicode="K" horiz-adv-x="595" 
d="M71 800h129v-294h89l158 294h137l-187 -354v-9l187 -437h-137l-158 377h-89v-377h-129v800z" />
    <glyph glyph-name="L" unicode="L" horiz-adv-x="454" 
d="M71 800h129v-670h247v-130h-376v800z" />
    <glyph glyph-name="M" unicode="M" horiz-adv-x="803" 
d="M93 800h245l63 -486l61 486h249l30 -800h-130l-28 670h-9l-113 -660h-119l-112 660h-10l-28 -670h-130z" />
    <glyph glyph-name="N" unicode="N" horiz-adv-x="629" 
d="M71 800h225l127 -670h5v670h130v-800h-223l-129 670h-5v-670h-130v800z" />
    <glyph glyph-name="O" unicode="O" horiz-adv-x="550" 
d="M56 134v528c0 40 14 74 42 102s62 42 102 42h150c40 0 74 -14 102 -42s42 -62 42 -102v-528c0 -40 -14 -74 -42 -102s-62 -42 -102 -42h-150c-40 0 -74 14 -102 42s-42 62 -42 102zM186 662v-528c0 -11 3 -14 14 -14h150c11 0 14 3 14 14v528c0 11 -3 14 -14 14h-150
c-11 0 -14 -3 -14 -14z" />
    <glyph glyph-name="P" unicode="P" horiz-adv-x="530" 
d="M71 800h290c41 0 75 -13 102 -40c28 -26 42 -59 42 -98v-186c0 -40 -14 -74 -42 -102s-62 -42 -102 -42h-160v-332h-130v800zM201 462h160c11 0 14 3 14 14v184c0 7 -4 10 -11 10h-163v-208z" />
    <glyph glyph-name="Q" unicode="Q" horiz-adv-x="550" 
d="M200 806h150c40 0 74 -14 102 -42s42 -62 42 -102v-528c0 -40 -14 -74 -42 -102s-62 -42 -102 -42h-9v-143h-130v143h-11c-40 0 -74 14 -102 42s-42 62 -42 102v528c0 40 14 74 42 102s62 42 102 42zM364 134v528c0 11 -3 14 -14 14h-150c-11 0 -14 -3 -14 -14v-528
c0 -11 3 -14 14 -14h11v71h130v-71h9c11 0 14 3 14 14z" />
    <glyph glyph-name="R" unicode="R" horiz-adv-x="563" 
d="M71 800h314c33 0 61 -12 84 -35c24 -23 36 -52 36 -85v-144c0 -51 -32 -98 -77 -118c49 -19 84 -65 84 -120v-298h-130v298c0 28 -8 46 -23 55h-158v-353h-130v800zM201 483h149c16 7 24 24 24 51v126c0 8 -3 12 -8 12h-165v-189z" />
    <glyph glyph-name="S" unicode="S" horiz-adv-x="523" 
d="M45 134v148h130v-148c0 -11 3 -14 14 -14h139c11 0 14 3 14 14v77c5 50 -25 94 -49 118c-6 8 -18 18 -35 29s-29 19 -35 22l-42 24c-79 44 -130 114 -130 203v55c0 40 14 74 42 102s62 42 102 42h139c40 0 74 -17 102 -51c28 -33 42 -74 42 -123h-130c0 29 -8 44 -24 44
h-127c-11 0 -16 -5 -16 -16v-53c0 -27 8 -47 39 -71c15 -11 27 -20 35 -25l49 -27l16 -9c89 -49 152 -137 152 -264v-77c0 -40 -14 -74 -42 -102s-62 -42 -102 -42h-139c-40 0 -74 14 -102 42s-42 62 -42 102z" />
    <glyph glyph-name="T" unicode="T" horiz-adv-x="474" 
d="M172 670h-164v130h458v-130h-164v-670h-130v670z" />
    <glyph glyph-name="U" unicode="U" horiz-adv-x="561" 
d="M62 800h130v-666c0 -11 3 -14 14 -14h149c11 0 14 3 14 14v666h130v-666c0 -40 -14 -74 -42 -102s-62 -42 -102 -42h-149c-40 0 -74 14 -102 42s-42 62 -42 102v666z" />
    <glyph glyph-name="V" unicode="V" horiz-adv-x="570" 
d="M18 800h133l98 -671c2 -10 4 -15 7 -15h59c3 0 5 5 7 15l101 671h130l-129 -776c-3 -16 -23 -34 -43 -34h-191c-20 0 -40 17 -43 34z" />
    <glyph glyph-name="W" unicode="W" horiz-adv-x="850" 
d="M62 800h130v-666c0 -11 3 -14 14 -14h80c22 0 40 10 53 31c14 21 21 41 21 58v591h130v-591c0 -17 7 -36 21 -57s32 -32 53 -32h80c11 0 14 3 14 14v666h130v-666c0 -40 -14 -74 -42 -102s-62 -42 -102 -42h-80c-67 0 -120 44 -139 105c-17 -61 -72 -105 -139 -105h-80
c-40 0 -74 14 -102 42s-42 62 -42 102v666z" />
    <glyph glyph-name="X" unicode="X" horiz-adv-x="543" 
d="M346 437l179 -437h-132l-121 319l-121 -319h-133l178 437l-151 363h135l92 -274l92 274h135z" />
    <glyph glyph-name="Y" unicode="Y" horiz-adv-x="569" 
d="M421 800h130l-123 -546c-5 -19 -26 -32 -54 -32h-23v-222h-129v222h-20c-27 0 -50 13 -54 32l-130 546h133l99 -443c1 -5 3 -7 7 -7h61c5 0 7 2 7 7z" />
    <glyph glyph-name="Z" unicode="Z" horiz-adv-x="501" 
d="M290 670h-262v130h446l-261 -670h261v-130h-446z" />
    <glyph glyph-name="bracketleft" unicode="[" horiz-adv-x="300" 
d="M71 870h221v-130h-91v-680h91v-130h-221v940z" />
    <glyph glyph-name="backslash" unicode="\" horiz-adv-x="396" 
d="M8 800h134l246 -800h-135z" />
    <glyph glyph-name="bracketright" unicode="]" horiz-adv-x="300" 
d="M99 60v680h-91v130h221v-940h-221v130h91z" />
    <glyph glyph-name="asciicircum" unicode="^" horiz-adv-x="525" 
d="M224 795h77l134 -158h-115l-56 73h-3l-57 -73h-114z" />
    <glyph glyph-name="underscore" unicode="_" horiz-adv-x="481" 
d="M474 1v-129h-466v129h466z" />
    <glyph glyph-name="grave" unicode="`" horiz-adv-x="383" 
d="M38 765h126l101 -131h-125z" />
    <glyph glyph-name="a" unicode="a" horiz-adv-x="491" 
d="M31 86v103c0 55 12 93 33 113c23 21 37 27 66 36l175 27v51c0 15 -8 23 -24 23h-73c-17 0 -25 -8 -25 -23v-18h-130v38c0 42 15 75 45 98c31 24 66 36 106 36h80c40 0 75 -12 105 -36c31 -23 46 -56 46 -97v-437h-130v47c-83 -38 -143 -57 -178 -57c-53 0 -96 43 -96 96z
M161 174v-28c0 -11 4 -17 11 -17l133 41v89l-124 -21c-13 -8 -20 -29 -20 -64z" />
    <glyph glyph-name="b" unicode="b" horiz-adv-x="512" 
d="M461 473v-350c0 -37 -13 -69 -39 -95c-25 -26 -57 -39 -94 -38h-138c-37 0 -69 13 -95 39c-25 26 -38 57 -38 94v380h-1v262h130v-57h1v-195c106 38 168 57 187 57c53 0 87 -37 87 -97zM331 133v277c0 9 -4 14 -11 14c-9 0 -53 -13 -133 -40v-251c0 -10 4 -15 12 -15h119
c9 0 13 5 13 15z" />
    <glyph glyph-name="c" unicode="c" horiz-adv-x="481" 
d="M51 123v314c0 37 13 68 38 94c26 26 58 39 95 39h139c37 0 68 -13 94 -39s39 -57 39 -94v-75h-130v66c0 8 -3 12 -9 12h-127c-6 0 -9 -4 -9 -12v-295c0 -9 3 -13 9 -13h127c6 0 9 4 9 13v62h130v-72c0 -37 -13 -68 -39 -94s-57 -39 -94 -39h-139c-37 0 -68 13 -94 39
s-39 57 -39 94z" />
    <glyph glyph-name="d" unicode="d" horiz-adv-x="517" 
d="M456 707h1v-707h-130v47l-36 -13l-44 -16c-36 -13 -90 -28 -108 -28c-53 0 -87 37 -86 97v350c0 37 13 69 38 95c26 26 57 39 94 38h139h3v132h-1v62h130v-57zM327 176v251c-1 10 -6 15 -13 15h-118c-9 0 -13 -5 -13 -15v-277v-2c0 -8 3 -12 10 -12s52 13 134 40z" />
    <glyph glyph-name="e" unicode="e" horiz-adv-x="491" 
d="M51 123v314c0 37 13 68 38 94c26 26 58 39 95 39h139c37 0 68 -13 94 -39s39 -57 39 -94v-200h-275v-104c0 -9 3 -13 9 -13h127c6 0 9 4 9 13v62h130v-72c0 -37 -13 -68 -39 -94s-57 -39 -94 -39h-139c-37 0 -69 13 -95 39c-25 26 -38 57 -38 94zM326 337v90
c0 9 -3 13 -9 13h-127c-6 0 -9 -4 -9 -13v-90h145z" />
    <glyph glyph-name="f" unicode="f" horiz-adv-x="302" 
d="M302 635h-81c-16 0 -24 -7 -24 -21v-54h84v-128h-84v-434c0 -42 -15 -78 -45 -107c-30 -30 -67 -45 -110 -45v130c15 0 23 7 23 22v434h-55v128h55v54c0 41 15 77 44 106c30 30 66 45 109 45h84v-130z" />
    <glyph glyph-name="g" unicode="g" horiz-adv-x="512" 
d="M184 571h139c37 0 68 -13 94 -39s39 -57 39 -94v-463c0 -37 -13 -68 -38 -93s-57 -38 -94 -38h-139c-37 0 -68 13 -94 39s-39 57 -39 94v34h130v-24c0 -9 3 -13 9 -13h127c6 0 9 4 9 13v142l-34 -17c-21 -9 -47 -19 -77 -30s-53 -16 -69 -16c-53 0 -96 43 -96 96v276
c0 37 13 68 39 94s57 39 94 39zM326 269v159c0 9 -3 13 -9 13h-127c-6 0 -9 -4 -9 -13v-201c0 -13 6 -20 17 -20c5 0 18 5 39 15c21 11 42 21 61 32z" />
    <glyph glyph-name="h" unicode="h" 
d="M191 765v-252c84 37 144 56 179 56c53 0 96 -43 96 -96v-473h-130v407c0 12 -3 18 -10 18l-135 -42v-383h-130v765h130z" />
    <glyph glyph-name="i" unicode="i" horiz-adv-x="299" 
d="M66 765h130v-106h-130v106zM198 560v-418c0 -15 8 -22 24 -22h54v-130h-57c-43 0 -79 15 -109 44c-29 30 -44 66 -44 108v418h132z" />
    <glyph glyph-name="j" unicode="j" horiz-adv-x="280" 
d="M81 765h131v-106h-131v106zM82 560h132v-565c0 -42 -15 -78 -45 -107c-30 -30 -66 -45 -108 -44h-74v130h71c16 -1 24 6 24 21v565z" />
    <glyph glyph-name="k" unicode="k" 
d="M356 298l165 -298h-153l-120 238h-58v-238h-129v765h129v-399h58l111 194h145l-148 -254v-8z" />
    <glyph glyph-name="l" unicode="l" horiz-adv-x="299" 
d="M222 120h54v-130h-57c-43 0 -79 15 -109 44c-29 30 -44 66 -44 108v622h130v-204h2v-418c0 -15 8 -22 24 -22z" />
    <glyph glyph-name="m" unicode="m" horiz-adv-x="739" 
d="M61 560h130v-53c65 40 115 60 150 60c39 0 79 -25 90 -60v-1c13 10 36 23 70 39c35 17 63 25 86 25c53 0 96 -44 96 -97v-473h-129v403c0 12 -3 18 -8 18l-110 -38v-383h-129v397c0 15 -2 22 -6 22l-110 -42v-377h-130v560z" />
    <glyph glyph-name="n" unicode="n" 
d="M61 560h130v-47c84 37 144 56 179 56c53 0 96 -43 96 -96v-473h-130v407c0 12 -3 18 -10 18l-135 -42v-383h-130v560z" />
    <glyph glyph-name="o" unicode="o" horiz-adv-x="507" 
d="M51 123v314c0 37 13 68 38 94c26 26 58 39 95 39h139c37 0 68 -13 94 -39s39 -57 39 -94v-314c0 -37 -13 -68 -39 -94s-57 -39 -94 -39h-139c-37 0 -68 13 -94 39s-39 57 -39 94zM181 427v-294c0 -9 3 -13 10 -13h125c7 0 10 4 10 13v294c0 9 -3 13 -10 13h-125
c-7 0 -10 -4 -10 -13z" />
    <glyph glyph-name="p" unicode="p" horiz-adv-x="517" 
d="M191 560v-47l36 13l44 16c36 13 90 28 108 28c53 0 87 -37 86 -97v-350c0 -37 -13 -69 -39 -95c-25 -26 -56 -39 -93 -38h-139h-3v-137h-130v707h130zM335 133v277v2c0 8 -3 12 -10 12s-52 -13 -134 -40v-251c1 -10 6 -15 13 -15h118c9 0 13 5 13 15z" />
    <glyph glyph-name="q" unicode="q" horiz-adv-x="512" 
d="M53 88v350c-1 37 12 69 37 95c26 26 58 39 95 38h138c37 0 69 -13 94 -39c26 -25 39 -57 39 -94v-585h-130v195c-106 -38 -168 -57 -187 -57c-55 0 -87 37 -86 97zM182 428v-277c0 -9 4 -14 11 -14c9 0 53 13 133 40v251c0 10 -4 15 -12 15h-119c-9 0 -13 -5 -13 -15z
" />
    <glyph glyph-name="r" unicode="r" horiz-adv-x="486" 
d="M61 560h130v-47c84 37 144 56 179 56c53 0 96 -43 96 -96v-100h-130v30c0 16 -2 24 -5 24c-9 0 -30 -5 -64 -15s-59 -20 -76 -29v-383h-130v560z" />
    <glyph glyph-name="s" unicode="s" horiz-adv-x="489" 
d="M42 212h130v-79c0 -9 3 -13 9 -13h127c6 0 9 4 9 13v18c0 22 -12 38 -30 49c-9 8 -31 18 -42 22c-11 5 -39 15 -48 19c-103 38 -155 95 -155 171v25c0 37 13 68 39 94s57 39 94 39h139c37 0 69 -13 94 -39c26 -26 39 -57 39 -94v-30h-130v20c0 9 -3 13 -9 13h-126
c-7 0 -10 -4 -10 -13v-8c0 -16 12 -31 44 -47l38 -18c9 -3 25 -9 46 -18c98 -37 147 -96 147 -177v-36c0 -37 -13 -68 -39 -94s-57 -39 -94 -39h-139c-37 0 -68 13 -94 39s-39 57 -39 94v89z" />
    <glyph glyph-name="t" unicode="t" horiz-adv-x="367" 
d="M359 432h-145v-290c0 -15 8 -22 24 -22h54v-130h-57c-43 0 -79 15 -109 44c-29 30 -44 66 -44 108v290h-74v128h74v144h132v-144h145v-128z" />
    <glyph glyph-name="u" unicode="u" 
d="M331 0v47c-84 -37 -144 -56 -179 -56c-53 0 -96 43 -96 96v473h130v-407c0 -12 3 -18 10 -18l135 42v383h130v-560h-130z" />
    <glyph glyph-name="v" unicode="v" horiz-adv-x="483" 
d="M23 559h133l59 -433c1 -4 2 -6 5 -6h48c4 0 6 2 6 6l57 433h130l-85 -535c-3 -17 -23 -35 -43 -35h-178c-20 0 -40 16 -43 35z" />
    <glyph glyph-name="w" unicode="w" horiz-adv-x="765" 
d="M579 560h130v-420c0 -87 -52 -150 -133 -150h-66c-60 0 -111 38 -128 99c-17 -61 -67 -99 -128 -99h-65c-81 0 -133 63 -133 150v420h130v-420c0 -13 4 -20 12 -20h56c42 0 63 32 63 95v345h130v-345c0 -63 21 -95 63 -95h54c10 0 15 7 15 20v420z" />
    <glyph glyph-name="x" unicode="x" horiz-adv-x="497" 
d="M182 302l-129 258h141l56 -134l59 134h141l-132 -258l158 -302h-141l-85 176l-88 -176h-141z" />
    <glyph glyph-name="y" unicode="y" horiz-adv-x="477" 
d="M18 559h133l59 -433c2 -7 4 -11 6 -11h48c5 0 7 5 8 14l58 430h130l-113 -715h-124l22 145h-92c-20 0 -40 17 -43 34z" />
    <glyph glyph-name="z" unicode="z" horiz-adv-x="462" 
d="M31 130l251 304h-249v126h395v-126l-252 -305h255v-129h-400v130z" />
    <glyph glyph-name="braceleft" unicode="{" horiz-adv-x="302" 
d="M260 860v-130c-14 -3 -21 -12 -21 -29v-162c0 -96 -23 -128 -78 -131v-16c56 -3 78 -32 78 -131v-162c0 -16 7 -26 21 -29v-130c-35 4 -69 18 -102 41s-49 53 -49 92v188c0 75 -30 91 -78 91v96c38 0 78 7 78 91v188c0 39 16 69 49 92s67 36 102 41z" />
    <glyph glyph-name="bar" unicode="|" horiz-adv-x="273" 
d="M71 850h130v-900h-130v900z" />
    <glyph glyph-name="braceright" unicode="}" horiz-adv-x="302" 
d="M42 730v130c35 -5 69 -18 102 -41s49 -53 49 -92v-188c0 -84 40 -91 78 -91v-96c-48 0 -78 -16 -78 -91v-188c0 -39 -16 -69 -49 -92s-67 -37 -102 -41v130c14 3 21 13 21 29v162c0 99 22 128 78 131v16c-55 3 -78 35 -78 131v162c0 17 -7 26 -21 29z" />
    <glyph glyph-name="asciitilde" unicode="~" horiz-adv-x="525" 
d="M138 624l-5 111c17 21 38 31 62 31c17 0 40 -6 69 -18c30 -11 53 -17 68 -17c20 0 39 9 56 28l5 -111c-18 -21 -38 -32 -61 -32c-17 0 -40 6 -70 17c-29 12 -52 18 -67 18c-21 0 -40 -9 -57 -27z" />
    <glyph glyph-name="DEL" horiz-adv-x="500" 
 />
    <glyph glyph-name="exclamdown" unicode="&#xa1;" horiz-adv-x="273" 
d="M72 560v106h130v-106h-130zM72 -130v590h130v-590h-130z" />
    <glyph glyph-name="cent" unicode="&#xa2;" horiz-adv-x="525" 
d="M477 471h-125v70c0 5 -3 8 -8 8h-31v-323h27c8 0 12 3 12 10v67h125v-72c0 -37 -13 -69 -39 -96c-26 -26 -58 -39 -96 -39h-16v-96h-130v98h-15c-37 0 -68 13 -94 39s-39 57 -39 94v315c0 37 13 68 39 93c26 26 58 39 95 39h14v87h130v-87h19c37 0 68 -13 93 -39
c26 -25 39 -56 39 -93v-75zM172 541v-305c0 -5 3 -8 9 -8h27v321h-26c-7 0 -10 -3 -10 -8z" />
    <glyph glyph-name="sterling" unicode="&#xa3;" horiz-adv-x="525" 
d="M306 130h215v-130h-511v130h139c-35 18 -52 47 -52 86v125h-87v130h87v161c0 40 14 74 42 102s62 42 102 42h132c40 0 74 -14 102 -42s42 -62 42 -102v-96h-130v96c0 11 -3 14 -14 14h-132c-11 0 -14 -3 -14 -14v-161h96v-130h-96v-125c0 -12 7 -25 20 -38l18 -16z" />
    <glyph glyph-name="currency" unicode="&#xa4;" horiz-adv-x="525" 
d="M21 416v100h55v116c0 40 14 74 42 102s62 42 102 42h139c40 0 74 -14 102 -42s42 -62 42 -102v-126h-130v126c0 11 -3 14 -14 14h-139c-11 0 -14 -3 -14 -14v-116h126v-100h-311zM332 380v-100h-126v-146c0 -11 3 -14 14 -14h139c7 0 11 5 11 14v158h133v-158
c0 -40 -14 -74 -42 -102s-62 -42 -102 -42h-139c-40 0 -74 14 -102 42s-42 62 -42 102v146h-55v100h311z" />
    <glyph glyph-name="yen" unicode="&#xa5;" horiz-adv-x="525" 
d="M329 350v-57h123v-100h-381v100h129v57h-26c-20 0 -38 15 -43 34l-130 382h133l100 -295c2 -3 4 -5 6 -5h50c3 0 5 2 6 5l97 296h130l-123 -383c-4 -17 -23 -34 -43 -34h-28zM71 47v100h381v-100h-123v-47h-129v47h-129z" />
    <glyph glyph-name="brokenbar" unicode="&#xa6;" horiz-adv-x="258" 
d="M71 850h115v-390h-115v390zM71 340h115v-390h-115v390z" />
    <glyph glyph-name="section" unicode="&#xa7;" horiz-adv-x="517" 
d="M461 560h-130v33c0 9 -4 13 -13 13h-119c-9 0 -13 -4 -13 -13v-14c0 -31 44 -55 97 -79c78 -31 179 -82 178 -193v-29c0 -23 -5 -44 -16 -64c11 -21 16 -42 16 -63v-29c0 -37 -13 -68 -39 -95c-26 -26 -57 -39 -94 -39h-139c-37 0 -68 13 -94 39c-26 27 -39 58 -39 95v90
h130v-90c0 -9 4 -13 13 -13h119c9 0 13 4 13 13v29c0 35 -44 62 -97 85c-77 32 -179 82 -178 187v14c0 26 7 50 21 71c-14 23 -21 46 -21 71v14c0 37 13 68 39 94s57 39 94 39h139c37 0 69 -13 94 -39c26 -26 39 -57 39 -94v-33zM352 307v7c0 29 -32 57 -61 72
c-14 7 -34 17 -59 28s-43 20 -53 25c-4 -5 -6 -10 -6 -17v-11c0 -16 9 -31 26 -44c18 -13 46 -28 84 -45c38 -16 60 -26 66 -29c2 4 3 9 3 14z" />
    <glyph glyph-name="dieresis" unicode="&#xa8;" horiz-adv-x="327" 
d="M81 627c-35 0 -64 28 -64 63c0 36 29 67 64 67c36 0 66 -31 66 -67c0 -35 -30 -63 -66 -63zM249 627c-36 0 -65 28 -65 63c0 36 29 67 65 67c33 0 63 -31 63 -67c0 -35 -30 -63 -63 -63z" />
    <glyph glyph-name="copyright" unicode="&#xa9;" horiz-adv-x="637" 
d="M56 170v218c0 53 18 96 54 129c36 34 82 51 139 51h139c57 0 103 -17 139 -51c36 -33 54 -76 54 -129v-218c0 -53 -18 -96 -54 -130c-36 -33 -82 -50 -139 -50h-139c-57 0 -103 17 -139 50c-36 34 -54 77 -54 130zM156 388v-218c0 -47 38 -80 93 -80h139
c55 0 93 33 93 80v218c0 47 -38 80 -93 80h-139c-55 0 -93 -33 -93 -80zM176 170v218c0 33 32 60 73 60h139c41 0 73 -27 73 -60v-66h-95v21c0 11 -5 17 -15 17h-60c-10 0 -15 -6 -15 -17v-128c0 -11 5 -17 14 -17h60c11 0 16 6 16 17v19h95v-64c0 -33 -32 -60 -73 -60h-139
c-40 0 -73 28 -73 60z" />
    <glyph glyph-name="ordfeminine" unicode="&#xaa;" horiz-adv-x="422" 
d="M79 675v12c0 58 46 87 138 87c93 0 139 -27 139 -80v-262h-91v30c-23 -10 -49 -19 -78 -26s-50 -10 -63 -10c-32 0 -58 26 -58 58v71c0 35 19 58 58 70l141 19v43c0 10 -16 15 -48 15c-31 0 -47 -5 -47 -15v-12h-91zM265 577l-98 -15c-7 0 -10 -3 -10 -10v-38
c0 -5 3 -8 10 -8c3 0 19 4 49 12c31 9 47 13 49 13v46zM366 399v-99h-310v99h310z" />
    <glyph glyph-name="guillemotleft" unicode="&#xab;" horiz-adv-x="618" 
d="M246 392l106 -48l-148 -105l148 -105l-106 -47l-210 152zM456 392l106 -48l-148 -105l148 -105l-106 -47l-210 152z" />
    <glyph glyph-name="logicalnot" unicode="&#xac;" horiz-adv-x="525" 
d="M34 396h457v-221h-129v92h-328v129z" />
    <glyph glyph-name="registered" unicode="&#xae;" horiz-adv-x="613" 
d="M204 792h205c93 0 148 -54 148 -145v-262c0 -91 -55 -145 -148 -145h-205c-93 0 -148 54 -148 145v262c0 91 55 145 148 145zM409 692h-205c-29 0 -48 -17 -48 -45v-262c0 -28 19 -45 48 -45h205c29 0 48 17 48 45v262c0 28 -19 45 -48 45zM183 662h193
c27 0 54 -23 54 -48v-49c0 -22 -10 -38 -31 -47c22 -8 33 -24 33 -48v-107h-88v107c0 9 -3 13 -9 13h-63v-120h-89v299zM338 599h-66v-40h64c5 2 7 9 7 22v11c0 5 -2 7 -5 7z" />
    <glyph glyph-name="overscore" unicode="&#xaf;" horiz-adv-x="315" 
d="M48 736h220v-99h-220v99z" />
    <glyph glyph-name="degree" unicode="&#xb0;" horiz-adv-x="431" 
d="M179 765h73c33 0 62 -12 86 -37c25 -24 37 -53 37 -86v-24c0 -33 -12 -62 -37 -87c-24 -24 -53 -36 -86 -36h-73c-33 0 -61 12 -86 36c-25 25 -37 54 -37 87v24c0 33 12 62 36 86c25 25 54 37 87 37zM252 665h-73c-13 0 -23 -10 -23 -23v-24c0 -13 10 -23 23 -23h73
c13 0 23 10 23 23v24c0 13 -10 23 -23 23z" />
    <glyph glyph-name="plusminus" unicode="&#xb1;" horiz-adv-x="525" 
d="M191 341h-103v143h103v91h144v-91h103v-143h-103v-116h-144v116zM88 196h350v-129h-350v129z" />
    <glyph glyph-name="twosuperior" unicode="&#xb2;" horiz-adv-x="400" 
d="M174 771h59c55 0 96 -39 96 -88v-24c0 -51 -22 -93 -67 -127c-7 -5 -33 -23 -41 -30c-13 -10 -33 -31 -29 -48h137v-101h-258v70c0 57 28 106 83 146l36 26c15 11 35 39 35 68v9c0 7 -3 10 -8 10h-29c-5 0 -8 -4 -8 -11v-17h-104v12c0 59 42 105 98 105z" />
    <glyph glyph-name="threesuperior" unicode="&#xb3;" horiz-adv-x="371" 
d="M311 701v-55c0 -29 -10 -50 -29 -64c22 -15 33 -37 33 -64v-93c0 -39 -36 -69 -75 -69h-104c-39 0 -76 30 -76 69v85h93v-62c0 -7 3 -10 9 -10h50c7 0 10 3 10 10v72c0 12 -7 18 -20 19h-104v87h103c11 0 17 5 17 16v39c0 6 -3 9 -8 9h-53c-5 0 -8 -3 -8 -9v-7h-93v27
c0 39 37 70 76 70h104c39 0 75 -31 75 -70z" />
    <glyph glyph-name="acute" unicode="&#xb4;" horiz-adv-x="383" 
d="M240 765h125l-101 -131h-126z" />
    <glyph glyph-name="paragraph" unicode="&#xb6;" horiz-adv-x="664" 
d="M593 800v-950h-130v821h-49v-821h-130v370h-100c-37 0 -68 13 -94 39s-39 57 -39 94v314c0 37 13 68 38 94c26 26 58 39 95 39h409zM284 671h-95c-5 0 -8 -3 -8 -8v-305c0 -5 3 -8 8 -8h95v321z" />
    <glyph glyph-name="middot" unicode="&#xb7;" horiz-adv-x="251" 
d="M124 222c-37 0 -68 31 -68 68s31 69 68 69s70 -32 70 -69s-31 -68 -70 -68z" />
    <glyph glyph-name="cedilla" unicode="&#xb8;" horiz-adv-x="462" 
d="M300 26l-10 -53c52 -19 89 -70 89 -123c0 -71 -56 -126 -136 -126c-25 0 -57 13 -98 38l49 79c23 -11 40 -17 49 -17c24 0 36 9 36 26c0 15 -9 26 -25 26h-74l17 150h103z" />
    <glyph glyph-name="onesuperior" unicode="&#xb9;" horiz-adv-x="290" 
d="M219 765v-405h-109v312h-39v93h148z" />
    <glyph glyph-name="ordmasculine" unicode="&#xba;" horiz-adv-x="423" 
d="M146 774h130c44 0 80 -35 80 -80v-188c0 -44 -36 -80 -80 -80h-130c-45 0 -80 36 -80 80v188c0 45 35 80 80 80zM250 684h-76c-5 0 -8 -2 -8 -7v-153c0 -5 3 -8 8 -8h75c5 0 7 3 7 8v153c0 5 -2 7 -6 7zM367 399v-99h-311v99h311z" />
    <glyph glyph-name="guillemotright" unicode="&#xbb;" horiz-adv-x="618" 
d="M204 239l-148 105l107 48l209 -153l-209 -152l-107 47zM414 239l-148 105l107 48l209 -153l-209 -152l-107 47z" />
    <glyph glyph-name="onequarter" unicode="&#xbc;" horiz-adv-x="713" 
d="M544 798l-309 -798h-111l309 798h111zM204 765v-405h-109v312h-39v93h148zM619 410v-225h38v-94h-38v-92h-94v92h-189l125 319h158zM525 318h-13l-35 -133h48v133z" />
    <glyph glyph-name="onehalf" unicode="&#xbd;" horiz-adv-x="707" 
d="M544 798l-309 -798h-111l309 798h111zM204 765v-405h-109v312h-39v93h148zM496 418h59c55 0 96 -39 96 -88v-24c0 -51 -22 -93 -67 -127c-7 -5 -33 -23 -41 -30c-13 -10 -33 -30 -29 -48h137v-101h-258v70c0 57 28 106 83 146l36 26c15 11 35 39 35 68v9c0 7 -3 10 -8 10
h-29c-5 0 -8 -4 -8 -11v-17h-104v12c0 59 42 105 98 105z" />
    <glyph glyph-name="threequarters" unicode="&#xbe;" horiz-adv-x="787" 
d="M495 798h111l-308 -798h-111zM315 518v-93c0 -39 -36 -69 -75 -69h-104c-39 0 -76 30 -76 69v85h93v-62c0 -7 3 -10 9 -10h50c7 0 10 3 10 10v72c0 12 -7 18 -20 19h-104v87h103c11 0 17 5 17 16v39c0 6 -3 9 -8 9h-53c-5 0 -8 -3 -8 -9v-7h-93v27c0 39 37 70 76 70h104
c39 0 75 -31 75 -70v-55c0 -29 -10 -50 -29 -64c22 -15 33 -37 33 -64zM693 185h37v-94h-37v-92h-94v92h-190l126 319h158v-225zM599 185v133h-13l-36 -133h49z" />
    <glyph glyph-name="questiondown" unicode="&#xbf;" horiz-adv-x="499" 
d="M217 639h130v-106h-130v106zM328 -167h-158c-37 0 -69 13 -95 39c-25 25 -38 57 -38 94v128c0 104 62 154 137 154h29c9 0 14 7 14 20v176h130v-176c0 -97 -61 -150 -129 -151h-35c-11 0 -16 -7 -16 -21v-126c0 -10 4 -15 11 -15h143c7 0 10 5 10 15v100h130v-104
c0 -37 -13 -69 -39 -94c-25 -26 -57 -39 -94 -39z" />
    <glyph glyph-name="Agrave" unicode="&#xc0;" horiz-adv-x="568" 
d="M395 174h-221l-26 -174h-130l125 766c3 17 23 34 43 34h197c20 0 40 -17 43 -34l125 -766h-130zM376 304l-53 355c-2 7 -5 11 -9 11h-60c-5 0 -7 -4 -8 -11l-53 -355h183zM119 1005h126l101 -131h-125z" />
    <glyph glyph-name="Aacute" unicode="&#xc1;" horiz-adv-x="568" 
d="M395 174h-221l-26 -174h-130l125 766c3 17 23 34 43 34h197c20 0 40 -17 43 -34l125 -766h-130zM376 304l-53 355c-2 7 -5 11 -9 11h-60c-5 0 -7 -4 -8 -11l-53 -355h183zM328 1005h125l-101 -131h-126z" />
    <glyph glyph-name="Acircumflex" unicode="&#xc2;" horiz-adv-x="568" 
d="M395 174h-221l-26 -174h-130l125 766c3 17 23 34 43 34h197c20 0 40 -17 43 -34l125 -766h-130zM376 304l-53 355c-2 7 -5 11 -9 11h-60c-5 0 -7 -4 -8 -11l-53 -355h183zM245 1035h77l134 -158h-115l-56 73h-3l-57 -73h-114z" />
    <glyph glyph-name="Atilde" unicode="&#xc3;" horiz-adv-x="568" 
d="M395 174h-221l-26 -174h-130l125 766c3 17 23 34 43 34h197c20 0 40 -17 43 -34l125 -766h-130zM376 304l-53 355c-2 7 -5 11 -9 11h-60c-5 0 -7 -4 -8 -11l-53 -355h183zM160 864l-5 111c17 21 38 31 62 31c17 0 40 -6 69 -18c30 -11 53 -17 68 -17c20 0 39 9 56 28
l5 -111c-18 -21 -38 -32 -61 -32c-17 0 -40 6 -70 17c-29 12 -52 18 -67 18c-21 0 -40 -9 -57 -27z" />
    <glyph glyph-name="Adieresis" unicode="&#xc4;" horiz-adv-x="568" 
d="M395 174h-221l-26 -174h-130l125 766c3 17 23 34 43 34h197c20 0 40 -17 43 -34l125 -766h-130zM376 304l-53 355c-2 7 -5 11 -9 11h-60c-5 0 -7 -4 -8 -11l-53 -355h183zM201 867c-35 0 -64 28 -64 63c0 36 29 67 64 67c36 0 66 -31 66 -67c0 -35 -30 -63 -66 -63z
M369 867c-36 0 -65 28 -65 63c0 36 29 67 65 67c33 0 63 -31 63 -67c0 -35 -30 -63 -63 -63z" />
    <glyph glyph-name="Aring" unicode="&#xc5;" horiz-adv-x="568" 
d="M395 174h-221l-26 -174h-130l125 766c3 17 23 34 43 34h197c20 0 40 -17 43 -34l125 -766h-130zM376 304l-53 355c-2 7 -5 11 -9 11h-60c-5 0 -7 -4 -8 -11l-53 -355h183zM285 1075c35 0 64 -12 88 -37c24 -24 36 -53 36 -88s-12 -64 -36 -88s-53 -36 -88 -36
s-64 12 -89 36c-24 24 -36 53 -36 88s12 64 36 88c24 25 54 37 89 37zM253 918c38 -45 109 26 64 64c-38 45 -109 -26 -64 -64z" />
    <glyph glyph-name="AE" unicode="&#xc6;" horiz-adv-x="795" 
d="M759 800v-133h-247v-161h220v-130h-220v-246h247v-130h-377v174h-202l-32 -174h-130l124 766c3 17 23 34 43 34h574zM382 676h-117c-8 0 -13 -5 -16 -16l-51 -356h184v372z" />
    <glyph glyph-name="Ccedilla" unicode="&#xc7;" horiz-adv-x="545" 
d="M494 536h-130v124c0 11 -5 16 -15 16h-148c-10 0 -15 -5 -15 -16v-525c0 -10 5 -15 14 -15h153c7 0 11 5 11 15v157h130v-158c0 -40 -14 -74 -42 -102s-62 -42 -102 -42h-29l-3 -17c52 -19 89 -70 89 -123c0 -71 -56 -126 -136 -126c-25 0 -57 13 -98 38l49 79
c23 -11 40 -17 49 -17c24 0 36 9 36 26c0 15 -9 26 -25 26h-74l13 114h-21c-40 0 -74 14 -102 42s-42 62 -42 102v528c0 40 14 74 42 102s62 42 102 42h150c40 0 74 -14 102 -42s42 -62 42 -102v-126z" />
    <glyph glyph-name="Egrave" unicode="&#xc8;" horiz-adv-x="484" 
d="M449 800v-130h-248v-194h221v-130h-221v-216h248v-130h-378v800h378zM102 1005h126l101 -131h-125z" />
    <glyph glyph-name="Eacute" unicode="&#xc9;" horiz-adv-x="484" 
d="M449 800v-130h-248v-194h221v-130h-221v-216h248v-130h-378v800h378zM311 1005h125l-101 -131h-126z" />
    <glyph glyph-name="Ecircumflex" unicode="&#xca;" horiz-adv-x="484" 
d="M449 800v-130h-248v-194h221v-130h-221v-216h248v-130h-378v800h378zM228 1035h77l134 -158h-115l-56 73h-3l-57 -73h-114z" />
    <glyph glyph-name="Edieresis" unicode="&#xcb;" horiz-adv-x="484" 
d="M183 867c-35 0 -64 28 -64 63c0 36 29 67 64 67c36 0 66 -31 66 -67c0 -35 -30 -63 -66 -63zM351 867c-36 0 -65 28 -65 63c0 36 29 67 65 67c33 0 63 -31 63 -67c0 -35 -30 -63 -63 -63zM449 800v-130h-248v-194h221v-130h-221v-216h248v-130h-378v800h378z" />
    <glyph glyph-name="Igrave" unicode="&#xcc;" horiz-adv-x="282" 
d="M-24 1005h126l101 -131h-125zM206 800v-800h-130v800h130z" />
    <glyph glyph-name="Iacute" unicode="&#xcd;" horiz-adv-x="282" 
d="M185 1005h125l-101 -131h-126zM206 800v-800h-130v800h130z" />
    <glyph glyph-name="Icircumflex" unicode="&#xce;" horiz-adv-x="282" 
d="M102 1035h77l134 -158h-115l-56 73h-3l-57 -73h-114zM206 800v-800h-130v800h130z" />
    <glyph glyph-name="Idieresis" unicode="&#xcf;" horiz-adv-x="282" 
d="M58 867c-35 0 -65 30 -65 63c0 36 30 67 65 67c36 0 66 -31 66 -67c0 -35 -30 -63 -66 -63zM226 867c-36 0 -65 28 -65 63c0 36 29 67 65 67c33 0 63 -31 63 -67c0 -35 -28 -63 -63 -63zM206 800v-800h-130v800h130z" />
    <glyph glyph-name="Eth" unicode="&#xd0;" horiz-adv-x="565" 
d="M71 800h294c41 0 75 -13 102 -40c28 -26 42 -59 42 -98v-518c0 -40 -14 -74 -42 -102s-62 -42 -102 -42h-294v368h-51v129h51v303zM379 144v513c0 9 -5 13 -14 13h-164v-173h94v-129h-94v-238h164c11 0 14 3 14 14z" />
    <glyph glyph-name="Ntilde" unicode="&#xd1;" horiz-adv-x="629" 
d="M296 800l127 -670h5v670h130v-800h-223l-129 670h-5v-670h-130v800h225zM191 864l-5 111c17 21 38 31 62 31c17 0 40 -6 69 -18c30 -11 53 -17 68 -17c20 0 39 9 56 28l5 -111c-18 -21 -38 -32 -61 -32c-17 0 -40 6 -70 17c-29 12 -52 18 -67 18c-21 0 -40 -9 -57 -27z
" />
    <glyph glyph-name="Ograve" unicode="&#xd2;" horiz-adv-x="550" 
d="M56 134v528c0 40 14 74 42 102s62 42 102 42h150c40 0 74 -14 102 -42s42 -62 42 -102v-528c0 -40 -14 -74 -42 -102s-62 -42 -102 -42h-150c-40 0 -74 14 -102 42s-42 62 -42 102zM186 662v-528c0 -11 3 -14 14 -14h150c11 0 14 3 14 14v528c0 11 -3 14 -14 14h-150
c-11 0 -14 -3 -14 -14zM110 1005h126l101 -131h-125z" />
    <glyph glyph-name="Oacute" unicode="&#xd3;" horiz-adv-x="550" 
d="M56 134v528c0 40 14 74 42 102s62 42 102 42h150c40 0 74 -14 102 -42s42 -62 42 -102v-528c0 -40 -14 -74 -42 -102s-62 -42 -102 -42h-150c-40 0 -74 14 -102 42s-42 62 -42 102zM186 662v-528c0 -11 3 -14 14 -14h150c11 0 14 3 14 14v528c0 11 -3 14 -14 14h-150
c-11 0 -14 -3 -14 -14zM319 1005h125l-101 -131h-126z" />
    <glyph glyph-name="Ocircumflex" unicode="&#xd4;" horiz-adv-x="550" 
d="M56 134v528c0 40 14 74 42 102s62 42 102 42h150c40 0 74 -14 102 -42s42 -62 42 -102v-528c0 -40 -14 -74 -42 -102s-62 -42 -102 -42h-150c-40 0 -74 14 -102 42s-42 62 -42 102zM186 662v-528c0 -11 3 -14 14 -14h150c11 0 14 3 14 14v528c0 11 -3 14 -14 14h-150
c-11 0 -14 -3 -14 -14zM236 1035h77l134 -158h-115l-56 73h-3l-57 -73h-114z" />
    <glyph glyph-name="Otilde" unicode="&#xd5;" horiz-adv-x="550" 
d="M56 134v528c0 40 14 74 42 102s62 42 102 42h150c40 0 74 -14 102 -42s42 -62 42 -102v-528c0 -40 -14 -74 -42 -102s-62 -42 -102 -42h-150c-40 0 -74 14 -102 42s-42 62 -42 102zM186 662v-528c0 -11 3 -14 14 -14h150c11 0 14 3 14 14v528c0 11 -3 14 -14 14h-150
c-11 0 -14 -3 -14 -14zM151 864l-5 111c17 21 38 31 62 31c17 0 40 -6 69 -18c30 -11 53 -17 68 -17c20 0 39 9 56 28l5 -111c-18 -21 -38 -32 -61 -32c-17 0 -40 6 -70 17c-29 12 -52 18 -67 18c-21 0 -40 -9 -57 -27z" />
    <glyph glyph-name="Odieresis" unicode="&#xd6;" horiz-adv-x="550" 
d="M192 867c-35 0 -64 28 -64 63c0 36 29 67 64 67c36 0 66 -31 66 -67c0 -35 -30 -63 -66 -63zM360 867c-36 0 -65 28 -65 63c0 36 29 67 65 67c33 0 63 -31 63 -67c0 -35 -28 -63 -63 -63zM56 134v528c0 40 14 74 42 102s62 42 102 42h150c40 0 74 -14 102 -42
s42 -62 42 -102v-528c0 -40 -14 -74 -42 -102s-62 -42 -102 -42h-150c-40 0 -74 14 -102 42s-42 62 -42 102zM186 662v-528c0 -11 3 -14 14 -14h150c11 0 14 3 14 14v528c0 11 -3 14 -14 14h-150c-11 0 -14 -3 -14 -14z" />
    <glyph glyph-name="multiply" unicode="&#xd7;" horiz-adv-x="525" 
d="M82 262l88 86l-78 78l91 91l78 -78l82 82l91 -91l-82 -82l91 -90l-91 -91l-91 91l-87 -87z" />
    <glyph glyph-name="Oslash" unicode="&#xd8;" horiz-adv-x="565" 
d="M519 866l-49 -124c16 -23 24 -50 24 -80v-528c0 -40 -14 -74 -42 -102s-62 -42 -102 -42h-150c-11 0 -20 1 -29 3l-19 -47h-106l40 100c-20 25 -30 55 -30 88v528c0 40 14 74 42 102s62 42 102 42h150c11 0 24 -2 37 -5l26 65h106zM186 662v-365l151 379h-137
c-11 0 -14 -3 -14 -14zM364 134v343l-143 -357h129c11 0 14 3 14 14z" />
    <glyph glyph-name="Ugrave" unicode="&#xd9;" horiz-adv-x="561" 
d="M115 1005h126l101 -131h-125zM192 800v-666c0 -11 3 -14 14 -14h149c11 0 14 3 14 14v666h130v-666c0 -40 -14 -74 -42 -102s-62 -42 -102 -42h-149c-40 0 -74 14 -102 42s-42 62 -42 102v666h130z" />
    <glyph glyph-name="Uacute" unicode="&#xda;" horiz-adv-x="561" 
d="M325 1005h125l-101 -131h-126zM192 800v-666c0 -11 3 -14 14 -14h149c11 0 14 3 14 14v666h130v-666c0 -40 -14 -74 -42 -102s-62 -42 -102 -42h-149c-40 0 -74 14 -102 42s-42 62 -42 102v666h130z" />
    <glyph glyph-name="Ucircumflex" unicode="&#xdb;" horiz-adv-x="561" 
d="M242 1035h77l134 -158h-115l-56 73h-3l-57 -73h-114zM192 800v-666c0 -11 3 -14 14 -14h149c11 0 14 3 14 14v666h130v-666c0 -40 -14 -74 -42 -102s-62 -42 -102 -42h-149c-40 0 -74 14 -102 42s-42 62 -42 102v666h130z" />
    <glyph glyph-name="Udieresis" unicode="&#xdc;" horiz-adv-x="561" 
d="M197 867c-35 0 -64 28 -64 63c0 36 29 67 64 67c36 0 66 -31 66 -67c0 -35 -30 -63 -66 -63zM365 867c-36 0 -65 28 -65 63c0 36 29 67 65 67c33 0 63 -31 63 -67c0 -35 -30 -63 -63 -63zM192 800v-666c0 -11 3 -14 14 -14h149c11 0 14 3 14 14v666h130v-666
c0 -40 -14 -74 -42 -102s-62 -42 -102 -42h-149c-40 0 -74 14 -102 42s-42 62 -42 102v666h130z" />
    <glyph glyph-name="Yacute" unicode="&#xdd;" horiz-adv-x="569" 
d="M551 800l-123 -546c-5 -19 -26 -32 -54 -32h-23v-222h-129v222h-20c-27 0 -50 13 -54 32l-130 546h133l99 -443c1 -5 3 -7 7 -7h61c5 0 7 2 7 7l96 443h130zM329 1005h125l-101 -131h-126z" />
    <glyph glyph-name="Thorn" unicode="&#xde;" horiz-adv-x="536" 
d="M201 792v-153h160c41 0 75 -13 102 -40c28 -26 42 -59 42 -98v-176c0 -40 -14 -74 -42 -102s-62 -42 -102 -42h-160v-181h-130v792h130zM361 509h-160v-198h160c11 0 14 3 14 14v176c0 9 -1 8 -14 8z" />
    <glyph glyph-name="germandbls" unicode="&#xdf;" horiz-adv-x="525" 
d="M200 774h132c83 0 135 -42 135 -121v-116c0 -51 -32 -98 -77 -118c49 -17 84 -69 84 -120v-189c0 -77 -57 -120 -141 -120h-94v130h90c10 0 15 5 15 16v163c0 37 -15 55 -54 55h-48v130h48c31 0 47 18 47 53v88c0 13 -5 19 -14 19h-112c-7 0 -10 -6 -10 -18v-631
c0 -42 -15 -78 -44 -107c-29 -30 -65 -45 -108 -45h-39v130h36c15 0 24 7 25 22v658c0 79 48 121 129 121z" />
    <glyph glyph-name="agrave" unicode="&#xe0;" horiz-adv-x="491" 
d="M31 86v103c0 55 12 93 33 113c23 21 37 27 66 36l175 27v51c0 15 -8 23 -24 23h-73c-17 0 -25 -8 -25 -23v-18h-130v38c0 42 15 75 45 98c31 24 66 36 106 36h80c40 0 75 -12 105 -36c31 -23 46 -56 46 -97v-437h-130v47c-83 -38 -143 -57 -178 -57c-53 0 -96 43 -96 96z
M161 174v-28c0 -11 4 -17 11 -17l133 41v89l-124 -21c-13 -8 -20 -29 -20 -64zM81 765h126l101 -131h-125z" />
    <glyph glyph-name="aacute" unicode="&#xe1;" horiz-adv-x="491" 
d="M31 86v103c0 55 12 93 33 113c23 21 37 27 66 36l175 27v51c0 15 -8 23 -24 23h-73c-17 0 -25 -8 -25 -23v-18h-130v38c0 42 15 75 45 98c31 24 66 36 106 36h80c40 0 75 -12 105 -36c31 -23 46 -56 46 -97v-437h-130v47c-83 -38 -143 -57 -178 -57c-53 0 -96 43 -96 96z
M161 174v-28c0 -11 4 -17 11 -17l133 41v89l-124 -21c-13 -8 -20 -29 -20 -64zM290 765h125l-101 -131h-126z" />
    <glyph glyph-name="acircumflex" unicode="&#xe2;" horiz-adv-x="491" 
d="M31 86v103c0 55 12 93 33 113c23 21 37 27 66 36l175 27v51c0 15 -8 23 -24 23h-73c-17 0 -25 -8 -25 -23v-18h-130v38c0 42 15 75 45 98c31 24 66 36 106 36h80c40 0 75 -12 105 -36c31 -23 46 -56 46 -97v-437h-130v47c-83 -38 -143 -57 -178 -57c-53 0 -96 43 -96 96z
M161 174v-28c0 -11 4 -17 11 -17l133 41v89l-124 -21c-13 -8 -20 -29 -20 -64zM207 795h77l134 -158h-115l-56 73h-3l-57 -73h-114z" />
    <glyph glyph-name="atilde" unicode="&#xe3;" horiz-adv-x="491" 
d="M31 86v103c0 55 12 93 33 113c23 21 37 27 66 36l175 27v51c0 15 -8 23 -24 23h-73c-17 0 -25 -8 -25 -23v-18h-130v38c0 42 15 75 45 98c31 24 66 36 106 36h80c40 0 75 -12 105 -36c31 -23 46 -56 46 -97v-437h-130v47c-83 -38 -143 -57 -178 -57c-53 0 -96 43 -96 96z
M161 174v-28c0 -11 4 -17 11 -17l133 41v89l-124 -21c-13 -8 -20 -29 -20 -64zM121 624l-5 111c17 21 38 31 62 31c17 0 40 -6 69 -18c30 -11 53 -17 68 -17c20 0 39 9 56 28l5 -111c-18 -21 -38 -32 -61 -32c-17 0 -40 6 -70 17c-29 12 -52 18 -67 18c-21 0 -40 -9 -57 -27
z" />
    <glyph glyph-name="adieresis" unicode="&#xe4;" horiz-adv-x="491" 
d="M162 627c-35 0 -64 28 -64 63c0 36 29 67 64 67c36 0 66 -31 66 -67c0 -35 -30 -63 -66 -63zM330 627c-36 0 -65 28 -65 63c0 36 29 67 65 67c33 0 63 -31 63 -67c0 -35 -28 -63 -63 -63zM31 86v103c0 55 12 93 33 113c23 21 37 27 66 36l175 27v51c0 15 -8 23 -24 23
h-73c-17 0 -25 -8 -25 -23v-18h-130v38c0 42 15 75 45 98c31 24 66 36 106 36h80c40 0 75 -12 105 -36c31 -23 46 -56 46 -97v-437h-130v47c-83 -38 -143 -57 -178 -57c-53 0 -96 43 -96 96zM161 174v-28c0 -11 4 -17 11 -17l133 41v89l-124 -21c-13 -8 -20 -29 -20 -64z
" />
    <glyph glyph-name="aring" unicode="&#xe5;" horiz-adv-x="491" 
d="M31 86v103c0 55 12 93 33 113c23 21 37 27 66 36l175 27v51c0 15 -8 23 -24 23h-73c-17 0 -25 -8 -25 -23v-18h-130v38c0 42 15 75 45 98c31 24 66 36 106 36h80c40 0 75 -12 105 -36c31 -23 46 -56 46 -97v-437h-130v47c-83 -38 -143 -57 -178 -57c-53 0 -96 43 -96 96z
M161 174v-28c0 -11 4 -17 11 -17l133 41v89l-124 -21c-13 -8 -20 -29 -20 -64zM247 835c35 0 64 -12 88 -37c24 -24 36 -53 36 -88s-12 -64 -36 -88s-53 -36 -88 -36s-64 12 -89 36c-24 24 -36 53 -36 88s12 64 36 88c24 25 54 37 89 37zM215 678c38 -45 109 26 64 64
c-38 45 -109 -26 -64 -64z" />
    <glyph glyph-name="ae" unicode="&#xe6;" horiz-adv-x="753" 
d="M717 237h-275v-103c0 -9 3 -14 8 -14h128c6 0 9 4 9 13v61h130v-72c0 -37 -13 -68 -39 -94c-25 -25 -57 -38 -94 -38h-139c-51 0 -90 22 -117 66l-16 -9c-83 -38 -143 -57 -178 -57c-53 0 -96 43 -96 96v109c0 55 10 93 33 113s37 27 66 36l175 27v48c0 13 -7 20 -22 20
h-75c-17 0 -25 -8 -25 -24v-18h-130v39c0 42 15 75 45 98c31 24 66 36 107 36h82c27 0 56 -3 87 -8c17 5 39 8 64 8h139c37 0 69 -13 94 -39c26 -26 39 -57 39 -94v-200zM442 429v-62h145v63c0 7 -3 10 -8 10h-130c-5 0 -7 -4 -7 -11zM312 176v73l-127 -22
c-11 -7 -17 -27 -17 -60v-21c0 -8 4 -12 11 -12z" />
    <glyph glyph-name="ccedilla" unicode="&#xe7;" horiz-adv-x="481" 
d="M456 362h-130v66c0 8 -3 12 -9 12h-127c-6 0 -9 -4 -9 -12v-295c0 -9 3 -13 9 -13h127c6 0 9 4 9 13v62h130v-72c0 -37 -13 -68 -39 -94s-57 -39 -94 -39h-36l-3 -17c52 -19 89 -70 89 -123c0 -71 -56 -126 -136 -126c-25 0 -57 13 -98 38l49 79c23 -11 40 -17 49 -17
c24 0 36 9 36 26c0 15 -9 26 -25 26h-74l13 114h-3c-37 0 -68 13 -94 39s-39 57 -39 94v314c0 37 13 68 38 94c26 26 58 39 95 39h139c37 0 68 -13 94 -39s39 -57 39 -94v-75z" />
    <glyph glyph-name="egrave" unicode="&#xe8;" horiz-adv-x="491" 
d="M51 123v314c0 37 13 68 38 94c26 26 58 39 95 39h139c37 0 68 -13 94 -39s39 -57 39 -94v-200h-275v-104c0 -9 3 -13 9 -13h127c6 0 9 4 9 13v62h130v-72c0 -37 -13 -68 -39 -94s-57 -39 -94 -39h-139c-37 0 -69 13 -95 39c-25 26 -38 57 -38 94zM326 337v90
c0 9 -3 13 -9 13h-127c-6 0 -9 -4 -9 -13v-90h145zM81 765h126l101 -131h-125z" />
    <glyph glyph-name="eacute" unicode="&#xe9;" horiz-adv-x="491" 
d="M51 123v314c0 37 13 68 38 94c26 26 58 39 95 39h139c37 0 68 -13 94 -39s39 -57 39 -94v-200h-275v-104c0 -9 3 -13 9 -13h127c6 0 9 4 9 13v62h130v-72c0 -37 -13 -68 -39 -94s-57 -39 -94 -39h-139c-37 0 -69 13 -95 39c-25 26 -38 57 -38 94zM326 337v90
c0 9 -3 13 -9 13h-127c-6 0 -9 -4 -9 -13v-90h145zM291 765h125l-101 -131h-126z" />
    <glyph glyph-name="ecircumflex" unicode="&#xea;" horiz-adv-x="491" 
d="M51 123v314c0 37 13 68 38 94c26 26 58 39 95 39h139c37 0 68 -13 94 -39s39 -57 39 -94v-200h-275v-104c0 -9 3 -13 9 -13h127c6 0 9 4 9 13v62h130v-72c0 -37 -13 -68 -39 -94s-57 -39 -94 -39h-139c-37 0 -69 13 -95 39c-25 26 -38 57 -38 94zM326 337v90
c0 9 -3 13 -9 13h-127c-6 0 -9 -4 -9 -13v-90h145zM207 795h77l134 -158h-115l-56 73h-3l-57 -73h-114z" />
    <glyph glyph-name="edieresis" unicode="&#xeb;" horiz-adv-x="491" 
d="M51 123v314c0 37 13 68 38 94c26 26 58 39 95 39h139c37 0 68 -13 94 -39s39 -57 39 -94v-200h-275v-104c0 -9 3 -13 9 -13h127c6 0 9 4 9 13v62h130v-72c0 -37 -13 -68 -39 -94s-57 -39 -94 -39h-139c-37 0 -69 13 -95 39c-25 26 -38 57 -38 94zM326 337v90
c0 9 -3 13 -9 13h-127c-6 0 -9 -4 -9 -13v-90h145zM163 627c-35 0 -64 28 -64 63c0 36 29 67 64 67c36 0 66 -31 66 -67c0 -35 -30 -63 -66 -63zM331 627c-36 0 -65 28 -65 63c0 36 29 67 65 67c33 0 63 -31 63 -67c0 -35 -30 -63 -63 -63z" />
    <glyph glyph-name="igrave" unicode="&#xec;" horiz-adv-x="299" 
d="M198 560v-418c0 -15 8 -22 24 -22h54v-130h-57c-43 0 -79 15 -109 44c-29 30 -44 66 -44 108v418h132zM-33 765h126l101 -131h-125z" />
    <glyph glyph-name="iacute" unicode="&#xed;" horiz-adv-x="299" 
d="M198 560v-418c0 -15 8 -22 24 -22h54v-130h-57c-43 0 -79 15 -109 44c-29 30 -44 66 -44 108v418h132zM176 765h125l-101 -131h-126z" />
    <glyph glyph-name="icircumflex" unicode="&#xee;" horiz-adv-x="299" 
d="M198 560v-418c0 -15 8 -22 24 -22h54v-130h-57c-43 0 -79 15 -109 44c-29 30 -44 66 -44 108v418h132zM93 795h77l134 -158h-115l-56 73h-3l-57 -73h-114z" />
    <glyph glyph-name="idieresis" unicode="&#xef;" horiz-adv-x="299" 
d="M49 627c-35 0 -64 28 -64 63c0 36 29 67 64 67c36 0 66 -31 66 -67c0 -35 -30 -63 -66 -63zM217 627c-36 0 -65 28 -65 63c0 36 29 67 65 67c33 0 63 -31 63 -67c0 -35 -30 -63 -63 -63zM198 560v-418c0 -15 8 -22 24 -22h54v-130h-57c-43 0 -79 15 -109 44
c-29 30 -44 66 -44 108v418h132z" />
    <glyph glyph-name="eth" unicode="&#xf0;" horiz-adv-x="524" 
d="M456 585h57v-120h-57v-340c0 -37 -13 -68 -39 -95c-26 -26 -57 -39 -94 -39h-138c-37 0 -68 13 -94 39c-26 27 -39 58 -39 95v176c0 37 13 68 39 94s57 39 94 39h141v31h-76v120h76v62c0 9 -1 9 -9 9h-131c-3 0 -5 -2 -5 -6v-81h-130v90c0 35 12 65 37 90s56 37 91 37
h138c39 0 72 -13 99 -40s40 -60 40 -99v-62zM326 135v155c0 9 -3 14 -8 14h-128c-5 0 -8 -4 -8 -13v-156c0 -9 3 -13 8 -13h128c5 0 8 4 8 13z" />
    <glyph glyph-name="ntilde" unicode="&#xf1;" 
d="M137 624l-5 111c17 21 38 31 62 31c17 0 40 -6 69 -18c30 -11 53 -17 68 -17c20 0 39 9 56 28l5 -111c-18 -21 -38 -32 -61 -32c-17 0 -40 6 -70 17c-29 12 -52 18 -67 18c-21 0 -40 -9 -57 -27zM191 560v-47c84 37 144 56 179 56c53 0 96 -43 96 -96v-473h-130v407
c0 12 -3 18 -10 18l-135 -42v-383h-130v560h130z" />
    <glyph glyph-name="ograve" unicode="&#xf2;" horiz-adv-x="507" 
d="M51 123v314c0 37 13 68 38 94c26 26 58 39 95 39h139c37 0 68 -13 94 -39s39 -57 39 -94v-314c0 -37 -13 -68 -39 -94s-57 -39 -94 -39h-139c-37 0 -68 13 -94 39s-39 57 -39 94zM181 427v-294c0 -9 3 -13 10 -13h125c7 0 10 4 10 13v294c0 9 -3 13 -10 13h-125
c-7 0 -10 -4 -10 -13zM88 765h126l101 -131h-125z" />
    <glyph glyph-name="oacute" unicode="&#xf3;" horiz-adv-x="507" 
d="M51 123v314c0 37 13 68 38 94c26 26 58 39 95 39h139c37 0 68 -13 94 -39s39 -57 39 -94v-314c0 -37 -13 -68 -39 -94s-57 -39 -94 -39h-139c-37 0 -68 13 -94 39s-39 57 -39 94zM181 427v-294c0 -9 3 -13 10 -13h125c7 0 10 4 10 13v294c0 9 -3 13 -10 13h-125
c-7 0 -10 -4 -10 -13zM298 765h125l-101 -131h-126z" />
    <glyph glyph-name="ocircumflex" unicode="&#xf4;" horiz-adv-x="507" 
d="M51 123v314c0 37 13 68 38 94c26 26 58 39 95 39h139c37 0 68 -13 94 -39s39 -57 39 -94v-314c0 -37 -13 -68 -39 -94s-57 -39 -94 -39h-139c-37 0 -68 13 -94 39s-39 57 -39 94zM181 427v-294c0 -9 3 -13 10 -13h125c7 0 10 4 10 13v294c0 9 -3 13 -10 13h-125
c-7 0 -10 -4 -10 -13zM214 795h77l134 -158h-115l-56 73h-3l-57 -73h-114z" />
    <glyph glyph-name="otilde" unicode="&#xf5;" horiz-adv-x="507" 
d="M51 123v314c0 37 13 68 38 94c26 26 58 39 95 39h139c37 0 68 -13 94 -39s39 -57 39 -94v-314c0 -37 -13 -68 -39 -94s-57 -39 -94 -39h-139c-37 0 -68 13 -94 39s-39 57 -39 94zM181 427v-294c0 -9 3 -13 10 -13h125c7 0 10 4 10 13v294c0 9 -3 13 -10 13h-125
c-7 0 -10 -4 -10 -13zM129 624l-5 111c17 21 38 31 62 31c17 0 40 -6 69 -18c30 -11 53 -17 68 -17c20 0 39 9 56 28l5 -111c-18 -21 -38 -32 -61 -32c-17 0 -40 6 -70 17c-29 12 -52 18 -67 18c-21 0 -40 -9 -57 -27z" />
    <glyph glyph-name="odieresis" unicode="&#xf6;" horiz-adv-x="507" 
d="M170 627c-35 0 -64 28 -64 63c0 36 29 67 64 67c36 0 66 -31 66 -67c0 -35 -30 -63 -66 -63zM338 627c-36 0 -65 28 -65 63c0 36 29 67 65 67c33 0 63 -31 63 -67c0 -35 -28 -63 -63 -63zM51 123v314c0 37 13 68 38 94c26 26 58 39 95 39h139c37 0 68 -13 94 -39
s39 -57 39 -94v-314c0 -37 -13 -68 -39 -94s-57 -39 -94 -39h-139c-37 0 -68 13 -94 39s-39 57 -39 94zM181 427v-294c0 -9 3 -13 10 -13h125c7 0 10 4 10 13v294c0 9 -3 13 -10 13h-125c-7 0 -10 -4 -10 -13z" />
    <glyph glyph-name="divide" unicode="&#xf7;" horiz-adv-x="525" 
d="M194 511c0 37 31 69 68 69s69 -32 69 -69s-32 -68 -69 -68s-68 29 -68 68zM438 416v-129h-350v129h350zM214 242c27 28 69 28 96 0c28 -27 28 -69 0 -96c-27 -27 -69 -27 -96 0s-27 69 0 96z" />
    <glyph glyph-name="oslash" unicode="&#xf8;" horiz-adv-x="535" 
d="M484 590l-38 -72c18 -23 27 -50 27 -81v-314c0 -37 -13 -68 -39 -94s-57 -39 -94 -39h-139c-9 0 -18 1 -27 3l-11 -24h-112l39 81c-15 22 -22 46 -22 73v314c0 37 13 68 39 94s57 39 94 39h139c5 0 12 -1 20 -2l13 22h111zM302 440h-94c-7 0 -10 -4 -10 -13v-191z
M245 120h88c7 0 10 4 10 13v180z" />
    <glyph glyph-name="ugrave" unicode="&#xf9;" 
d="M331 0v47c-84 -37 -144 -56 -179 -56c-53 0 -96 43 -96 96v473h130v-407c0 -12 3 -18 10 -18l135 42v383h130v-560h-130zM77 765h126l101 -131h-125z" />
    <glyph glyph-name="uacute" unicode="&#xfa;" 
d="M331 0v47c-84 -37 -144 -56 -179 -56c-53 0 -96 43 -96 96v473h130v-407c0 -12 3 -18 10 -18l135 42v383h130v-560h-130zM287 765h125l-101 -131h-126z" />
    <glyph glyph-name="ucircumflex" unicode="&#xfb;" 
d="M331 0v47c-84 -37 -144 -56 -179 -56c-53 0 -96 43 -96 96v473h130v-407c0 -12 3 -18 10 -18l135 42v383h130v-560h-130zM204 795h77l134 -158h-115l-56 73h-3l-57 -73h-114z" />
    <glyph glyph-name="udieresis" unicode="&#xfc;" 
d="M159 627c-35 0 -64 28 -64 63c0 36 29 67 64 67c36 0 66 -31 66 -67c0 -35 -30 -63 -66 -63zM327 627c-36 0 -65 28 -65 63c0 36 29 67 65 67c33 0 63 -31 63 -67c0 -35 -30 -63 -63 -63zM331 0v47c-84 -37 -144 -56 -179 -56c-53 0 -96 43 -96 96v473h130v-407
c0 -12 3 -18 10 -18l135 42v383h130v-560h-130z" />
    <glyph glyph-name="yacute" unicode="&#xfd;" horiz-adv-x="477" 
d="M283 765h125l-101 -131h-126zM151 559l59 -433c2 -7 4 -11 6 -11h48c5 0 7 5 8 14l58 430h130l-113 -715h-124l22 145h-92c-20 0 -40 17 -43 34l-92 536h133z" />
    <glyph glyph-name="thorn" unicode="&#xfe;" horiz-adv-x="517" 
d="M191 764v-251l36 13l44 16c36 13 90 28 108 28c53 0 87 -37 86 -97v-350c0 -37 -13 -69 -39 -95c-25 -26 -56 -39 -93 -38h-142v-137h-130v911h130zM335 133v277v2c0 8 -3 12 -10 12s-52 -13 -134 -40v-251c1 -10 6 -15 13 -15h118c9 0 13 5 13 15z" />
    <glyph glyph-name="ydieresis" unicode="&#xff;" horiz-adv-x="477" 
d="M156 627c-35 0 -64 28 -64 63c0 36 29 67 64 67c36 0 66 -31 66 -67c0 -35 -30 -63 -66 -63zM324 627c-36 0 -65 28 -65 63c0 36 29 67 65 67c33 0 63 -31 63 -67c0 -35 -28 -63 -63 -63zM151 559l59 -433c2 -7 4 -11 6 -11h48c5 0 7 5 8 14l58 430h130l-113 -715h-124
l22 145h-92c-20 0 -40 17 -43 34l-92 536h133z" />
    <glyph glyph-name="Amacron" unicode="&#x100;" horiz-adv-x="568" 
d="M395 174h-221l-26 -174h-130l125 766c3 17 23 34 43 34h197c20 0 40 -17 43 -34l125 -766h-130zM376 304l-53 355c-2 7 -5 11 -9 11h-60c-5 0 -7 -4 -8 -11l-53 -355h183zM175 976h220v-99h-220v99z" />
    <glyph glyph-name="amacron" unicode="&#x101;" horiz-adv-x="491" 
d="M31 86v103c0 55 12 93 33 113c23 21 37 27 66 36l175 27v51c0 15 -8 23 -24 23h-73c-17 0 -25 -8 -25 -23v-18h-130v38c0 42 15 75 45 98c31 24 66 36 106 36h80c40 0 75 -12 105 -36c31 -23 46 -56 46 -97v-437h-130v47c-83 -38 -143 -57 -178 -57c-53 0 -96 43 -96 96z
M161 174v-28c0 -11 4 -17 11 -17l133 41v89l-124 -21c-13 -8 -20 -29 -20 -64zM136 736h220v-99h-220v99z" />
    <glyph glyph-name="Abreve" unicode="&#x102;" horiz-adv-x="568" 
d="M395 174h-221l-26 -174h-130l125 766c3 17 23 34 43 34h197c20 0 40 -17 43 -34l125 -766h-130zM376 304l-53 355c-2 7 -5 11 -9 11h-60c-5 0 -7 -4 -8 -11l-53 -355h183zM307 990h74c0 -53 -43 -96 -96 -96s-96 43 -96 96h75c0 -13 7 -20 21 -20c15 0 22 7 22 20z" />
    <glyph glyph-name="abreve" unicode="&#x103;" horiz-adv-x="491" 
d="M31 86v103c0 55 12 93 33 113c23 21 37 27 66 36l175 27v51c0 15 -8 23 -24 23h-73c-17 0 -25 -8 -25 -23v-18h-130v38c0 42 15 75 45 98c31 24 66 36 106 36h80c40 0 75 -12 105 -36c31 -23 46 -56 46 -97v-437h-130v47c-83 -38 -143 -57 -178 -57c-53 0 -96 43 -96 96z
M161 174v-28c0 -11 4 -17 11 -17l133 41v89l-124 -21c-13 -8 -20 -29 -20 -64zM268 750h74c0 -53 -43 -96 -96 -96s-96 43 -96 96h75c0 -13 7 -20 21 -20c15 0 22 7 22 20z" />
    <glyph glyph-name="Aogonek" unicode="&#x104;" horiz-adv-x="568" 
d="M573 -41l48 -64c-37 -32 -76 -48 -117 -48c-69 0 -111 43 -111 111c0 23 8 46 24 67l-22 149h-221l-26 -174h-130l125 766c3 17 23 34 43 34h197c20 0 40 -17 43 -34l125 -766h-1c-27 0 -57 -14 -57 -38c0 -17 9 -25 27 -25c11 0 29 7 53 22zM193 304h183l-53 355
c-2 7 -5 11 -9 11h-60c-5 0 -7 -4 -8 -11z" />
    <glyph glyph-name="aogonek" unicode="&#x105;" horiz-adv-x="491" 
d="M458 -41l48 -64c-37 -32 -76 -48 -117 -48c-69 0 -111 43 -111 111c0 25 9 49 27 71v18c-83 -38 -143 -57 -178 -57c-53 0 -96 43 -96 96v103c0 55 12 93 33 113c23 21 37 27 66 36l175 27v51c0 15 -8 23 -24 23h-73c-17 0 -25 -8 -25 -23v-18h-130v38c0 42 15 75 45 98
c31 24 66 36 106 36h80c40 0 75 -12 105 -36c31 -23 46 -56 46 -97v-437c-27 0 -57 -14 -57 -38c0 -17 9 -25 27 -25c11 0 29 7 53 22zM161 174v-28c0 -11 4 -17 11 -17l133 41v89l-124 -21c-13 -8 -20 -29 -20 -64z" />
    <glyph glyph-name="Cacute" unicode="&#x106;" horiz-adv-x="545" 
d="M56 134v528c0 40 14 74 42 102s62 42 102 42h150c40 0 74 -14 102 -42s42 -62 42 -102v-126h-130v124c0 11 -5 16 -15 16h-148c-10 0 -15 -5 -15 -16v-525c0 -10 5 -15 14 -15h153c7 0 11 5 11 15v157h130v-158c0 -40 -14 -74 -42 -102s-62 -42 -102 -42h-150
c-40 0 -74 14 -102 42s-42 62 -42 102zM317 1005h125l-101 -131h-126z" />
    <glyph glyph-name="cacute" unicode="&#x107;" horiz-adv-x="481" 
d="M51 123v314c0 37 13 68 38 94c26 26 58 39 95 39h139c37 0 68 -13 94 -39s39 -57 39 -94v-75h-130v66c0 8 -3 12 -9 12h-127c-6 0 -9 -4 -9 -12v-295c0 -9 3 -13 9 -13h127c6 0 9 4 9 13v62h130v-72c0 -37 -13 -68 -39 -94s-57 -39 -94 -39h-139c-37 0 -68 13 -94 39
s-39 57 -39 94zM286 765h125l-101 -131h-126z" />
    <glyph glyph-name="Ccircumflex" unicode="&#x108;" horiz-adv-x="545" 
d="M56 134v528c0 40 14 74 42 102s62 42 102 42h150c40 0 74 -14 102 -42s42 -62 42 -102v-126h-130v124c0 11 -5 16 -15 16h-148c-10 0 -15 -5 -15 -16v-525c0 -10 5 -15 14 -15h153c7 0 11 5 11 15v157h130v-158c0 -40 -14 -74 -42 -102s-62 -42 -102 -42h-150
c-40 0 -74 14 -102 42s-42 62 -42 102zM234 1035h77l134 -158h-115l-56 73h-3l-57 -73h-114z" />
    <glyph glyph-name="ccircumflex" unicode="&#x109;" horiz-adv-x="481" 
d="M51 123v314c0 37 13 68 38 94c26 26 58 39 95 39h139c37 0 68 -13 94 -39s39 -57 39 -94v-75h-130v66c0 8 -3 12 -9 12h-127c-6 0 -9 -4 -9 -12v-295c0 -9 3 -13 9 -13h127c6 0 9 4 9 13v62h130v-72c0 -37 -13 -68 -39 -94s-57 -39 -94 -39h-139c-37 0 -68 13 -94 39
s-39 57 -39 94zM202 795h77l134 -158h-115l-56 73h-3l-57 -73h-114z" />
    <glyph glyph-name="Cdotaccent" unicode="&#x10a;" horiz-adv-x="545" 
d="M56 134v528c0 40 14 74 42 102s62 42 102 42h150c40 0 74 -14 102 -42s42 -62 42 -102v-126h-130v124c0 11 -5 16 -15 16h-148c-10 0 -15 -5 -15 -16v-525c0 -10 5 -15 14 -15h153c7 0 11 5 11 15v157h130v-158c0 -40 -14 -74 -42 -102s-62 -42 -102 -42h-150
c-40 0 -74 14 -102 42s-42 62 -42 102zM205 926c0 39 31 70 68 70s69 -33 69 -70s-32 -68 -69 -68s-68 31 -68 68z" />
    <glyph glyph-name="cdotaccent" unicode="&#x10b;" horiz-adv-x="481" 
d="M51 123v314c0 37 13 68 38 94c26 26 58 39 95 39h139c37 0 68 -13 94 -39s39 -57 39 -94v-75h-130v66c0 8 -3 12 -9 12h-127c-6 0 -9 -4 -9 -12v-295c0 -9 3 -13 9 -13h127c6 0 9 4 9 13v62h130v-72c0 -37 -13 -68 -39 -94s-57 -39 -94 -39h-139c-37 0 -68 13 -94 39
s-39 57 -39 94zM173 686c0 39 31 70 68 70s69 -33 69 -70s-32 -68 -69 -68s-68 31 -68 68z" />
    <glyph glyph-name="Ccaron" unicode="&#x10c;" horiz-adv-x="545" 
d="M56 134v528c0 40 14 74 42 102s62 42 102 42h150c40 0 74 -14 102 -42s42 -62 42 -102v-126h-130v124c0 11 -5 16 -15 16h-148c-10 0 -15 -5 -15 -16v-525c0 -10 5 -15 14 -15h153c7 0 11 5 11 15v157h130v-158c0 -40 -14 -74 -42 -102s-62 -42 -102 -42h-150
c-40 0 -74 14 -102 42s-42 62 -42 102zM102 1014h115l52 -58h3l52 58h115l-134 -158h-69z" />
    <glyph glyph-name="ccaron" unicode="&#x10d;" horiz-adv-x="481" 
d="M51 123v314c0 37 13 68 38 94c26 26 58 39 95 39h139c37 0 68 -13 94 -39s39 -57 39 -94v-75h-130v66c0 8 -3 12 -9 12h-127c-6 0 -9 -4 -9 -12v-295c0 -9 3 -13 9 -13h127c6 0 9 4 9 13v62h130v-72c0 -37 -13 -68 -39 -94s-57 -39 -94 -39h-139c-37 0 -68 13 -94 39
s-39 57 -39 94zM70 774h115l52 -58h3l52 58h115l-134 -158h-69z" />
    <glyph glyph-name="Dcaron" unicode="&#x10e;" horiz-adv-x="565" 
d="M71 800h294c41 0 75 -13 102 -40c28 -26 42 -59 42 -98v-518c0 -40 -14 -74 -42 -102s-62 -42 -102 -42h-294v800zM201 130h164c11 0 14 3 14 14v513c0 9 -5 13 -14 13h-164v-540zM112 1014h115l52 -58h3l52 58h115l-134 -158h-69z" />
    <glyph glyph-name="dcaron" unicode="&#x10f;" horiz-adv-x="626" 
d="M627 766v-169h-115v169h115zM457 707v-707h-130v47l-36 -13l-44 -16c-36 -13 -90 -28 -108 -28c-53 0 -87 37 -86 97v350c0 37 13 69 38 95c26 26 57 39 94 38h142v132h-1v62h130v-57h1zM327 176v251c-1 10 -6 15 -13 15h-118c-9 0 -13 -5 -13 -15v-277v-2
c0 -8 3 -12 10 -12s52 13 134 40z" />
    <glyph glyph-name="Dcroat" unicode="&#x110;" horiz-adv-x="565" 
d="M71 800h294c41 0 75 -13 102 -40c28 -26 42 -59 42 -98v-518c0 -40 -14 -74 -42 -102s-62 -42 -102 -42h-294v368h-51v129h51v303zM379 144v513c0 9 -5 13 -14 13h-164v-173h94v-129h-94v-238h164c11 0 14 3 14 14z" />
    <glyph glyph-name="dslash" unicode="&#x111;" horiz-adv-x="517" 
d="M518 714v-114h-61v-600h-130v47l-36 -13l-44 -16c-36 -13 -90 -28 -108 -28c-53 0 -87 37 -86 97v350c0 37 13 69 38 95c26 26 57 39 94 38h142v30h-132v114h131v50h130v-50h62zM327 176v251c-1 10 -6 15 -13 15h-118c-9 0 -13 -5 -13 -15v-277v-2c0 -8 3 -12 10 -12
s52 13 134 40z" />
    <glyph glyph-name="Emacron" unicode="&#x112;" horiz-adv-x="484" 
d="M449 800v-130h-248v-194h221v-130h-221v-216h248v-130h-378v800h378zM157 976h220v-99h-220v99z" />
    <glyph glyph-name="emacron" unicode="&#x113;" horiz-adv-x="491" 
d="M51 123v314c0 37 13 68 38 94c26 26 58 39 95 39h139c37 0 68 -13 94 -39s39 -57 39 -94v-200h-275v-104c0 -9 3 -13 9 -13h127c6 0 9 4 9 13v62h130v-72c0 -37 -13 -68 -39 -94s-57 -39 -94 -39h-139c-37 0 -69 13 -95 39c-25 26 -38 57 -38 94zM326 337v90
c0 9 -3 13 -9 13h-127c-6 0 -9 -4 -9 -13v-90h145zM137 736h220v-99h-220v99z" />
    <glyph glyph-name="Ebreve" unicode="&#x114;" horiz-adv-x="484" 
d="M449 800v-130h-248v-194h221v-130h-221v-216h248v-130h-378v800h378zM289 990h74c0 -53 -43 -96 -96 -96s-96 43 -96 96h75c0 -13 7 -20 21 -20c15 0 22 7 22 20z" />
    <glyph glyph-name="ebreve" unicode="&#x115;" horiz-adv-x="491" 
d="M51 123v314c0 37 13 68 38 94c26 26 58 39 95 39h139c37 0 68 -13 94 -39s39 -57 39 -94v-200h-275v-104c0 -9 3 -13 9 -13h127c6 0 9 4 9 13v62h130v-72c0 -37 -13 -68 -39 -94s-57 -39 -94 -39h-139c-37 0 -69 13 -95 39c-25 26 -38 57 -38 94zM326 337v90
c0 9 -3 13 -9 13h-127c-6 0 -9 -4 -9 -13v-90h145zM269 750h74c0 -53 -43 -96 -96 -96s-96 43 -96 96h75c0 -13 7 -20 21 -20c15 0 22 7 22 20z" />
    <glyph glyph-name="Edotaccent" unicode="&#x116;" horiz-adv-x="484" 
d="M449 800v-130h-248v-194h221v-130h-221v-216h248v-130h-378v800h378zM199 926c0 39 31 70 68 70s69 -33 69 -70s-32 -68 -69 -68s-68 31 -68 68z" />
    <glyph glyph-name="edotaccent" unicode="&#x117;" horiz-adv-x="491" 
d="M51 123v314c0 37 13 68 38 94c26 26 58 39 95 39h139c37 0 68 -13 94 -39s39 -57 39 -94v-200h-275v-104c0 -9 3 -13 9 -13h127c6 0 9 4 9 13v62h130v-72c0 -37 -13 -68 -39 -94s-57 -39 -94 -39h-139c-37 0 -69 13 -95 39c-25 26 -38 57 -38 94zM326 337v90
c0 9 -3 13 -9 13h-127c-6 0 -9 -4 -9 -13v-90h145zM178 686c0 39 31 70 68 70s69 -33 69 -70s-32 -68 -69 -68s-68 31 -68 68z" />
    <glyph glyph-name="Eogonek" unicode="&#x118;" horiz-adv-x="484" 
d="M472 -41l48 -64c-37 -32 -76 -48 -117 -48c-69 0 -111 43 -111 111c0 15 3 29 9 42h-230v800h378v-130h-248v-194h221v-130h-221v-216h248v-130c-27 0 -57 -14 -57 -38c0 -17 9 -25 27 -25c11 0 29 7 53 22z" />
    <glyph glyph-name="eogonek" unicode="&#x119;" horiz-adv-x="491" 
d="M456 237h-275v-104c0 -9 3 -13 9 -13h127c6 0 9 4 9 13v62h130v-72c0 -37 -13 -68 -39 -94s-57 -39 -94 -39c-27 0 -57 -14 -57 -38c0 -17 9 -25 27 -25c11 0 29 7 53 22l48 -64c-37 -32 -76 -48 -117 -48c-69 0 -111 43 -111 111c0 15 3 29 9 42c-35 3 -65 17 -89 42
c-23 25 -35 56 -35 91v314c0 37 13 68 38 94c26 26 58 39 95 39h139c37 0 68 -13 94 -39s39 -57 39 -94v-200zM181 427v-90h145v90c0 9 -3 13 -9 13h-127c-6 0 -9 -4 -9 -13z" />
    <glyph glyph-name="Ecaron" unicode="&#x11a;" horiz-adv-x="484" 
d="M449 800v-130h-248v-194h221v-130h-221v-216h248v-130h-378v800h378zM96 1014h115l52 -58h3l52 58h115l-134 -158h-69z" />
    <glyph glyph-name="ecaron" unicode="&#x11b;" horiz-adv-x="491" 
d="M51 123v314c0 37 13 68 38 94c26 26 58 39 95 39h139c37 0 68 -13 94 -39s39 -57 39 -94v-200h-275v-104c0 -9 3 -13 9 -13h127c6 0 9 4 9 13v62h130v-72c0 -37 -13 -68 -39 -94s-57 -39 -94 -39h-139c-37 0 -69 13 -95 39c-25 26 -38 57 -38 94zM326 337v90
c0 9 -3 13 -9 13h-127c-6 0 -9 -4 -9 -13v-90h145zM75 774h115l52 -58h3l52 58h115l-134 -158h-69z" />
    <glyph glyph-name="Gcircumflex" unicode="&#x11c;" horiz-adv-x="539" 
d="M56 134v528c0 40 14 74 42 102s62 42 102 42h145c40 0 74 -14 102 -42s42 -62 42 -102v-126h-130v124c0 11 -5 16 -15 16h-143c-10 0 -15 -5 -15 -16v-522c0 -12 6 -18 17 -18h138c12 0 18 6 18 19v163h-109v130h239v-298c0 -40 -14 -74 -42 -102s-62 -42 -102 -42h-145
c-40 0 -74 14 -102 42s-42 62 -42 102zM231 1035h77l134 -158h-115l-56 73h-3l-57 -73h-114z" />
    <glyph glyph-name="gcircumflex" unicode="&#x11d;" horiz-adv-x="512" 
d="M184 571h139c37 0 68 -13 94 -39s39 -57 39 -94v-463c0 -37 -13 -68 -38 -93s-57 -38 -94 -38h-139c-37 0 -68 13 -94 39s-39 57 -39 94v34h130v-24c0 -9 3 -13 9 -13h127c6 0 9 4 9 13v142l-34 -17c-21 -9 -47 -19 -77 -30s-53 -16 -69 -16c-53 0 -96 43 -96 96v276
c0 37 13 68 39 94s57 39 94 39zM326 269v159c0 9 -3 13 -9 13h-127c-6 0 -9 -4 -9 -13v-201c0 -13 6 -20 17 -20c5 0 18 5 39 15c21 11 42 21 61 32zM214 795h77l134 -158h-115l-56 73h-3l-57 -73h-114z" />
    <glyph glyph-name="Gbreve" unicode="&#x11e;" horiz-adv-x="539" 
d="M56 134v528c0 40 14 74 42 102s62 42 102 42h145c40 0 74 -14 102 -42s42 -62 42 -102v-126h-130v124c0 11 -5 16 -15 16h-143c-10 0 -15 -5 -15 -16v-522c0 -12 6 -18 17 -18h138c12 0 18 6 18 19v163h-109v130h239v-298c0 -40 -14 -74 -42 -102s-62 -42 -102 -42h-145
c-40 0 -74 14 -102 42s-42 62 -42 102zM293 990h74c0 -53 -43 -96 -96 -96s-96 43 -96 96h75c0 -13 7 -20 21 -20c15 0 22 7 22 20z" />
    <glyph glyph-name="gbreve" unicode="&#x11f;" horiz-adv-x="512" 
d="M184 571h139c37 0 68 -13 94 -39s39 -57 39 -94v-463c0 -37 -13 -68 -38 -93s-57 -38 -94 -38h-139c-37 0 -68 13 -94 39s-39 57 -39 94v34h130v-24c0 -9 3 -13 9 -13h127c6 0 9 4 9 13v142l-34 -17c-21 -9 -47 -19 -77 -30s-53 -16 -69 -16c-53 0 -96 43 -96 96v276
c0 37 13 68 39 94s57 39 94 39zM326 269v159c0 9 -3 13 -9 13h-127c-6 0 -9 -4 -9 -13v-201c0 -13 6 -20 17 -20c5 0 18 5 39 15c21 11 42 21 61 32zM276 750h74c0 -53 -43 -96 -96 -96s-96 43 -96 96h75c0 -13 7 -20 21 -20c15 0 22 7 22 20z" />
    <glyph glyph-name="Gdotaccent" unicode="&#x120;" horiz-adv-x="539" 
d="M56 134v528c0 40 14 74 42 102s62 42 102 42h145c40 0 74 -14 102 -42s42 -62 42 -102v-126h-130v124c0 11 -5 16 -15 16h-143c-10 0 -15 -5 -15 -16v-522c0 -12 6 -18 17 -18h138c12 0 18 6 18 19v163h-109v130h239v-298c0 -40 -14 -74 -42 -102s-62 -42 -102 -42h-145
c-40 0 -74 14 -102 42s-42 62 -42 102zM202 926c0 39 31 70 68 70s69 -33 69 -70s-32 -68 -69 -68s-68 31 -68 68z" />
    <glyph glyph-name="gdotaccent" unicode="&#x121;" horiz-adv-x="512" 
d="M184 571h139c37 0 68 -13 94 -39s39 -57 39 -94v-463c0 -37 -13 -68 -38 -93s-57 -38 -94 -38h-139c-37 0 -68 13 -94 39s-39 57 -39 94v34h130v-24c0 -9 3 -13 9 -13h127c6 0 9 4 9 13v142l-34 -17c-21 -9 -47 -19 -77 -30s-53 -16 -69 -16c-53 0 -96 43 -96 96v276
c0 37 13 68 39 94s57 39 94 39zM326 269v159c0 9 -3 13 -9 13h-127c-6 0 -9 -4 -9 -13v-201c0 -13 6 -20 17 -20c5 0 18 5 39 15c21 11 42 21 61 32zM185 686c0 39 31 70 68 70s69 -33 69 -70s-32 -68 -69 -68s-68 31 -68 68z" />
    <glyph glyph-name="Gcommaaccent" unicode="&#x122;" horiz-adv-x="539" 
d="M56 134v528c0 40 14 74 42 102s62 42 102 42h145c40 0 74 -14 102 -42s42 -62 42 -102v-126h-130v124c0 11 -5 16 -15 16h-143c-10 0 -15 -5 -15 -16v-522c0 -12 6 -18 17 -18h138c12 0 18 6 18 19v163h-109v130h239v-298c0 -40 -14 -74 -42 -102s-62 -42 -102 -42h-145
c-40 0 -74 14 -102 42s-42 62 -42 102zM328 -42v-168h-120v168h120z" />
    <glyph glyph-name="gcommaaccent" unicode="&#x123;" horiz-adv-x="512" 
d="M195 632v168h120v-168h-120zM184 571h139c37 0 68 -13 94 -39s39 -57 39 -94v-463c0 -37 -13 -68 -38 -93s-57 -38 -94 -38h-139c-37 0 -68 13 -94 39s-39 57 -39 94v34h130v-24c0 -9 3 -13 9 -13h127c6 0 9 4 9 13v142l-34 -17c-21 -9 -47 -19 -77 -30s-53 -16 -69 -16
c-53 0 -96 43 -96 96v276c0 37 13 68 39 94s57 39 94 39zM326 269v159c0 9 -3 13 -9 13h-127c-6 0 -9 -4 -9 -13v-201c0 -13 6 -20 17 -20c5 0 18 5 39 15c21 11 42 21 61 32z" />
    <glyph glyph-name="Hcircumflex" unicode="&#x124;" horiz-adv-x="577" 
d="M201 800v-294h175v294h130v-800h-130v378h-175v-378h-130v800h130zM253 1035h77l134 -158h-115l-56 73h-3l-57 -73h-114z" />
    <glyph glyph-name="hcircumflex" unicode="&#x125;" 
d="M191 765v-252c84 37 144 56 179 56c53 0 96 -43 96 -96v-473h-130v407c0 12 -3 18 -10 18l-135 -42v-383h-130v765h130zM97 1035h77l134 -158h-115l-56 73h-3l-57 -73h-114z" />
    <glyph glyph-name="Hbar" unicode="&#x126;" horiz-adv-x="575" 
d="M555 730v-128h-50v-602h-130v378h-175v-378h-130v602h-50v128h50v70h130v-70h175v70h130v-70h50zM375 506v96h-175v-96h175z" />
    <glyph glyph-name="hbar" unicode="&#x127;" 
d="M191 600v-87c84 37 144 56 179 56c53 0 96 -43 96 -96v-473h-130v407c0 12 -3 18 -10 18l-135 -42v-383h-130v600h-61v114h61v51h130v-51h131v-114h-131z" />
    <glyph glyph-name="Itilde" unicode="&#x128;" horiz-adv-x="282" 
d="M17 864l-5 111c17 21 38 31 62 31c17 0 40 -6 69 -18c30 -11 53 -17 68 -17c20 0 39 9 56 28l5 -111c-18 -21 -38 -32 -61 -32c-17 0 -40 6 -70 17c-29 12 -52 18 -67 18c-21 0 -40 -9 -57 -27zM206 800v-800h-130v800h130z" />
    <glyph glyph-name="itilde" unicode="&#x129;" horiz-adv-x="299" 
d="M8 624l-5 111c17 21 38 31 62 31c17 0 40 -6 69 -18c30 -11 53 -17 68 -17c20 0 39 9 56 28l5 -111c-18 -21 -38 -32 -61 -32c-17 0 -40 6 -70 17c-29 12 -52 18 -67 18c-21 0 -40 -9 -57 -27zM198 560v-418c0 -15 8 -22 24 -22h54v-130h-57c-43 0 -79 15 -109 44
c-29 30 -44 66 -44 108v418h132z" />
    <glyph glyph-name="Imacron" unicode="&#x12a;" horiz-adv-x="282" 
d="M206 800v-800h-130v800h130zM32 976h220v-99h-220v99z" />
    <glyph glyph-name="imacron" unicode="&#x12b;" horiz-adv-x="299" 
d="M198 560v-418c0 -15 8 -22 24 -22h54v-130h-57c-43 0 -79 15 -109 44c-29 30 -44 66 -44 108v418h132zM23 736h220v-99h-220v99z" />
    <glyph glyph-name="Ibreve" unicode="&#x12c;" horiz-adv-x="282" 
d="M164 990h74c0 -53 -43 -96 -96 -96s-96 43 -96 96h75c0 -13 7 -20 21 -20c15 0 22 7 22 20zM206 800v-800h-130v800h130z" />
    <glyph glyph-name="ibreve" unicode="&#x12d;" horiz-adv-x="299" 
d="M198 560v-418c0 -15 8 -22 24 -22h54v-130h-57c-43 0 -79 15 -109 44c-29 30 -44 66 -44 108v418h132zM155 750h74c0 -53 -43 -96 -96 -96s-96 43 -96 96h75c0 -13 7 -20 21 -20c15 0 22 7 22 20z" />
    <glyph glyph-name="Iogonek" unicode="&#x12e;" horiz-adv-x="282" 
d="M229 -41l48 -64c-37 -32 -76 -48 -117 -48c-69 0 -111 43 -111 111c0 25 9 49 27 71v771h130v-800c-27 0 -57 -14 -57 -38c0 -17 9 -25 27 -25c11 0 29 7 53 22z" />
    <glyph glyph-name="iogonek" unicode="&#x12f;" horiz-adv-x="299" 
d="M196 765v-106h-130v106h130zM299 -51l48 -64c-37 -32 -76 -48 -117 -48c-69 0 -111 43 -111 111c0 21 7 42 21 63c-45 28 -74 76 -74 131v418h132v-418c0 -15 8 -22 24 -22h54v-130c-27 0 -57 -14 -57 -38c0 -17 9 -25 27 -25c11 0 29 7 53 22z" />
    <glyph glyph-name="Idot" unicode="&#x130;" horiz-adv-x="282" 
d="M73 926c0 39 31 70 68 70s69 -33 69 -70s-32 -68 -69 -68s-68 31 -68 68zM206 800v-800h-130v800h130z" />
    <glyph glyph-name="dotlessi" unicode="&#x131;" horiz-adv-x="299" 
d="M198 560v-418c0 -15 8 -22 24 -22h54v-130h-57c-43 0 -79 15 -109 44c-29 30 -44 66 -44 108v418h132z" />
    <glyph glyph-name="IJ" unicode="&#x132;" horiz-adv-x="792" 
d="M302 292h130v-158c0 -11 3 -14 14 -14h146c11 0 14 3 14 14v666h130v-666c0 -40 -14 -74 -42 -102s-62 -42 -102 -42h-146c-40 0 -74 14 -102 42s-42 62 -42 102v158zM206 800v-800h-130v800h130z" />
    <glyph glyph-name="ij" unicode="&#x133;" horiz-adv-x="579" 
d="M196 765v-106h-130v106h130zM380 765h131v-106h-131v106zM198 560v-418c0 -15 8 -22 24 -22h54v-130h-57c-43 0 -79 15 -109 44c-29 30 -44 66 -44 108v418h132zM381 560h132v-565c0 -42 -15 -78 -45 -107c-30 -30 -66 -45 -108 -44h-74v130h71c16 -1 24 6 24 21v565z
" />
    <glyph glyph-name="Jcircumflex" unicode="&#x134;" horiz-adv-x="510" 
d="M150 292v-158c0 -11 3 -14 14 -14h146c11 0 14 3 14 14v666h130v-666c0 -40 -14 -74 -42 -102s-62 -42 -102 -42h-146c-40 0 -74 14 -102 42s-42 62 -42 102v158h130zM344 1035h77l134 -158h-115l-56 73h-3l-57 -73h-114z" />
    <glyph glyph-name="jcircumflex" unicode="&#x135;" horiz-adv-x="280" 
d="M109 795h77l134 -158h-115l-56 73h-3l-57 -73h-114zM214 560v-565c0 -42 -15 -78 -45 -107c-30 -30 -66 -45 -108 -44h-74v130h71c16 -1 24 6 24 21v565h132z" />
    <glyph glyph-name="Kcommaaccent" unicode="&#x136;" horiz-adv-x="595" 
d="M200 800v-294h89l158 294h137l-187 -354v-9l187 -437h-137l-158 377h-89v-377h-129v800h129zM368 -42v-168h-120v168h120z" />
    <glyph glyph-name="kcommaaccent" unicode="&#x137;" 
d="M521 0h-153l-120 238h-58v-238h-129v765h129v-399h58l111 194h145l-148 -254v-8zM329 -42v-168h-120v168h120z" />
    <glyph glyph-name="kgreenlandic" unicode="&#x138;" 
d="M61 560h129v-194h58l111 194h145l-148 -254v-8l165 -298h-153l-120 238h-58v-238h-129v560z" />
    <glyph glyph-name="Lacute" unicode="&#x139;" horiz-adv-x="454" 
d="M186 1005h125l-101 -131h-126zM200 800v-670h247v-130h-376v800h129z" />
    <glyph glyph-name="lacute" unicode="&#x13a;" horiz-adv-x="299" 
d="M176 1005h125l-101 -131h-126zM276 120v-130h-57c-43 0 -79 15 -109 44c-29 30 -44 66 -44 108v622h130v-204h2v-418c0 -15 8 -22 24 -22h54z" />
    <glyph glyph-name="Lcommaaccent" unicode="&#x13b;" horiz-adv-x="454" 
d="M200 800v-670h247v-130h-376v800h129zM288 -42v-168h-120v168h120z" />
    <glyph glyph-name="lcommaaccent" unicode="&#x13c;" horiz-adv-x="299" 
d="M276 120v-130h-57c-43 0 -79 15 -109 44c-29 30 -44 66 -44 108v622h130v-204h2v-418c0 -15 8 -22 24 -22h54zM222 -42v-168h-120v168h120z" />
    <glyph glyph-name="Lcaron" unicode="&#x13d;" horiz-adv-x="454" 
d="M200 800v-670h247v-130h-376v800h129zM409 766v-169h-115v169h115z" />
    <glyph glyph-name="lcaron" unicode="&#x13e;" horiz-adv-x="356" 
d="M372 766v-169h-115v169h115zM276 120v-130h-57c-43 0 -79 15 -109 44c-29 30 -44 66 -44 108v622h130v-204h2v-418c0 -15 8 -22 24 -22h54z" />
    <glyph glyph-name="Ldot" unicode="&#x13f;" horiz-adv-x="454" 
d="M200 800v-670h247v-130h-376v800h129zM352 392c-37 0 -68 31 -68 68s31 69 68 69s70 -32 70 -69s-31 -68 -70 -68z" />
    <glyph glyph-name="ldot" unicode="&#x140;" horiz-adv-x="362" 
d="M274 120v-130h-57c-43 0 -79 15 -109 44c-29 30 -44 66 -44 108v622h130v-204h2v-418c0 -15 8 -22 24 -22h54zM302 392c-37 0 -68 31 -68 68s31 69 68 69s70 -32 70 -69s-31 -68 -70 -68z" />
    <glyph glyph-name="Lslash" unicode="&#x141;" horiz-adv-x="454" 
d="M200 130h247v-130h-376v341l-60 -23v129l60 23v330h129v-279l67 26v-129l-67 -26v-262z" />
    <glyph glyph-name="lslash" unicode="&#x142;" horiz-adv-x="315" 
d="M221 120h54v-130h-57c-43 0 -79 15 -109 44c-29 30 -44 66 -44 108v194l-47 -18v129l47 18v299h130v-204h2v-43l77 30v-129l-77 -30v-246c0 -15 8 -22 24 -22z" />
    <glyph glyph-name="Nacute" unicode="&#x143;" horiz-adv-x="629" 
d="M296 800l127 -670h5v670h130v-800h-223l-129 670h-5v-670h-130v800h225zM360 1005h125l-101 -131h-126z" />
    <glyph glyph-name="nacute" unicode="&#x144;" 
d="M306 765h125l-101 -131h-126zM191 560v-47c84 37 144 56 179 56c53 0 96 -43 96 -96v-473h-130v407c0 12 -3 18 -10 18l-135 -42v-383h-130v560h130z" />
    <glyph glyph-name="Ncommaaccent" unicode="&#x145;" horiz-adv-x="629" 
d="M296 800l127 -670h5v670h130v-800h-223l-129 670h-5v-670h-130v800h225zM374 -42v-168h-120v168h120z" />
    <glyph glyph-name="ncommaaccent" unicode="&#x146;" 
d="M191 560v-47c84 37 144 56 179 56c53 0 96 -43 96 -96v-473h-130v407c0 12 -3 18 -10 18l-135 -42v-383h-130v560h130zM319 -42v-168h-120v168h120z" />
    <glyph glyph-name="Ncaron" unicode="&#x147;" horiz-adv-x="629" 
d="M296 800l127 -670h5v670h130v-800h-223l-129 670h-5v-670h-130v800h225zM144 1014h115l52 -58h3l52 58h115l-134 -158h-69z" />
    <glyph glyph-name="ncaron" unicode="&#x148;" 
d="M90 774h115l52 -58h3l52 58h115l-134 -158h-69zM191 560v-47c84 37 144 56 179 56c53 0 96 -43 96 -96v-473h-130v407c0 12 -3 18 -10 18l-135 -42v-383h-130v560h130z" />
    <glyph glyph-name="napostrophe" unicode="&#x149;" 
d="M62 766v-169h-115v169h115zM191 560v-47c84 37 144 56 179 56c53 0 96 -43 96 -96v-473h-130v407c0 12 -3 18 -10 18l-135 -42v-383h-130v560h130z" />
    <glyph glyph-name="Eng" unicode="&#x14a;" horiz-adv-x="629" 
d="M428 800h130v-805c0 -41 -15 -77 -45 -107c-29 -30 -65 -45 -106 -44h-92v130h89c16 -1 24 6 24 21v5h-93l-129 670h-5v-670h-130v800h225l127 -670h5v670z" />
    <glyph glyph-name="eng" unicode="&#x14b;" 
d="M191 560v-47c84 37 144 56 179 56c53 0 96 -43 96 -96v-478c-1 -42 -17 -78 -46 -107c-29 -30 -64 -45 -105 -44h-92v130h89c16 -1 24 6 24 21v412c0 12 -3 18 -10 18l-135 -42v-383h-130v560h130z" />
    <glyph glyph-name="Omacron" unicode="&#x14c;" horiz-adv-x="550" 
d="M56 134v528c0 40 14 74 42 102s62 42 102 42h150c40 0 74 -14 102 -42s42 -62 42 -102v-528c0 -40 -14 -74 -42 -102s-62 -42 -102 -42h-150c-40 0 -74 14 -102 42s-42 62 -42 102zM186 662v-528c0 -11 3 -14 14 -14h150c11 0 14 3 14 14v528c0 11 -3 14 -14 14h-150
c-11 0 -14 -3 -14 -14zM166 976h220v-99h-220v99z" />
    <glyph glyph-name="omacron" unicode="&#x14d;" horiz-adv-x="507" 
d="M51 123v314c0 37 13 68 38 94c26 26 58 39 95 39h139c37 0 68 -13 94 -39s39 -57 39 -94v-314c0 -37 -13 -68 -39 -94s-57 -39 -94 -39h-139c-37 0 -68 13 -94 39s-39 57 -39 94zM181 427v-294c0 -9 3 -13 10 -13h125c7 0 10 4 10 13v294c0 9 -3 13 -10 13h-125
c-7 0 -10 -4 -10 -13zM144 736h220v-99h-220v99z" />
    <glyph glyph-name="Obreve" unicode="&#x14e;" horiz-adv-x="550" 
d="M56 134v528c0 40 14 74 42 102s62 42 102 42h150c40 0 74 -14 102 -42s42 -62 42 -102v-528c0 -40 -14 -74 -42 -102s-62 -42 -102 -42h-150c-40 0 -74 14 -102 42s-42 62 -42 102zM186 662v-528c0 -11 3 -14 14 -14h150c11 0 14 3 14 14v528c0 11 -3 14 -14 14h-150
c-11 0 -14 -3 -14 -14zM298 990h74c0 -53 -43 -96 -96 -96s-96 43 -96 96h75c0 -13 7 -20 21 -20c15 0 22 7 22 20z" />
    <glyph glyph-name="obreve" unicode="&#x14f;" horiz-adv-x="507" 
d="M51 123v314c0 37 13 68 38 94c26 26 58 39 95 39h139c37 0 68 -13 94 -39s39 -57 39 -94v-314c0 -37 -13 -68 -39 -94s-57 -39 -94 -39h-139c-37 0 -68 13 -94 39s-39 57 -39 94zM181 427v-294c0 -9 3 -13 10 -13h125c7 0 10 4 10 13v294c0 9 -3 13 -10 13h-125
c-7 0 -10 -4 -10 -13zM276 750h74c0 -53 -43 -96 -96 -96s-96 43 -96 96h75c0 -13 7 -20 21 -20c15 0 22 7 22 20z" />
    <glyph glyph-name="Ohungarumlaut" unicode="&#x150;" horiz-adv-x="550" 
d="M56 134v528c0 40 14 74 42 102s62 42 102 42h150c40 0 74 -14 102 -42s42 -62 42 -102v-528c0 -40 -14 -74 -42 -102s-62 -42 -102 -42h-150c-40 0 -74 14 -102 42s-42 62 -42 102zM186 662v-528c0 -11 3 -14 14 -14h150c11 0 14 3 14 14v528c0 11 -3 14 -14 14h-150
c-11 0 -14 -3 -14 -14zM252 1005h110l-100 -131h-112zM392 1005h110l-100 -131h-112z" />
    <glyph glyph-name="ohungarumlaut" unicode="&#x151;" horiz-adv-x="507" 
d="M51 123v314c0 37 13 68 38 94c26 26 58 39 95 39h139c37 0 68 -13 94 -39s39 -57 39 -94v-314c0 -37 -13 -68 -39 -94s-57 -39 -94 -39h-139c-37 0 -68 13 -94 39s-39 57 -39 94zM181 427v-294c0 -9 3 -13 10 -13h125c7 0 10 4 10 13v294c0 9 -3 13 -10 13h-125
c-7 0 -10 -4 -10 -13zM230 765h110l-100 -131h-112zM370 765h110l-100 -131h-112z" />
    <glyph glyph-name="OE" unicode="&#x152;" horiz-adv-x="779" 
d="M743 670h-247v-164h220v-130h-220v-246h247v-130h-351c-11 -7 -25 -11 -40 -11h-152c-40 0 -74 14 -102 42s-42 62 -42 102v529c0 40 14 74 42 102s62 42 102 42h152c9 0 18 -2 26 -6h365v-130zM200 118h152c9 0 14 6 14 17v527c0 11 -3 14 -14 14h-152
c-11 0 -14 -3 -14 -14v-530c0 -11 3 -14 14 -14z" />
    <glyph glyph-name="oe" unicode="&#x153;" horiz-adv-x="766" 
d="M730 248h-274v-115c0 -9 3 -13 8 -13h128c5 0 8 4 8 13v62h130v-72c0 -37 -13 -68 -39 -94s-57 -39 -94 -39h-138c-20 0 -42 3 -67 10c-25 -7 -48 -10 -69 -10h-139c-37 0 -68 13 -94 39s-39 57 -39 94v314c0 37 13 68 38 94c26 26 58 39 95 39h139c20 0 43 -3 70 -10
c24 7 46 10 66 10h138c37 0 68 -13 94 -39s39 -57 39 -94v-189zM326 132v293c0 10 -3 15 -8 15h-129c-5 0 -8 -4 -8 -13v-294c0 -9 3 -13 8 -13h129c3 0 6 4 8 12zM456 425v-78h144v80c0 9 -3 13 -8 13h-128c-5 0 -8 -5 -8 -15z" />
    <glyph glyph-name="Racute" unicode="&#x154;" horiz-adv-x="563" 
d="M71 800h314c33 0 61 -12 84 -35c24 -23 36 -52 36 -85v-144c0 -51 -32 -98 -77 -118c49 -19 84 -65 84 -120v-298h-130v298c0 28 -8 46 -23 55h-158v-353h-130v800zM201 483h149c16 7 24 24 24 51v126c0 8 -3 12 -8 12h-165v-189zM321 1005h125l-101 -131h-126z" />
    <glyph glyph-name="racute" unicode="&#x155;" horiz-adv-x="486" 
d="M179 765h125l-101 -131h-126zM191 560v-47c84 37 144 56 179 56c53 0 96 -43 96 -96v-100h-130v30c0 16 -2 24 -5 24c-9 0 -30 -5 -64 -15s-59 -20 -76 -29v-383h-130v560h130z" />
    <glyph glyph-name="Rcommaaccent" unicode="&#x156;" horiz-adv-x="563" 
d="M71 800h314c33 0 61 -12 84 -35c24 -23 36 -52 36 -85v-144c0 -51 -32 -98 -77 -118c49 -19 84 -65 84 -120v-298h-130v298c0 28 -8 46 -23 55h-158v-353h-130v800zM201 483h149c16 7 24 24 24 51v126c0 8 -3 12 -8 12h-165v-189zM349 -42v-168h-120v168h120z" />
    <glyph glyph-name="rcommaaccent" unicode="&#x157;" horiz-adv-x="486" 
d="M191 560v-47c84 37 144 56 179 56c53 0 96 -43 96 -96v-100h-130v30c0 16 -2 24 -5 24c-9 0 -30 -5 -64 -15s-59 -20 -76 -29v-383h-130v560h130zM187 -42v-168h-120v168h120z" />
    <glyph glyph-name="Rcaron" unicode="&#x158;" horiz-adv-x="563" 
d="M71 800h314c33 0 61 -12 84 -35c24 -23 36 -52 36 -85v-144c0 -51 -32 -98 -77 -118c49 -19 84 -65 84 -120v-298h-130v298c0 28 -8 46 -23 55h-158v-353h-130v800zM201 483h149c16 7 24 24 24 51v126c0 8 -3 12 -8 12h-165v-189zM105 1014h115l52 -58h3l52 58h115
l-134 -158h-69z" />
    <glyph glyph-name="rcaron" unicode="&#x159;" horiz-adv-x="486" 
d="M-36 774h115l52 -58h3l52 58h115l-134 -158h-69zM191 560v-47c84 37 144 56 179 56c53 0 96 -43 96 -96v-100h-130v30c0 16 -2 24 -5 24c-9 0 -30 -5 -64 -15s-59 -20 -76 -29v-383h-130v560h130z" />
    <glyph glyph-name="Sacute" unicode="&#x15a;" horiz-adv-x="523" 
d="M175 282v-148c0 -11 3 -14 14 -14h139c11 0 14 3 14 14v77c5 50 -25 94 -49 118c-6 8 -18 18 -35 29s-29 19 -35 22l-42 24c-79 44 -130 114 -130 203v55c0 40 14 74 42 102s62 42 102 42h139c40 0 74 -17 102 -51c28 -33 42 -74 42 -123h-130c0 29 -8 44 -24 44h-127
c-11 0 -16 -5 -16 -16v-53c0 -27 8 -47 39 -71c15 -11 27 -20 35 -25l49 -27l16 -9c89 -49 152 -137 152 -264v-77c0 -40 -14 -74 -42 -102s-62 -42 -102 -42h-139c-40 0 -74 14 -102 42s-42 62 -42 102v148h130zM306 1005h125l-101 -131h-126z" />
    <glyph glyph-name="sacute" unicode="&#x15b;" horiz-adv-x="489" 
d="M289 765h125l-101 -131h-126zM172 212v-79c0 -9 3 -13 9 -13h127c6 0 9 4 9 13v18c0 22 -12 38 -30 49c-9 8 -31 18 -42 22c-11 5 -39 15 -48 19c-103 38 -155 95 -155 171v25c0 37 13 68 39 94s57 39 94 39h139c37 0 69 -13 94 -39c26 -26 39 -57 39 -94v-30h-130v20
c0 9 -3 13 -9 13h-126c-7 0 -10 -4 -10 -13v-8c0 -16 12 -31 44 -47l38 -18c9 -3 25 -9 46 -18c98 -37 147 -96 147 -177v-36c0 -37 -13 -68 -39 -94s-57 -39 -94 -39h-139c-37 0 -68 13 -94 39s-39 57 -39 94v89h130z" />
    <glyph glyph-name="Scircumflex" unicode="&#x15c;" horiz-adv-x="523" 
d="M175 282v-148c0 -11 3 -14 14 -14h139c11 0 14 3 14 14v77c5 50 -25 94 -49 118c-6 8 -18 18 -35 29s-29 19 -35 22l-42 24c-79 44 -130 114 -130 203v55c0 40 14 74 42 102s62 42 102 42h139c40 0 74 -17 102 -51c28 -33 42 -74 42 -123h-130c0 29 -8 44 -24 44h-127
c-11 0 -16 -5 -16 -16v-53c0 -27 8 -47 39 -71c15 -11 27 -20 35 -25l49 -27l16 -9c89 -49 152 -137 152 -264v-77c0 -40 -14 -74 -42 -102s-62 -42 -102 -42h-139c-40 0 -74 14 -102 42s-42 62 -42 102v148h130zM223 1035h77l134 -158h-115l-56 73h-3l-57 -73h-114z" />
    <glyph glyph-name="scircumflex" unicode="&#x15d;" horiz-adv-x="489" 
d="M206 795h77l134 -158h-115l-56 73h-3l-57 -73h-114zM172 212v-79c0 -9 3 -13 9 -13h127c6 0 9 4 9 13v18c0 22 -12 38 -30 49c-9 8 -31 18 -42 22c-11 5 -39 15 -48 19c-103 38 -155 95 -155 171v25c0 37 13 68 39 94s57 39 94 39h139c37 0 69 -13 94 -39
c26 -26 39 -57 39 -94v-30h-130v20c0 9 -3 13 -9 13h-126c-7 0 -10 -4 -10 -13v-8c0 -16 12 -31 44 -47l38 -18c9 -3 25 -9 46 -18c98 -37 147 -96 147 -177v-36c0 -37 -13 -68 -39 -94s-57 -39 -94 -39h-139c-37 0 -68 13 -94 39s-39 57 -39 94v89h130z" />
    <glyph glyph-name="Scedilla" unicode="&#x15e;" horiz-adv-x="523" 
d="M181 660v-53c0 -27 8 -47 39 -71c15 -11 27 -20 35 -25l49 -27l16 -9c89 -49 152 -137 152 -264v-77c0 -40 -14 -74 -42 -102s-62 -42 -102 -42h-17l-3 -17c52 -19 89 -70 89 -123c0 -71 -56 -126 -136 -126c-25 0 -57 13 -98 38l49 79c23 -11 40 -17 49 -17
c24 0 36 9 36 26c0 15 -9 26 -25 26h-74l13 114h-22c-40 0 -74 14 -102 42s-42 62 -42 102v148h130v-148c0 -11 3 -14 14 -14h139c11 0 14 3 14 14v77c5 50 -25 94 -49 118c-6 8 -18 18 -35 29s-29 19 -35 22l-42 24c-79 44 -130 114 -130 203v55c0 40 14 74 42 102
s62 42 102 42h139c40 0 74 -17 102 -51c28 -33 42 -74 42 -123h-130c0 29 -8 44 -24 44h-127c-11 0 -16 -5 -16 -16z" />
    <glyph glyph-name="scedilla" unicode="&#x15f;" horiz-adv-x="489" 
d="M447 407h-130v20c0 9 -3 13 -9 13h-126c-7 0 -10 -4 -10 -13v-8c0 -16 12 -31 44 -47l38 -18c9 -3 25 -9 46 -18c98 -37 147 -96 147 -177v-36c0 -37 -13 -68 -39 -94s-57 -39 -94 -39h-21l-3 -17c52 -19 89 -70 89 -123c0 -71 -56 -126 -136 -126c-25 0 -57 13 -98 38
l49 79c23 -11 40 -17 49 -17c24 0 36 9 36 26c0 15 -9 26 -25 26h-74l13 114h-18c-37 0 -68 13 -94 39s-39 57 -39 94v89h130v-79c0 -9 3 -13 9 -13h127c6 0 9 4 9 13v18c0 22 -12 38 -30 49c-9 8 -31 18 -42 22c-11 5 -39 15 -48 19c-103 38 -155 95 -155 171v25
c0 37 13 68 39 94s57 39 94 39h139c37 0 69 -13 94 -39c26 -26 39 -57 39 -94v-30z" />
    <glyph glyph-name="Scaron" unicode="&#x160;" horiz-adv-x="523" 
d="M175 282v-148c0 -11 3 -14 14 -14h139c11 0 14 3 14 14v77c5 50 -25 94 -49 118c-6 8 -18 18 -35 29s-29 19 -35 22l-42 24c-79 44 -130 114 -130 203v55c0 40 14 74 42 102s62 42 102 42h139c40 0 74 -17 102 -51c28 -33 42 -74 42 -123h-130c0 29 -8 44 -24 44h-127
c-11 0 -16 -5 -16 -16v-53c0 -27 8 -47 39 -71c15 -11 27 -20 35 -25l49 -27l16 -9c89 -49 152 -137 152 -264v-77c0 -40 -14 -74 -42 -102s-62 -42 -102 -42h-139c-40 0 -74 14 -102 42s-42 62 -42 102v148h130zM90 1014h115l52 -58h3l52 58h115l-134 -158h-69z" />
    <glyph glyph-name="scaron" unicode="&#x161;" horiz-adv-x="489" 
d="M73 774h115l52 -58h3l52 58h115l-134 -158h-69zM172 212v-79c0 -9 3 -13 9 -13h127c6 0 9 4 9 13v18c0 22 -12 38 -30 49c-9 8 -31 18 -42 22c-11 5 -39 15 -48 19c-103 38 -155 95 -155 171v25c0 37 13 68 39 94s57 39 94 39h139c37 0 69 -13 94 -39
c26 -26 39 -57 39 -94v-30h-130v20c0 9 -3 13 -9 13h-126c-7 0 -10 -4 -10 -13v-8c0 -16 12 -31 44 -47l38 -18c9 -3 25 -9 46 -18c98 -37 147 -96 147 -177v-36c0 -37 -13 -68 -39 -94s-57 -39 -94 -39h-139c-37 0 -68 13 -94 39s-39 57 -39 94v89h130z" />
    <glyph glyph-name="Tcedilla" unicode="&#x162;" horiz-adv-x="474" 
d="M302 0h-15l-5 -27c52 -19 89 -70 89 -123c0 -71 -56 -126 -136 -126c-25 0 -57 13 -98 38l49 79c23 -11 40 -17 49 -17c24 0 36 9 36 26c0 15 -9 26 -25 26h-74l14 124h-14v670h-164v130h458v-130h-164v-670z" />
    <glyph glyph-name="tcedilla" unicode="&#x163;" horiz-adv-x="367" 
d="M359 432h-145v-290c0 -15 8 -22 24 -22h54v-130h-51l-3 -17c52 -19 89 -70 89 -123c0 -71 -56 -126 -136 -126c-25 0 -57 13 -98 38l49 79c23 -11 40 -17 49 -17c24 0 36 9 36 26c0 15 -9 26 -25 26h-75l17 144c-41 29 -62 70 -62 122v290h-74v128h74v144h132v-144h145
v-128z" />
    <glyph glyph-name="Tcaron" unicode="&#x164;" horiz-adv-x="474" 
d="M8 670v130h458v-130h-164v-670h-130v670h-164zM66 1014h115l52 -58h3l52 58h115l-134 -158h-69z" />
    <glyph glyph-name="tcaron" unicode="&#x165;" horiz-adv-x="424" 
d="M461 766v-169h-115v169h115zM214 432v-290c0 -15 8 -22 24 -22h54v-130h-57c-43 0 -79 15 -109 44c-29 30 -44 66 -44 108v290h-74v128h74v144h132v-144h145v-128h-145z" />
    <glyph glyph-name="Tbar" unicode="&#x166;" horiz-adv-x="474" 
d="M466 670h-164v-242h134v-128h-134v-300h-130v300h-134v128h134v242h-164v130h458v-130z" />
    <glyph glyph-name="tbar" unicode="&#x167;" horiz-adv-x="367" 
d="M359 432h-145v-98h145v-114h-145v-78c0 -15 8 -22 24 -22h54v-130h-57c-43 0 -79 15 -109 44c-29 30 -44 66 -44 108v78h-73v114h73v98h-74v128h74v144h132v-144h145v-128z" />
    <glyph glyph-name="Utilde" unicode="&#x168;" horiz-adv-x="561" 
d="M156 864l-5 111c17 21 38 31 62 31c17 0 40 -6 69 -18c30 -11 53 -17 68 -17c20 0 39 9 56 28l5 -111c-18 -21 -38 -32 -61 -32c-17 0 -40 6 -70 17c-29 12 -52 18 -67 18c-21 0 -40 -9 -57 -27zM192 800v-666c0 -11 3 -14 14 -14h149c11 0 14 3 14 14v666h130v-666
c0 -40 -14 -74 -42 -102s-62 -42 -102 -42h-149c-40 0 -74 14 -102 42s-42 62 -42 102v666h130z" />
    <glyph glyph-name="utilde" unicode="&#x169;" 
d="M118 624l-5 111c17 21 38 31 62 31c17 0 40 -6 69 -18c30 -11 53 -17 68 -17c20 0 39 9 56 28l5 -111c-18 -21 -38 -32 -61 -32c-17 0 -40 6 -70 17c-29 12 -52 18 -67 18c-21 0 -40 -9 -57 -27zM331 0v47c-84 -37 -144 -56 -179 -56c-53 0 -96 43 -96 96v473h130v-407
c0 -12 3 -18 10 -18l135 42v383h130v-560h-130z" />
    <glyph glyph-name="Umacron" unicode="&#x16a;" horiz-adv-x="561" 
d="M171 976h220v-99h-220v99zM192 800v-666c0 -11 3 -14 14 -14h149c11 0 14 3 14 14v666h130v-666c0 -40 -14 -74 -42 -102s-62 -42 -102 -42h-149c-40 0 -74 14 -102 42s-42 62 -42 102v666h130z" />
    <glyph glyph-name="umacron" unicode="&#x16b;" 
d="M331 0v47c-84 -37 -144 -56 -179 -56c-53 0 -96 43 -96 96v473h130v-407c0 -12 3 -18 10 -18l135 42v383h130v-560h-130zM133 736h220v-99h-220v99z" />
    <glyph glyph-name="Ubreve" unicode="&#x16c;" horiz-adv-x="561" 
d="M303 990h74c0 -53 -43 -96 -96 -96s-96 43 -96 96h75c0 -13 7 -20 21 -20c15 0 22 7 22 20zM192 800v-666c0 -11 3 -14 14 -14h149c11 0 14 3 14 14v666h130v-666c0 -40 -14 -74 -42 -102s-62 -42 -102 -42h-149c-40 0 -74 14 -102 42s-42 62 -42 102v666h130z" />
    <glyph glyph-name="ubreve" unicode="&#x16d;" 
d="M331 0v47c-84 -37 -144 -56 -179 -56c-53 0 -96 43 -96 96v473h130v-407c0 -12 3 -18 10 -18l135 42v383h130v-560h-130zM265 750h74c0 -53 -43 -96 -96 -96s-96 43 -96 96h75c0 -13 7 -20 21 -20c15 0 22 7 22 20z" />
    <glyph glyph-name="Uring" unicode="&#x16e;" horiz-adv-x="561" 
d="M370 862c-24 -24 -53 -36 -88 -36s-64 12 -89 36c-24 24 -36 53 -36 88s12 64 36 88c25 25 54 37 89 37s64 -12 88 -37c24 -24 36 -53 36 -88s-12 -64 -36 -88zM250 918c38 -45 109 26 64 64c-38 45 -109 -26 -64 -64zM192 800v-666c0 -11 3 -14 14 -14h149
c11 0 14 3 14 14v666h130v-666c0 -40 -14 -74 -42 -102s-62 -42 -102 -42h-149c-40 0 -74 14 -102 42s-42 62 -42 102v666h130z" />
    <glyph glyph-name="uring" unicode="&#x16f;" 
d="M332 622c-24 -24 -53 -36 -88 -36s-64 12 -89 36c-24 24 -36 53 -36 88s12 64 36 88c25 25 54 37 89 37s64 -12 88 -37c24 -24 36 -53 36 -88s-12 -64 -36 -88zM212 678c38 -45 109 26 64 64c-38 45 -109 -26 -64 -64zM331 0v47c-84 -37 -144 -56 -179 -56
c-53 0 -96 43 -96 96v473h130v-407c0 -12 3 -18 10 -18l135 42v383h130v-560h-130z" />
    <glyph glyph-name="Uhungarumlaut" unicode="&#x170;" horiz-adv-x="561" 
d="M257 1005h110l-100 -131h-112zM397 1005h110l-100 -131h-112zM192 800v-666c0 -11 3 -14 14 -14h149c11 0 14 3 14 14v666h130v-666c0 -40 -14 -74 -42 -102s-62 -42 -102 -42h-149c-40 0 -74 14 -102 42s-42 62 -42 102v666h130z" />
    <glyph glyph-name="uhungarumlaut" unicode="&#x171;" 
d="M331 0v47c-84 -37 -144 -56 -179 -56c-53 0 -96 43 -96 96v473h130v-407c0 -12 3 -18 10 -18l135 42v383h130v-560h-130zM219 765h110l-100 -131h-112zM359 765h110l-100 -131h-112z" />
    <glyph glyph-name="Uogonek" unicode="&#x172;" horiz-adv-x="561" 
d="M369 800h130v-666c0 -40 -14 -74 -42 -102s-62 -42 -102 -42c-27 0 -57 -14 -57 -38c0 -17 9 -25 27 -25c11 0 29 7 53 22l48 -64c-37 -32 -76 -48 -117 -48c-69 0 -111 43 -111 111c0 15 3 29 9 42h-1c-40 0 -74 14 -102 42s-42 62 -42 102v666h130v-666
c0 -11 3 -14 14 -14h149c11 0 14 3 14 14v666z" />
    <glyph glyph-name="uogonek" unicode="&#x173;" 
d="M465 -41l48 -64c-37 -32 -76 -48 -117 -48c-69 0 -111 43 -111 111c0 32 14 61 43 88c-85 -37 -144 -55 -176 -55c-53 0 -96 43 -96 96v473h130v-407c0 -12 3 -18 10 -18l135 42v383h130v-560h-19c-27 0 -57 -14 -57 -38c0 -17 9 -25 27 -25c11 0 29 7 53 22z" />
    <glyph glyph-name="Wcircumflex" unicode="&#x174;" horiz-adv-x="850" 
d="M386 1035h77l134 -158h-115l-56 73h-3l-57 -73h-114zM192 800v-666c0 -11 3 -14 14 -14h80c22 0 40 10 53 31c14 21 21 41 21 58v591h130v-591c0 -17 7 -36 21 -57s32 -32 53 -32h80c11 0 14 3 14 14v666h130v-666c0 -40 -14 -74 -42 -102s-62 -42 -102 -42h-80
c-67 0 -120 44 -139 105c-17 -61 -72 -105 -139 -105h-80c-40 0 -74 14 -102 42s-42 62 -42 102v666h130z" />
    <glyph glyph-name="wcircumflex" unicode="&#x175;" horiz-adv-x="765" 
d="M343 795h77l134 -158h-115l-56 73h-3l-57 -73h-114zM709 560v-420c0 -87 -52 -150 -133 -150h-66c-60 0 -111 38 -128 99c-17 -61 -67 -99 -128 -99h-65c-81 0 -133 63 -133 150v420h130v-420c0 -13 4 -20 12 -20h56c42 0 63 32 63 95v345h130v-345c0 -63 21 -95 63 -95
h54c10 0 15 7 15 20v420h130z" />
    <glyph glyph-name="Ycircumflex" unicode="&#x176;" horiz-adv-x="569" 
d="M551 800l-123 -546c-5 -19 -26 -32 -54 -32h-23v-222h-129v222h-20c-27 0 -50 13 -54 32l-130 546h133l99 -443c1 -5 3 -7 7 -7h61c5 0 7 2 7 7l96 443h130zM246 1035h77l134 -158h-115l-56 73h-3l-57 -73h-114z" />
    <glyph glyph-name="ycircumflex" unicode="&#x177;" horiz-adv-x="477" 
d="M200 795h77l134 -158h-115l-56 73h-3l-57 -73h-114zM151 559l59 -433c2 -7 4 -11 6 -11h48c5 0 7 5 8 14l58 430h130l-113 -715h-124l22 145h-92c-20 0 -40 17 -43 34l-92 536h133z" />
    <glyph glyph-name="Ydieresis" unicode="&#x178;" horiz-adv-x="569" 
d="M551 800l-123 -546c-5 -19 -26 -32 -54 -32h-23v-222h-129v222h-20c-27 0 -50 13 -54 32l-130 546h133l99 -443c1 -5 3 -7 7 -7h61c5 0 7 2 7 7l96 443h130zM201 867c-35 0 -64 28 -64 63c0 36 29 67 64 67c36 0 66 -31 66 -67c0 -35 -30 -63 -66 -63zM369 867
c-36 0 -65 28 -65 63c0 36 29 67 65 67c33 0 63 -31 63 -67c0 -35 -30 -63 -63 -63z" />
    <glyph glyph-name="Zacute" unicode="&#x179;" horiz-adv-x="501" 
d="M28 670v130h446l-261 -670h261v-130h-446l262 670h-262zM295 1005h125l-101 -131h-126z" />
    <glyph glyph-name="zacute" unicode="&#x17a;" horiz-adv-x="462" 
d="M275 765h125l-101 -131h-126zM282 434h-249v126h395v-126l-252 -305h255v-129h-400v130z" />
    <glyph glyph-name="Zdotaccent" unicode="&#x17b;" horiz-adv-x="501" 
d="M28 670v130h446l-261 -670h261v-130h-446l262 670h-262zM183 926c0 39 31 70 68 70s69 -33 69 -70s-32 -68 -69 -68s-68 31 -68 68z" />
    <glyph glyph-name="zdotaccent" unicode="&#x17c;" horiz-adv-x="462" 
d="M163 686c0 39 31 70 68 70s69 -33 69 -70s-32 -68 -69 -68s-68 31 -68 68zM282 434h-249v126h395v-126l-252 -305h255v-129h-400v130z" />
    <glyph glyph-name="Zcaron" unicode="&#x17d;" horiz-adv-x="501" 
d="M28 670v130h446l-261 -670h261v-130h-446l262 670h-262zM80 1014h115l52 -58h3l52 58h115l-134 -158h-69z" />
    <glyph glyph-name="zcaron" unicode="&#x17e;" horiz-adv-x="462" 
d="M60 774h115l52 -58h3l52 58h115l-134 -158h-69zM282 434h-249v126h395v-126l-252 -305h255v-129h-400v130z" />
    <glyph glyph-name="longs" unicode="&#x17f;" horiz-adv-x="302" 
d="M42 -154v130c15 0 23 7 23 22v434h-55v128h55v54c0 41 15 77 44 106c30 30 66 45 109 45h84v-130h-81c-16 0 -24 -7 -24 -21v-616c0 -42 -15 -78 -45 -107c-30 -30 -67 -45 -110 -45z" />
    <glyph glyph-name="florin" unicode="&#x192;" horiz-adv-x="398" 
d="M341 760v-130h-89h-3c-14 0 -21 -7 -21 -21v-163h65v-129h-65v-321c0 -42 -15 -78 -45 -107c-29 -29 -66 -44 -110 -44v130c15 0 23 7 23 21v321h-40v129h40v163c0 42 15 78 45 107c30 30 66 45 108 44h92z" />
    <glyph glyph-name="DZcaron" unicode="&#x1c4;" horiz-adv-x="1066" 
d="M71 800h294c41 0 75 -13 102 -40c28 -26 42 -59 42 -98v-518c0 -40 -14 -74 -42 -102s-62 -42 -102 -42h-294v800zM855 670h-262v130h446l-261 -670h261v-130h-446zM201 130h164c11 0 14 3 14 14v513c0 9 -5 13 -14 13h-164v-540zM652 1014h115l52 -58h3l52 58h115
l-134 -158h-69z" />
    <glyph glyph-name="Dzcaron" unicode="&#x1c5;" horiz-adv-x="1026" 
d="M71 800h294c41 0 75 -13 102 -40c28 -26 42 -59 42 -98v-518c0 -40 -14 -74 -42 -102s-62 -42 -102 -42h-294v800zM637 774h115l52 -58h3l52 58h115l-134 -158h-69zM201 130h164c11 0 14 3 14 14v513c0 9 -5 13 -14 13h-164v-540zM596 130l251 304h-249v126h395v-126
l-252 -305h255v-129h-400v130z" />
    <glyph glyph-name="dzcaron" unicode="&#x1c6;" horiz-adv-x="978" 
d="M457 707v-707h-130v47l-36 -13l-44 -16c-36 -13 -90 -28 -108 -28c-53 0 -87 37 -86 97v350c0 37 13 69 38 95c26 26 57 39 94 38h142v132h-1v62h130v-57h1zM549 130l251 304h-249v126h395v-126l-252 -305h255v-129h-400v130zM327 176v251c-1 10 -6 15 -13 15h-118
c-9 0 -13 -5 -13 -15v-277v-2c0 -8 3 -12 10 -12s52 13 134 40zM577 774h115l52 -58h3l52 58h115l-134 -158h-69z" />
    <glyph glyph-name="LJ" unicode="&#x1c7;" horiz-adv-x="964" 
d="M200 800v-670h247v-130h-376v800h129zM604 292v-158c0 -11 3 -14 14 -14h146c11 0 14 3 14 14v666h130v-666c0 -40 -14 -74 -42 -102s-62 -42 -102 -42h-146c-40 0 -74 14 -102 42s-42 62 -42 102v158h130z" />
    <glyph glyph-name="Lj" unicode="&#x1c8;" horiz-adv-x="734" 
d="M200 800v-670h247v-130h-376v800h129zM535 765h131v-106h-131v106zM536 560h132v-565c0 -42 -15 -78 -45 -107c-30 -30 -66 -45 -108 -44h-74v130h71c16 -1 24 6 24 21v565z" />
    <glyph glyph-name="lj" unicode="&#x1c9;" horiz-adv-x="578" 
d="M511 765v-106h-131v106h131zM276 120v-130h-57c-43 0 -79 15 -109 44c-29 30 -44 66 -44 108v622h130v-204h2v-418c0 -15 8 -22 24 -22h54zM513 560v-565c0 -42 -15 -78 -45 -107c-30 -30 -66 -45 -108 -44h-74v130h71c16 -1 24 6 24 21v565h132z" />
    <glyph glyph-name="NJ" unicode="&#x1ca;" horiz-adv-x="1139" 
d="M296 800l127 -670h5v670h130v-800h-223l-129 670h-5v-670h-130v800h225zM779 292v-158c0 -11 3 -14 14 -14h146c11 0 14 3 14 14v666h130v-666c0 -40 -14 -74 -42 -102s-62 -42 -102 -42h-146c-40 0 -74 14 -102 42s-42 62 -42 102v158h130z" />
    <glyph glyph-name="Nj" unicode="&#x1cb;" horiz-adv-x="909" 
d="M296 800l127 -670h5v670h130v-800h-223l-129 670h-5v-670h-130v800h225zM710 765h131v-106h-131v106zM711 560h132v-565c0 -42 -15 -78 -45 -107c-30 -30 -66 -45 -108 -44h-74v130h71c16 -1 24 6 24 21v565z" />
    <glyph glyph-name="nj" unicode="&#x1cc;" horiz-adv-x="802" 
d="M734 765v-106h-131v106h131zM191 560v-47c84 37 144 56 179 56c53 0 96 -43 96 -96v-473h-130v407c0 12 -3 18 -10 18l-135 -42v-383h-130v560h130zM736 560v-565c0 -42 -15 -78 -45 -107c-30 -30 -66 -45 -108 -44h-74v130h71c16 -1 24 6 24 21v565h132z" />
    <glyph glyph-name="Oogonek" unicode="&#x1ea;" horiz-adv-x="550" 
d="M200 806h150c40 0 74 -14 102 -42s42 -62 42 -102v-528c0 -40 -14 -74 -42 -102s-62 -42 -102 -42c-27 0 -57 -14 -57 -38c0 -17 9 -25 27 -25c11 0 29 7 53 22l48 -64c-37 -32 -76 -48 -117 -48c-69 0 -111 43 -111 111c0 15 3 29 9 42h-2c-40 0 -74 14 -102 42
s-42 62 -42 102v528c0 40 14 74 42 102s62 42 102 42zM364 134v528c0 11 -3 14 -14 14h-150c-11 0 -14 -3 -14 -14v-528c0 -11 3 -14 14 -14h150c11 0 14 3 14 14z" />
    <glyph glyph-name="oogonek" unicode="&#x1eb;" horiz-adv-x="507" 
d="M184 570h139c37 0 68 -13 94 -39s39 -57 39 -94v-314c0 -37 -13 -68 -39 -94s-57 -39 -94 -39c-27 0 -57 -14 -57 -38c0 -17 9 -25 27 -25c11 0 29 7 53 22l48 -64c-37 -32 -76 -48 -117 -48c-69 0 -111 43 -111 111c0 15 3 29 9 42c-35 3 -64 17 -88 42s-36 56 -36 91
v314c0 37 13 68 38 94c26 26 58 39 95 39zM326 133v294c0 9 -3 13 -10 13h-125c-7 0 -10 -4 -10 -13v-294c0 -9 3 -13 10 -13h125c7 0 10 4 10 13z" />
    <glyph glyph-name="DZ" unicode="&#x1f1;" horiz-adv-x="1066" 
d="M71 800h294c41 0 75 -13 102 -40c28 -26 42 -59 42 -98v-518c0 -40 -14 -74 -42 -102s-62 -42 -102 -42h-294v800zM855 670h-262v130h446l-261 -670h261v-130h-446zM201 130h164c11 0 14 3 14 14v513c0 9 -5 13 -14 13h-164v-540z" />
    <glyph glyph-name="Dz" unicode="&#x1f2;" horiz-adv-x="1026" 
d="M596 130l251 304h-249v126h395v-126l-252 -305h255v-129h-400v130zM71 800h294c41 0 75 -13 102 -40c28 -26 42 -59 42 -98v-518c0 -40 -14 -74 -42 -102s-62 -42 -102 -42h-294v800zM201 130h164c11 0 14 3 14 14v513c0 9 -5 13 -14 13h-164v-540z" />
    <glyph glyph-name="dz" unicode="&#x1f3;" horiz-adv-x="978" 
d="M457 707v-707h-130v47l-36 -13l-44 -16c-36 -13 -90 -28 -108 -28c-53 0 -87 37 -86 97v350c0 37 13 69 38 95c26 26 57 39 94 38h142v132h-1v62h130v-57h1zM549 130l251 304h-249v126h395v-126l-252 -305h255v-129h-400v130zM327 176v251c-1 10 -6 15 -13 15h-118
c-9 0 -13 -5 -13 -15v-277v-2c0 -8 3 -12 10 -12s52 13 134 40z" />
    <glyph glyph-name="Aringacute" unicode="&#x1fa;" horiz-adv-x="568" 
d="M449 1138l-101 -131h-126l102 131h125zM426 766l125 -766h-130l-26 174h-221l-26 -174h-130l125 766c3 15 12 25 29 32c-8 16 -12 34 -12 54c0 35 12 64 36 88c24 25 54 37 89 37s64 -12 88 -37c24 -24 36 -53 36 -88c0 -20 -4 -38 -12 -54c17 -7 27 -17 29 -32zM317 884
c-38 45 -109 -26 -64 -64c38 -45 109 26 64 64zM193 304h183l-53 355c-2 7 -5 11 -9 11h-60c-5 0 -7 -4 -8 -11z" />
    <glyph glyph-name="aringacute" unicode="&#x1fb;" horiz-adv-x="491" 
d="M305 985h125l-101 -131h-126zM342 622c-24 -24 -53 -36 -88 -36s-64 12 -89 36c-24 24 -36 53 -36 88s12 64 36 88c25 25 54 37 89 37s64 -12 88 -37c24 -24 36 -53 36 -88s-12 -64 -36 -88zM222 678c38 -45 109 26 64 64c-38 45 -109 -26 -64 -64zM31 86v103
c0 55 12 93 33 113c23 21 37 27 66 36l175 27v51c0 15 -8 23 -24 23h-73c-17 0 -25 -8 -25 -23v-18h-130v38c0 42 15 75 45 98c31 24 66 36 106 36h80c40 0 75 -12 105 -36c31 -23 46 -56 46 -97v-437h-130v47c-83 -38 -143 -57 -178 -57c-53 0 -96 43 -96 96zM161 174v-28
c0 -11 4 -17 11 -17l133 41v89l-124 -21c-13 -8 -20 -29 -20 -64z" />
    <glyph glyph-name="AEacute" unicode="&#x1fc;" horiz-adv-x="795" 
d="M468 1005h125l-101 -131h-126zM759 667h-247v-161h220v-130h-220v-246h247v-130h-377v174h-202l-32 -174h-130l124 766c3 17 23 34 43 34h574v-133zM382 676h-117c-8 0 -13 -5 -16 -16l-51 -356h184v372z" />
    <glyph glyph-name="aeacute" unicode="&#x1fd;" horiz-adv-x="753" 
d="M425 763h125l-101 -131h-126zM442 237v-103c0 -9 3 -14 8 -14h128c6 0 9 4 9 13v61h130v-72c0 -37 -13 -68 -39 -94c-25 -25 -57 -38 -94 -38h-139c-51 0 -90 22 -117 66l-16 -9c-83 -38 -143 -57 -178 -57c-53 0 -96 43 -96 96v109c0 55 10 93 33 113s37 27 66 36
l175 27v48c0 13 -7 20 -22 20h-75c-17 0 -25 -8 -25 -24v-18h-130v39c0 42 15 75 45 98c31 24 66 36 107 36h82c27 0 56 -3 87 -8c17 5 39 8 64 8h139c37 0 69 -13 94 -39c26 -26 39 -57 39 -94v-200h-275zM442 367h145v63c0 7 -3 10 -8 10h-130c-5 0 -7 -4 -7 -11v-62z
M312 249l-127 -22c-11 -7 -17 -27 -17 -60v-21c0 -8 4 -12 11 -12l133 42v73z" />
    <glyph glyph-name="Oslashacute" unicode="&#x1fe;" horiz-adv-x="565" 
d="M329 1005h125l-101 -131h-126zM519 866l-49 -124c16 -23 24 -50 24 -80v-528c0 -40 -14 -74 -42 -102s-62 -42 -102 -42h-150c-11 0 -20 1 -29 3l-19 -47h-106l40 100c-20 25 -30 55 -30 88v528c0 40 14 74 42 102s62 42 102 42h150c11 0 24 -2 37 -5l26 65h106zM186 297
l151 379h-137c-11 0 -14 -3 -14 -14v-365zM364 477l-143 -357h129c11 0 14 3 14 14v343z" />
    <glyph glyph-name="oslashacute" unicode="&#x1ff;" horiz-adv-x="535" 
d="M484 590l-38 -72c18 -23 27 -50 27 -81v-314c0 -37 -13 -68 -39 -94s-57 -39 -94 -39h-139c-9 0 -18 1 -27 3l-11 -24h-112l39 81c-15 22 -22 46 -22 73v314c0 37 13 68 39 94s57 39 94 39h139c5 0 12 -1 20 -2l13 22h111zM302 440h-94c-7 0 -10 -4 -10 -13v-191z
M245 120h88c7 0 10 4 10 13v180zM324 764h125l-101 -131h-126z" />
    <glyph glyph-name="Scommaaccent" unicode="&#x218;" horiz-adv-x="523" 
d="M175 282v-148c0 -11 3 -14 14 -14h139c11 0 14 3 14 14v77c5 50 -25 94 -49 118c-6 8 -18 18 -35 29s-29 19 -35 22l-42 24c-79 44 -130 114 -130 203v55c0 40 14 74 42 102s62 42 102 42h139c40 0 74 -17 102 -51c28 -33 42 -74 42 -123h-130c0 29 -8 44 -24 44h-127
c-11 0 -16 -5 -16 -16v-53c0 -27 8 -47 39 -71c15 -11 27 -20 35 -25l49 -27l16 -9c89 -49 152 -137 152 -264v-77c0 -40 -14 -74 -42 -102s-62 -42 -102 -42h-139c-40 0 -74 14 -102 42s-42 62 -42 102v148h130zM321 -42v-168h-120v168h120z" />
    <glyph glyph-name="scommaaccent" unicode="&#x219;" horiz-adv-x="489" 
d="M172 212v-79c0 -9 3 -13 9 -13h127c6 0 9 4 9 13v18c0 22 -12 38 -30 49c-9 8 -31 18 -42 22c-11 5 -39 15 -48 19c-103 38 -155 95 -155 171v25c0 37 13 68 39 94s57 39 94 39h139c37 0 69 -13 94 -39c26 -26 39 -57 39 -94v-30h-130v20c0 9 -3 13 -9 13h-126
c-7 0 -10 -4 -10 -13v-8c0 -16 12 -31 44 -47l38 -18c9 -3 25 -9 46 -18c98 -37 147 -96 147 -177v-36c0 -37 -13 -68 -39 -94s-57 -39 -94 -39h-139c-37 0 -68 13 -94 39s-39 57 -39 94v89h130zM303 -42v-168h-120v168h120z" />
    <glyph glyph-name="uni021A" unicode="&#x21a;" horiz-adv-x="474" 
d="M8 670v130h458v-130h-164v-670h-130v670h-164zM295 -42v-168h-120v168h120z" />
    <glyph glyph-name="uni021B" unicode="&#x21b;" horiz-adv-x="367" 
d="M214 432v-290c0 -15 8 -22 24 -22h54v-130h-57c-43 0 -79 15 -109 44c-29 30 -44 66 -44 108v290h-74v128h74v144h132v-144h145v-128h-145zM242 -42v-168h-120v168h120z" />
    <glyph glyph-name="dotlessj" unicode="&#x237;" horiz-adv-x="280" 
d="M82 560h132v-565c0 -42 -15 -78 -45 -107c-30 -30 -66 -45 -108 -44h-74v130h71c16 -1 24 6 24 21v565z" />
    <glyph glyph-name="uni02BC" unicode="&#x2bc;" horiz-adv-x="519" 
d="M268 766v-169h-115v169h115z" />
    <glyph glyph-name="circumflex" unicode="&#x2c6;" horiz-adv-x="398" 
d="M165 795h77l134 -158h-115l-56 73h-3l-57 -73h-114z" />
    <glyph glyph-name="caron" unicode="&#x2c7;" horiz-adv-x="480" 
d="M71 774h115l52 -58h3l52 58h115l-134 -158h-69z" />
    <glyph glyph-name="breve" unicode="&#x2d8;" horiz-adv-x="247" 
d="M146 750h74c0 -53 -43 -96 -96 -96s-96 43 -96 96h75c0 -13 7 -20 21 -20c15 0 22 7 22 20z" />
    <glyph glyph-name="dotaccent" unicode="&#x2d9;" horiz-adv-x="253" 
d="M59 686c0 39 31 70 68 70s69 -33 69 -70s-32 -68 -69 -68s-68 31 -68 68z" />
    <glyph glyph-name="ring" unicode="&#x2da;" horiz-adv-x="304" 
d="M153 835c35 0 64 -12 88 -37c24 -24 36 -53 36 -88s-12 -64 -36 -88s-53 -36 -88 -36s-64 12 -89 36c-24 24 -36 53 -36 88s12 64 36 88c24 25 54 37 89 37zM121 678c38 -45 109 26 64 64c-38 45 -109 -26 -64 -64z" />
    <glyph glyph-name="ogonek" unicode="&#x2db;" horiz-adv-x="577" 
d="M303 -73l48 -64c-37 -32 -76 -48 -117 -48c-69 0 -111 43 -111 111c0 29 12 55 35 80s51 40 82 46l40 -84c-27 0 -57 -14 -57 -38c0 -17 9 -25 27 -25c11 0 29 7 53 22z" />
    <glyph glyph-name="tilde" unicode="&#x2dc;" horiz-adv-x="322" 
d="M37 624l-5 111c17 21 38 31 62 31c17 0 40 -6 69 -18c30 -11 53 -17 68 -17c20 0 39 9 56 28l5 -111c-18 -21 -38 -32 -61 -32c-17 0 -40 6 -70 17c-29 12 -52 18 -67 18c-21 0 -40 -9 -57 -27z" />
    <glyph glyph-name="hungarumlaut" unicode="&#x2dd;" horiz-adv-x="428" 
d="M160 765h110l-100 -131h-112zM300 765h110l-100 -131h-112z" />
    <glyph glyph-name="dotbelowcomb" unicode="&#x323;" horiz-adv-x="0" 
d="M59 -146c0 39 31 70 68 70s69 -33 69 -70s-32 -68 -69 -68s-68 31 -68 68z" />
    <glyph glyph-name="commaaccentcomb" unicode="&#x326;" horiz-adv-x="0" 
d="M209 -42v-168h-120v168h120z" />
    <glyph glyph-name="tonos" unicode="&#x384;" horiz-adv-x="0" 
d="M202 802h122l-51 -161h-123z" />
    <glyph glyph-name="dieresistonos" unicode="&#x385;" horiz-adv-x="0" 
d="M362 802l-51 -161h-123l52 161h122zM109 627c-35 0 -64 28 -64 63c0 36 29 67 64 67c36 0 66 -31 66 -67c0 -35 -30 -63 -66 -63zM424 627c-36 0 -65 28 -65 63c0 36 29 67 65 67c33 0 63 -31 63 -67c0 -35 -28 -63 -63 -63z" />
    <glyph glyph-name="Alphatonos" unicode="&#x386;" horiz-adv-x="568" 
d="M-7 800h122l-51 -161h-123zM174 174l-26 -174h-130l125 766c3 17 23 34 43 34h197c20 0 40 -17 43 -34l125 -766h-130l-26 174h-221zM376 304l-53 355c-2 7 -5 11 -9 11h-60c-5 0 -7 -4 -8 -11l-53 -355h183z" />
    <glyph glyph-name="Epsilontonos" unicode="&#x388;" horiz-adv-x="477" 
d="M449 670h-248v-194h221v-130h-221v-216h248v-130h-378v800h378v-130zM-67 800h122l-51 -161h-123z" />
    <glyph glyph-name="Etatonos" unicode="&#x389;" horiz-adv-x="577" 
d="M201 506h175v294h130v-800h-130v378h-175v-378h-130v800h130v-294zM-64 800h122l-51 -161h-123z" />
    <glyph glyph-name="Iotatonos" unicode="&#x38a;" horiz-adv-x="282" 
d="M-70 800h122l-51 -161h-123zM206 0h-130v800h130v-800z" />
    <glyph glyph-name="Omicrontonos" unicode="&#x38c;" horiz-adv-x="550" 
d="M56 134v528c0 40 14 74 42 102s62 42 102 42h150c40 0 74 -14 102 -42s42 -62 42 -102v-528c0 -40 -14 -74 -42 -102s-62 -42 -102 -42h-150c-40 0 -74 14 -102 42s-42 62 -42 102zM-55 800h122l-51 -161h-123zM186 662v-528c0 -11 3 -14 14 -14h150c11 0 14 3 14 14v528
c0 11 -3 14 -14 14h-150c-11 0 -14 -3 -14 -14z" />
    <glyph glyph-name="Upsilontonos" unicode="&#x38e;" horiz-adv-x="569" 
d="M551 800l-123 -546c-5 -19 -26 -32 -54 -32h-23v-222h-129v222h-20c-27 0 -50 13 -54 32l-130 546h133l99 -443c1 -5 3 -7 7 -7h61c5 0 7 2 7 7l96 443h130zM-123 800h122l-51 -161h-123z" />
    <glyph glyph-name="Omegatonos" unicode="&#x38f;" horiz-adv-x="565" 
d="M509 130v-130h-162v270c17 4 26 15 26 34v356c0 11 -5 16 -14 16h-154c-9 0 -14 -5 -14 -16v-356c0 -17 12 -32 27 -35v-269h-162v130h47v59c-28 28 -42 60 -42 95v378c0 40 14 74 42 102s62 42 102 42h154c40 0 74 -14 102 -42s42 -62 42 -102v-378
c0 -33 -14 -65 -41 -96v-58h47zM-49 800h122l-51 -161h-123z" />
    <glyph glyph-name="iotadieresistonos" unicode="&#x390;" horiz-adv-x="282" 
d="M133 1042h122l-51 -161h-123zM2 867c-35 0 -64 28 -64 63c0 36 29 67 64 67c36 0 66 -31 66 -67c0 -35 -30 -63 -66 -63zM317 867c-36 0 -65 28 -65 63c0 36 29 67 65 67c33 0 63 -31 63 -67c0 -35 -30 -63 -63 -63zM206 0h-130v800h130v-800z" />
    <glyph glyph-name="Alpha" unicode="&#x391;" horiz-adv-x="568" 
d="M395 174h-221l-26 -174h-130l125 766c3 17 23 34 43 34h197c20 0 40 -17 43 -34l125 -766h-130zM376 304l-53 355c-2 7 -5 11 -9 11h-60c-5 0 -7 -4 -8 -11l-53 -355h183z" />
    <glyph glyph-name="Beta" unicode="&#x392;" horiz-adv-x="560" 
d="M71 800h261c121 0 170 -46 170 -159v-105c0 -65 -26 -104 -77 -118c56 -16 84 -56 84 -120v-126c0 -123 -49 -172 -173 -172h-265v800zM201 483h134c25 0 36 15 36 51v106c0 21 -12 32 -37 32h-133v-189zM201 130h133c30 0 45 14 45 43v125c0 37 -13 55 -40 55h-138v-223
z" />
    <glyph glyph-name="Gamma" unicode="&#x393;" horiz-adv-x="455" 
d="M447 670h-246v-670h-130v800h376v-130z" />
    <glyph glyph-name="increment" unicode="&#x394;" horiz-adv-x="568" 
d="M426 766l125 -766h-533l125 766c3 17 23 34 43 34h197c20 0 40 -17 43 -34zM167 130h235l-79 529c-2 7 -5 11 -9 11h-60c-5 0 -7 -4 -8 -11z" />
    <glyph glyph-name="Epsilon" unicode="&#x395;" horiz-adv-x="484" 
d="M449 800v-130h-248v-194h221v-130h-221v-216h248v-130h-378v800h378z" />
    <glyph glyph-name="Zeta" unicode="&#x396;" horiz-adv-x="501" 
d="M28 670v130h446l-261 -670h261v-130h-446l262 670h-262z" />
    <glyph glyph-name="Eta" unicode="&#x397;" horiz-adv-x="577" 
d="M201 800v-294h175v294h130v-800h-130v378h-175v-378h-130v800h130z" />
    <glyph glyph-name="Theta" unicode="&#x398;" horiz-adv-x="550" 
d="M56 134v528c0 40 14 74 42 102s62 42 102 42h150c40 0 74 -14 102 -42s42 -62 42 -102v-528c0 -40 -14 -74 -42 -102s-62 -42 -102 -42h-150c-40 0 -74 14 -102 42s-42 62 -42 102zM186 662v-528c0 -11 3 -14 14 -14h150c11 0 14 3 14 14v528c0 11 -3 14 -14 14h-150
c-11 0 -14 -3 -14 -14zM343 461v-99h-141v99h141z" />
    <glyph glyph-name="Iota" unicode="&#x399;" horiz-adv-x="282" 
d="M206 800v-800h-130v800h130z" />
    <glyph glyph-name="Kappa" unicode="&#x39a;" horiz-adv-x="595" 
d="M200 800v-294h89l158 294h137l-187 -354v-9l187 -437h-137l-158 377h-89v-377h-129v800h129z" />
    <glyph glyph-name="Lambda" unicode="&#x39b;" horiz-adv-x="568" 
d="M186 800h197c20 0 40 -17 43 -34l125 -766h-130l-98 659c-2 7 -5 11 -9 11h-60c-5 0 -7 -4 -8 -11l-98 -659h-130l125 766c3 17 23 34 43 34z" />
    <glyph glyph-name="Mu" unicode="&#x39c;" horiz-adv-x="803" 
d="M338 800l63 -486l61 486h249l30 -800h-130l-28 670h-9l-113 -660h-119l-112 660h-10l-28 -670h-130l31 800h245z" />
    <glyph glyph-name="Nu" unicode="&#x39d;" horiz-adv-x="629" 
d="M296 800l127 -670h5v670h130v-800h-223l-129 670h-5v-670h-130v800h225z" />
    <glyph glyph-name="Xi" unicode="&#x39e;" horiz-adv-x="656" 
d="M543 800v-220h-130v91h-174v-91h-130v220h434zM502 506v-129h-349v129h349zM585 330v-330h-514v330h130v-201h254v201h130z" />
    <glyph glyph-name="Omicron" unicode="&#x39f;" horiz-adv-x="550" 
d="M56 134v528c0 40 14 74 42 102s62 42 102 42h150c40 0 74 -14 102 -42s42 -62 42 -102v-528c0 -40 -14 -74 -42 -102s-62 -42 -102 -42h-150c-40 0 -74 14 -102 42s-42 62 -42 102zM186 662v-528c0 -11 3 -14 14 -14h150c11 0 14 3 14 14v528c0 11 -3 14 -14 14h-150
c-11 0 -14 -3 -14 -14z" />
    <glyph glyph-name="Pi" unicode="&#x3a0;" horiz-adv-x="575" 
d="M503 0h-130v672h-172v-672h-130v800h432v-800z" />
    <glyph glyph-name="Rho" unicode="&#x3a1;" horiz-adv-x="530" 
d="M71 800h290c41 0 75 -13 102 -40c28 -26 42 -59 42 -98v-186c0 -40 -14 -74 -42 -102s-62 -42 -102 -42h-160v-332h-130v800zM201 462h160c11 0 14 3 14 14v184c0 7 -4 10 -11 10h-163v-208z" />
    <glyph glyph-name="Sigma" unicode="&#x3a3;" horiz-adv-x="532" 
d="M504 800v-130h-258l90 -265l-93 -275h258v-130h-445l146 403l-143 397h445z" />
    <glyph glyph-name="Tau" unicode="&#x3a4;" horiz-adv-x="474" 
d="M8 670v130h458v-130h-164v-670h-130v670h-164z" />
    <glyph glyph-name="Upsilon" unicode="&#x3a5;" horiz-adv-x="569" 
d="M551 800l-123 -546c-5 -19 -26 -32 -54 -32h-23v-222h-129v222h-20c-27 0 -50 13 -54 32l-130 546h133l99 -443c1 -5 3 -7 7 -7h61c5 0 7 2 7 7l96 443h130z" />
    <glyph glyph-name="Phi" unicode="&#x3a6;" horiz-adv-x="652" 
d="M391 706h53c43 0 78 -14 107 -42s44 -62 44 -102v-328c0 -40 -15 -74 -44 -102s-64 -42 -107 -42h-53v-90h-130v90h-53c-43 0 -79 14 -108 42s-44 62 -44 102v328c0 40 15 74 44 102s65 42 108 42h53v94h130v-94zM261 220v356h-49c-20 0 -26 -5 -26 -24v-308
c0 -19 5 -24 26 -24h49zM465 244v308c0 19 -5 24 -25 24h-49v-356h49c20 0 25 5 25 24z" />
    <glyph glyph-name="Chi" unicode="&#x3a7;" horiz-adv-x="543" 
d="M525 0h-132l-121 319l-121 -319h-133l178 437l-151 363h135l92 -274l92 274h135l-153 -363z" />
    <glyph glyph-name="Psi" unicode="&#x3a8;" horiz-adv-x="649" 
d="M463 801h130v-300c0 -87 -45 -144 -144 -144h-60v-357h-130v357h-59c-40 0 -74 14 -102 42s-42 62 -42 102v300h130v-300c0 -11 3 -14 14 -14h59v313h130v-313h60c11 0 14 3 14 14v300z" />
    <glyph glyph-name="Omega" unicode="&#x3a9;" horiz-adv-x="565" 
d="M462 130h47v-130h-162v270c17 4 26 15 26 34v356c0 11 -5 16 -14 16h-154c-9 0 -14 -5 -14 -16v-356c0 -17 12 -32 27 -35v-269h-162v130h47v59c-28 28 -42 60 -42 95v378c0 40 14 74 42 102s62 42 102 42h154c40 0 74 -14 102 -42s42 -62 42 -102v-378
c0 -33 -14 -65 -41 -96v-58z" />
    <glyph glyph-name="Iotadieresis" unicode="&#x3aa;" horiz-adv-x="282" 
d="M59 867c-35 0 -64 28 -64 63c0 36 29 67 64 67c36 0 66 -31 66 -67c0 -35 -30 -63 -66 -63zM227 867c-36 0 -65 28 -65 63c0 36 29 67 65 67c33 0 63 -31 63 -67c0 -35 -30 -63 -63 -63zM206 0h-130v800h130v-800z" />
    <glyph glyph-name="Upsilondieresis" unicode="&#x3ab;" horiz-adv-x="569" 
d="M551 800l-123 -546c-5 -19 -26 -32 -54 -32h-23v-222h-129v222h-20c-27 0 -50 13 -54 32l-130 546h133l99 -443c1 -5 3 -7 7 -7h61c5 0 7 2 7 7l96 443h130zM203 867c-35 0 -64 28 -64 63c0 36 29 67 64 67c36 0 66 -31 66 -67c0 -35 -30 -63 -66 -63zM371 867
c-36 0 -65 28 -65 63c0 36 29 67 65 67c33 0 63 -31 63 -67c0 -35 -30 -63 -63 -63z" />
    <glyph glyph-name="alphatonos" unicode="&#x3ac;" horiz-adv-x="568" 
d="M-7 800h122l-51 -161h-123zM174 174l-26 -174h-130l125 766c3 17 23 34 43 34h197c20 0 40 -17 43 -34l125 -766h-130l-26 174h-221zM376 304l-53 355c-2 7 -5 11 -9 11h-60c-5 0 -7 -4 -8 -11l-53 -355h183z" />
    <glyph glyph-name="epsilontonos" unicode="&#x3ad;" horiz-adv-x="477" 
d="M-71 800h122l-51 -161h-123zM201 670v-194h221v-130h-221v-216h248v-130h-378v800h378v-130h-248z" />
    <glyph glyph-name="etatonos" unicode="&#x3ae;" horiz-adv-x="577" 
d="M-75 800h122l-51 -161h-123zM376 506v294h130v-800h-130v378h-175v-378h-130v800h130v-294h175z" />
    <glyph glyph-name="iotatonos" unicode="&#x3af;" horiz-adv-x="282" 
d="M-65 800h122l-51 -161h-123zM206 0h-130v800h130v-800z" />
    <glyph glyph-name="upsilondieresistonos" unicode="&#x3b0;" horiz-adv-x="569" 
d="M277 1042h122l-51 -161h-123zM146 867c-35 0 -64 28 -64 63c0 36 29 67 64 67c36 0 66 -31 66 -67c0 -35 -30 -63 -66 -63zM461 867c-36 0 -65 28 -65 63c0 36 29 67 65 67c33 0 63 -31 63 -67c0 -35 -30 -63 -63 -63zM551 800l-123 -546c-5 -19 -26 -32 -54 -32h-23
v-222h-129v222h-20c-27 0 -50 13 -54 32l-130 546h133l99 -443c1 -5 3 -7 7 -7h61c5 0 7 2 7 7l96 443h130z" />
    <glyph glyph-name="alpha" unicode="&#x3b1;" horiz-adv-x="568" 
d="M174 174l-26 -174h-130l125 766c3 17 23 34 43 34h197c20 0 40 -17 43 -34l125 -766h-130l-26 174h-221zM376 304l-53 355c-2 7 -5 11 -9 11h-60c-5 0 -7 -4 -8 -11l-53 -355h183z" />
    <glyph glyph-name="beta" unicode="&#x3b2;" horiz-adv-x="560" 
d="M71 800h261c121 0 170 -46 170 -159v-105c0 -65 -26 -104 -77 -118c56 -16 84 -56 84 -120v-126c0 -123 -49 -172 -173 -172h-265v800zM201 483h134c25 0 36 15 36 51v106c0 21 -12 32 -37 32h-133v-189zM201 130h133c30 0 45 14 45 43v125c0 37 -13 55 -40 55h-138v-223
z" />
    <glyph glyph-name="gamma" unicode="&#x3b3;" horiz-adv-x="455" 
d="M201 670v-670h-130v800h376v-130h-246z" />
    <glyph glyph-name="delta" unicode="&#x3b4;" horiz-adv-x="568" 
d="M551 0h-533l125 766c3 17 23 34 43 34h197c20 0 40 -17 43 -34zM402 130l-79 529c-2 7 -5 11 -9 11h-60c-5 0 -7 -4 -8 -11l-79 -529h235z" />
    <glyph glyph-name="epsilon" unicode="&#x3b5;" horiz-adv-x="477" 
d="M449 670h-248v-194h221v-130h-221v-216h248v-130h-378v800h378v-130z" />
    <glyph glyph-name="zeta" unicode="&#x3b6;" horiz-adv-x="501" 
d="M28 800h446l-261 -670h261v-130h-446l262 670h-262v130z" />
    <glyph glyph-name="eta" unicode="&#x3b7;" horiz-adv-x="577" 
d="M201 506h175v294h130v-800h-130v378h-175v-378h-130v800h130v-294z" />
    <glyph glyph-name="theta" unicode="&#x3b8;" horiz-adv-x="550" 
d="M56 134v528c0 40 14 74 42 102s62 42 102 42h150c40 0 74 -14 102 -42s42 -62 42 -102v-528c0 -40 -14 -74 -42 -102s-62 -42 -102 -42h-150c-40 0 -74 14 -102 42s-42 62 -42 102zM186 662v-528c0 -11 3 -14 14 -14h150c11 0 14 3 14 14v528c0 11 -3 14 -14 14h-150
c-11 0 -14 -3 -14 -14zM343 362h-141v99h141v-99z" />
    <glyph glyph-name="iota" unicode="&#x3b9;" horiz-adv-x="282" 
d="M206 800v-800h-130v800h130z" />
    <glyph glyph-name="kappa" unicode="&#x3ba;" horiz-adv-x="595" 
d="M200 506h89l158 294h137l-187 -354v-9l187 -437h-137l-158 377h-89v-377h-129v800h129v-294z" />
    <glyph glyph-name="lambda" unicode="&#x3bb;" horiz-adv-x="568" 
d="M186 800h197c20 0 40 -17 43 -34l125 -766h-130l-98 659c-2 7 -5 11 -9 11h-60c-5 0 -7 -4 -8 -11l-98 -659h-130l125 766c3 17 23 34 43 34z" />
    <glyph glyph-name="mu" unicode="&#x3bc;" horiz-adv-x="803" 
d="M401 314l61 486h249l30 -800h-130l-28 670h-9l-113 -660h-119l-112 660h-10l-28 -670h-130l31 800h245z" />
    <glyph glyph-name="nu" unicode="&#x3bd;" horiz-adv-x="629" 
d="M423 130h5v670h130v-800h-223l-129 670h-5v-670h-130v800h225z" />
    <glyph glyph-name="xi" unicode="&#x3be;" horiz-adv-x="656" 
d="M543 580h-130v91h-174v-91h-130v220h434v-220zM502 377h-349v129h349v-129zM585 0h-514v330h130v-201h254v201h130v-330z" />
    <glyph glyph-name="omicron" unicode="&#x3bf;" horiz-adv-x="550" 
d="M56 134v528c0 40 14 74 42 102s62 42 102 42h150c40 0 74 -14 102 -42s42 -62 42 -102v-528c0 -40 -14 -74 -42 -102s-62 -42 -102 -42h-150c-40 0 -74 14 -102 42s-42 62 -42 102zM186 662v-528c0 -11 3 -14 14 -14h150c11 0 14 3 14 14v528c0 11 -3 14 -14 14h-150
c-11 0 -14 -3 -14 -14z" />
    <glyph glyph-name="pi" unicode="&#x3c0;" horiz-adv-x="575" 
d="M373 0v672h-172v-672h-130v800h432v-800h-130z" />
    <glyph glyph-name="rho" unicode="&#x3c1;" horiz-adv-x="530" 
d="M71 800h290c41 0 75 -13 102 -40c28 -26 42 -59 42 -98v-186c0 -40 -14 -74 -42 -102s-62 -42 -102 -42h-160v-332h-130v800zM201 462h160c11 0 14 3 14 14v184c0 7 -4 10 -11 10h-163v-208z" />
    <glyph glyph-name="sigmafinal" unicode="&#x3c2;" horiz-adv-x="532" 
d="M504 670h-258l90 -265l-93 -275h258v-130h-445l146 403l-143 397h445v-130z" />
    <glyph glyph-name="sigma" unicode="&#x3c3;" horiz-adv-x="532" 
d="M504 670h-258l90 -265l-93 -275h258v-130h-445l146 403l-143 397h445v-130z" />
    <glyph glyph-name="tau" unicode="&#x3c4;" horiz-adv-x="474" 
d="M8 800h458v-130h-164v-670h-130v670h-164v130z" />
    <glyph glyph-name="upsilon" unicode="&#x3c5;" horiz-adv-x="569" 
d="M551 800l-123 -546c-5 -19 -26 -32 -54 -32h-23v-222h-129v222h-20c-27 0 -50 13 -54 32l-130 546h133l99 -443c1 -5 3 -7 7 -7h61c5 0 7 2 7 7l96 443h130z" />
    <glyph glyph-name="phi" unicode="&#x3c6;" horiz-adv-x="652" 
d="M391 706h53c43 0 78 -14 107 -42s44 -62 44 -102v-328c0 -40 -15 -74 -44 -102s-64 -42 -107 -42h-53v-90h-130v90h-53c-43 0 -79 14 -108 42s-44 62 -44 102v328c0 40 15 74 44 102s65 42 108 42h53v94h130v-94zM261 576h-49c-20 0 -26 -5 -26 -24v-308
c0 -19 5 -24 26 -24h49v356zM465 244v308c0 19 -5 24 -25 24h-49v-356h49c20 0 25 5 25 24z" />
    <glyph glyph-name="chi" unicode="&#x3c7;" horiz-adv-x="560" 
d="M393 0l-121 319l-121 -319h-133l178 437l-151 363h135l92 -274l92 274h135l-153 -363l179 -437h-132z" />
    <glyph glyph-name="psi" unicode="&#x3c8;" horiz-adv-x="649" 
d="M593 801v-300c0 -87 -45 -144 -144 -144h-60v-357h-130v357h-59c-40 0 -74 14 -102 42s-42 62 -42 102v300h130v-300c0 -11 3 -14 14 -14h59v313h130v-313h60c11 0 14 3 14 14v300h130z" />
    <glyph glyph-name="omega" unicode="&#x3c9;" horiz-adv-x="565" 
d="M509 130v-130h-162v270c17 4 26 15 26 34v356c0 11 -5 16 -14 16h-154c-9 0 -14 -5 -14 -16v-356c0 -17 12 -32 27 -35v-269h-162v130h47v59c-28 28 -42 60 -42 95v378c0 40 14 74 42 102s62 42 102 42h154c40 0 74 -14 102 -42s42 -62 42 -102v-378
c0 -33 -14 -65 -41 -96v-58h47z" />
    <glyph glyph-name="iotadieresis" unicode="&#x3ca;" horiz-adv-x="282" 
d="M58 867c-35 0 -64 28 -64 63c0 36 29 67 64 67c36 0 66 -31 66 -67c0 -35 -30 -63 -66 -63zM226 867c-36 0 -65 28 -65 63c0 36 29 67 65 67c33 0 63 -31 63 -67c0 -35 -28 -63 -63 -63zM206 0h-130v800h130v-800z" />
    <glyph glyph-name="upsilondieresis" unicode="&#x3cb;" horiz-adv-x="569" 
d="M202 867c-35 0 -64 28 -64 63c0 36 29 67 64 67c36 0 66 -31 66 -67c0 -35 -30 -63 -66 -63zM370 867c-36 0 -65 28 -65 63c0 36 29 67 65 67c33 0 63 -31 63 -67c0 -35 -28 -63 -63 -63zM551 800l-123 -546c-5 -19 -26 -32 -54 -32h-23v-222h-129v222h-20
c-27 0 -50 13 -54 32l-130 546h133l99 -443c1 -5 3 -7 7 -7h61c5 0 7 2 7 7l96 443h130z" />
    <glyph glyph-name="omicrontonos" unicode="&#x3cc;" horiz-adv-x="550" 
d="M56 134v528c0 40 14 74 42 102s62 42 102 42h150c40 0 74 -14 102 -42s42 -62 42 -102v-528c0 -40 -14 -74 -42 -102s-62 -42 -102 -42h-150c-40 0 -74 14 -102 42s-42 62 -42 102zM-59 800h122l-51 -161h-123zM186 662v-528c0 -11 3 -14 14 -14h150c11 0 14 3 14 14v528
c0 11 -3 14 -14 14h-150c-11 0 -14 -3 -14 -14z" />
    <glyph glyph-name="upsilontonos" unicode="&#x3cd;" horiz-adv-x="569" 
d="M551 800l-123 -546c-5 -19 -26 -32 -54 -32h-23v-222h-129v222h-20c-27 0 -50 13 -54 32l-130 546h133l99 -443c1 -5 3 -7 7 -7h61c5 0 7 2 7 7l96 443h130zM-119 800h122l-51 -161h-123z" />
    <glyph glyph-name="omegatonos" unicode="&#x3ce;" horiz-adv-x="565" 
d="M509 0h-162v270c17 4 26 15 26 34v356c0 11 -5 16 -14 16h-154c-9 0 -14 -5 -14 -16v-356c0 -17 12 -32 27 -35v-269h-162v130h47v59c-28 28 -42 60 -42 95v378c0 40 14 74 42 102s62 42 102 42h154c40 0 74 -14 102 -42s42 -62 42 -102v-378c0 -33 -14 -65 -41 -96v-58
h47v-130zM-55 800h122l-51 -161h-123z" />
    <glyph glyph-name="uni0401" unicode="&#x401;" horiz-adv-x="477" 
d="M184 867c-35 0 -64 28 -64 63c0 36 29 67 64 67c36 0 66 -31 66 -67c0 -35 -30 -63 -66 -63zM352 867c-36 0 -65 28 -65 63c0 36 29 67 65 67c33 0 63 -31 63 -67c0 -35 -28 -63 -63 -63zM449 670h-248v-194h221v-130h-221v-216h248v-130h-378v800h378v-130z" />
    <glyph glyph-name="uni0402" unicode="&#x402;" horiz-adv-x="638" 
d="M302 670v-157c84 37 144 56 179 56c53 0 96 -43 96 -96v-478c0 -42 -15 -78 -45 -107c-30 -30 -66 -45 -108 -44h-90v130h89c16 -1 24 6 24 21v412c0 12 -3 18 -10 18l-135 -42v-383h-130v670h-164v130h459v-130h-165z" />
    <glyph glyph-name="uni0403" unicode="&#x403;" horiz-adv-x="455" 
d="M447 670h-246v-670h-130v800h376v-130zM269 1005h125l-101 -131h-126z" />
    <glyph glyph-name="uni0404" unicode="&#x404;" 
d="M200 806h150c40 0 74 -14 102 -42s42 -62 42 -102v-85h-130v80c0 13 -5 19 -14 19h-150c-9 0 -14 -6 -14 -19v-181h256v-130h-256v-212c0 -11 3 -14 14 -14h150c11 0 14 3 14 14v116h130v-116c0 -40 -14 -74 -42 -102s-62 -42 -102 -42h-150c-40 0 -74 14 -102 42
s-42 62 -42 102v528c0 40 14 74 42 102s62 42 102 42z" />
    <glyph glyph-name="uni0405" unicode="&#x405;" horiz-adv-x="523" 
d="M175 282v-148c0 -11 3 -14 14 -14h139c11 0 14 3 14 14v77c5 50 -25 94 -49 118c-6 8 -18 18 -35 29s-29 19 -35 22l-42 24c-79 44 -130 114 -130 203v55c0 40 14 74 42 102s62 42 102 42h139c40 0 74 -17 102 -51c28 -33 42 -74 42 -123h-130c0 29 -8 44 -24 44h-127
c-11 0 -16 -5 -16 -16v-53c0 -27 8 -47 39 -71c15 -11 27 -20 35 -25l49 -27l16 -9c89 -49 152 -137 152 -264v-77c0 -40 -14 -74 -42 -102s-62 -42 -102 -42h-139c-40 0 -74 14 -102 42s-42 62 -42 102v148h130z" />
    <glyph glyph-name="uni0406" unicode="&#x406;" horiz-adv-x="282" 
d="M206 800v-800h-130v800h130z" />
    <glyph glyph-name="uni0407" unicode="&#x407;" horiz-adv-x="282" 
d="M58 867c-35 0 -64 28 -64 63c0 36 29 67 64 67c36 0 66 -31 66 -67c0 -35 -30 -63 -66 -63zM226 867c-36 0 -65 28 -65 63c0 36 29 67 65 67c33 0 63 -31 63 -67c0 -35 -28 -63 -63 -63zM206 0h-130v800h130v-800z" />
    <glyph glyph-name="uni0408" unicode="&#x408;" horiz-adv-x="510" 
d="M150 292v-158c0 -11 3 -14 14 -14h146c11 0 14 3 14 14v666h130v-666c0 -40 -14 -74 -42 -102s-62 -42 -102 -42h-146c-40 0 -74 14 -102 42s-42 62 -42 102v158h130z" />
    <glyph glyph-name="uni0409" unicode="&#x409;" horiz-adv-x="910" 
d="M580 801v-288c106 38 168 57 187 57c53 0 87 -37 87 -97v-350c0 -37 -13 -69 -39 -95s-57 -39 -94 -38h-138c-37 0 -68 13 -94 39s-39 57 -39 94v227h-1v321h-155l-22 -465c-4 -80 -24 -134 -48 -165c-12 -15 -29 -26 -52 -34c-23 -7 -44 -12 -63 -13
c-19 -2 -45 -3 -79 -3h-10v130h10c43 0 72 5 86 15c15 10 23 32 24 66l25 599h415zM724 133v277c0 9 -4 14 -11 14c-9 0 -53 -13 -133 -40v-251c0 -10 4 -15 12 -15h119c9 0 13 5 13 15z" />
    <glyph glyph-name="uni040A" unicode="&#x40a;" horiz-adv-x="831" 
d="M501 708v-195c106 38 168 57 187 57c53 0 87 -37 87 -97v-350c0 -37 -13 -69 -39 -95s-57 -39 -94 -38h-138c-37 0 -69 13 -95 39c-25 26 -38 57 -38 94v227h-1v28h-169v-378h-130v800h130v-294h169v294h130v-92h1zM645 133v277c0 9 -4 14 -11 14c-9 0 -53 -13 -133 -40
v-251c0 -10 4 -15 12 -15h119c9 0 13 5 13 15z" />
    <glyph glyph-name="uni040B" unicode="&#x40b;" horiz-adv-x="638" 
d="M302 670v-157c84 37 144 56 179 56c53 0 96 -43 96 -96v-473h-130v407c0 12 -3 18 -10 18l-135 -42v-383h-130v670h-164v130h459v-130h-165z" />
    <glyph glyph-name="uni040C" unicode="&#x40c;" horiz-adv-x="617" 
d="M602 799v-129c-12 -6 -74 -7 -102 -56l-105 -168v-8l212 -438h-137l-183 378h-87v-378h-129v800h129v-294h88l69 106c80 132 158 178 245 187zM346 1005h125l-101 -131h-126z" />
    <glyph glyph-name="uni040E" unicode="&#x40e;" horiz-adv-x="569" 
d="M552 800l-183 -800h-130l48 218h-96c-20 0 -40 17 -43 34l-130 548h133l96 -445c1 -5 3 -7 6 -7h62c4 0 6 2 6 7l101 445h130zM307 990h74c0 -53 -43 -96 -96 -96s-96 43 -96 96h75c0 -13 7 -20 21 -20c15 0 22 7 22 20z" />
    <glyph glyph-name="uni040F" unicode="&#x40f;" horiz-adv-x="575" 
d="M504 800v-800h-150v-156h-130v156h-152v800h130v-672h172v672h130z" />
    <glyph glyph-name="uni0410" unicode="&#x410;" horiz-adv-x="568" 
d="M395 174h-221l-26 -174h-130l125 766c3 17 23 34 43 34h197c20 0 40 -17 43 -34l125 -766h-130zM376 304l-53 355c-2 7 -5 11 -9 11h-60c-5 0 -7 -4 -8 -11l-53 -355h183z" />
    <glyph glyph-name="uni0411" unicode="&#x411;" horiz-adv-x="532" 
d="M202 671v-158c106 38 168 57 187 57c53 0 87 -37 87 -97v-350c0 -37 -13 -69 -39 -95s-57 -39 -94 -38h-138c-37 0 -68 13 -94 39s-39 57 -39 94v380h-1v298h366v-130h-235zM346 133v277c0 9 -4 14 -11 14c-9 0 -53 -13 -133 -40v-251c0 -10 4 -15 12 -15h119
c9 0 13 5 13 15z" />
    <glyph glyph-name="uni0412" unicode="&#x412;" horiz-adv-x="560" 
d="M71 800h261c121 0 170 -46 170 -159v-105c0 -65 -26 -104 -77 -118c56 -16 84 -56 84 -120v-126c0 -123 -49 -172 -173 -172h-265v800zM201 483h134c25 0 36 15 36 51v106c0 21 -12 32 -37 32h-133v-189zM201 130h133c30 0 45 14 45 43v125c0 37 -13 55 -40 55h-138v-223
z" />
    <glyph glyph-name="uni0413" unicode="&#x413;" horiz-adv-x="455" 
d="M447 800v-130h-246v-670h-130v800h376z" />
    <glyph glyph-name="uni0414" unicode="&#x414;" horiz-adv-x="745" 
d="M595 129h143v-220h-130v91h-590v126h8c77 0 107 34 111 105l26 570h432v-672zM465 129v542h-174l-21 -442c-2 -48 -10 -81 -25 -100h220z" />
    <glyph glyph-name="uni0415" unicode="&#x415;" horiz-adv-x="484" 
d="M449 800v-130h-248v-194h221v-130h-221v-216h248v-130h-378v800h378z" />
    <glyph glyph-name="uni0416" unicode="&#x416;" horiz-adv-x="875" 
d="M852 799v-129c-23 -4 -73 -9 -102 -56l-105 -168v-8l212 -438h-137l-183 378h-33v-378h-130v378h-36l-183 -378h-137l212 438v8l-105 168c-18 29 -52 48 -102 56v129c87 -9 165 -55 245 -187l69 -106h37v294h130v-294h34l69 106c80 132 158 178 245 187z" />
    <glyph glyph-name="uni0417" unicode="&#x417;" horiz-adv-x="496" 
d="M32 800h273c81 0 133 -43 133 -122v-116c0 -65 -16 -105 -47 -118c36 -13 54 -53 54 -120v-208c0 -79 -50 -120 -133 -120h-146c-83 0 -137 43 -137 120v166h130v-137c0 -13 4 -19 13 -19h131c8 0 12 6 12 19v169c0 36 -12 50 -43 50h-182v130h182c25 0 36 19 36 68v94
c0 8 -4 12 -11 12h-265v132z" />
    <glyph glyph-name="uni0418" unicode="&#x418;" horiz-adv-x="620" 
d="M549 800v-800h-130v492l-218 -459v-33h-130v800h130v-492l218 460v32h130z" />
    <glyph glyph-name="uni0419" unicode="&#x419;" horiz-adv-x="620" 
d="M549 0h-130v492l-218 -459v-33h-130v800h130v-492l218 460v32h130v-800zM333 990h74c0 -53 -43 -96 -96 -96s-96 43 -96 96h75c0 -13 7 -20 21 -20c15 0 22 7 22 20z" />
    <glyph glyph-name="uni041A" unicode="&#x41a;" horiz-adv-x="617" 
d="M602 799v-129c-12 -6 -74 -7 -102 -56l-105 -168v-8l212 -438h-137l-183 378h-87v-378h-129v800h129v-294h88l69 106c80 132 158 178 245 187z" />
    <glyph glyph-name="uni041B" unicode="&#x41b;" horiz-adv-x="651" 
d="M580 801v-801h-130v671h-156l-22 -465c-4 -80 -24 -134 -48 -165c-12 -15 -29 -26 -52 -34c-23 -7 -44 -12 -63 -13c-19 -2 -45 -3 -79 -3h-10v130h10c43 0 72 5 86 15c15 10 23 32 24 66l25 599h415z" />
    <glyph glyph-name="uni041C" unicode="&#x41c;" horiz-adv-x="803" 
d="M338 800l63 -486l61 486h249l30 -800h-130l-28 670h-9l-113 -660h-119l-112 660h-10l-28 -670h-130l31 800h245z" />
    <glyph glyph-name="uni041D" unicode="&#x41d;" horiz-adv-x="577" 
d="M201 800v-294h175v294h130v-800h-130v378h-175v-378h-130v800h130z" />
    <glyph glyph-name="uni041E" unicode="&#x41e;" horiz-adv-x="550" 
d="M56 134v528c0 40 14 74 42 102s62 42 102 42h150c40 0 74 -14 102 -42s42 -62 42 -102v-528c0 -40 -14 -74 -42 -102s-62 -42 -102 -42h-150c-40 0 -74 14 -102 42s-42 62 -42 102zM186 662v-528c0 -11 3 -14 14 -14h150c11 0 14 3 14 14v528c0 11 -3 14 -14 14h-150
c-11 0 -14 -3 -14 -14z" />
    <glyph glyph-name="uni041F" unicode="&#x41f;" horiz-adv-x="575" 
d="M503 800v-800h-130v672h-172v-672h-130v800h432z" />
    <glyph glyph-name="uni0420" unicode="&#x420;" horiz-adv-x="530" 
d="M71 800h290c41 0 75 -13 102 -40c28 -26 42 -59 42 -98v-186c0 -40 -14 -74 -42 -102s-62 -42 -102 -42h-160v-332h-130v800zM201 462h160c11 0 14 3 14 14v184c0 7 -4 10 -11 10h-163v-208z" />
    <glyph glyph-name="uni0421" unicode="&#x421;" horiz-adv-x="545" 
d="M56 134v528c0 40 14 74 42 102s62 42 102 42h150c40 0 74 -14 102 -42s42 -62 42 -102v-126h-130v124c0 11 -5 16 -15 16h-148c-10 0 -15 -5 -15 -16v-525c0 -10 5 -15 14 -15h153c7 0 11 5 11 15v157h130v-158c0 -40 -14 -74 -42 -102s-62 -42 -102 -42h-150
c-40 0 -74 14 -102 42s-42 62 -42 102z" />
    <glyph glyph-name="uni0422" unicode="&#x422;" horiz-adv-x="474" 
d="M8 670v130h458v-130h-164v-670h-130v670h-164z" />
    <glyph glyph-name="uni0423" unicode="&#x423;" horiz-adv-x="569" 
d="M422 800h130l-183 -800h-130l48 218h-8h-88c-20 0 -40 17 -43 34l-130 548h133l96 -445c1 -5 3 -7 6 -7h62c4 0 6 2 6 7z" />
    <glyph glyph-name="uni0424" unicode="&#x424;" horiz-adv-x="652" 
d="M391 706h53c43 0 78 -14 107 -42s44 -62 44 -102v-328c0 -40 -15 -74 -44 -102s-64 -42 -107 -42h-53v-90h-130v90h-53c-43 0 -79 14 -108 42s-44 62 -44 102v328c0 40 15 74 44 102s65 42 108 42h53v94h130v-94zM212 220h49v356h-49c-20 0 -26 -5 -26 -24v-308
c0 -19 5 -24 26 -24zM465 244v308c0 19 -5 24 -25 24h-49v-356h49c20 0 25 5 25 24z" />
    <glyph glyph-name="uni0425" unicode="&#x425;" horiz-adv-x="543" 
d="M525 0h-132l-121 319l-121 -319h-133l178 437l-151 363h135l92 -274l92 274h135l-153 -363z" />
    <glyph glyph-name="uni0426" unicode="&#x426;" horiz-adv-x="597" 
d="M504 129h86v-220h-130v91h-388v800h130v-672h172v672h130v-671z" />
    <glyph glyph-name="uni0427" unicode="&#x427;" horiz-adv-x="544" 
d="M472 801v-801h-130v332c-92 -38 -154 -57 -185 -57c-53 0 -96 43 -96 96v430h130v-360c0 -13 8 -27 20 -27c26 0 70 16 131 47v340h130z" />
    <glyph glyph-name="uni0428" unicode="&#x428;" horiz-adv-x="772" 
d="M701 800v-800h-630v800h130v-671h120v671h130v-671h120v671h130z" />
    <glyph glyph-name="uni0429" unicode="&#x429;" horiz-adv-x="797" 
d="M701 129h88v-220h-130v91h-588v800h130v-671h120v671h130v-671h120v671h130v-671z" />
    <glyph glyph-name="uni042A" unicode="&#x42a;" horiz-adv-x="673" 
d="M344 708v-195c106 38 168 57 187 57c53 0 87 -37 87 -97v-350c0 -37 -13 -69 -39 -95s-57 -39 -94 -38h-138c-37 0 -68 13 -94 39s-39 57 -39 94v380h-1v168h-205v130h335v-93h1zM488 133v277c0 9 -4 14 -11 14c-9 0 -53 -13 -133 -40v-251c0 -10 4 -15 12 -15h119
c9 0 13 5 13 15z" />
    <glyph glyph-name="uni042B" unicode="&#x42b;" horiz-adv-x="777" 
d="M202 708v-195c106 38 168 57 187 57c53 0 87 -37 87 -97v-350c0 -37 -13 -69 -39 -95s-57 -39 -94 -38h-138c-37 0 -68 13 -94 39s-39 57 -39 94v227h-1v450h130v-92h1zM706 800v-800h-130v800h130zM346 133v277c0 9 -4 14 -11 14c-9 0 -53 -13 -133 -40v-251
c0 -10 4 -15 12 -15h119c9 0 13 5 13 15z" />
    <glyph glyph-name="uni042C" unicode="&#x42c;" horiz-adv-x="512" 
d="M187 708v-195c106 38 168 57 187 57c53 0 87 -37 87 -97v-350c0 -37 -13 -69 -39 -95c-25 -26 -57 -39 -94 -38h-138c-37 0 -69 13 -95 39c-25 26 -38 57 -38 94v227h-1v450h130v-92h1zM331 133v277c0 9 -4 14 -11 14c-9 0 -53 -13 -133 -40v-251c0 -10 4 -15 12 -15h119
c9 0 13 5 13 15z" />
    <glyph glyph-name="uni042D" unicode="&#x42d;" 
d="M172 806h150c40 0 74 -14 102 -42s42 -62 42 -102v-528c0 -40 -14 -74 -42 -102s-62 -42 -102 -42h-150c-40 0 -74 14 -102 42s-42 62 -42 102v116h130v-116c0 -11 3 -14 14 -14h150c11 0 14 3 14 14v212h-256v130h256v181c0 13 -5 19 -14 19h-150c-9 0 -14 -6 -14 -19
v-80h-130v85c0 40 14 74 42 102s62 42 102 42z" />
    <glyph glyph-name="uni042E" unicode="&#x42e;" horiz-adv-x="846" 
d="M496 806h150c40 0 74 -14 102 -42s42 -62 42 -102v-528c0 -40 -14 -74 -42 -102s-62 -42 -102 -42h-150c-40 0 -74 14 -102 42s-42 62 -42 102v244h-151v-378h-130v800h130v-294h151v156c0 40 14 74 42 102s62 42 102 42zM660 134v528c0 11 -3 14 -14 14h-150
c-11 0 -14 -3 -14 -14v-528c0 -11 3 -14 14 -14h150c11 0 14 3 14 14z" />
    <glyph glyph-name="uni042F" unicode="&#x42f;" horiz-adv-x="550" 
d="M152 0h-133l131 387c-63 17 -105 74 -105 139v136c0 39 14 72 41 98c28 27 62 40 103 40h290v-800h-130v382h-71zM189 512h160v158h-160h-3c-9 0 -11 0 -11 -8v-136c0 -11 3 -14 14 -14z" />
    <glyph glyph-name="uni0430" unicode="&#x430;" horiz-adv-x="568" 
d="M174 174l-26 -174h-130l125 766c3 17 23 34 43 34h197c20 0 40 -17 43 -34l125 -766h-130l-26 174h-221zM376 304l-53 355c-2 7 -5 11 -9 11h-60c-5 0 -7 -4 -8 -11l-53 -355h183z" />
    <glyph glyph-name="uni0431" unicode="&#x431;" horiz-adv-x="532" 
d="M202 671v-158c106 38 168 57 187 57c53 0 87 -37 87 -97v-350c0 -37 -13 -69 -39 -95s-57 -39 -94 -38h-138c-37 0 -68 13 -94 39s-39 57 -39 94v380h-1v298h366v-130h-235zM346 133v277c0 9 -4 14 -11 14c-9 0 -53 -13 -133 -40v-251c0 -10 4 -15 12 -15h119
c9 0 13 5 13 15z" />
    <glyph glyph-name="uni0432" unicode="&#x432;" horiz-adv-x="560" 
d="M71 800h261c121 0 170 -46 170 -159v-105c0 -65 -26 -104 -77 -118c56 -16 84 -56 84 -120v-126c0 -123 -49 -172 -173 -172h-265v800zM201 483h134c25 0 36 15 36 51v106c0 21 -12 32 -37 32h-133v-189zM201 130h133c30 0 45 14 45 43v125c0 37 -13 55 -40 55h-138v-223
z" />
    <glyph glyph-name="uni0433" unicode="&#x433;" horiz-adv-x="455" 
d="M447 670h-246v-670h-130v800h376v-130z" />
    <glyph glyph-name="uni0434" unicode="&#x434;" horiz-adv-x="745" 
d="M595 129h143v-220h-130v91h-590v126h8c77 0 107 34 111 105l26 570h432v-672zM465 129v542h-174l-21 -442c-2 -48 -10 -81 -25 -100h220z" />
    <glyph glyph-name="uni0435" unicode="&#x435;" horiz-adv-x="477" 
d="M449 670h-248v-194h221v-130h-221v-216h248v-130h-378v800h378v-130z" />
    <glyph glyph-name="uni0436" unicode="&#x436;" horiz-adv-x="875" 
d="M852 799v-129c-23 -4 -73 -9 -102 -56l-105 -168v-8l212 -438h-137l-183 378h-33v-378h-130v378h-36l-183 -378h-137l212 438v8l-105 168c-18 29 -52 48 -102 56v129c87 -9 165 -55 245 -187l69 -106h37v294h130v-294h34l69 106c80 132 158 178 245 187z" />
    <glyph glyph-name="uni0437" unicode="&#x437;" horiz-adv-x="496" 
d="M32 800h273c81 0 133 -43 133 -122v-116c0 -65 -16 -105 -47 -118c36 -13 54 -53 54 -120v-208c0 -79 -50 -120 -133 -120h-146c-83 0 -137 43 -137 120v166h130v-137c0 -13 4 -19 13 -19h131c8 0 12 6 12 19v169c0 36 -12 50 -43 50h-182v130h182c25 0 36 19 36 68v94
c0 8 -4 12 -11 12h-265v132z" />
    <glyph glyph-name="uni0438" unicode="&#x438;" horiz-adv-x="620" 
d="M549 0h-130v492l-218 -459v-33h-130v800h130v-492l218 460v32h130v-800z" />
    <glyph glyph-name="uni0439" unicode="&#x439;" horiz-adv-x="620" 
d="M339 990h74c0 -53 -43 -96 -96 -96s-96 43 -96 96h75c0 -13 7 -20 21 -20c15 0 22 7 22 20zM419 0v492l-218 -459v-33h-130v800h130v-492l218 460v32h130v-800h-130z" />
    <glyph glyph-name="uni043A" unicode="&#x43a;" horiz-adv-x="617" 
d="M602 799v-129c-12 -6 -74 -7 -102 -56l-105 -168v-8l212 -438h-137l-183 378h-87v-378h-129v800h129v-294h88l69 106c80 132 158 178 245 187z" />
    <glyph glyph-name="uni043B" unicode="&#x43b;" horiz-adv-x="651" 
d="M580 0h-130v671h-156l-22 -465c-4 -80 -24 -134 -48 -165c-12 -15 -29 -26 -52 -34c-23 -7 -44 -12 -63 -13c-19 -2 -45 -3 -79 -3h-10v130h10c43 0 72 5 86 15c15 10 23 32 24 66l25 599h415v-801z" />
    <glyph glyph-name="uni043C" unicode="&#x43c;" horiz-adv-x="803" 
d="M401 314l61 486h249l30 -800h-130l-28 670h-9l-113 -660h-119l-112 660h-10l-28 -670h-130l31 800h245z" />
    <glyph glyph-name="uni043D" unicode="&#x43d;" horiz-adv-x="577" 
d="M201 506h175v294h130v-800h-130v378h-175v-378h-130v800h130v-294z" />
    <glyph glyph-name="uni043E" unicode="&#x43e;" horiz-adv-x="550" 
d="M56 134v528c0 40 14 74 42 102s62 42 102 42h150c40 0 74 -14 102 -42s42 -62 42 -102v-528c0 -40 -14 -74 -42 -102s-62 -42 -102 -42h-150c-40 0 -74 14 -102 42s-42 62 -42 102zM186 662v-528c0 -11 3 -14 14 -14h150c11 0 14 3 14 14v528c0 11 -3 14 -14 14h-150
c-11 0 -14 -3 -14 -14z" />
    <glyph glyph-name="uni043F" unicode="&#x43f;" horiz-adv-x="575" 
d="M503 0h-130v672h-172v-672h-130v800h432v-800z" />
    <glyph glyph-name="uni0440" unicode="&#x440;" horiz-adv-x="530" 
d="M71 800h290c41 0 75 -13 102 -40c28 -26 42 -59 42 -98v-186c0 -40 -14 -74 -42 -102s-62 -42 -102 -42h-160v-332h-130v800zM201 462h160c11 0 14 3 14 14v184c0 7 -4 10 -11 10h-163v-208z" />
    <glyph glyph-name="uni0441" unicode="&#x441;" horiz-adv-x="545" 
d="M56 134v528c0 40 14 74 42 102s62 42 102 42h150c40 0 74 -14 102 -42s42 -62 42 -102v-126h-130v124c0 11 -5 16 -15 16h-148c-10 0 -15 -5 -15 -16v-525c0 -10 5 -15 14 -15h153c7 0 11 5 11 15v157h130v-158c0 -40 -14 -74 -42 -102s-62 -42 -102 -42h-150
c-40 0 -74 14 -102 42s-42 62 -42 102z" />
    <glyph glyph-name="uni0442" unicode="&#x442;" horiz-adv-x="474" 
d="M8 800h458v-130h-164v-670h-130v670h-164v130z" />
    <glyph glyph-name="uni0443" unicode="&#x443;" horiz-adv-x="569" 
d="M552 800l-183 -800h-130l48 218h-96c-20 0 -40 17 -43 34l-130 548h133l96 -445c1 -5 3 -7 6 -7h62c4 0 6 2 6 7l101 445h130z" />
    <glyph glyph-name="uni0444" unicode="&#x444;" horiz-adv-x="652" 
d="M391 706h53c43 0 78 -14 107 -42s44 -62 44 -102v-328c0 -40 -15 -74 -44 -102s-64 -42 -107 -42h-53v-90h-130v90h-53c-43 0 -79 14 -108 42s-44 62 -44 102v328c0 40 15 74 44 102s65 42 108 42h53v94h130v-94zM261 220v356h-49c-20 0 -26 -5 -26 -24v-308
c0 -19 5 -24 26 -24h49zM465 244v308c0 19 -5 24 -25 24h-49v-356h49c20 0 25 5 25 24z" />
    <glyph glyph-name="uni0445" unicode="&#x445;" horiz-adv-x="560" 
d="M393 0l-121 319l-121 -319h-133l178 437l-151 363h135l92 -274l92 274h135l-153 -363l179 -437h-132z" />
    <glyph glyph-name="uni0446" unicode="&#x446;" horiz-adv-x="597" 
d="M590 129v-220h-130v91h-388v800h130v-672h172v672h130v-671h86z" />
    <glyph glyph-name="uni0447" unicode="&#x447;" horiz-adv-x="544" 
d="M472 0h-130v332c-92 -38 -154 -57 -185 -57c-53 0 -96 43 -96 96v430h130v-360c0 -13 8 -27 20 -27c26 0 70 16 131 47v340h130v-801z" />
    <glyph glyph-name="uni0448" unicode="&#x448;" horiz-adv-x="772" 
d="M701 0h-630v800h130v-671h120v671h130v-671h120v671h130v-800z" />
    <glyph glyph-name="uni0449" unicode="&#x449;" horiz-adv-x="797" 
d="M789 129v-220h-130v91h-588v800h130v-671h120v671h130v-671h120v671h130v-671h88z" />
    <glyph glyph-name="uni044A" unicode="&#x44a;" horiz-adv-x="673" 
d="M344 708v-195c106 38 168 57 187 57c53 0 87 -37 87 -97v-350c0 -37 -13 -69 -39 -95s-57 -39 -94 -38h-138c-37 0 -68 13 -94 39s-39 57 -39 94v380h-1v168h-205v130h335v-93h1zM488 133v277c0 9 -4 14 -11 14c-9 0 -53 -13 -133 -40v-251c0 -10 4 -15 12 -15h119
c9 0 13 5 13 15z" />
    <glyph glyph-name="uni044B" unicode="&#x44b;" horiz-adv-x="777" 
d="M202 708v-195c106 38 168 57 187 57c53 0 87 -37 87 -97v-350c0 -37 -13 -69 -39 -95s-57 -39 -94 -38h-138c-37 0 -68 13 -94 39s-39 57 -39 94v227h-1v450h130v-92h1zM706 800v-800h-130v800h130zM346 133v277c0 9 -4 14 -11 14c-9 0 -53 -13 -133 -40v-251
c0 -10 4 -15 12 -15h119c9 0 13 5 13 15z" />
    <glyph glyph-name="uni044C" unicode="&#x44c;" horiz-adv-x="512" 
d="M187 708v-195c106 38 168 57 187 57c53 0 87 -37 87 -97v-350c0 -37 -13 -69 -39 -95c-25 -26 -57 -39 -94 -38h-138c-37 0 -69 13 -95 39c-25 26 -38 57 -38 94v227h-1v450h130v-92h1zM331 133v277c0 9 -4 14 -11 14c-9 0 -53 -13 -133 -40v-251c0 -10 4 -15 12 -15h119
c9 0 13 5 13 15z" />
    <glyph glyph-name="uni044D" unicode="&#x44d;" 
d="M172 806h150c40 0 74 -14 102 -42s42 -62 42 -102v-528c0 -40 -14 -74 -42 -102s-62 -42 -102 -42h-150c-40 0 -74 14 -102 42s-42 62 -42 102v116h130v-116c0 -11 3 -14 14 -14h150c11 0 14 3 14 14v212h-256v130h256v181c0 13 -5 19 -14 19h-150c-9 0 -14 -6 -14 -19
v-80h-130v85c0 40 14 74 42 102s62 42 102 42z" />
    <glyph glyph-name="uni044E" unicode="&#x44e;" horiz-adv-x="846" 
d="M496 806h150c40 0 74 -14 102 -42s42 -62 42 -102v-528c0 -40 -14 -74 -42 -102s-62 -42 -102 -42h-150c-40 0 -74 14 -102 42s-42 62 -42 102v244h-151v-378h-130v800h130v-294h151v156c0 40 14 74 42 102s62 42 102 42zM660 134v528c0 11 -3 14 -14 14h-150
c-11 0 -14 -3 -14 -14v-528c0 -11 3 -14 14 -14h150c11 0 14 3 14 14z" />
    <glyph glyph-name="uni044F" unicode="&#x44f;" horiz-adv-x="550" 
d="M278 382l-126 -382h-133l131 387c-63 17 -105 74 -105 139v136c0 39 14 72 41 98c28 27 62 40 103 40h290v-800h-130v382h-71zM189 512h160v158h-160h-3c-9 0 -11 0 -11 -8v-136c0 -11 3 -14 14 -14z" />
    <glyph glyph-name="uni0451" unicode="&#x451;" horiz-adv-x="477" 
d="M187 867c-35 0 -64 28 -64 63c0 36 29 67 64 67c36 0 66 -31 66 -67c0 -35 -30 -63 -66 -63zM355 867c-36 0 -65 28 -65 63c0 36 29 67 65 67c33 0 63 -31 63 -67c0 -35 -30 -63 -63 -63zM201 670v-194h221v-130h-221v-216h248v-130h-378v800h378v-130h-248z" />
    <glyph glyph-name="uni0452" unicode="&#x452;" horiz-adv-x="638" 
d="M302 670v-157c84 37 144 56 179 56c53 0 96 -43 96 -96v-478c0 -42 -15 -78 -45 -107c-30 -30 -66 -45 -108 -44h-90v130h89c16 -1 24 6 24 21v412c0 12 -3 18 -10 18l-135 -42v-383h-130v670h-164v130h459v-130h-165z" />
    <glyph glyph-name="uni0453" unicode="&#x453;" horiz-adv-x="455" 
d="M201 670v-670h-130v800h376v-130h-246zM321 1005h125l-101 -131h-126z" />
    <glyph glyph-name="uni0454" unicode="&#x454;" 
d="M200 806h150c40 0 74 -14 102 -42s42 -62 42 -102v-85h-130v80c0 13 -5 19 -14 19h-150c-9 0 -14 -6 -14 -19v-181h256v-130h-256v-212c0 -11 3 -14 14 -14h150c11 0 14 3 14 14v116h130v-116c0 -40 -14 -74 -42 -102s-62 -42 -102 -42h-150c-40 0 -74 14 -102 42
s-42 62 -42 102v528c0 40 14 74 42 102s62 42 102 42z" />
    <glyph glyph-name="uni0455" unicode="&#x455;" horiz-adv-x="523" 
d="M175 282v-148c0 -11 3 -14 14 -14h139c11 0 14 3 14 14v77c5 50 -25 94 -49 118c-6 8 -18 18 -35 29s-29 19 -35 22l-42 24c-79 44 -130 114 -130 203v55c0 40 14 74 42 102s62 42 102 42h139c40 0 74 -17 102 -51c28 -33 42 -74 42 -123h-130c0 29 -8 44 -24 44h-127
c-11 0 -16 -5 -16 -16v-53c0 -27 8 -47 39 -71c15 -11 27 -20 35 -25l49 -27l16 -9c89 -49 152 -137 152 -264v-77c0 -40 -14 -74 -42 -102s-62 -42 -102 -42h-139c-40 0 -74 14 -102 42s-42 62 -42 102v148h130z" />
    <glyph glyph-name="uni0456" unicode="&#x456;" horiz-adv-x="282" 
d="M206 0h-130v800h130v-800z" />
    <glyph glyph-name="uni0457" unicode="&#x457;" horiz-adv-x="282" 
d="M62 867c-35 0 -65 30 -65 63c0 36 30 67 65 67c36 0 66 -31 66 -67c0 -35 -30 -63 -66 -63zM230 867c-36 0 -65 28 -65 63c0 36 29 67 65 67c33 0 63 -31 63 -67c0 -35 -28 -63 -63 -63zM76 0v800h130v-800h-130z" />
    <glyph glyph-name="uni0458" unicode="&#x458;" horiz-adv-x="510" 
d="M150 292v-158c0 -11 3 -14 14 -14h146c11 0 14 3 14 14v666h130v-666c0 -40 -14 -74 -42 -102s-62 -42 -102 -42h-146c-40 0 -74 14 -102 42s-42 62 -42 102v158h130z" />
    <glyph glyph-name="uni0459" unicode="&#x459;" horiz-adv-x="910" 
d="M580 801v-288c106 38 168 57 187 57c53 0 87 -37 87 -97v-350c0 -37 -13 -69 -39 -95s-57 -39 -94 -38h-138c-37 0 -68 13 -94 39s-39 57 -39 94v227h-1v321h-155l-22 -465c-4 -80 -24 -134 -48 -165c-12 -15 -29 -26 -52 -34c-23 -7 -44 -12 -63 -13
c-19 -2 -45 -3 -79 -3h-10v130h10c43 0 72 5 86 15c15 10 23 32 24 66l25 599h415zM724 133v277c0 9 -4 14 -11 14c-9 0 -53 -13 -133 -40v-251c0 -10 4 -15 12 -15h119c9 0 13 5 13 15z" />
    <glyph glyph-name="uni045A" unicode="&#x45a;" horiz-adv-x="831" 
d="M501 708v-195c106 38 168 57 187 57c53 0 87 -37 87 -97v-350c0 -37 -13 -69 -39 -95s-57 -39 -94 -38h-138c-37 0 -69 13 -95 39c-25 26 -38 57 -38 94v227h-1v28h-169v-378h-130v800h130v-294h169v294h130v-92h1zM645 133v277c0 9 -4 14 -11 14c-9 0 -53 -13 -133 -40
v-251c0 -10 4 -15 12 -15h119c9 0 13 5 13 15z" />
    <glyph glyph-name="uni045B" unicode="&#x45b;" horiz-adv-x="638" 
d="M302 670v-157c84 37 144 56 179 56c53 0 96 -43 96 -96v-473h-130v407c0 12 -3 18 -10 18l-135 -42v-383h-130v670h-164v130h459v-130h-165z" />
    <glyph glyph-name="uni045C" unicode="&#x45c;" horiz-adv-x="617" 
d="M602 799v-129c-12 -6 -74 -7 -102 -56l-105 -168v-8l212 -438h-137l-183 378h-87v-378h-129v800h129v-294h88l69 106c80 132 158 178 245 187zM353 1005h125l-101 -131h-126z" />
    <glyph glyph-name="uni045E" unicode="&#x45e;" horiz-adv-x="569" 
d="M307 990h74c0 -53 -43 -96 -96 -96s-96 43 -96 96h75c0 -13 7 -20 21 -20c15 0 22 7 22 20zM369 0h-130l48 218h-96c-20 0 -40 17 -43 34l-130 548h133l96 -445c1 -5 3 -7 6 -7h62c4 0 6 2 6 7l101 445h130z" />
    <glyph glyph-name="uni045F" unicode="&#x45f;" horiz-adv-x="575" 
d="M504 0h-150v-156h-130v156h-152v800h130v-672h172v672h130v-800z" />
    <glyph glyph-name="Bdotaccent" unicode="&#x1e02;" horiz-adv-x="560" 
d="M71 800h261c121 0 170 -46 170 -159v-105c0 -65 -26 -104 -77 -118c56 -16 84 -56 84 -120v-126c0 -123 -49 -172 -173 -172h-265v800zM201 483h134c25 0 36 15 36 51v106c0 21 -12 32 -37 32h-133v-189zM201 130h133c30 0 45 14 45 43v125c0 37 -13 55 -40 55h-138v-223
zM213 926c0 39 31 70 68 70s69 -33 69 -70s-32 -68 -69 -68s-68 31 -68 68z" />
    <glyph glyph-name="bdotaccent" unicode="&#x1e03;" horiz-adv-x="512" 
d="M461 473v-350c0 -37 -13 -69 -39 -95c-25 -26 -57 -39 -94 -38h-138c-37 0 -69 13 -95 39c-25 26 -38 57 -38 94v380h-1v262h130v-57h1v-195c106 38 168 57 187 57c53 0 87 -37 87 -97zM244 686c0 39 31 70 68 70s69 -33 69 -70s-32 -68 -69 -68s-68 31 -68 68zM331 133
v277c0 9 -4 14 -11 14c-9 0 -53 -13 -133 -40v-251c0 -10 4 -15 12 -15h119c9 0 13 5 13 15z" />
    <glyph glyph-name="Ddotaccent" unicode="&#x1e0a;" horiz-adv-x="565" 
d="M71 800h294c41 0 75 -13 102 -40c28 -26 42 -59 42 -98v-518c0 -40 -14 -74 -42 -102s-62 -42 -102 -42h-294v800zM201 130h164c11 0 14 3 14 14v513c0 9 -5 13 -14 13h-164v-540zM215 926c0 39 31 70 68 70s69 -33 69 -70s-32 -68 -69 -68s-68 31 -68 68z" />
    <glyph glyph-name="ddotaccent" unicode="&#x1e0b;" horiz-adv-x="517" 
d="M457 707v-707h-130v47l-36 -13l-44 -16c-36 -13 -90 -28 -108 -28c-53 0 -87 37 -86 97v350c0 37 13 69 38 95c26 26 57 39 94 38h142v132h-1v62h130v-57h1zM126 686c0 39 31 70 68 70s69 -33 69 -70s-32 -68 -69 -68s-68 31 -68 68zM327 176v251c-1 10 -6 15 -13 15
h-118c-9 0 -13 -5 -13 -15v-277v-2c0 -8 3 -12 10 -12s52 13 134 40z" />
    <glyph glyph-name="Ddotbelow" unicode="&#x1e0c;" horiz-adv-x="565" 
d="M71 800h294c41 0 75 -13 102 -40c28 -26 42 -59 42 -98v-518c0 -40 -14 -74 -42 -102s-62 -42 -102 -42h-294v800zM201 130h164c11 0 14 3 14 14v513c0 9 -5 13 -14 13h-164v-540zM222 -146c0 39 31 70 68 70s69 -33 69 -70s-32 -68 -69 -68s-68 31 -68 68z" />
    <glyph glyph-name="ddotbelow" unicode="&#x1e0d;" horiz-adv-x="517" 
d="M457 707v-707h-130v47l-36 -13l-44 -16c-36 -13 -90 -28 -108 -28c-53 0 -87 37 -86 97v350c0 37 13 69 38 95c26 26 57 39 94 38h142v132h-1v62h130v-57h1zM327 176v251c-1 10 -6 15 -13 15h-118c-9 0 -13 -5 -13 -15v-277v-2c0 -8 3 -12 10 -12s52 13 134 40zM189 -146
c0 39 31 70 68 70s69 -33 69 -70s-32 -68 -69 -68s-68 31 -68 68z" />
    <glyph glyph-name="Fdotaccent" unicode="&#x1e1e;" horiz-adv-x="460" 
d="M190 926c0 39 31 70 68 70s69 -33 69 -70s-32 -68 -69 -68s-68 31 -68 68zM450 800v-145h-249v-149h221v-130h-221v-376h-130v800h379z" />
    <glyph glyph-name="fdotaccent" unicode="&#x1e1f;" horiz-adv-x="302" 
d="M302 635h-81c-16 0 -24 -7 -24 -21v-54h84v-128h-84v-434c0 -42 -15 -78 -45 -107c-30 -30 -67 -45 -110 -45v130c15 0 23 7 23 22v434h-55v128h55v54c0 41 15 77 44 106c30 30 66 45 109 45h84v-130zM97 926c0 39 31 70 68 70s69 -33 69 -70s-32 -68 -69 -68
s-68 31 -68 68z" />
    <glyph glyph-name="Hdotbelow" unicode="&#x1e24;" horiz-adv-x="577" 
d="M201 800v-294h175v294h130v-800h-130v378h-175v-378h-130v800h130zM224 -146c0 39 31 70 68 70s69 -33 69 -70s-32 -68 -69 -68s-68 31 -68 68z" />
    <glyph glyph-name="hdotbelow" unicode="&#x1e25;" 
d="M191 765v-252c84 37 144 56 179 56c53 0 96 -43 96 -96v-473h-130v407c0 12 -3 18 -10 18l-135 -42v-383h-130v765h130zM204 -146c0 39 31 70 68 70s69 -33 69 -70s-32 -68 -69 -68s-68 31 -68 68z" />
    <glyph glyph-name="Mdotaccent" unicode="&#x1e40;" horiz-adv-x="803" 
d="M338 800l63 -486l61 486h249l30 -800h-130l-28 670h-9l-113 -660h-119l-112 660h-10l-28 -670h-130l31 800h245zM333 926c0 39 31 70 68 70s69 -33 69 -70s-32 -68 -69 -68s-68 31 -68 68z" />
    <glyph glyph-name="mdotaccent" unicode="&#x1e41;" horiz-adv-x="739" 
d="M313 686c0 39 31 70 68 70s69 -33 69 -70s-32 -68 -69 -68s-68 31 -68 68zM191 560v-53c65 40 115 60 150 60c39 0 79 -25 90 -60v-1c13 10 36 23 70 39c35 17 63 25 86 25c53 0 96 -44 96 -97v-473h-129v403c0 12 -3 18 -8 18l-110 -38v-383h-129v397c0 15 -2 22 -6 22
l-110 -42v-377h-130v560h130z" />
    <glyph glyph-name="Ndotaccent" unicode="&#x1e44;" horiz-adv-x="629" 
d="M296 800l127 -670h5v670h130v-800h-223l-129 670h-5v-670h-130v800h225zM248 926c0 39 31 70 68 70s69 -33 69 -70s-32 -68 -69 -68s-68 31 -68 68z" />
    <glyph glyph-name="ndotaccent" unicode="&#x1e45;" 
d="M193 686c0 39 31 70 68 70s69 -33 69 -70s-32 -68 -69 -68s-68 31 -68 68zM191 560v-47c84 37 144 56 179 56c53 0 96 -43 96 -96v-473h-130v407c0 12 -3 18 -10 18l-135 -42v-383h-130v560h130z" />
    <glyph glyph-name="Pdotaccent" unicode="&#x1e56;" horiz-adv-x="530" 
d="M71 800h290c41 0 75 -13 102 -40c28 -26 42 -59 42 -98v-186c0 -40 -14 -74 -42 -102s-62 -42 -102 -42h-160v-332h-130v800zM201 462h160c11 0 14 3 14 14v184c0 7 -4 10 -11 10h-163v-208zM208 926c0 39 31 70 68 70s69 -33 69 -70s-32 -68 -69 -68s-68 31 -68 68z" />
    <glyph glyph-name="pdotaccent" unicode="&#x1e57;" horiz-adv-x="517" 
d="M192 686c0 39 31 70 68 70s69 -33 69 -70s-32 -68 -69 -68s-68 31 -68 68zM191 560v-47l36 13l44 16c36 13 90 28 108 28c53 0 87 -37 86 -97v-350c0 -37 -13 -69 -39 -95c-25 -26 -56 -39 -93 -38h-142v-137h-130v707h130zM335 133v277v2c0 8 -3 12 -10 12
s-52 -13 -134 -40v-251c1 -10 6 -15 13 -15h118c9 0 13 5 13 15z" />
    <glyph glyph-name="Rdotbelow" unicode="&#x1e5a;" horiz-adv-x="563" 
d="M71 800h314c33 0 61 -12 84 -35c24 -23 36 -52 36 -85v-144c0 -51 -32 -98 -77 -118c49 -19 84 -65 84 -120v-298h-130v298c0 28 -8 46 -23 55h-158v-353h-130v800zM201 483h149c16 7 24 24 24 51v126c0 8 -3 12 -8 12h-165v-189zM224 -146c0 39 31 70 68 70
s69 -33 69 -70s-32 -68 -69 -68s-68 31 -68 68z" />
    <glyph glyph-name="rdotbelow" unicode="&#x1e5b;" horiz-adv-x="486" 
d="M191 560v-47c84 37 144 56 179 56c53 0 96 -43 96 -96v-100h-130v30c0 16 -2 24 -5 24c-9 0 -30 -5 -64 -15s-59 -20 -76 -29v-383h-130v560h130zM62 -146c0 39 31 70 68 70s69 -33 69 -70s-32 -68 -69 -68s-68 31 -68 68z" />
    <glyph glyph-name="Sdotaccent" unicode="&#x1e60;" horiz-adv-x="523" 
d="M175 282v-148c0 -11 3 -14 14 -14h139c11 0 14 3 14 14v77c5 50 -25 94 -49 118c-6 8 -18 18 -35 29s-29 19 -35 22l-42 24c-79 44 -130 114 -130 203v55c0 40 14 74 42 102s62 42 102 42h139c40 0 74 -17 102 -51c28 -33 42 -74 42 -123h-130c0 29 -8 44 -24 44h-127
c-11 0 -16 -5 -16 -16v-53c0 -27 8 -47 39 -71c15 -11 27 -20 35 -25l49 -27l16 -9c89 -49 152 -137 152 -264v-77c0 -40 -14 -74 -42 -102s-62 -42 -102 -42h-139c-40 0 -74 14 -102 42s-42 62 -42 102v148h130zM194 926c0 39 31 70 68 70s69 -33 69 -70s-32 -68 -69 -68
s-68 31 -68 68z" />
    <glyph glyph-name="sdotaccent" unicode="&#x1e61;" horiz-adv-x="489" 
d="M177 686c0 39 31 70 68 70s69 -33 69 -70s-32 -68 -69 -68s-68 31 -68 68zM172 212v-79c0 -9 3 -13 9 -13h127c6 0 9 4 9 13v18c0 22 -12 38 -30 49c-9 8 -31 18 -42 22c-11 5 -39 15 -48 19c-103 38 -155 95 -155 171v25c0 37 13 68 39 94s57 39 94 39h139
c37 0 69 -13 94 -39c26 -26 39 -57 39 -94v-30h-130v20c0 9 -3 13 -9 13h-126c-7 0 -10 -4 -10 -13v-8c0 -16 12 -31 44 -47l38 -18c9 -3 25 -9 46 -18c98 -37 147 -96 147 -177v-36c0 -37 -13 -68 -39 -94s-57 -39 -94 -39h-139c-37 0 -68 13 -94 39s-39 57 -39 94v89h130z
" />
    <glyph glyph-name="Sdotbelow" unicode="&#x1e62;" horiz-adv-x="523" 
d="M175 282v-148c0 -11 3 -14 14 -14h139c11 0 14 3 14 14v77c5 50 -25 94 -49 118c-6 8 -18 18 -35 29s-29 19 -35 22l-42 24c-79 44 -130 114 -130 203v55c0 40 14 74 42 102s62 42 102 42h139c40 0 74 -17 102 -51c28 -33 42 -74 42 -123h-130c0 29 -8 44 -24 44h-127
c-11 0 -16 -5 -16 -16v-53c0 -27 8 -47 39 -71c15 -11 27 -20 35 -25l49 -27l16 -9c89 -49 152 -137 152 -264v-77c0 -40 -14 -74 -42 -102s-62 -42 -102 -42h-139c-40 0 -74 14 -102 42s-42 62 -42 102v148h130zM197 -146c0 39 31 70 68 70s69 -33 69 -70s-32 -68 -69 -68
s-68 31 -68 68z" />
    <glyph glyph-name="sdotbelow" unicode="&#x1e63;" horiz-adv-x="489" 
d="M172 212v-79c0 -9 3 -13 9 -13h127c6 0 9 4 9 13v18c0 22 -12 38 -30 49c-9 8 -31 18 -42 22c-11 5 -39 15 -48 19c-103 38 -155 95 -155 171v25c0 37 13 68 39 94s57 39 94 39h139c37 0 69 -13 94 -39c26 -26 39 -57 39 -94v-30h-130v20c0 9 -3 13 -9 13h-126
c-7 0 -10 -4 -10 -13v-8c0 -16 12 -31 44 -47l38 -18c9 -3 25 -9 46 -18c98 -37 147 -96 147 -177v-36c0 -37 -13 -68 -39 -94s-57 -39 -94 -39h-139c-37 0 -68 13 -94 39s-39 57 -39 94v89h130zM178 -146c0 39 31 70 68 70s69 -33 69 -70s-32 -68 -69 -68s-68 31 -68 68z
" />
    <glyph glyph-name="Tdotaccent" unicode="&#x1e6a;" horiz-adv-x="474" 
d="M8 670v130h458v-130h-164v-670h-130v670h-164zM169 926c0 39 31 70 68 70s69 -33 69 -70s-32 -68 -69 -68s-68 31 -68 68z" />
    <glyph glyph-name="tdotaccent" unicode="&#x1e6b;" horiz-adv-x="367" 
d="M83 926c0 39 31 70 68 70s69 -33 69 -70s-32 -68 -69 -68s-68 31 -68 68zM214 432v-290c0 -15 8 -22 24 -22h54v-130h-57c-43 0 -79 15 -109 44c-29 30 -44 66 -44 108v290h-74v128h74v144h132v-144h145v-128h-145z" />
    <glyph glyph-name="Tdotbelow" unicode="&#x1e6c;" horiz-adv-x="474" 
d="M8 670v130h458v-130h-164v-670h-130v670h-164zM170 -146c0 39 31 70 68 70s69 -33 69 -70s-32 -68 -69 -68s-68 31 -68 68z" />
    <glyph glyph-name="tdotbelow" unicode="&#x1e6d;" horiz-adv-x="367" 
d="M214 432v-290c0 -15 8 -22 24 -22h54v-130h-57c-43 0 -79 15 -109 44c-29 30 -44 66 -44 108v290h-74v128h74v144h132v-144h145v-128h-145zM117 -146c0 39 31 70 68 70s69 -33 69 -70s-32 -68 -69 -68s-68 31 -68 68z" />
    <glyph glyph-name="Wgrave" unicode="&#x1e80;" horiz-adv-x="850" 
d="M260 1005h126l101 -131h-125zM192 800v-666c0 -11 3 -14 14 -14h80c22 0 40 10 53 31c14 21 21 41 21 58v591h130v-591c0 -17 7 -36 21 -57s32 -32 53 -32h80c11 0 14 3 14 14v666h130v-666c0 -40 -14 -74 -42 -102s-62 -42 -102 -42h-80c-67 0 -120 44 -139 105
c-17 -61 -72 -105 -139 -105h-80c-40 0 -74 14 -102 42s-42 62 -42 102v666h130z" />
    <glyph glyph-name="wgrave" unicode="&#x1e81;" horiz-adv-x="765" 
d="M217 765h126l101 -131h-125zM709 560v-420c0 -87 -52 -150 -133 -150h-66c-60 0 -111 38 -128 99c-17 -61 -67 -99 -128 -99h-65c-81 0 -133 63 -133 150v420h130v-420c0 -13 4 -20 12 -20h56c42 0 63 32 63 95v345h130v-345c0 -63 21 -95 63 -95h54c10 0 15 7 15 20v420
h130z" />
    <glyph glyph-name="Wacute" unicode="&#x1e82;" horiz-adv-x="850" 
d="M469 1005h125l-101 -131h-126zM192 800v-666c0 -11 3 -14 14 -14h80c22 0 40 10 53 31c14 21 21 41 21 58v591h130v-591c0 -17 7 -36 21 -57s32 -32 53 -32h80c11 0 14 3 14 14v666h130v-666c0 -40 -14 -74 -42 -102s-62 -42 -102 -42h-80c-67 0 -120 44 -139 105
c-17 -61 -72 -105 -139 -105h-80c-40 0 -74 14 -102 42s-42 62 -42 102v666h130z" />
    <glyph glyph-name="wacute" unicode="&#x1e83;" horiz-adv-x="765" 
d="M427 765h125l-101 -131h-126zM709 560v-420c0 -87 -52 -150 -133 -150h-66c-60 0 -111 38 -128 99c-17 -61 -67 -99 -128 -99h-65c-81 0 -133 63 -133 150v420h130v-420c0 -13 4 -20 12 -20h56c42 0 63 32 63 95v345h130v-345c0 -63 21 -95 63 -95h54c10 0 15 7 15 20
v420h130z" />
    <glyph glyph-name="Wdieresis" unicode="&#x1e84;" horiz-adv-x="850" 
d="M341 867c-35 0 -64 28 -64 63c0 36 29 67 64 67c36 0 66 -31 66 -67c0 -35 -30 -63 -66 -63zM509 867c-36 0 -65 28 -65 63c0 36 29 67 65 67c33 0 63 -31 63 -67c0 -35 -30 -63 -63 -63zM192 800v-666c0 -11 3 -14 14 -14h80c22 0 40 10 53 31c14 21 21 41 21 58v591
h130v-591c0 -17 7 -36 21 -57s32 -32 53 -32h80c11 0 14 3 14 14v666h130v-666c0 -40 -14 -74 -42 -102s-62 -42 -102 -42h-80c-67 0 -120 44 -139 105c-17 -61 -72 -105 -139 -105h-80c-40 0 -74 14 -102 42s-42 62 -42 102v666h130z" />
    <glyph glyph-name="wdieresis" unicode="&#x1e85;" horiz-adv-x="765" 
d="M299 627c-35 0 -64 28 -64 63c0 36 29 67 64 67c36 0 66 -31 66 -67c0 -35 -30 -63 -66 -63zM467 627c-36 0 -65 28 -65 63c0 36 29 67 65 67c33 0 63 -31 63 -67c0 -35 -30 -63 -63 -63zM709 560v-420c0 -87 -52 -150 -133 -150h-66c-60 0 -111 38 -128 99
c-17 -61 -67 -99 -128 -99h-65c-81 0 -133 63 -133 150v420h130v-420c0 -13 4 -20 12 -20h56c42 0 63 32 63 95v345h130v-345c0 -63 21 -95 63 -95h54c10 0 15 7 15 20v420h130z" />
    <glyph glyph-name="Zdotbelow" unicode="&#x1e92;" horiz-adv-x="501" 
d="M28 670v130h446l-261 -670h261v-130h-446l262 670h-262zM181 -146c0 39 31 70 68 70s69 -33 69 -70s-32 -68 -69 -68s-68 31 -68 68z" />
    <glyph glyph-name="zdotbelow" unicode="&#x1e93;" horiz-adv-x="462" 
d="M282 434h-249v126h395v-126l-252 -305h255v-129h-400v130zM153 -146c0 39 31 70 68 70s69 -33 69 -70s-32 -68 -69 -68s-68 31 -68 68z" />
    <glyph glyph-name="Edotbelow" unicode="&#x1eb8;" horiz-adv-x="484" 
d="M449 800v-130h-248v-194h221v-130h-221v-216h248v-130h-378v800h378zM169 -146c0 39 31 70 68 70s69 -33 69 -70s-32 -68 -69 -68s-68 31 -68 68z" />
    <glyph glyph-name="edotbelow" unicode="&#x1eb9;" horiz-adv-x="491" 
d="M51 123v314c0 37 13 68 38 94c26 26 58 39 95 39h139c37 0 68 -13 94 -39s39 -57 39 -94v-200h-275v-104c0 -9 3 -13 9 -13h127c6 0 9 4 9 13v62h130v-72c0 -37 -13 -68 -39 -94s-57 -39 -94 -39h-139c-37 0 -69 13 -95 39c-25 26 -38 57 -38 94zM326 337v90
c0 9 -3 13 -9 13h-127c-6 0 -9 -4 -9 -13v-90h145zM180 -146c0 39 31 70 68 70s69 -33 69 -70s-32 -68 -69 -68s-68 31 -68 68z" />
    <glyph glyph-name="Etilde" unicode="&#x1ebc;" horiz-adv-x="484" 
d="M449 800v-130h-248v-194h221v-130h-221v-216h248v-130h-378v800h378zM142 864l-5 111c17 21 38 31 62 31c17 0 40 -6 69 -18c30 -11 53 -17 68 -17c20 0 39 9 56 28l5 -111c-18 -21 -38 -32 -61 -32c-17 0 -40 6 -70 17c-29 12 -52 18 -67 18c-21 0 -40 -9 -57 -27z" />
    <glyph glyph-name="etilde" unicode="&#x1ebd;" horiz-adv-x="491" 
d="M51 123v314c0 37 13 68 38 94c26 26 58 39 95 39h139c37 0 68 -13 94 -39s39 -57 39 -94v-200h-275v-104c0 -9 3 -13 9 -13h127c6 0 9 4 9 13v62h130v-72c0 -37 -13 -68 -39 -94s-57 -39 -94 -39h-139c-37 0 -69 13 -95 39c-25 26 -38 57 -38 94zM326 337v90
c0 9 -3 13 -9 13h-127c-6 0 -9 -4 -9 -13v-90h145zM122 624l-5 111c17 21 38 31 62 31c17 0 40 -6 69 -18c30 -11 53 -17 68 -17c20 0 39 9 56 28l5 -111c-18 -21 -38 -32 -61 -32c-17 0 -40 6 -70 17c-29 12 -52 18 -67 18c-21 0 -40 -9 -57 -27z" />
    <glyph glyph-name="Idotbelow" unicode="&#x1eca;" horiz-adv-x="282" 
d="M74 -146c0 39 31 70 68 70s69 -33 69 -70s-32 -68 -69 -68s-68 31 -68 68zM206 800v-800h-130v800h130z" />
    <glyph glyph-name="idotbelow" unicode="&#x1ecb;" horiz-adv-x="299" 
d="M196 765v-106h-130v106h130zM198 560v-418c0 -15 8 -22 24 -22h54v-130h-57c-43 0 -79 15 -109 44c-29 30 -44 66 -44 108v418h132zM78 -146c0 39 31 70 68 70s69 -33 69 -70s-32 -68 -69 -68s-68 31 -68 68z" />
    <glyph glyph-name="Odotbelow" unicode="&#x1ecc;" horiz-adv-x="550" 
d="M56 134v528c0 40 14 74 42 102s62 42 102 42h150c40 0 74 -14 102 -42s42 -62 42 -102v-528c0 -40 -14 -74 -42 -102s-62 -42 -102 -42h-150c-40 0 -74 14 -102 42s-42 62 -42 102zM186 662v-528c0 -11 3 -14 14 -14h150c11 0 14 3 14 14v528c0 11 -3 14 -14 14h-150
c-11 0 -14 -3 -14 -14zM207 -146c0 39 31 70 68 70s69 -33 69 -70s-32 -68 -69 -68s-68 31 -68 68z" />
    <glyph glyph-name="odotbelow" unicode="&#x1ecd;" horiz-adv-x="507" 
d="M51 123v314c0 37 13 68 38 94c26 26 58 39 95 39h139c37 0 68 -13 94 -39s39 -57 39 -94v-314c0 -37 -13 -68 -39 -94s-57 -39 -94 -39h-139c-37 0 -68 13 -94 39s-39 57 -39 94zM181 427v-294c0 -9 3 -13 10 -13h125c7 0 10 4 10 13v294c0 9 -3 13 -10 13h-125
c-7 0 -10 -4 -10 -13zM187 -146c0 39 31 70 68 70s69 -33 69 -70s-32 -68 -69 -68s-68 31 -68 68z" />
    <glyph glyph-name="Udotbelow" unicode="&#x1ee4;" horiz-adv-x="561" 
d="M192 800v-666c0 -11 3 -14 14 -14h149c11 0 14 3 14 14v666h130v-666c0 -40 -14 -74 -42 -102s-62 -42 -102 -42h-149c-40 0 -74 14 -102 42s-42 62 -42 102v666h130zM216 -146c0 39 31 70 68 70s69 -33 69 -70s-32 -68 -69 -68s-68 31 -68 68z" />
    <glyph glyph-name="udotbelow" unicode="&#x1ee5;" 
d="M331 0v47c-84 -37 -144 -56 -179 -56c-53 0 -96 43 -96 96v473h130v-407c0 -12 3 -18 10 -18l135 42v383h130v-560h-130zM179 -146c0 39 31 70 68 70s69 -33 69 -70s-32 -68 -69 -68s-68 31 -68 68z" />
    <glyph glyph-name="Ygrave" unicode="&#x1ef2;" horiz-adv-x="569" 
d="M551 800l-123 -546c-5 -19 -26 -32 -54 -32h-23v-222h-129v222h-20c-27 0 -50 13 -54 32l-130 546h133l99 -443c1 -5 3 -7 7 -7h61c5 0 7 2 7 7l96 443h130zM120 1005h126l101 -131h-125z" />
    <glyph glyph-name="ygrave" unicode="&#x1ef3;" horiz-adv-x="477" 
d="M74 765h126l101 -131h-125zM151 559l59 -433c2 -7 4 -11 6 -11h48c5 0 7 5 8 14l58 430h130l-113 -715h-124l22 145h-92c-20 0 -40 17 -43 34l-92 536h133z" />
    <glyph glyph-name="Ytilde" unicode="&#x1ef8;" horiz-adv-x="569" 
d="M551 800l-123 -546c-5 -19 -26 -32 -54 -32h-23v-222h-129v222h-20c-27 0 -50 13 -54 32l-130 546h133l99 -443c1 -5 3 -7 7 -7h61c5 0 7 2 7 7l96 443h130zM160 864l-5 111c17 21 38 31 62 31c17 0 40 -6 69 -18c30 -11 53 -17 68 -17c20 0 39 9 56 28l5 -111
c-18 -21 -38 -32 -61 -32c-17 0 -40 6 -70 17c-29 12 -52 18 -67 18c-21 0 -40 -9 -57 -27z" />
    <glyph glyph-name="ytilde" unicode="&#x1ef9;" horiz-adv-x="477" 
d="M115 624l-5 111c17 21 38 31 62 31c17 0 40 -6 69 -18c30 -11 53 -17 68 -17c20 0 39 9 56 28l5 -111c-18 -21 -38 -32 -61 -32c-17 0 -40 6 -70 17c-29 12 -52 18 -67 18c-21 0 -40 -9 -57 -27zM151 559l59 -433c2 -7 4 -11 6 -11h48c5 0 7 5 8 14l58 430h130l-113 -715
h-124l22 145h-92c-20 0 -40 17 -43 34l-92 536h133z" />
    <glyph glyph-name="endash" unicode="&#x2013;" horiz-adv-x="419" 
d="M8 416h404v-129h-404v129z" />
    <glyph glyph-name="emdash" unicode="&#x2014;" horiz-adv-x="697" 
d="M8 416h682v-129h-682v129z" />
    <glyph glyph-name="uni2015" unicode="&#x2015;" horiz-adv-x="1015" 
d="M8 416h1000v-129h-1000v129z" />
    <glyph glyph-name="quoteleft" unicode="&#x2018;" horiz-adv-x="247" 
d="M88 799l107 -22l-29 -72c-3 -6 -4 -13 -4 -20c0 -15 8 -27 25 -36l-62 -62c-49 20 -74 51 -74 94c0 15 3 31 9 47z" />
    <glyph glyph-name="quoteright" unicode="&#x2019;" horiz-adv-x="247" 
d="M52 615l29 72c3 6 4 13 4 20c0 15 -8 27 -25 36l62 62c49 -20 74 -51 74 -94c0 -15 -3 -31 -9 -47l-28 -71z" />
    <glyph glyph-name="quotesinglbase" unicode="&#x201a;" horiz-adv-x="247" 
d="M52 -136l29 72c3 6 4 13 4 20c0 15 -8 27 -25 36l62 62c49 -20 74 -51 74 -94c0 -15 -3 -31 -9 -47l-28 -71z" />
    <glyph glyph-name="quotedblleft" unicode="&#x201c;" horiz-adv-x="391" 
d="M88 799l107 -22l-29 -72c-3 -6 -4 -13 -4 -20c0 -15 8 -27 25 -36l-62 -62c-49 20 -74 51 -74 94c0 15 3 31 9 47zM233 799l107 -22l-29 -72c-3 -6 -4 -13 -4 -20c0 -15 8 -27 25 -36l-62 -62c-49 20 -74 51 -74 94c0 15 3 31 9 47z" />
    <glyph glyph-name="quotedblright" unicode="&#x201d;" horiz-adv-x="392" 
d="M159 593l-107 22l29 72c3 6 4 13 4 20c0 15 -8 27 -25 36l62 62c49 -20 74 -51 74 -94c0 -15 -3 -31 -9 -47zM304 593l-107 22l29 72c3 6 4 13 4 20c0 15 -8 27 -25 36l62 62c49 -20 74 -51 74 -94c0 -15 -3 -31 -9 -47z" />
    <glyph glyph-name="quotedblbase" unicode="&#x201e;" horiz-adv-x="392" 
d="M159 -163l-107 22l29 72c3 6 4 13 4 20c0 15 -8 27 -25 36l62 62c49 -20 74 -51 74 -94c0 -15 -3 -31 -9 -47zM304 -163l-107 22l29 72c3 6 4 13 4 20c0 15 -8 27 -25 36l62 62c49 -20 74 -51 74 -94c0 -15 -3 -31 -9 -47z" />
    <glyph glyph-name="dagger" unicode="&#x2020;" horiz-adv-x="463" 
d="M167 537h-111v129h111v129h128v-129h111v-129h-111v-532h-128v532z" />
    <glyph glyph-name="daggerdbl" unicode="&#x2021;" horiz-adv-x="463" 
d="M165 138h-109v128h109v272h-109v128h109v129h130v-129h111v-128h-111v-272h111v-128h-111v-133h-130v133z" />
    <glyph glyph-name="bullet" unicode="&#x2022;" horiz-adv-x="287" 
d="M143 232c-47 0 -87 40 -87 87c0 48 40 87 87 87c48 0 87 -39 87 -87c0 -47 -39 -87 -87 -87z" />
    <glyph glyph-name="ellipsis" unicode="&#x2026;" horiz-adv-x="611" 
d="M56 68c-3 60 76 95 117 49c46 -41 11 -120 -49 -117c-37 0 -68 31 -68 68zM236 68c-3 60 76 95 117 49c46 -41 11 -120 -49 -117c-37 0 -68 31 -68 68zM416 68c-3 60 76 95 117 49c46 -41 11 -120 -49 -117c-37 0 -68 31 -68 68z" />
    <glyph glyph-name="perthousand" unicode="&#x2030;" horiz-adv-x="1292" 
d="M653 798l-309 -798h-90l309 798h90zM296 363h-127c-31 0 -58 13 -80 39s-33 57 -33 94v149c0 37 11 69 33 94c22 26 49 39 80 39h127c31 0 58 -13 80 -39c22 -25 33 -57 33 -94v-149c0 -37 -11 -68 -33 -94s-49 -39 -80 -39zM189 480h87c7 0 11 5 11 16v149
c0 11 -4 17 -11 17h-87c-7 0 -10 -6 -10 -17v-149c0 -11 3 -16 10 -16zM491 125v149c0 37 11 69 33 94c22 26 49 39 80 39h126c31 0 58 -13 80 -39c22 -25 33 -57 33 -94v-149c0 -37 -11 -68 -33 -95c-22 -26 -49 -39 -80 -39h-126c-31 0 -58 13 -80 39
c-22 27 -33 58 -33 95zM884 125v149c0 37 11 69 33 94c22 26 49 39 80 39h126c31 0 58 -13 80 -39c22 -25 33 -57 33 -94v-149c0 -37 -11 -68 -33 -95c-22 -26 -49 -39 -80 -39h-126c-31 0 -58 13 -80 39c-22 27 -33 58 -33 95zM613 274v-149c0 -11 4 -17 11 -17h86
c7 0 10 6 10 17v149c0 11 -3 16 -10 16h-86c-7 0 -11 -5 -11 -16zM1006 274v-149c0 -11 4 -17 11 -17h87c7 0 10 6 10 17v149c0 11 -3 16 -10 16h-87c-7 0 -11 -5 -11 -16z" />
    <glyph glyph-name="guilsinglleft" unicode="&#x2039;" horiz-adv-x="408" 
d="M246 392l106 -48l-148 -105l148 -105l-106 -47l-210 152z" />
    <glyph glyph-name="guilsinglright" unicode="&#x203a;" horiz-adv-x="408" 
d="M204 239l-148 105l107 48l209 -153l-209 -152l-107 47z" />
    <glyph glyph-name="fraction" unicode="&#x2044;" horiz-adv-x="444" 
d="M436 798l-308 -798h-120l308 798h120z" />
    <glyph glyph-name="Euro" unicode="&#x20ac;" horiz-adv-x="525" 
d="M21 416v100h55v116c0 40 14 74 42 102s62 42 102 42h139c40 0 74 -14 102 -42s42 -62 42 -102v-126h-130v126c0 11 -3 14 -14 14h-139c-11 0 -14 -3 -14 -14v-116h126v-100h-311zM332 380v-100h-126v-146c0 -11 3 -14 14 -14h139c7 0 11 5 11 14v158h133v-158
c0 -40 -14 -74 -42 -102s-62 -42 -102 -42h-139c-40 0 -74 14 -102 42s-42 62 -42 102v146h-55v100h311z" />
    <glyph glyph-name="uni2116" unicode="&#x2116;" horiz-adv-x="983" 
d="M558 800v-800h-223l-125 670h-9v-670h-130v800h225l123 -670h9v670h130zM712 582h129c44 0 80 -35 80 -80v-188c0 -44 -36 -80 -80 -80h-129c-45 0 -80 36 -80 80v188c0 45 35 80 80 80zM811 492h-69c-7 0 -10 -3 -10 -10v-148c0 -7 3 -10 10 -10h69c7 0 10 3 10 10v148
c0 7 -3 10 -10 10zM932 207v-99h-310v99h310z" />
    <glyph glyph-name="trademark" unicode="&#x2122;" horiz-adv-x="765" 
d="M147 738h-91v62h245v-62h-91v-344h-63v344zM356 800h105l59 -271l55 271h110l23 -406h-64l-19 332h-6l-73 -327h-53l-75 327h-4l-19 -332h-64z" />
    <glyph glyph-name="minus" unicode="&#x2212;" horiz-adv-x="525" 
d="M58 416h410v-129h-410v129z" />
    <glyph glyph-name="radical" unicode="&#x221a;" horiz-adv-x="549" 
d="M359 560h130v-560h-130v47c-57 -25 -105 -43 -145 -52c0 -42 -15 -78 -45 -107c-29 -30 -65 -45 -108 -45h-74v130h72c17 0 25 7 25 22v565h130v-407c0 -12 3 -18 10 -18l135 42v383z" />
    <glyph glyph-name="notequal" unicode="&#x2260;" horiz-adv-x="525" 
d="M438 381h-116l-16 -60h132v-131h-168l-15 -56h-117l15 56h-65v131h101l16 60h-117v130h152l12 44h117l-12 -44h81v-130z" />
    <glyph glyph-name="lessequal" unicode="&#x2264;" horiz-adv-x="525" 
d="M443 622v-138l-131 -68l131 -63v-137l-360 200zM93 196h350v-129h-350v129z" />
    <glyph glyph-name="greaterequal" unicode="&#x2265;" horiz-adv-x="525" 
d="M84 353l132 63l-136 68v138l365 -206l-361 -200v137zM85 196h350v-129h-350v129z" />
    <glyph glyph-name="apple" unicode="&#xf8ff;" horiz-adv-x="647" 
d="M442 738l-90 -85c-12 1 -44 1 -56 0l-90 85h59l58 -61l59 61h60zM324 620c87 0 161 -31 223 -93s93 -136 93 -223s-31 -161 -93 -223s-136 -93 -223 -93s-162 31 -224 92c-61 62 -92 137 -92 224s31 162 92 223c62 62 137 93 224 93zM515 495c-53 53 -116 80 -191 80
s-139 -27 -192 -80s-79 -116 -79 -191s26 -139 79 -192s117 -79 192 -79s138 26 191 79s79 117 79 192s-26 138 -79 191zM182 135l9 47c44 -27 87 -41 128 -41c53 0 90 24 90 59c0 83 -218 97 -218 209c0 36 13 62 39 78c27 17 57 25 92 25c25 0 56 -9 71 -17
c16 -7 46 -23 50 -26l-11 -43c-32 28 -68 42 -107 42c-48 0 -80 -23 -80 -55c0 -31 35 -54 78 -73c63 -25 143 -58 143 -136c0 -71 -67 -108 -155 -108c-33 0 -76 13 -129 39z" />
    <glyph glyph-name="I.ss01" horiz-adv-x="331" 
d="M51 129h49v543h-49v129h229v-129h-50v-543h50v-129h-229v129z" />
    <glyph glyph-name="Iacute.ss01" horiz-adv-x="331" 
d="M210 1005h125l-101 -131h-126zM100 129v543h-49v129h229v-129h-50v-543h50v-129h-229v129h49z" />
    <glyph glyph-name="Ibreve.ss01" horiz-adv-x="331" 
d="M188 990h74c0 -53 -43 -96 -96 -96s-96 43 -96 96h75c0 -13 7 -20 21 -20c15 0 22 7 22 20zM100 129v543h-49v129h229v-129h-50v-543h50v-129h-229v129h49z" />
    <glyph glyph-name="Icircumflex.ss01" horiz-adv-x="331" 
d="M126 1035h77l134 -158h-115l-56 73h-3l-57 -73h-114zM100 129v543h-49v129h229v-129h-50v-543h50v-129h-229v129h49z" />
    <glyph glyph-name="Idieresis.ss01" horiz-adv-x="331" 
d="M82 867c-35 0 -64 28 -64 63c0 36 29 67 64 67c36 0 66 -31 66 -67c0 -35 -30 -63 -66 -63zM250 867c-36 0 -65 28 -65 63c0 36 29 67 65 67c33 0 63 -31 63 -67c0 -35 -28 -63 -63 -63zM100 129v543h-49v129h229v-129h-50v-543h50v-129h-229v129h49z" />
    <glyph glyph-name="Idotaccent.ss01" horiz-adv-x="331" 
d="M97 926c0 39 31 70 68 70s69 -33 69 -70s-32 -68 -69 -68s-68 31 -68 68zM100 129v543h-49v129h229v-129h-50v-543h50v-129h-229v129h49z" />
    <glyph glyph-name="Idotbelow.ss01" horiz-adv-x="331" 
d="M100 129v543h-49v129h229v-129h-50v-543h50v-129h-229v129h49zM97 -146c0 39 31 70 68 70s69 -33 69 -70s-32 -68 -69 -68s-68 31 -68 68z" />
    <glyph glyph-name="Igrave.ss01" horiz-adv-x="331" 
d="M0 1005h126l101 -131h-125zM100 129v543h-49v129h229v-129h-50v-543h50v-129h-229v129h49z" />
    <glyph glyph-name="Imacron.ss01" horiz-adv-x="331" 
d="M56 976h220v-99h-220v99zM100 129v543h-49v129h229v-129h-50v-543h50v-129h-229v129h49z" />
    <glyph glyph-name="Iogonek.ss01" horiz-adv-x="331" 
d="M303 -41l48 -64c-37 -32 -76 -48 -117 -48c-69 0 -111 43 -111 111c0 15 3 29 9 42h-81v129h49v543h-49v129h229v-129h-50v-543h50v-129c-27 0 -57 -14 -57 -38c0 -17 9 -25 27 -25c11 0 29 7 53 22z" />
    <glyph glyph-name="Itilde.ss01" horiz-adv-x="331" 
d="M41 864l-5 111c17 21 38 31 62 31c17 0 40 -6 69 -18c30 -11 53 -17 68 -17c20 0 39 9 56 28l5 -111c-18 -21 -38 -32 -61 -32c-17 0 -40 6 -70 17c-29 12 -52 18 -67 18c-21 0 -40 -9 -57 -27zM100 129v543h-49v129h229v-129h-50v-543h50v-129h-229v129h49z" />
    <glyph glyph-name="M.ss01" horiz-adv-x="850" 
d="M658 0v666c0 11 -3 14 -14 14h-80c-22 0 -40 -11 -54 -32c-13 -21 -20 -40 -20 -57v-591h-130v591c0 17 -7 36 -21 57s-32 32 -53 32h-80c-11 0 -14 -3 -14 -14v-666h-130v666c0 40 14 74 42 102s62 42 102 42h80c67 0 120 -44 139 -105c17 61 72 105 139 105h80
c40 0 74 -14 102 -42s42 -62 42 -102v-666h-130z" />
    <glyph glyph-name="Mdotaccent.ss01" horiz-adv-x="850" 
d="M658 0v666c0 11 -3 14 -14 14h-80c-22 0 -40 -11 -54 -32c-13 -21 -20 -40 -20 -57v-591h-130v591c0 17 -7 36 -21 57s-32 32 -53 32h-80c-11 0 -14 -3 -14 -14v-666h-130v666c0 40 14 74 42 102s62 42 102 42h80c67 0 120 -44 139 -105c17 61 72 105 139 105h80
c40 0 74 -14 102 -42s42 -62 42 -102v-666h-130zM355 926c0 39 31 70 68 70s69 -33 69 -70s-32 -68 -69 -68s-68 31 -68 68z" />
    <glyph glyph-name="R.ss01" horiz-adv-x="550" 
d="M400 387l131 -387h-133l-126 382h-71v-382h-130v800h290c41 0 75 -13 102 -40c28 -26 42 -59 42 -98v-136c0 -65 -42 -122 -105 -139zM201 512h160c11 0 14 3 14 14v136c0 8 -2 8 -11 8h-3h-160v-158z" />
    <glyph glyph-name="Racute.ss01" horiz-adv-x="550" 
d="M328 1005h125l-101 -131h-126zM531 0h-133l-126 382h-71v-382h-130v800h290c41 0 75 -13 102 -40c28 -26 42 -59 42 -98v-136c0 -65 -42 -122 -105 -139zM201 512h160c11 0 14 3 14 14v136c0 8 -2 8 -11 8h-3h-160v-158z" />
    <glyph glyph-name="Rcaron.ss01" horiz-adv-x="550" 
d="M113 1014h115l52 -58h3l52 58h115l-134 -158h-69zM531 0h-133l-126 382h-71v-382h-130v800h290c41 0 75 -13 102 -40c28 -26 42 -59 42 -98v-136c0 -65 -42 -122 -105 -139zM201 512h160c11 0 14 3 14 14v136c0 8 -2 8 -11 8h-3h-160v-158z" />
    <glyph glyph-name="Rcommaaccent.ss01" horiz-adv-x="550" 
d="M531 0h-133l-126 382h-71v-382h-130v800h290c41 0 75 -13 102 -40c28 -26 42 -59 42 -98v-136c0 -65 -42 -122 -105 -139zM201 512h160c11 0 14 3 14 14v136c0 8 -2 8 -11 8h-3h-160v-158zM342 -42v-168h-120v168h120z" />
    <glyph glyph-name="Rdotbelow.ss01" horiz-adv-x="550" 
d="M531 0h-133l-126 382h-71v-382h-130v800h290c41 0 75 -13 102 -40c28 -26 42 -59 42 -98v-136c0 -65 -42 -122 -105 -139zM201 512h160c11 0 14 3 14 14v136c0 8 -2 8 -11 8h-3h-160v-158zM217 -146c0 39 31 70 68 70s69 -33 69 -70s-32 -68 -69 -68s-68 31 -68 68z" />
    <glyph glyph-name="W.ss01" horiz-adv-x="755" 
d="M604 800h133l-132 -791c-1 -6 -6 -9 -16 -9h-123c-9 0 -14 3 -15 9l-73 543l-74 -543c-1 -6 -7 -9 -16 -9h-121h-3c-7 0 -12 3 -13 9l-133 791h133l76 -557l71 545h162l68 -537z" />
    <glyph glyph-name="Wacute.ss01" horiz-adv-x="755" 
d="M428 1005h125l-101 -131h-126zM737 800l-132 -791c-1 -6 -6 -9 -16 -9h-123c-9 0 -14 3 -15 9l-73 543l-74 -543c-1 -6 -7 -9 -16 -9h-121h-3c-7 0 -12 3 -13 9l-133 791h133l76 -557l71 545h162l68 -537l76 549h133z" />
    <glyph glyph-name="Wcircumflex.ss01" horiz-adv-x="755" 
d="M345 1035h77l134 -158h-115l-56 73h-3l-57 -73h-114zM737 800l-132 -791c-1 -6 -6 -9 -16 -9h-123c-9 0 -14 3 -15 9l-73 543l-74 -543c-1 -6 -7 -9 -16 -9h-121h-3c-7 0 -12 3 -13 9l-133 791h133l76 -557l71 545h162l68 -537l76 549h133z" />
    <glyph glyph-name="Wdieresis.ss01" horiz-adv-x="755" 
d="M300 867c-35 0 -64 28 -64 63c0 36 29 67 64 67c36 0 66 -31 66 -67c0 -35 -30 -63 -66 -63zM468 867c-36 0 -65 28 -65 63c0 36 29 67 65 67c33 0 63 -31 63 -67c0 -35 -28 -63 -63 -63zM737 800l-132 -791c-1 -6 -6 -9 -16 -9h-123c-9 0 -14 3 -15 9l-73 543l-74 -543
c-1 -6 -7 -9 -16 -9h-121h-3c-7 0 -12 3 -13 9l-133 791h133l76 -557l71 545h162l68 -537l76 549h133z" />
    <glyph glyph-name="Wgrave.ss01" horiz-adv-x="755" 
d="M219 1005h126l101 -131h-125zM737 800l-132 -791c-1 -6 -6 -9 -16 -9h-123c-9 0 -14 3 -15 9l-73 543l-74 -543c-1 -6 -7 -9 -16 -9h-121h-3c-7 0 -12 3 -13 9l-133 791h133l76 -557l71 545h162l68 -537l76 549h133z" />
    <glyph glyph-name="i.loclTRK" horiz-adv-x="299" 
d="M198 560v-418c0 -15 8 -22 24 -22h54v-130h-57c-43 0 -79 15 -109 44c-29 30 -44 66 -44 108v418h132zM64 686c0 39 31 70 68 70s69 -33 69 -70s-32 -68 -69 -68s-68 31 -68 68z" />
    <glyph glyph-name="a.ss01" horiz-adv-x="519" 
d="M483 120h29v-130h-32c-49 -1 -110 32 -135 79c-27 -15 -63 -32 -106 -51s-73 -28 -92 -28c-53 0 -96 44 -96 97v351c0 37 13 68 39 94s57 39 94 39h139c37 0 68 -13 94 -39s39 -57 39 -94v-292c0 -15 10 -26 27 -26zM181 438v-288c0 -11 4 -17 12 -17c21 0 65 18 133 55
v250v3h-3h-139h-3v-3z" />
    <glyph glyph-name="aacute.ss01" horiz-adv-x="519" 
d="M300 763h125l-101 -131h-126zM512 120v-130h-32c-49 -1 -110 32 -135 79c-27 -15 -63 -32 -106 -51s-73 -28 -92 -28c-53 0 -96 44 -96 97v351c0 37 13 68 39 94s57 39 94 39h139c37 0 68 -13 94 -39s39 -57 39 -94v-292c0 -15 10 -26 27 -26h29zM181 438v-288
c0 -11 4 -17 12 -17c21 0 65 18 133 55v250v3h-3h-139h-3v-3z" />
    <glyph glyph-name="abreve.ss01" horiz-adv-x="519" 
d="M279 748h74c0 -53 -43 -96 -96 -96s-96 43 -96 96h75c0 -13 7 -20 21 -20c15 0 22 7 22 20zM512 120v-130h-32c-49 -1 -110 32 -135 79c-27 -15 -63 -32 -106 -51s-73 -28 -92 -28c-53 0 -96 44 -96 97v351c0 37 13 68 39 94s57 39 94 39h139c37 0 68 -13 94 -39
s39 -57 39 -94v-292c0 -15 10 -26 27 -26h29zM181 438v-288c0 -11 4 -17 12 -17c21 0 65 18 133 55v250v3h-3h-139h-3v-3z" />
    <glyph glyph-name="acircumflex.ss01" horiz-adv-x="519" 
d="M217 793h77l134 -158h-115l-56 73h-3l-57 -73h-114zM512 120v-130h-32c-49 -1 -110 32 -135 79c-27 -15 -63 -32 -106 -51s-73 -28 -92 -28c-53 0 -96 44 -96 97v351c0 37 13 68 39 94s57 39 94 39h139c37 0 68 -13 94 -39s39 -57 39 -94v-292c0 -15 10 -26 27 -26h29z
M181 438v-288c0 -11 4 -17 12 -17c21 0 65 18 133 55v250v3h-3h-139h-3v-3z" />
    <glyph glyph-name="adieresis.ss01" horiz-adv-x="519" 
d="M173 625c-35 0 -64 28 -64 63c0 36 29 67 64 67c36 0 66 -31 66 -67c0 -35 -30 -63 -66 -63zM341 625c-36 0 -65 28 -65 63c0 36 29 67 65 67c33 0 63 -31 63 -67c0 -35 -30 -63 -63 -63zM512 120v-130h-32c-49 -1 -110 32 -135 79c-27 -15 -63 -32 -106 -51
s-73 -28 -92 -28c-53 0 -96 44 -96 97v351c0 37 13 68 39 94s57 39 94 39h139c37 0 68 -13 94 -39s39 -57 39 -94v-292c0 -15 10 -26 27 -26h29zM181 438v-288c0 -11 4 -17 12 -17c21 0 65 18 133 55v250v3h-3h-139h-3v-3z" />
    <glyph glyph-name="agrave.ss01" horiz-adv-x="519" 
d="M91 763h126l101 -131h-125zM512 120v-130h-32c-49 -1 -110 32 -135 79c-27 -15 -63 -32 -106 -51s-73 -28 -92 -28c-53 0 -96 44 -96 97v351c0 37 13 68 39 94s57 39 94 39h139c37 0 68 -13 94 -39s39 -57 39 -94v-292c0 -15 10 -26 27 -26h29zM181 438v-288
c0 -11 4 -17 12 -17c21 0 65 18 133 55v250v3h-3h-139h-3v-3z" />
    <glyph glyph-name="amacron.ss01" horiz-adv-x="519" 
d="M147 734h220v-99h-220v99zM512 120v-130h-32c-49 -1 -110 32 -135 79c-27 -15 -63 -32 -106 -51s-73 -28 -92 -28c-53 0 -96 44 -96 97v351c0 37 13 68 39 94s57 39 94 39h139c37 0 68 -13 94 -39s39 -57 39 -94v-292c0 -15 10 -26 27 -26h29zM181 438v-288
c0 -11 4 -17 12 -17c21 0 65 18 133 55v250v3h-3h-139h-3v-3z" />
    <glyph glyph-name="aogonek.ss01" horiz-adv-x="519" 
d="M534 -51l48 -64c-37 -32 -76 -48 -117 -48c-69 0 -111 43 -111 111c0 27 10 52 31 76c-16 12 -29 27 -40 45c-27 -15 -63 -32 -106 -51s-73 -28 -92 -28c-53 0 -96 44 -96 97v351c0 37 13 68 39 94s57 39 94 39h139c37 0 68 -13 94 -39s39 -57 39 -94v-292
c0 -15 10 -26 27 -26h29v-130h-1c-27 0 -57 -14 -57 -38c0 -17 9 -25 27 -25c11 0 29 7 53 22zM326 188v250v3h-3h-139h-3v-3v-288c0 -11 4 -17 12 -17c21 0 65 18 133 55z" />
    <glyph glyph-name="aring.ss01" horiz-adv-x="519" 
d="M257 833c35 0 64 -12 88 -37c24 -24 36 -53 36 -88s-12 -64 -36 -88s-53 -36 -88 -36s-64 12 -89 36c-24 24 -36 53 -36 88s12 64 36 88c24 25 54 37 89 37zM225 676c38 -45 109 26 64 64c-38 45 -109 -26 -64 -64zM512 120v-130h-32c-49 -1 -110 32 -135 79
c-27 -15 -63 -32 -106 -51s-73 -28 -92 -28c-53 0 -96 44 -96 97v351c0 37 13 68 39 94s57 39 94 39h139c37 0 68 -13 94 -39s39 -57 39 -94v-292c0 -15 10 -26 27 -26h29zM181 438v-288c0 -11 4 -17 12 -17c21 0 65 18 133 55v250v3h-3h-139h-3v-3z" />
    <glyph glyph-name="aringacute.ss01" horiz-adv-x="519" 
d="M307 985h125l-101 -131h-126zM261 835c35 0 64 -12 88 -37c24 -24 36 -53 36 -88s-12 -64 -36 -88s-53 -36 -88 -36s-64 12 -89 36c-24 24 -36 53 -36 88s12 64 36 88c24 25 54 37 89 37zM229 678c38 -45 109 26 64 64c-38 45 -109 -26 -64 -64zM512 120v-130h-32
c-49 -1 -110 32 -135 79c-27 -15 -63 -32 -106 -51s-73 -28 -92 -28c-53 0 -96 44 -96 97v351c0 37 13 68 39 94s57 39 94 39h139c37 0 68 -13 94 -39s39 -57 39 -94v-292c0 -15 10 -26 27 -26h29zM181 438v-288c0 -11 4 -17 12 -17c21 0 65 18 133 55v250v3h-3h-139h-3v-3z
" />
    <glyph glyph-name="atilde.ss01" horiz-adv-x="519" 
d="M132 622l-5 111c17 21 38 31 62 31c17 0 40 -6 69 -18c30 -11 53 -17 68 -17c20 0 39 9 56 28l5 -111c-18 -21 -38 -32 -61 -32c-17 0 -40 6 -70 17c-29 12 -52 18 -67 18c-21 0 -40 -9 -57 -27zM512 120v-130h-32c-49 -1 -110 32 -135 79c-27 -15 -63 -32 -106 -51
s-73 -28 -92 -28c-53 0 -96 44 -96 97v351c0 37 13 68 39 94s57 39 94 39h139c37 0 68 -13 94 -39s39 -57 39 -94v-292c0 -15 10 -26 27 -26h29zM181 438v-288c0 -11 4 -17 12 -17c21 0 65 18 133 55v250v3h-3h-139h-3v-3z" />
    <glyph glyph-name="g.ss01" horiz-adv-x="521" 
d="M486 570v-68h-46c17 -14 26 -36 26 -65v-154c0 -37 -13 -68 -39 -94s-57 -39 -94 -39h-62c-18 0 -27 -5 -27 -16c0 -10 9 -15 27 -15h62c81 0 133 -42 133 -110v-57c0 -68 -52 -110 -133 -110h-139c-81 0 -133 42 -133 110v57c0 45 21 78 62 97c-7 7 -11 17 -11 28
c0 13 6 24 18 33c-41 23 -69 67 -69 116v154c0 37 13 68 38 94c26 26 58 39 95 39h292zM336 293v134c0 9 -3 13 -10 13h-125c-7 0 -10 -4 -10 -13v-134c0 -9 3 -13 10 -13h125c7 0 10 4 10 13zM320 18h-113c-11 0 -16 -6 -16 -19v-37c0 -13 5 -19 16 -19h113
c11 0 16 6 16 19v37c0 13 -5 19 -16 19z" />
    <glyph glyph-name="gbreve.ss01" horiz-adv-x="521" 
d="M289 749h74c0 -53 -43 -96 -96 -96s-96 43 -96 96h75c0 -13 7 -20 21 -20c15 0 22 7 22 20zM486 502h-46c17 -14 26 -36 26 -65v-154c0 -37 -13 -68 -39 -94s-57 -39 -94 -39h-62c-18 0 -27 -5 -27 -16c0 -10 9 -15 27 -15h62c81 0 133 -42 133 -110v-57
c0 -68 -52 -110 -133 -110h-139c-81 0 -133 42 -133 110v57c0 45 21 78 62 97c-7 7 -11 17 -11 28c0 13 6 24 18 33c-41 23 -69 67 -69 116v154c0 37 13 68 38 94c26 26 58 39 95 39h292v-68zM336 293v134c0 9 -3 13 -10 13h-125c-7 0 -10 -4 -10 -13v-134
c0 -9 3 -13 10 -13h125c7 0 10 4 10 13zM320 18h-113c-11 0 -16 -6 -16 -19v-37c0 -13 5 -19 16 -19h113c11 0 16 6 16 19v37c0 13 -5 19 -16 19z" />
    <glyph glyph-name="gcircumflex.ss01" horiz-adv-x="521" 
d="M227 794h77l134 -158h-115l-56 73h-3l-57 -73h-114zM486 502h-46c17 -14 26 -36 26 -65v-154c0 -37 -13 -68 -39 -94s-57 -39 -94 -39h-62c-18 0 -27 -5 -27 -16c0 -10 9 -15 27 -15h62c81 0 133 -42 133 -110v-57c0 -68 -52 -110 -133 -110h-139c-81 0 -133 42 -133 110
v57c0 45 21 78 62 97c-7 7 -11 17 -11 28c0 13 6 24 18 33c-41 23 -69 67 -69 116v154c0 37 13 68 38 94c26 26 58 39 95 39h292v-68zM336 293v134c0 9 -3 13 -10 13h-125c-7 0 -10 -4 -10 -13v-134c0 -9 3 -13 10 -13h125c7 0 10 4 10 13zM320 18h-113
c-11 0 -16 -6 -16 -19v-37c0 -13 5 -19 16 -19h113c11 0 16 6 16 19v37c0 13 -5 19 -16 19z" />
    <glyph glyph-name="gcommaaccent.ss01" horiz-adv-x="521" 
d="M327 789v-168h-120v168h120zM486 502h-46c17 -14 26 -36 26 -65v-154c0 -37 -13 -68 -39 -94s-57 -39 -94 -39h-62c-18 0 -27 -5 -27 -16c0 -10 9 -15 27 -15h62c81 0 133 -42 133 -110v-57c0 -68 -52 -110 -133 -110h-139c-81 0 -133 42 -133 110v57c0 45 21 78 62 97
c-7 7 -11 17 -11 28c0 13 6 24 18 33c-41 23 -69 67 -69 116v154c0 37 13 68 38 94c26 26 58 39 95 39h292v-68zM336 293v134c0 9 -3 13 -10 13h-125c-7 0 -10 -4 -10 -13v-134c0 -9 3 -13 10 -13h125c7 0 10 4 10 13zM320 18h-113c-11 0 -16 -6 -16 -19v-37
c0 -13 5 -19 16 -19h113c11 0 16 6 16 19v37c0 13 -5 19 -16 19z" />
    <glyph glyph-name="gdotaccent.ss01" horiz-adv-x="521" 
d="M198 685c0 39 31 70 68 70s69 -33 69 -70s-32 -68 -69 -68s-68 31 -68 68zM486 502h-46c17 -14 26 -36 26 -65v-154c0 -37 -13 -68 -39 -94s-57 -39 -94 -39h-62c-18 0 -27 -5 -27 -16c0 -10 9 -15 27 -15h62c81 0 133 -42 133 -110v-57c0 -68 -52 -110 -133 -110h-139
c-81 0 -133 42 -133 110v57c0 45 21 78 62 97c-7 7 -11 17 -11 28c0 13 6 24 18 33c-41 23 -69 67 -69 116v154c0 37 13 68 38 94c26 26 58 39 95 39h292v-68zM336 293v134c0 9 -3 13 -10 13h-125c-7 0 -10 -4 -10 -13v-134c0 -9 3 -13 10 -13h125c7 0 10 4 10 13zM320 18
h-113c-11 0 -16 -6 -16 -19v-37c0 -13 5 -19 16 -19h113c11 0 16 6 16 19v37c0 13 -5 19 -16 19z" />
    <glyph glyph-name="y.ss01" horiz-adv-x="526" 
d="M465 560v-589c0 -37 -13 -69 -39 -94c-25 -26 -57 -39 -94 -39h-272v130h267c5 0 8 3 8 9v101c-83 -39 -143 -58 -178 -58c-53 0 -96 43 -96 96v444h130v-372c0 -15 5 -23 15 -23l129 41v354h130z" />
    <glyph glyph-name="yacute.ss01" horiz-adv-x="526" 
d="M465 560v-589c0 -37 -13 -69 -39 -94c-25 -26 -57 -39 -94 -39h-272v130h267c5 0 8 3 8 9v101c-83 -39 -143 -58 -178 -58c-53 0 -96 43 -96 96v444h130v-372c0 -15 5 -23 15 -23l129 41v354h130zM309 765h125l-101 -131h-126z" />
    <glyph glyph-name="ycircumflex.ss01" horiz-adv-x="526" 
d="M465 560v-589c0 -37 -13 -69 -39 -94c-25 -26 -57 -39 -94 -39h-272v130h267c5 0 8 3 8 9v101c-83 -39 -143 -58 -178 -58c-53 0 -96 43 -96 96v444h130v-372c0 -15 5 -23 15 -23l129 41v354h130zM226 795h77l134 -158h-115l-56 73h-3l-57 -73h-114z" />
    <glyph glyph-name="ydieresis.ss01" horiz-adv-x="526" 
d="M465 560v-589c0 -37 -13 -69 -39 -94c-25 -26 -57 -39 -94 -39h-272v130h267c5 0 8 3 8 9v101c-83 -39 -143 -58 -178 -58c-53 0 -96 43 -96 96v444h130v-372c0 -15 5 -23 15 -23l129 41v354h130zM181 627c-35 0 -64 28 -64 63c0 36 29 67 64 67c36 0 66 -31 66 -67
c0 -35 -30 -63 -66 -63zM349 627c-36 0 -65 28 -65 63c0 36 29 67 65 67c33 0 63 -31 63 -67c0 -35 -30 -63 -63 -63z" />
    <glyph glyph-name="ygrave.ss01" horiz-adv-x="526" 
d="M465 560v-589c0 -37 -13 -69 -39 -94c-25 -26 -57 -39 -94 -39h-272v130h267c5 0 8 3 8 9v101c-83 -39 -143 -58 -178 -58c-53 0 -96 43 -96 96v444h130v-372c0 -15 5 -23 15 -23l129 41v354h130zM99 765h126l101 -131h-125z" />
    <glyph glyph-name="ytilde.ss01" horiz-adv-x="526" 
d="M465 560v-589c0 -37 -13 -69 -39 -94c-25 -26 -57 -39 -94 -39h-272v130h267c5 0 8 3 8 9v101c-83 -39 -143 -58 -178 -58c-53 0 -96 43 -96 96v444h130v-372c0 -15 5 -23 15 -23l129 41v354h130zM140 624l-5 111c17 21 38 31 62 31c17 0 40 -6 69 -18
c30 -11 53 -17 68 -17c20 0 39 9 56 28l5 -111c-18 -21 -38 -32 -61 -32c-17 0 -40 6 -70 17c-29 12 -52 18 -67 18c-21 0 -40 -9 -57 -27z" />
    <glyph glyph-name="c_h" horiz-adv-x="971" 
d="M640 765v-252c84 37 144 56 179 56c53 0 96 -43 96 -96v-473h-130v407c0 12 -3 18 -10 18l-135 -42v-260c0 -37 -13 -68 -39 -94s-57 -39 -94 -39h-323c-37 0 -68 13 -94 39s-39 57 -39 94v314c0 37 13 68 38 94c26 26 58 39 95 39h139c37 0 68 -13 94 -39s39 -57 39 -94
v-75h-130v65c0 9 -3 13 -9 13h-127c-6 0 -9 -4 -9 -13v-294c0 -9 3 -13 9 -13h311c6 0 9 4 9 13v632h130z" />
    <glyph glyph-name="zero.lf" horiz-adv-x="517" 
d="M200 775h117c40 0 74 -14 102 -42s42 -62 42 -102v-497c0 -40 -14 -74 -42 -102s-62 -42 -102 -42h-117c-40 0 -74 14 -102 42s-42 62 -42 102v497c0 40 14 74 42 102s62 42 102 42zM317 645h-117c-11 0 -14 -3 -14 -14v-497c0 -11 3 -14 14 -14h117c11 0 14 3 14 14v497
c0 11 -3 14 -14 14z" />
    <glyph glyph-name="one.lf" horiz-adv-x="318" 
d="M247 765v-765h-130v635h-69v130h199z" />
    <glyph glyph-name="two.lf" horiz-adv-x="513" 
d="M190 776h133c40 0 74 -15 102 -45s42 -66 42 -109v-31c0 -28 -4 -55 -11 -81c-15 -51 -29 -79 -66 -118c-18 -19 -32 -34 -43 -43c-10 -9 -26 -21 -49 -38l-43 -33c-51 -41 -76 -90 -76 -148h288v-130h-421v70c0 143 31 232 107 293c13 11 31 23 52 37l51 35
c44 33 81 77 81 156v31c0 19 -5 24 -24 24h-113c-19 0 -24 -7 -24 -34h-130c0 46 14 85 42 116c28 32 62 48 102 48z" />
    <glyph glyph-name="three.lf" horiz-adv-x="513" 
d="M450 651v-113c0 -65 -16 -104 -48 -118c37 -13 55 -53 55 -120v-175c0 -88 -50 -135 -133 -135h-132c-83 0 -136 47 -136 135v157h130v-146c0 -11 4 -16 11 -16h121c6 0 9 5 9 16v164c0 29 -11 40 -39 40h-68v130h68c23 0 32 19 32 68v98c0 8 -3 12 -10 12h-122
c-8 0 -12 -4 -12 -12v-19h-130v19c0 89 56 142 137 142h134c81 0 133 -48 133 -127z" />
    <glyph glyph-name="four.lf" horiz-adv-x="562" 
d="M445 765v-521h52v-130h-52v-114h-130v114h-307l202 651h235zM315 635h-18l-105 -391h123v391z" />
    <glyph glyph-name="five.lf" horiz-adv-x="516" 
d="M469 764v-129h-252v-154h98c115 0 153 -53 153 -166v-178c0 -97 -58 -147 -153 -147h-93c-96 0 -157 50 -157 147v145h130v-145c0 -11 9 -17 27 -17h92c16 0 24 6 24 17v178c0 24 -8 36 -23 36h-228v413h382z" />
    <glyph glyph-name="six.lf" horiz-adv-x="508" 
d="M462 567h-130v64c0 10 -4 15 -13 15h-119c-9 0 -14 -5 -14 -15v-197h132c40 0 74 -14 101 -42c28 -28 42 -62 42 -101v-157c0 -39 -14 -73 -43 -101c-28 -28 -62 -42 -102 -42h-117c-40 0 -74 14 -102 42c-27 28 -41 62 -41 101v499c0 37 13 70 40 99s59 44 94 44h139
c35 0 66 -15 93 -44s40 -63 40 -101v-64zM318 304h-119c-9 0 -13 -5 -13 -14v-156c0 -9 4 -13 13 -13h119c9 0 13 4 13 13v157c0 9 -4 13 -13 13z" />
    <glyph glyph-name="seven.lf" horiz-adv-x="421" 
d="M414 770l-239 -770h-130l200 640h-237v130h406z" />
    <glyph glyph-name="eight.lf" horiz-adv-x="519" 
d="M456 632v-96c0 -61 -21 -100 -63 -118c47 -17 70 -57 70 -120v-160c0 -40 -14 -75 -43 -104s-63 -43 -104 -43h-113c-41 0 -75 14 -104 43s-43 64 -43 104v160c0 63 23 103 70 120c-42 18 -63 57 -63 118v96c0 39 14 73 41 101s60 42 99 42h113c39 0 72 -14 99 -42
s41 -62 41 -101zM193 632v-96c0 -20 5 -35 16 -45h102c10 10 15 25 15 45v96c0 9 -4 13 -11 13h-111c-7 0 -11 -4 -11 -13zM333 138v160c0 22 -7 38 -22 48h-102c-15 -9 -23 -25 -23 -48v-160c0 -11 6 -17 17 -17h113c11 0 17 6 17 17z" />
    <glyph glyph-name="nine.lf" horiz-adv-x="508" 
d="M192 778h117c40 0 74 -14 101 -42c28 -28 42 -62 42 -101v-502c0 -37 -14 -70 -41 -99s-58 -44 -93 -44h-139c-35 0 -66 15 -93 44s-40 63 -40 101v64h130v-64c0 -10 4 -15 13 -15h119c9 0 14 5 14 15v200h-132c-40 0 -74 14 -102 42c-27 28 -41 62 -41 101v157
c0 39 14 73 42 101c29 28 63 42 103 42zM190 465h119c9 0 13 5 13 14v156c0 9 -4 13 -13 13h-119c-9 0 -13 -4 -13 -13v-157c0 -9 4 -13 13 -13z" />
    <glyph glyph-name="commaaccentinvert" horiz-adv-x="490" 
d="M190 800h120v-168h-120v168z" />
    </font>
</defs>
</svg>
